<?xml version="1.0" encoding="UTF-8" standalone="no"?>
<svg
   width="64"
   height="64"
   version="1.1"
   viewBox="0 0 64 64"
   id="svg4"
   sodipodi:docname="Papirus-Team-Papirus-Apps-Selinux.svg"
   xml:space="preserve"
   inkscape:version="1.4.2 (ebf0e940d0, 2025-05-08)"
   xmlns:inkscape="http://www.inkscape.org/namespaces/inkscape"
   xmlns:sodipodi="http://sodipodi.sourceforge.net/DTD/sodipodi-0.dtd"
   xmlns:xlink="http://www.w3.org/1999/xlink"
   xmlns="http://www.w3.org/2000/svg"
   xmlns:svg="http://www.w3.org/2000/svg"><defs
     id="defs4"><clipPath
       id="bb"><path
         d="m434.3 950.41a49 49 0 0 1-27.733-36.996l48.436-7.4155z"
         fill-rule="evenodd"
         id="path1" /></clipPath><clipPath
       id="ba"><path
         d="m483.08 946.15a49 49 0 0 1-50.88 3.2214l22.796-43.375z"
         fill-rule="evenodd"
         id="path2-3" /></clipPath><clipPath
       id="bd"><path
         d="m404.5 131.59c-1.2835-0.04-2.5108 0.32416-3.4688 1.125l-5.4062 4.5625c-2.5545 2.1356-2.3497 6.5662 0.46875 9.9375l5.0625 6.0625c0.0515 2.5406 1.0401 5.2556 2.9688 7.5625 3.9098 4.6767 10.139 5.8578 13.969 2.6562l4.7812-4c3.8295-3.2015 3.7535-9.542-0.15625-14.219-1.9286-2.3069-4.415-3.7491-6.9062-4.25l-5.0625-6.0625c-1.7616-2.1071-4.1108-3.3083-6.25-3.375z"
         fill-rule="evenodd"
         id="path3-6" /></clipPath><clipPath
       id="bc"><path
         d="m311.59 71.094c-4.6265-0.0012-8.5957 2.5067-9.5938 6.4375l-1.5312 6.0625c-1.2284 4.838 2.5292 9.9373 8.4375 11.438 2.9144 0.73999 5.7812 0.45954 8.0938-0.59375l7.6562 1.9375c4.2591 1.0814 8.3681-0.64783 9.1875-3.875l1.7188-6.875c0.8194-3.2272-1.9284-6.6998-6.1875-7.7812l-7.6562-1.9375c-1.5299-2.0289-3.9294-3.635-6.8438-4.375-1.1078-0.28128-2.2136-0.43723-3.2812-0.4375z"
         fill-rule="evenodd"
         id="path4-7" /></clipPath><clipPath
       id="be"><path
         d="m454.08 954.99a49 49 0 0 1-45.338-32.818l46.254-16.173z"
         fill-rule="evenodd"
         id="path5" /></clipPath><filter
       id="ak"
       x="-0.029326531"
       y="-0.029326314"
       width="1.0586531"
       height="1.0586526"><feGaussianBlur
         stdDeviation=".98"
         id="feGaussianBlur5" /></filter><filter
       id="ah"
       x="-0.015609361"
       y="-0.0060521039"
       width="1.0321266"
       height="1.0112419"><feGaussianBlur
         stdDeviation=".42892"
         id="feGaussianBlur6" /></filter><filter
       id="ag"
       x="-0.015822213"
       y="-0.0059504066"
       width="1.0324685"
       height="1.0110594"><feGaussianBlur
         stdDeviation=".44061"
         id="feGaussianBlur7" /></filter><filter
       id="f"
       x="-0.0078792967"
       y="-0.0090617881"
       width="1.0155785"
       height="1.0168325"><feGaussianBlur
         stdDeviation=".47187"
         id="feGaussianBlur8" /></filter><filter
       id="an"
       x="-0.013392919"
       y="-0.015486846"
       width="1.0266127"
       height="1.0296993"><feGaussianBlur
         stdDeviation=".96963"
         id="feGaussianBlur9" /></filter><filter
       id="au"
       x="-0.093376505"
       y="-0.06164943"
       width="1.2138869"
       height="1.1243792"><feGaussianBlur
         stdDeviation="2.29003"
         id="feGaussianBlur10" /></filter><filter
       id="ap"
       x="-0.082830032"
       y="-0.06892855"
       width="1.1657066"
       height="1.1540819"><feGaussianBlur
         stdDeviation="6.92031"
         id="feGaussianBlur11" /></filter><filter
       id="al"
       x="-0.049651289"
       y="-0.042576511"
       width="1.0973914"
       height="1.0758351"><feGaussianBlur
         stdDeviation="2.02799"
         id="feGaussianBlur12" /></filter><filter
       id="az"
       x="-0.2305536"
       y="-0.10469426"
       width="1.4611072"
       height="1.2093885"><feGaussianBlur
         stdDeviation="2.13752"
         id="feGaussianBlur13" /></filter><filter
       id="ay"
       x="-0.15121523"
       y="-0.07032303"
       width="1.3024305"
       height="1.1406461"><feGaussianBlur
         stdDeviation="1.39055"
         id="feGaussianBlur14" /></filter><filter
       id="aj"
       x="-0.10510774"
       y="-0.13980806"
       width="1.2102155"
       height="1.2796161"><feGaussianBlur
         stdDeviation="1.91572"
         id="feGaussianBlur15" /></filter><filter
       id="ai"
       x="-0.41299753"
       y="-0.14624439"
       width="1.8259951"
       height="1.2924888"><feGaussianBlur
         stdDeviation="2.9858"
         id="feGaussianBlur16" /></filter><filter
       id="aq"
       x="-0.23534131"
       y="-0.18003088"
       width="1.4706095"
       height="1.3600618"><feGaussianBlur
         stdDeviation="1.61853"
         id="feGaussianBlur17" /></filter><filter
       id="ao"
       x="-0.44774401"
       y="-0.42649192"
       width="1.8957969"
       height="1.8561403"><feGaussianBlur
         stdDeviation="2.77603"
         id="feGaussianBlur18" /></filter><filter
       id="ax"
       x="-0.076169752"
       y="-0.33019318"
       width="1.1461543"
       height="1.6515561"><feGaussianBlur
         stdDeviation="2.86179"
         id="feGaussianBlur19" /></filter><filter
       id="aw"
       x="-0.27537776"
       y="-0.2192359"
       width="1.5507555"
       height="1.4384718"><feGaussianBlur
         stdDeviation="4.0671"
         id="feGaussianBlur20" /></filter><filter
       id="av"
       x="-0.19729793"
       y="-0.076657369"
       width="1.3591503"
       height="1.1626691"><feGaussianBlur
         stdDeviation="4.20616"
         id="feGaussianBlur21" /></filter><filter
       id="at"
       x="-0.066853035"
       y="-0.070536971"
       width="1.1478248"
       height="1.1545875"><feGaussianBlur
         stdDeviation="2.9711"
         id="feGaussianBlur22" /></filter><filter
       id="as"
       x="-0.13059733"
       y="-0.19143214"
       width="1.2404614"
       height="1.4405769"><feGaussianBlur
         stdDeviation="2.37142"
         id="feGaussianBlur23" /></filter><filter
       id="ar"
       x="-0.49224657"
       y="-0.078294532"
       width="1.984461"
       height="1.1565891"><feGaussianBlur
         stdDeviation="1.91686"
         id="feGaussianBlur24" /></filter><filter
       id="am"
       x="-0.38646957"
       y="-0.356938"
       width="1.7729408"
       height="1.7144407"><feGaussianBlur
         stdDeviation="6.16326"
         id="feGaussianBlur25" /></filter><linearGradient
       id="b"><stop
         offset="0"
         id="stop25" /><stop
         stop-opacity="0"
         offset="1"
         id="stop26" /></linearGradient><linearGradient
       id="a"><stop
         stop-color="#fff"
         offset="0"
         id="stop27" /><stop
         stop-color="#fff"
         stop-opacity="0"
         offset="1"
         id="stop28" /></linearGradient><linearGradient
       id="v"
       x1="491.46"
       x2="409.19"
       y1="876.5"
       y2="929.37"
       gradientUnits="userSpaceOnUse"><stop
         stop-color="#fff"
         offset="0"
         id="stop29" /><stop
         stop-color="#444"
         offset="1"
         id="stop30" /></linearGradient><linearGradient
       id="d"
       x2="0"
       y1="621.6"
       y2="605.52"
       gradientUnits="userSpaceOnUse"><stop
         stop-color="#ecf2f9"
         offset="0"
         id="stop31" /><stop
         stop-color="#5c5c5c"
         offset="1"
         id="stop32" /></linearGradient><linearGradient
       id="c"
       x1="538.36"
       x2="513.36"
       y1="595.56"
       y2="633.66"
       gradientUnits="userSpaceOnUse"><stop
         stop-color="#4c4c4c"
         offset="0"
         id="stop33" /><stop
         stop-color="#fff"
         stop-opacity=".93725"
         offset="1"
         id="stop34" /></linearGradient><linearGradient
       id="u"
       x1="331.8"
       x2="351.75"
       gradientUnits="userSpaceOnUse"><stop
         stop-color="#383838"
         offset="0"
         id="stop35" /><stop
         stop-color="#3b3b3b"
         offset=".05755"
         id="stop36" /><stop
         stop-color="#626463"
         offset=".07978"
         id="stop37" /><stop
         stop-color="#bfbfbf"
         offset=".1236"
         id="stop38" /><stop
         stop-color="#808080"
         offset=".18899"
         id="stop39" /><stop
         stop-color="#e0e0e0"
         offset=".25765"
         id="stop40" /><stop
         stop-color="#ececec"
         offset=".37406"
         id="stop41" /><stop
         stop-color="#828282"
         offset=".52577"
         id="stop42" /><stop
         stop-color="#818181"
         offset=".57286"
         id="stop43" /><stop
         stop-color="#acacac"
         offset=".67356"
         id="stop44" /><stop
         stop-color="#bcbcbc"
         offset=".73765"
         id="stop45" /><stop
         stop-color="#505050"
         offset=".86452"
         id="stop46" /><stop
         stop-color="#333"
         offset=".90768"
         id="stop47" /><stop
         stop-color="#7a7a7c"
         offset=".96261"
         id="stop48" /><stop
         stop-color="#c9c6c1"
         offset="1"
         id="stop49" /></linearGradient><linearGradient
       id="ac"
       x1="187.57"
       x2="184.39"
       y1="423.83"
       y2="513.83"
       gradientUnits="userSpaceOnUse"><stop
         stop-color="#fff"
         stop-opacity="0"
         offset="0"
         id="stop50" /><stop
         stop-color="#fff"
         stop-opacity=".60833"
         offset=".5"
         id="stop51" /><stop
         stop-color="#fff"
         stop-opacity="0"
         offset="1"
         id="stop52" /></linearGradient><linearGradient
       id="ab"
       x1="26.411"
       x2="22.868"
       y1="442.28"
       y2="516.91"
       gradientUnits="userSpaceOnUse"><stop
         stop-color="#fff"
         stop-opacity="0"
         offset="0"
         id="stop53" /><stop
         stop-color="#fff"
         stop-opacity=".26235"
         offset=".74172"
         id="stop54" /><stop
         stop-color="#fff"
         stop-opacity="0"
         offset="1"
         id="stop55" /></linearGradient><linearGradient
       id="aa"
       x2="0"
       y1="526.71"
       y2="660.25"
       gradientUnits="userSpaceOnUse"><stop
         stop-color="#fff"
         stop-opacity="0"
         offset="0"
         id="stop56" /><stop
         stop-color="#fff"
         offset=".39645"
         id="stop57" /><stop
         stop-color="#fff"
         stop-opacity="0"
         offset="1"
         id="stop58" /></linearGradient><linearGradient
       id="z"
       x1="168.81"
       x2="271.84"
       gradientUnits="userSpaceOnUse"><stop
         stop-color="#fff"
         stop-opacity="0"
         offset="0"
         id="stop59" /><stop
         stop-color="#fff"
         stop-opacity=".78"
         offset=".36298"
         id="stop60" /><stop
         stop-color="#fff"
         stop-opacity=".225"
         offset=".64736"
         id="stop61" /><stop
         stop-color="#fff"
         stop-opacity="0"
         offset="1"
         id="stop62" /></linearGradient><linearGradient
       id="y"
       x2="0"
       y1="558.61"
       y2="701.62"
       gradientUnits="userSpaceOnUse"><stop
         stop-color="#fff"
         stop-opacity="0"
         offset="0"
         id="stop63" /><stop
         stop-color="#fff"
         stop-opacity=".42314"
         offset=".4858"
         id="stop64" /><stop
         stop-color="#fff"
         stop-opacity="0"
         offset="1"
         id="stop65" /></linearGradient><linearGradient
       id="x"
       x1="84.474"
       x2="138.33"
       gradientUnits="userSpaceOnUse"><stop
         stop-color="#fff"
         stop-opacity="0"
         offset="0"
         id="stop66" /><stop
         stop-color="#fff"
         offset=".23332"
         id="stop67" /><stop
         stop-color="#fff"
         stop-opacity="0"
         offset="1"
         id="stop68" /></linearGradient><linearGradient
       id="ae"
       x2="0"
       y1="940.54"
       y2="915.6"
       gradientUnits="userSpaceOnUse"
       xlink:href="#b" /><linearGradient
       id="ad"
       x1="472.35"
       x2="459.75"
       y1="863.96"
       y2="893.08"
       gradientUnits="userSpaceOnUse"
       xlink:href="#b" /><linearGradient
       id="t"
       x1="414.54"
       x2="455"
       y1="933.22"
       y2="906"
       gradientUnits="userSpaceOnUse"
       xlink:href="#a" /><linearGradient
       id="s"
       x1="458.34"
       x2="457.2"
       y1="953.1"
       y2="911.24"
       gradientUnits="userSpaceOnUse"
       xlink:href="#a" /><linearGradient
       id="af"
       x1="423.16"
       x2="441.58"
       y1="938"
       y2="917.74"
       gradientUnits="userSpaceOnUse"
       xlink:href="#a" /><linearGradient
       id="w"
       x2="0"
       y1="562.28"
       y2="80.903"
       gradientUnits="userSpaceOnUse"
       xlink:href="#b" /><radialGradient
       id="i"
       cx="455"
       cy="906"
       r="49"
       gradientUnits="userSpaceOnUse"><stop
         offset="0"
         id="stop69" /><stop
         stop-opacity=".88333"
         offset=".43371"
         id="stop70" /><stop
         stop-opacity=".43922"
         offset=".59934"
         id="stop71" /><stop
         stop-opacity="0"
         offset="1"
         id="stop72" /></radialGradient><radialGradient
       id="r"
       cx="455"
       cy="906"
       r="49.897"
       fx="492.08"
       fy="877.89"
       gradientUnits="userSpaceOnUse"><stop
         stop-color="#fff"
         offset="0"
         id="stop73" /><stop
         stop-color="#414141"
         offset="1"
         id="stop74" /></radialGradient><radialGradient
       id="q"
       cx="455"
       cy="906"
       r="50.05"
       gradientUnits="userSpaceOnUse"><stop
         stop-color="#fff"
         stop-opacity=".825"
         offset="0"
         id="stop75" /><stop
         stop-color="#393939"
         stop-opacity="0"
         offset=".54622"
         id="stop76" /><stop
         stop-opacity=".65"
         offset="1"
         id="stop77" /></radialGradient><radialGradient
       id="p"
       cx="285.23"
       cy="45.346"
       r="107.8"
       gradientTransform="matrix(-1.6716,1.5242,-0.50764,-0.55674,792.01,-220.95)"
       gradientUnits="userSpaceOnUse"><stop
         stop-color="#8c8c8c"
         offset="0"
         id="stop78" /><stop
         stop-color="#515151"
         offset="1"
         id="stop79" /></radialGradient><radialGradient
       id="m"
       cx="258.55"
       cy="83.659"
       r="17.735"
       fx="248.41"
       fy="84.938"
       gradientTransform="matrix(-0.50489,-0.19154,0.28846,-0.76039,323.81,262.02)"
       gradientUnits="userSpaceOnUse"><stop
         stop-color="#1c1c1c"
         offset="0"
         id="stop80" /><stop
         offset="1"
         id="stop81" /></radialGradient><radialGradient
       id="l"
       cx="344.5"
       cy="154.76"
       r="15.932"
       fx="348.98"
       fy="152.33"
       gradientTransform="matrix(0.66984,-2.3089e-8,2.5023e-8,0.72593,88.779,107.82)"
       gradientUnits="userSpaceOnUse"><stop
         stop-color="#151515"
         offset="0"
         id="stop82" /><stop
         offset="1"
         id="stop83" /></radialGradient><radialGradient
       id="k"
       cx="315.16"
       cy="181.58"
       r="51.939"
       gradientTransform="matrix(-0.92632,-0.36765,1.8033,-4.5434,243.55,1104.6)"
       gradientUnits="userSpaceOnUse"><stop
         stop-color="#b1b2af"
         offset="0"
         id="stop84" /><stop
         stop-color="#585955"
         offset="1"
         id="stop85" /></radialGradient><radialGradient
       id="h"
       cx="326.85"
       cy="174.06"
       r="47.315"
       gradientTransform="matrix(-0.55049,-0.19999,1.9088,-5.254,121.77,1149.5)"
       gradientUnits="userSpaceOnUse"
       xlink:href="#a" /><radialGradient
       id="g"
       cx="294.49"
       cy="178.65"
       r="46.974"
       gradientTransform="matrix(-0.55602,-0.22746,2.4519,-5.9936,-6.8796,1315.3)"
       gradientUnits="userSpaceOnUse"
       xlink:href="#b" /><radialGradient
       id="e"
       cx="316.33"
       cy="118.02"
       r="99.173"
       gradientTransform="matrix(1,0,0,0.91331,-27.068,82.203)"
       gradientUnits="userSpaceOnUse"
       xlink:href="#b" /><radialGradient
       id="o"
       cx="419.2"
       cy="144.15"
       r="14.215"
       fx="417.92"
       fy="144.87"
       gradientTransform="matrix(-1.1387,-1.2504,1.2984,-1.1825,710.71,842.7)"
       gradientUnits="userSpaceOnUse"
       xlink:href="#a" /><radialGradient
       id="n"
       cx="322.08"
       cy="77.349"
       r="14.688"
       gradientTransform="matrix(-1.4815,-0.55514,0.32547,-0.86856,786.38,334.78)"
       gradientUnits="userSpaceOnUse"
       xlink:href="#a" /><radialGradient
       id="j"
       cx="304.46"
       cy="43.48"
       r="103.5"
       gradientTransform="matrix(-1.7354,1.392,-0.16766,-0.20902,833.63,-231.42)"
       gradientUnits="userSpaceOnUse"
       xlink:href="#a" /></defs><sodipodi:namedview
     id="namedview4"
     pagecolor="#ffffff"
     bordercolor="#000000"
     borderopacity="0.25"
     inkscape:showpageshadow="2"
     inkscape:pageopacity="0.0"
     inkscape:pagecheckerboard="0"
     inkscape:deskcolor="#d1d1d1"
     inkscape:zoom="8.76"
     inkscape:cx="31.906393"
     inkscape:cy="31.906393"
     inkscape:window-width="1440"
     inkscape:window-height="887"
     inkscape:window-x="0"
     inkscape:window-y="0"
     inkscape:window-maximized="1"
     inkscape:current-layer="svg4" /><circle
     style="opacity:0.2"
     cx="32"
     cy="33"
     r="28"
     id="circle1" /><circle
     style="fill:#4f4f4f"
     cx="32"
     cy="32"
     r="28"
     id="circle2" /><path
     style="opacity:0.2"
     d="m 30.159895,25.718168 v 2 h 6 v 2 h -8 v 6 h -2 v -6 h -2 v 14 h 2 v -6 h 2 v 6 l 4,4 h 13 l 2,-2 h 3 v 2 h 2 l 2,-1.9996 v -12 l -2,-2.0004 h -2 v 2 l -1.75002,4e-4 -4,-4 h -6.25 v -2 l 6,-4e-4 v -2 z m 0,6 h 13 l 4,4 h 5 v 8 h -6 l -2,2 h -10.75 l -3.25,-3.4 z"
     id="path2" /><path
     style="display:inline;fill:#ffa92c"
     d="m 30.159895,24.718218 v 2 h 6 v 2 h -8 v 6 h -2 v -6 h -2 v 14 h 2 v -6 h 2 v 6 l 4,4 h 13 l 2,-2 h 3 v 2 h 2 l 2,-1.9996 v -12 l -2,-2.0004 h -2 v 2 l -1.75002,4e-4 -4,-4 h -6.25 v -2 l 6,-4e-4 v -2 z m 0,6 h 13 l 4,4 h 5 v 8 h -6 l -2,2 h -10.75 l -3.25,-3.4 z"
     id="path3" /><path
     style="opacity:0.1;fill:#ffffff"
     d="M 31.998047 4 A 28 28 0 0 0 4 32 A 28 28 0 0 0 4.0175781 32.492188 A 28 28 0 0 1 31.998047 5 L 32 5 A 28 28 0 0 1 59.972656 32.5 A 28 28 0 0 0 59.998047 32 A 28 28 0 0 0 32 4 L 31.998047 4 z"
     id="path4" /><g
     id="g11"
     transform="matrix(0.16656036,0,0,0.16656036,3.6353504,10.541427)"><g
       id="#acb3baff"><path
         fill="#acb3ba"
         opacity="1"
         d="m 44.46,49.32 c 2.89,-3.18 7.58,-1.61 11.35,-1.77 3.64,0.97 2.44,5.61 2.53,8.42 -0.01,3.3 -3.97,3.24 -6.33,3.16 -2.55,-0.18 -6.81,0.78 -7.42,-2.75 -0.14,-2.35 -0.11,-4.71 -0.13,-7.06 z"
         id="path1-5" /><path
         fill="#acb3ba"
         opacity="1"
         d="m 81.44,47.59 c 3.91,0.06 8.66,-1.41 11.77,1.72 0,2.33 0.03,4.66 -0.06,6.99 -0.7,3.29 -4.61,2.82 -7.16,2.83 -2.29,-0.07 -5.66,0.47 -6.6,-2.29 0.05,-3.06 -1.35,-7.49 2.05,-9.25 z"
         id="path2-35" /><path
         fill="#acb3ba"
         opacity="1"
         d="m 23.83,92.87 c 2.28,-0.61 4.71,-0.91 6.85,0.34 1,1.38 2.04,2.93 1.81,4.73 0.01,7.97 -0.05,15.95 0,23.92 0.16,8.65 5.56,16.46 12.58,21.17 13.96,9.45 33.81,9.34 47.66,-0.27 6.7,-4.73 12,-12.26 12.15,-20.68 0.07,-8.04 -0.04,-16.09 0.02,-24.13 -0.16,-1.92 1.03,-3.48 1.83,-5.11 2.28,-0.56 4.72,-0.92 6.81,0.44 1.26,1.27 1.96,2.97 1.81,4.77 0,7.63 -0.02,15.27 0,22.91 0.09,9.07 -3.84,17.9 -10.01,24.46 -7.74,8.22 -18.57,13.19 -29.7,14.58 0.43,7.25 -1.19,14.86 1.51,21.8 3.03,7.49 10.7,12.85 18.83,12.8 9.29,0 18.59,0.09 27.87,-0.04 5.87,-0.17 10.67,-5.75 10.32,-11.55 0.01,-10.73 7.94,-20.77 18.29,-23.45 7.18,-1.63 14.62,-0.56 21.91,-0.84 -1.11,4.52 -1.14,9.27 -0.01,13.8 -5.45,0.1 -10.91,-0.13 -16.36,0.1 -5.7,0.3 -10.33,5.71 -10.07,11.37 0.2,12.87 -11.17,24.23 -23.93,24.57 -8.65,0.06 -17.31,-0.02 -25.96,0.03 -9.44,0.37 -19.01,-3.24 -25.75,-9.88 C 65.88,192.57 62,183.88 61.79,175 c -0.08,-5 0.03,-10.01 -0.02,-15.01 -13.78,-1.66 -27.26,-9.02 -34.61,-21.03 -3.31,-5.37 -5.11,-11.64 -5.08,-17.95 0,-7.7 0,-15.4 -0.01,-23.1 -0.18,-1.88 1.02,-3.42 1.76,-5.04 z"
         id="path3-62" /><path
         fill="#acb3ba"
         opacity="1"
         d="m 202.44,162.4 c 2.87,-1.54 6.5,2.6 4.24,5.16 -1.4,2.23 -4.92,1.99 -6.01,-0.38 -1.06,-1.72 0.03,-4.02 1.77,-4.78 z"
         id="path4-9" /></g><g
       id="#f1f1f1ff"><path
         fill="#f1f1f1"
         opacity="1"
         d="m 28.27,54.28 c 4.24,-4.21 10.45,-5.28 16.19,-4.96 0.02,2.35 -0.01,4.71 0.13,7.06 -5.25,-0.66 -12.36,0.73 -13.8,6.66 -0.26,10.05 -0.02,20.11 -0.11,30.17 -2.14,-1.25 -4.57,-0.95 -6.85,-0.34 -0.1,-9.61 -0.04,-19.23 -0.05,-28.85 -0.01,-3.71 1.85,-7.23 4.49,-9.74 z"
         id="path5-1" /><path
         fill="#f1f1f1"
         opacity="1"
         d="m 93.21,49.31 c 4.83,-0.17 9.87,0.44 13.91,3.31 3.72,2.52 6.45,6.76 6.42,11.35 0.03,9.77 0.01,19.54 0,29.31 -2.09,-1.36 -4.53,-1 -6.81,-0.44 -0.15,-9.81 0.09,-19.63 -0.12,-29.44 -1.06,-6.09 -8.22,-7.66 -13.46,-7.1 0.09,-2.33 0.06,-4.66 0.06,-6.99 z"
         id="path6" /><path
         fill="#f1f1f1"
         opacity="1"
         d="m 174.37,158.72 c 3.26,-15.84 20.77,-26.71 36.42,-22.52 13.76,3.04 24.19,16.7 23.13,30.82 -0.21,15.18 -13.73,28.54 -28.87,28.78 -14.08,0.91 -27.75,-9.5 -30.69,-23.28 -1.13,-4.53 -1.1,-9.28 0.01,-13.8 m 24.06,-9.11 c -7.17,2.35 -12.23,9.91 -11.45,17.45 0.58,8.84 9.07,16.22 17.94,15.36 10.29,-0.3 18.31,-11.63 15.05,-21.43 -2.31,-8.98 -12.8,-14.59 -21.54,-11.38 z"
         id="path7" /></g><g
       id="#40596bff"><path
         fill="#40596b"
         opacity="1"
         d="m 198.43,149.61 c 8.74,-3.21 19.23,2.4 21.54,11.38 3.26,9.8 -4.76,21.13 -15.05,21.43 -8.87,0.86 -17.36,-6.52 -17.94,-15.36 -0.78,-7.54 4.28,-15.1 11.45,-17.45 m 4.01,12.79 c -1.74,0.76 -2.83,3.06 -1.77,4.78 1.09,2.37 4.61,2.61 6.01,0.38 2.26,-2.56 -1.37,-6.7 -4.24,-5.16 z"
         id="path8" /></g></g></svg>
