<?xml version="1.0" encoding="UTF-8" standalone="no"?>
<svg
   width="64"
   height="64"
   viewBox="0 0 16.933 16.933"
   version="1.1"
   id="svg1"
   sodipodi:docname="distributor-logo-fedora.svg"
   inkscape:version="1.4.2 (ebf0e940d0, 2025-05-08)"
   xmlns:inkscape="http://www.inkscape.org/namespaces/inkscape"
   xmlns:sodipodi="http://sodipodi.sourceforge.net/DTD/sodipodi-0.dtd"
   xmlns="http://www.w3.org/2000/svg"
   xmlns:svg="http://www.w3.org/2000/svg">
  <defs
     id="defs1" />
  <sodipodi:namedview
     id="namedview1"
     pagecolor="#ffffff"
     bordercolor="#000000"
     borderopacity="0.25"
     inkscape:showpageshadow="2"
     inkscape:pageopacity="0.0"
     inkscape:pagecheckerboard="0"
     inkscape:deskcolor="#d1d1d1"
     inkscape:zoom="9.171875"
     inkscape:cx="31.945486"
     inkscape:cy="32"
     inkscape:window-width="1440"
     inkscape:window-height="827"
     inkscape:window-x="0"
     inkscape:window-y="0"
     inkscape:window-maximized="1"
     inkscape:current-layer="svg1" />
  <circle
     cx="8.467"
     cy="288.53"
     r="6.879"
     fill="#225a84"
     style="paint-order:stroke markers fill"
     transform="translate(-.326 -291.168)scale(1.0385)"
     id="circle1" />
  <path
     d="m 8.8703534,4.6470195 c -2.1859973,0 -3.9686718,1.7884952 -3.9686718,3.9686718 V 11.52605 c 0,0.586305 0.4720074,1.058313 1.0583125,1.058313 h 2.9103593 c 2.1918436,0 3.9686716,-1.776828 3.9686716,-3.9686717 0,-2.1918445 -1.782675,-3.9686718 -3.9686716,-3.9686718 z"
     style="opacity:0.1;stroke-width:0.264578"
     id="path7" />
  <path
     d="m 8.6057753,4.3824414 c -2.1859973,0 -3.9686718,1.7884951 -3.9686718,3.9686718 v 2.9103588 c 0,0.586305 0.4720074,1.058313 1.0583125,1.058313 h 2.9103593 c 2.1918437,0 3.9686717,-1.776828 3.9686717,-3.9686718 0,-2.1918446 -1.782675,-3.9686718 -3.9686717,-3.9686718 z"
     style="fill:#3c6eb2;stroke-width:0.264578"
     id="path8" />
  <path
     d="M 9.6640878,5.9699101 A 1.3228906,1.3228906 0 0 0 8.3411972,7.2928007 V 9.9385823 A 0.79373436,0.79373436 0 0 1 7.5474628,10.732316 0.79373436,0.79373436 0 0 1 6.7537285,9.9385823 0.79373436,0.79373436 0 0 1 7.5474628,9.1448475 H 8.0766191 V 8.3511132 H 7.5474628 A 1.5874687,1.5874687 0 0 0 5.9599941,9.9385823 1.5874687,1.5874687 0 0 0 7.5474628,11.52605 1.5874687,1.5874687 0 0 0 9.1349315,9.9385823 V 9.1448475 h 0.6614453 c 0.2198642,0 0.3968672,-0.1770027 0.3968672,-0.3968672 0,-0.2198644 -0.177003,-0.3968671 -0.3968672,-0.3968671 H 9.1349315 V 7.2928007 A 0.52915624,0.52915624 0 0 1 9.6640878,6.7636444 0.52915624,0.52915624 0 0 1 10.193244,7.2928007 v 0.132289 a 0.39686718,0.39686718 0 0 0 0.396867,0.3968672 0.39686718,0.39686718 0 0 0 0.396867,-0.3968672 V 7.2928007 A 1.3228906,1.3228906 0 0 0 9.6640878,5.9699101 Z"
     style="opacity:0.1;stroke-width:0.264578"
     id="path9" />
  <path
     d="M 9.3995097,5.705332 A 1.3228906,1.3228906 0 0 0 8.0766191,7.0282226 V 9.6740038 A 0.79373436,0.79373436 0 0 1 7.2828847,10.467738 0.79373436,0.79373436 0 0 1 6.4891503,9.6740038 0.79373436,0.79373436 0 0 1 7.2828847,8.8802694 H 7.8120409 V 8.086535 H 7.2828847 A 1.5874687,1.5874687 0 0 0 5.695416,9.6740038 1.5874687,1.5874687 0 0 0 7.2828847,11.261472 1.5874687,1.5874687 0 0 0 8.8703534,9.6740038 V 8.8802694 h 0.6614453 c 0.2198644,0 0.3968672,-0.1770028 0.3968672,-0.3968672 0,-0.2198644 -0.1770028,-0.3968672 -0.3968672,-0.3968672 H 8.8703534 V 7.0282226 A 0.52915624,0.52915624 0 0 1 9.3995097,6.4990663 0.52915624,0.52915624 0 0 1 9.9286659,7.0282226 v 0.132289 A 0.39686718,0.39686718 0 0 0 10.325533,7.5573788 0.39686718,0.39686718 0 0 0 10.7224,7.1605116 V 7.0282226 A 1.3228906,1.3228906 0 0 0 9.3995097,5.705332 Z"
     style="fill:#f9f9f9;stroke-width:0.264578"
     id="path10" />
</svg>
