<?xml version="1.0" encoding="UTF-8" standalone="no"?>
<svg
   width="64"
   height="64"
   viewBox="0 0 16.933 16.933"
   version="1.1"
   id="svg4"
   sodipodi:docname="evernight-insider.svg"
   xml:space="preserve"
   inkscape:version="1.4.2 (f4327f4, 2025-05-13)"
   xmlns:inkscape="http://www.inkscape.org/namespaces/inkscape"
   xmlns:sodipodi="http://sodipodi.sourceforge.net/DTD/sodipodi-0.dtd"
   xmlns="http://www.w3.org/2000/svg"
   xmlns:svg="http://www.w3.org/2000/svg"><defs
     id="defs4"><radialGradient
       id="c"
       cx="377.15"
       cy="466.64"
       r="143.16"
       gradientTransform="matrix(1.253,0.51901,-0.51901,1.253,137.78,-364.81)"
       gradientUnits="userSpaceOnUse"><stop
         stop-color="#a00"
         offset="0"
         id="stop1" /><stop
         stop-color="#f96f6f"
         offset=".60714"
         id="stop2" /><stop
         stop-color="#a00"
         offset="1"
         id="stop3" /></radialGradient><radialGradient
       id="b"
       cx="368.14"
       cy="415.17"
       r="180.46"
       gradientUnits="userSpaceOnUse"><stop
         stop-color="#c9c9c9"
         offset="0"
         id="stop4" /><stop
         stop-color="#fff"
         offset=".8"
         id="stop5" /><stop
         stop-color="#c9c9c9"
         offset="1"
         id="stop6" /></radialGradient><radialGradient
       id="a"
       cx="373.5"
       cy="414.29"
       r="213.14"
       gradientUnits="userSpaceOnUse"><stop
         stop-color="#fff"
         stop-opacity="0"
         offset="0"
         id="stop7" /><stop
         stop-color="#f3caca"
         stop-opacity=".18367"
         offset="1"
         id="stop8" /></radialGradient></defs><sodipodi:namedview
     id="namedview4"
     pagecolor="#ffffff"
     bordercolor="#000000"
     borderopacity="0.25"
     inkscape:showpageshadow="2"
     inkscape:pageopacity="0.0"
     inkscape:pagecheckerboard="0"
     inkscape:deskcolor="#d1d1d1"
     inkscape:zoom="7.59"
     inkscape:cx="33.003953"
     inkscape:cy="31.488801"
     inkscape:window-width="1440"
     inkscape:window-height="890"
     inkscape:window-x="-6"
     inkscape:window-y="-6"
     inkscape:window-maximized="1"
     inkscape:current-layer="svg4" /><g
     transform="translate(0,-280.07)"
     id="g4"
     style="display:inline"><circle
       cx="8.4659996"
       cy="288.53"
       r="7.1440001"
       fill="#3fa7d7"
       style="fill:#eda029;fill-opacity:1;paint-order:stroke markers fill"
       id="circle1" /><circle
       cx="8.467"
       cy="288.53"
       r="5.5939999"
       opacity="0.15"
       paint-order="stroke markers fill"
       id="circle2"
       style="display:inline" /></g><g
     transform="matrix(0.02538931,0,0,0.02538931,-0.89423321,-2.0865353)"
     id="g13"><path
       d="m 226.97,274.49 c -38.79,38.79 -27.019,90.274 -27.019,141.14 0,50.866 -11.772,102.35 27.019,141.14 38.791,38.79 90.281,27.025 141.16,27.032 50.879,0.007 102.37,11.785 141.16,-27.005 38.79,-38.79 27.019,-90.288 27.018,-141.17 -10e-4,-50.882 11.772,-102.38 -27.019,-141.17 -38.791,-38.79 -90.281,-27.012 -141.16,-27.005 -50.879,0.007 -102.37,-11.758 -141.16,27.032 z m 3.1668,3.1669 c 37.922,-37.922 88.27,-25.73 138,-25.743 49.73,-0.013 100.08,-12.233 138,25.688 37.92,37.921 25.716,88.284 25.716,138.03 0,49.746 12.206,100.11 -25.716,138.03 -37.922,37.92 -88.277,25.709 -138.02,25.702 -49.743,-0.007 -100.09,12.192 -138.02,-25.73 -37.93,-37.922 -25.709,-88.264 -25.702,-137.99 0.007,-49.726 -12.192,-100.07 25.73,-137.99 z"
       fill="#9b8942"
       stroke="#9b8942"
       stroke-dasharray="8, 4"
       stroke-linecap="round"
       stroke-width="4"
       id="path8" /><path
       d="m 368.14,234.73 c -99.614,0 -180.46,80.808 -180.46,180.42 0,99.612 80.851,180.46 180.46,180.46 99.609,0 180.46,-80.851 180.46,-180.46 0,-99.609 -80.851,-180.42 -180.46,-180.42 z m 0,93.793 c 47.822,2e-5 86.63,38.808 86.63,86.63 0,47.822 -38.808,86.672 -86.63,86.672 -47.822,0 -86.63,-38.85 -86.63,-86.672 0,-47.822 38.808,-86.63 86.63,-86.63 z"
       fill="url(#b)"
       id="path9"
       style="fill:url(#b)" /><path
       d="m 405.7,487.29 c -2.513,-0.98658 -5.3102,-0.96271 -7.806,0.0666 -2.2402,0.91874 -4.517,1.717 -6.7993,2.4164 -2.3754,0.72787 -4.807,1.3412 -7.2695,1.8444 -2.4625,0.5032 -4.8956,0.86708 -7.3983,1.1311 -2.5027,0.26402 -5.0556,0.42204 -7.5841,0.44136 -2.5285,0.0193 -5.0164,-0.0706 -7.5588,-0.30247 -2.5788,-0.23519 -5.1597,-0.61474 -7.6543,-1.0963 -2.5157,-0.48565 -5.0197,-1.0981 -7.5721,-1.8637 -2.5701,-0.77086 -5.1318,-1.6542 -7.5704,-2.6644 -5.3335,-2.2086 -11.448,0.32398 -13.657,5.657 l -36.634,88.443 c -2.2086,5.3335 0.32396,11.448 5.657,13.657 4.1129,1.7037 8.0288,2.9214 11.58,4.1368 1.5161,0.51908 3.564,1.3871 6.2092,2.1948 3.867,1.1794 7.4465,1.9775 10.643,2.7584 2.1719,0.53038 4.8215,1.3042 7.9676,1.9332 3.7563,0.75192 7.154,1.1272 10.148,1.5634 2.509,0.36319 5.4412,0.90347 8.7769,1.2313 3.281,0.32617 6.2186,0.3899 8.7855,0.52771 3.1493,0.16454 6.6535,0.4348 10.477,0.427 2.9558,-0.002 5.359,-0.26695 7.2593,-0.34016 l 0.0402,0.0167 c 3.6304,-0.14513 7.5768,-0.23325 11.825,-0.66463 2.9858,-0.29985 5.3888,-0.78241 7.2679,-1.0438 3.3456,-0.46874 7.093,-0.90354 11.126,-1.7084 3.4038,-0.67805 6.3604,-1.5306 8.9641,-2.1797 2.864,-0.71447 6.1445,-1.4015 9.7038,-2.4861 2.4601,-0.74967 4.319,-1.5594 5.6945,-2.0254 3.8075,-1.2901 7.8964,-2.6041 12.129,-4.3572 2.5687,-1.0591 4.627,-3.0901 5.6903,-5.6571 1.0633,-2.567 1.044,-5.4586 -0.0235,-8.0238 l -36.582,-88.317 c -1.0891,-2.618 -3.195,-4.6813 -5.8347,-5.7167 z m 36.756,-251.03 c -49.451,-20.483 -102.69,-18.925 -148.57,0.073 -5.3212,2.2123 -7.8485,8.3136 -5.6502,13.641 l 36.33,87.788 c 1.0666,2.5656 3.1037,4.5943 5.6738,5.6501 2.5701,1.0558 5.4617,1.0515 8.0238,-0.0235 0.16199,-0.0678 0.1102,-0.0781 0.24429,-0.13454 l 0.85357,-0.35356 0.32476,-0.10117 c 1.9037,-0.74211 3.8686,-1.4202 5.8888,-2.0392 2.4355,-0.74628 4.8208,-1.3689 7.2293,-1.8611 2.4024,-0.49097 4.9058,-0.88572 7.4552,-1.1547 2.4958,-0.26328 4.9988,-0.39846 7.5272,-0.41777 2.5284,-0.0193 5.0567,0.0872 7.599,0.31912 2.6074,0.23783 5.155,0.56146 7.6307,1.0394 2.4968,0.48194 5.0507,1.112 7.6124,1.8803 2.5792,0.77356 5.0748,1.6778 7.5135,2.6879 5.3335,2.2086 11.448,-0.32398 13.657,-5.657 l 36.318,-87.678 c 2.2086,-5.3335 -0.32398,-11.448 -5.657,-13.657 z m 99.252,99.426 c -2.5323,-1.019 -5.3628,-1.007 -7.8864,0.0333 l -87.748,36.346 c -5.3212,2.2123 -7.8485,8.3136 -5.6502,13.641 0.91874,2.2403 1.717,4.517 2.4164,6.7993 0.74629,2.4355 1.3689,4.8208 1.8611,7.2293 0.49096,2.4024 0.84548,4.8892 1.1144,7.4386 0.26327,2.4958 0.43867,5.0154 0.45801,7.5438 0.0193,2.5284 -0.0872,5.0567 -0.31912,7.599 -0.2378,2.6073 -0.56144,5.1549 -1.0394,7.6307 -0.48195,2.4968 -1.1522,5.0341 -1.9205,7.5957 -0.68663,2.2893 -1.4991,4.5934 -2.4379,6.91 -0.1003,0.22528 -0.18685,0.34577 -0.44025,0.94904 -1.0742,2.5638 -1.0752,5.4368 -0.0167,8.0071 1.05845,2.5703 3.089,4.6263 5.6571,5.6903 l 88.121,36.501 c 5.3334,2.2086 11.448,-0.32396 13.657,-5.657 2.4452,-5.9032 4.5178,-11.85 6.3316,-17.79 1.1551,-3.7876 1.9134,-7.2499 2.6654,-10.304 0.58505,-2.3789 1.3643,-5.1624 2.0027,-8.363 0.71725,-3.5879 1.1084,-6.8519 1.5341,-9.7357 0.3885,-2.6501 0.9162,-5.6539 1.2508,-9.0517 0.35551,-3.5681 0.42877,-6.8517 0.57249,-9.804 l 0.0167,-0.0402 c 0.12665,-2.6902 0.38237,-5.754 0.37939,-9.224 0.002,-3.2787 -0.2114,-6.1531 -0.32301,-8.6664 -0.14658,-3.1922 -0.26932,-6.7209 -0.64846,-10.498 -0.29753,-2.9931 -0.7523,-5.5951 -1.0616,-7.7938 -0.47878,-3.3796 -0.94594,-7.0839 -1.7418,-11.045 -0.59537,-2.9717 -1.2974,-5.372 -1.7709,-7.3334 -0.81902,-3.3881 -1.6519,-7.1269 -2.8575,-11.083 -0.74972,-2.4606 -1.5594,-4.3192 -2.0254,-5.6945 -1.2901,-3.8075 -2.6041,-7.8964 -4.3572,-12.129 -1.0835,-2.6039 -3.1732,-4.6595 -5.7945,-5.7001 z m -339.28,-0.004 c -5.3335,-2.2086 -11.448,0.32398 -13.657,5.657 -20.485,49.454 -18.996,102.7 0.0161,148.6 1.0591,2.5687 3.0901,4.627 5.6571,5.6903 2.567,1.0633 5.4586,1.044 8.0238,-0.0235 l 88.317,-36.582 c 2.5656,-1.0666 4.5943,-3.1037 5.65,-5.6738 1.0557,-2.5701 1.0515,-5.4617 -0.0235,-8.0238 l -0.0943,-0.22762 c -0.93529,-2.258 -1.7474,-4.6308 -2.494,-7.0672 -0.7466,-2.4364 -1.3689,-4.8208 -1.8611,-7.2293 -0.50731,-2.4824 -0.89477,-4.9915 -1.1547,-7.4552 -0.25424,-2.4101 -0.3811,-4.9494 -0.40111,-7.5674 -0.02,-2.618 0.0387,-5.1248 0.26222,-7.5755 0.2294,-2.5155 0.60068,-5.0869 1.0963,-7.6543 0.48194,-2.4967 1.1356,-4.9937 1.9039,-7.5554 0.70703,-2.3573 1.573,-4.7883 2.5546,-7.1916 2.1799,-5.3269 -0.3563,-11.414 -5.6737,-13.617 l -88.121,-36.501 z"
       fill="url(#c)"
       id="path10"
       style="fill:url(#c)" /><path
       d="m 368.14,609.77 v 0.0424 c 4.1509,0 8.2045,-0.37867 12.291,-0.63574 -4.0973,0.25838 -8.187,0.59336 -12.291,0.59336 z"
       fill="#cccccc"
       id="path11" /><path
       d="m 174.03,415.62 c 0,-4.104 0.33498,-8.1936 0.59336,-12.291 -0.25707,4.0864 -0.63574,8.14 -0.63574,12.291 z"
       fill="#cccccc"
       id="path12" /><path
       d="m 209.1,355.09 c -4.0387,-1.6724 -8.6686,0.24531 -10.342,4.2837 -15.512,37.449 -14.385,77.767 0.0122,112.52 0.80195,1.9451 2.34,3.5038 4.2838,4.3089 1.9438,0.8051 4.1335,0.79054 6.076,-0.0178 l 66.877,-27.701 c 1.9428,-0.80769 3.479,-2.3502 4.2785,-4.2964 0.7995,-1.9462 0.79625,-4.1359 -0.0178,-6.076 l -0.0714,-0.17236 c -0.70824,-1.7098 -1.3232,-3.5067 -1.8885,-5.3515 -0.5653,-1.8448 -1.0366,-3.6506 -1.4093,-5.4743 -0.38414,-1.8798 -0.67755,-3.7798 -0.87437,-5.6454 -0.19252,-1.825 -0.28858,-3.7479 -0.30373,-5.7303 -0.0152,-1.9859 0.0293,-3.8807 0.19855,-5.7365 0.17372,-1.9049 0.45487,-3.852 0.83016,-5.7961 0.36493,-1.8906 0.8599,-3.7815 1.4417,-5.7213 0.53538,-1.785 1.1911,-3.6259 1.9344,-5.4458 1.6507,-4.0338 -0.26981,-8.6431 -4.2963,-10.311 l -66.729,-27.64 z m 318.07,0 c 4.0387,-1.6724 8.6686,0.24531 10.342,4.2837 15.512,37.449 14.385,77.767 -0.0121,112.52 -0.80196,1.9451 -2.34,3.5038 -4.2838,4.3089 -1.9438,0.8051 -4.1335,0.79054 -6.076,-0.0178 l -66.877,-27.701 c -1.9428,-0.80769 -3.479,-2.3502 -4.2785,-4.2964 -0.7995,-1.9462 -0.79625,-4.1359 0.0178,-6.076 l 0.0714,-0.17236 c 0.70824,-1.7098 1.3232,-3.5067 1.8885,-5.3515 0.5653,-1.8448 1.0366,-3.6506 1.4093,-5.4743 0.38414,-1.8798 0.67755,-3.7798 0.87437,-5.6454 0.19252,-1.825 0.28858,-3.7479 0.30373,-5.7303 0.0152,-1.9859 -0.0293,-3.8807 -0.19855,-5.7365 -0.17372,-1.9049 -0.45487,-3.852 -0.83016,-5.7961 -0.36493,-1.8906 -0.85989,-3.7815 -1.4417,-5.7213 -0.53539,-1.785 -1.1912,-3.6259 -1.9344,-5.4458 -1.6507,-4.0338 0.26981,-8.6431 4.2963,-10.311 l 66.729,-27.64 z M 306.58,573.67 c -1.6724,4.0387 0.24532,8.6686 4.2837,10.342 37.449,15.512 77.767,14.385 112.52,-0.0121 1.9451,-0.80196 3.5038,-2.34 4.3089,-4.2838 0.8051,-1.9438 0.79054,-4.1335 -0.0178,-6.076 l -27.701,-66.877 c -0.8077,-1.9428 -2.3502,-3.479 -4.2964,-4.2785 -1.9462,-0.7995 -4.1359,-0.79625 -6.076,0.0178 l -0.17237,0.0714 c -1.7098,0.70824 -3.5066,1.3232 -5.3515,1.8885 -1.8449,0.5653 -3.6506,1.0366 -5.4744,1.4093 -1.8798,0.38415 -3.7798,0.67756 -5.6454,0.87437 -1.8251,0.19252 -3.7479,0.28858 -5.7303,0.30373 -1.9859,0.0152 -3.8807,-0.0293 -5.7365,-0.19855 -1.9048,-0.17372 -3.852,-0.45487 -5.7961,-0.83016 -1.8906,-0.36493 -3.7815,-0.85989 -5.7213,-1.4417 -1.785,-0.53539 -3.6259,-1.1912 -5.4458,-1.9344 -4.0338,-1.6507 -8.6431,0.26981 -10.311,4.2963 l -27.64,66.729 z m 0,-318.76 c -1.6724,-4.0387 0.24532,-8.6686 4.2837,-10.342 37.449,-15.512 77.767,-14.385 112.52,0.0121 1.9451,0.80196 3.5038,2.34 4.3089,4.2838 0.8051,1.9438 0.79054,4.1335 -0.0178,6.076 l -27.701,66.877 c -0.8077,1.9428 -2.3502,3.479 -4.2964,4.2785 -1.9462,0.7995 -4.1359,0.79625 -6.076,-0.0178 l -0.17237,-0.0714 c -1.7098,-0.70824 -3.5066,-1.3232 -5.3515,-1.8885 -1.8449,-0.5653 -3.6506,-1.0366 -5.4744,-1.4093 -1.8798,-0.38414 -3.7798,-0.67755 -5.6454,-0.87437 -1.8251,-0.19252 -3.7479,-0.28858 -5.7303,-0.30373 -1.9859,-0.0152 -3.8807,0.0293 -5.7365,0.19856 -1.9048,0.17372 -3.852,0.45487 -5.7961,0.83015 -1.8906,0.36494 -3.7815,0.8599 -5.7213,1.4417 -1.785,0.53539 -3.6259,1.1912 -5.4458,1.9344 -4.0338,1.6507 -8.6431,-0.26981 -10.311,-4.2963 l -27.64,-66.729 z"
       fill="url(#a)"
       id="path13"
       style="fill:url(#a)" /></g></svg>
