<?xml version="1.0" encoding="UTF-8" standalone="no"?>
<svg
   width="64"
   height="64"
   viewBox="0 0 16.933 16.933"
   version="1.1"
   id="svg3"
   sodipodi:docname="gnome-software.svg"
   inkscape:version="1.4.2 (ebf0e940d0, 2025-05-08)"
   xmlns:inkscape="http://www.inkscape.org/namespaces/inkscape"
   xmlns:sodipodi="http://sodipodi.sourceforge.net/DTD/sodipodi-0.dtd"
   xmlns="http://www.w3.org/2000/svg"
   xmlns:svg="http://www.w3.org/2000/svg">
  <defs
     id="defs3" />
  <sodipodi:namedview
     id="namedview3"
     pagecolor="#ffffff"
     bordercolor="#000000"
     borderopacity="0.25"
     inkscape:showpageshadow="2"
     inkscape:pageopacity="0.0"
     inkscape:pagecheckerboard="0"
     inkscape:deskcolor="#d1d1d1"
     inkscape:zoom="9.171875"
     inkscape:cx="31.945486"
     inkscape:cy="32"
     inkscape:window-width="1440"
     inkscape:window-height="827"
     inkscape:window-x="0"
     inkscape:window-y="0"
     inkscape:window-maximized="1"
     inkscape:current-layer="svg3" />
  <circle
     cx="8.466"
     cy="8.466"
     r="7.144"
     fill="#4c8cff"
     style="paint-order:stroke fill markers"
     id="circle1" />
  <path
     fill="#457eff"
     d="M32 5A27 27 0 0 0 5 32a27 27 0 0 0 18.699 25.678 38.32 38.32 0 0 0 35.086-28.803A27 27 0 0 0 32 5"
     style="paint-order:stroke fill markers"
     transform="scale(.26458)"
     id="path1" />
  <path
     d="m 10.654855,9.3409148 c -0.539405,0 -1.0904424,0.363481 -1.0904424,1.0904432 0,0.247047 0.127765,0.363481 0.363481,0.363481 0.4813214,0 1.0904424,-0.688942 1.0904424,-1.0904432 0,-0.2610847 -0.129537,-0.363481 -0.363481,-0.363481 z M 7.7470071,9.8861364 C 7.5162512,9.8857729 7.3835262,10.067877 7.3835262,10.340488 c 0,0.301118 0.2677473,0.633365 0.4543513,0.636091 0.1384972,0.002 0.2271756,-0.244103 0.2271756,-0.545221 0,-0.301119 -0.1173031,-0.5448945 -0.318046,-0.5452216 z m 1.0904432,-0.363481 c -0.2007433,0 -0.3620635,0.1817404 -0.363481,0.4543512 -0.0019,0.3634774 0.1001867,0.7269624 0.2726107,0.7269624 0.2007433,0 0.4543516,-0.482921 0.4543516,-0.8178326 0,-0.2587222 -0.0537,-0.363481 -0.3634813,-0.363481 z M 6.929175,10.613098 c -0.1804939,0 -0.2726108,0.09729 -0.2726108,0.218089 0,0.363481 0.2536079,0.599744 0.4543512,0.599744 0.1244194,0 0.1817405,-0.07137 0.1817405,-0.272611 0,-0.301119 -0.1627377,-0.545222 -0.3634809,-0.545222 z m 2.2717566,0.545222 c -1.0904435,0 -2.1808864,0.363481 -2.1808864,1.453924 0,0.818815 0.9291664,1.817405 1.8174051,1.817405 0.7269623,0 1.4539247,-0.45635 1.4539247,-1.090442 0,-0.363481 -0.3327234,-0.363481 -0.5452224,-0.363481 -0.363481,0 -0.545221,0.201666 -0.545221,0.363481 0,0.139089 0,0.363481 -0.3634813,0.363481 -0.196985,0 -0.363481,-0.193314 -0.363481,-0.363481 0,-0.642672 1.8174057,-0.823322 1.8174057,-1.635665 0,-0.403973 -0.3634814,-0.545222 -1.0904434,-0.545222 z"
     style="mix-blend-mode:overlay;fill:#000005;fill-opacity:1;stroke-width:0.363481"
     id="path11" />
  <path
     fill="#00f"
     d="M8.467 1.323A7.14 7.14 0 0 0 1.97 5.512a8.767 8.767 0 0 0 8.694 7.725 8.8 8.8 0 0 0 3.776-.864 7.14 7.14 0 0 0 1.17-3.907 7.144 7.144 0 0 0-7.144-7.143z"
     opacity=".1"
     style="paint-order:stroke fill markers"
     id="path2" />
  <path
     fill="#fff"
     d="M5.292 5.292a3.175 3.175 0 0 0 3.175 3.175 3.175 3.175 0 0 0 3.175-3.176h-.794a2.38 2.38 0 0 1-2.381 2.381 2.38 2.38 0 0 1-2.382-2.38z"
     style="paint-order:stroke markers fill"
     id="path3" />
</svg>
