<?xml version="1.0" encoding="UTF-8" standalone="no"?>
<svg
   width="64"
   height="64"
   viewBox="0 0 16.933 16.933"
   version="1.1"
   id="svg4"
   sodipodi:docname="muondiscover.svg"
   xml:space="preserve"
   inkscape:version="1.4.2 (ebf0e940d0, 2025-05-08)"
   xmlns:inkscape="http://www.inkscape.org/namespaces/inkscape"
   xmlns:sodipodi="http://sodipodi.sourceforge.net/DTD/sodipodi-0.dtd"
   xmlns="http://www.w3.org/2000/svg"
   xmlns:svg="http://www.w3.org/2000/svg"><defs
     id="defs4" /><sodipodi:namedview
     id="namedview4"
     pagecolor="#ffffff"
     bordercolor="#000000"
     borderopacity="0.25"
     inkscape:showpageshadow="2"
     inkscape:pageopacity="0.0"
     inkscape:pagecheckerboard="0"
     inkscape:deskcolor="#d1d1d1"
     inkscape:zoom="10"
     inkscape:cx="32"
     inkscape:cy="31.55"
     inkscape:window-width="1440"
     inkscape:window-height="827"
     inkscape:window-x="0"
     inkscape:window-y="0"
     inkscape:window-maximized="1"
     inkscape:current-layer="svg4" /><circle
     cx="8.466"
     cy="8.466"
     r="7.144"
     fill="#4c8cff"
     style="paint-order:stroke fill markers"
     id="circle1" /><path
     fill="#457eff"
     d="M8.467 1.323a7.144 7.144 0 0 0-7.144 7.144A7.14 7.14 0 0 0 6.27 15.26a10.14 10.14 0 0 0 9.283-7.62 7.144 7.144 0 0 0-7.086-6.317"
     style="paint-order:stroke fill markers"
     id="path1" /><path
     fill="#00f"
     d="M8.467 1.323A7.14 7.14 0 0 0 1.97 5.512a8.767 8.767 0 0 0 8.694 7.725 8.8 8.8 0 0 0 3.776-.864 7.14 7.14 0 0 0 1.17-3.907 7.144 7.144 0 0 0-7.144-7.143z"
     opacity=".1"
     style="paint-order:stroke fill markers"
     id="path2" /><path
     fill="#fff"
     d="M5.292 5.292a3.175 3.175 0 0 0 3.175 3.175 3.175 3.175 0 0 0 3.175-3.176h-.794a2.38 2.38 0 0 1-2.381 2.381 2.38 2.38 0 0 1-2.382-2.38z"
     style="paint-order:stroke markers fill"
     id="path3" /><circle
     cx="12.435"
     cy="12.171"
     r="3.439"
     fill="#7ba3f4"
     id="circle3" /><g
     fill="none"
     fill-rule="evenodd"
     id="g8"
     transform="matrix(0.0235715,0,0,0.0235715,9.7388808,9.3420133)"
     style="mix-blend-mode:overlay"><path
       fill="#7eaafc"
       d="m 220,70 -50,20 v 59.456 L 120,170 v 60 l 100,-40.162 z"
       id="path1-3" /><path
       fill="#025bff"
       d="M 170,149.456 120,129.568 120.105,70 170,90 Z"
       id="path2-6" /><path
       fill="#99bdff"
       d="M 220,70 170,48 120.105,70 170,90 Z"
       opacity="0.3"
       id="path3-7" /><path
       fill="#025bff"
       d="M 120,230 70,210 v -60 l 50,20 z"
       id="path4-5" /><path
       fill="#e0ebff"
       d="m 70,150 50,-20.432 50,19.888 L 120,170 Z"
       id="path5" /><path
       fill="#025bff"
       d="M 20,50 70,70 V 190 L 20,170 Z"
       id="path6" /><path
       fill="#99bdff"
       d="M 70,70 170,30 120,10 20,50 Z"
       opacity="0.3"
       id="path7" /><path
       fill="#7eaafc"
       d="m 70,70 v 120 l 50,-20 V 110 L 170,90 V 30 Z"
       id="path8" /></g></svg>
