<?xml version="1.0" encoding="UTF-8" standalone="no"?>
<svg
   width="64"
   height="64"
   viewBox="0 0 16.933 16.933"
   version="1.1"
   id="svg3"
   sodipodi:docname="office-calendar.svg"
   inkscape:version="1.4.2 (ebf0e940d0, 2025-05-08)"
   xmlns:inkscape="http://www.inkscape.org/namespaces/inkscape"
   xmlns:sodipodi="http://sodipodi.sourceforge.net/DTD/sodipodi-0.dtd"
   xmlns:xlink="http://www.w3.org/1999/xlink"
   xmlns="http://www.w3.org/2000/svg"
   xmlns:svg="http://www.w3.org/2000/svg">
  <defs
     id="defs3">
    <linearGradient
       id="linearGradient5"
       inkscape:collect="always">
      <stop
         style="stop-color:#34229a;stop-opacity:1;"
         offset="0.5"
         id="stop5" />
      <stop
         style="stop-color:#ec7db4;stop-opacity:1;"
         offset="1"
         id="stop6" />
    </linearGradient>
    <linearGradient
       inkscape:collect="always"
       xlink:href="#linearGradient5"
       id="linearGradient6"
       x1="1.323"
       y1="4.895"
       x2="15.61"
       y2="4.895"
       gradientUnits="userSpaceOnUse" />
  </defs>
  <sodipodi:namedview
     id="namedview3"
     pagecolor="#ffffff"
     bordercolor="#000000"
     borderopacity="0.25"
     inkscape:showpageshadow="2"
     inkscape:pageopacity="0.0"
     inkscape:pagecheckerboard="0"
     inkscape:deskcolor="#d1d1d1"
     inkscape:zoom="9.171875"
     inkscape:cx="28.729131"
     inkscape:cy="31.781942"
     inkscape:window-width="1440"
     inkscape:window-height="887"
     inkscape:window-x="0"
     inkscape:window-y="0"
     inkscape:window-maximized="1"
     inkscape:current-layer="svg3" />
  <circle
     cx="8.4659996"
     cy="8.4659996"
     r="7.1440001"
     fill="#f0f0f0"
     style="display:inline;paint-order:stroke fill markers"
     id="circle1" />
  <path
     d="M 8.467,1.323 A 7.144,7.144 0 0 0 1.323,8.467 H 15.61 A 7.144,7.144 0 0 0 8.466,1.323 Z"
     opacity="0.06"
     style="display:inline;fill:url(#linearGradient6);paint-order:stroke markers fill;fill-opacity:1;opacity:0.37"
     id="path1" />
  <path
     style="font-size:2.11663px;font-family:'JetBrains Mono';-inkscape-font-specification:'JetBrains Mono';display:inline;fill:#ff0707;stroke-width:0.0232829"
     d="m 4.7254117,5.7905016 q -0.2222461,0 -0.3492439,-0.1248812 Q 4.24917,5.5407392 4.24917,5.324843 h 0.1904967 q 0,0.1418142 0.074082,0.2201295 0.076199,0.076199 0.211663,0.076199 0.1354643,0 0.2095464,-0.076199 0.076199,-0.078315 0.076199,-0.2201295 V 4.2241953 H 5.2016535 V 5.324843 q 0,0.2158962 -0.1291144,0.3407774 -0.1269978,0.1248812 -0.3471274,0.1248812 z m 1.2318796,0 q -0.1799136,0 -0.2857451,-0.099482 -0.1058315,-0.1015983 -0.1058315,-0.2645788 0,-0.1079481 0.048682,-0.1883801 0.048682,-0.080432 0.1354643,-0.1248812 0.086782,-0.046566 0.1989632,-0.046566 H 6.3086519 V 4.975599 q 0,-0.114298 -0.061382,-0.1693304 -0.061382,-0.057149 -0.1862635,-0.057149 -0.1100647,0 -0.1777969,0.040216 -0.067732,0.040216 -0.071965,0.1121814 H 5.6207471 q 0.010583,-0.1375809 0.1269978,-0.2264794 0.1185313,-0.091015 0.3132612,-0.091015 0.211663,0 0.3238444,0.1015983 0.1142981,0.1015982 0.1142981,0.2836284 v 0.800086 H 6.3107685 v -0.211663 h -0.03175 l 0.029633,-0.042333 q 0,0.084665 -0.042333,0.1460474 -0.042333,0.061382 -0.120648,0.095248 -0.078315,0.033866 -0.18838,0.033866 z m 0.046566,-0.1608639 q 0.1396976,0 0.2222462,-0.067732 0.082549,-0.067732 0.082549,-0.1841468 V 5.2147782 H 5.969991 q -0.093132,0 -0.1523973,0.057149 -0.057149,0.055032 -0.057149,0.1481641 0,0.097365 0.063499,0.154514 0.065615,0.055032 0.1799136,0.055032 z m 0.884752,0.1396976 V 4.6051887 H 7.079106 v 0.2222462 h 0.040216 l -0.040216,0.044449 q 0,-0.1375809 0.082549,-0.211663 0.082549,-0.076199 0.2285961,-0.076199 0.1756803,0 0.2793951,0.1079482 0.1037149,0.1079481 0.1037149,0.2942115 V 5.7693353 H 7.582864 V 5.0200482 q 0,-0.1333477 -0.067732,-0.2031965 -0.065615,-0.071965 -0.1799135,-0.071965 -0.1185313,0 -0.1883801,0.074082 -0.067732,0.074082 -0.067732,0.2095463 v 0.7408206 z m 1.7081212,0.021166 q -0.2010798,0 -0.3217278,-0.1185313 Q 8.1543548,5.5513224 8.1543548,5.3460093 V 4.6051887 h 0.1904967 v 0.7408206 q 0,0.1269978 0.067732,0.2031964 0.067732,0.074082 0.1841468,0.074082 0.1185313,0 0.1862635,-0.074082 0.069849,-0.076199 0.069849,-0.2031964 V 4.6051887 h 0.1904967 v 0.7408206 q 0,0.2053131 -0.1227646,0.325961 -0.1227645,0.1185313 -0.3238444,0.118531 z m 1.1704974,0 q -0.1799135,0 -0.2857451,-0.099482 Q 9.3756513,5.589421 9.3756513,5.4264405 q 0,-0.1079481 0.048682,-0.1883801 0.048682,-0.080432 0.1354644,-0.1248812 0.086782,-0.046566 0.1989632,-0.046566 H 10.118589 V 4.975599 q 0,-0.114298 -0.06138,-0.1693304 -0.061382,-0.057149 -0.1862632,-0.057149 -0.1100648,0 -0.1777969,0.040216 -0.067732,0.040216 -0.071965,0.1121814 H 9.4306837 q 0.010583,-0.1375809 0.1269978,-0.2264794 0.1185313,-0.091015 0.3132613,-0.091015 0.2116632,0 0.3238442,0.1015983 0.114298,0.1015982 0.114298,0.2836284 v 0.8000862 h -0.18838 v -0.211663 h -0.03175 l 0.02963,-0.042333 q 0,0.084665 -0.04233,0.1460474 -0.04233,0.061382 -0.120648,0.095248 -0.078315,0.033866 -0.1883801,0.033866 z m 0.046566,-0.1608639 q 0.1396976,0 0.2222461,-0.067732 0.08255,-0.067732 0.08255,-0.1841468 V 5.2147782 H 9.7799277 q -0.093132,0 -0.1523974,0.057149 -0.057149,0.055032 -0.057149,0.1481641 0,0.097365 0.063499,0.154514 0.065615,0.055032 0.1799136,0.055032 z M 10.740879,5.7693353 V 4.6051887 h 0.190496 v 0.2222462 h 0.04022 l -0.04022,0.050799 q 0,-0.1354643 0.08255,-0.2137796 0.08467,-0.080432 0.232829,-0.080432 0.18203,0 0.279395,0.1100648 0.09948,0.1079481 0.09948,0.309028 v 0.099482 h -0.190497 v -0.099482 q 0,-0.1291145 -0.0635,-0.1904967 -0.0635,-0.063499 -0.184146,-0.063499 -0.124882,0 -0.190497,0.071965 -0.06562,0.071965 -0.06562,0.2074297 v 0.7408206 z m 1.409676,0.3809934 0.171447,-0.4529589 -0.433909,-1.0921811 h 0.205313 l 0.275162,0.7196543 q 0.01693,0.042333 0.03175,0.088898 0.01482,0.046566 0.02117,0.080432 0.0063,-0.033866 0.02117,-0.080432 0.01482,-0.046566 0.02963,-0.088898 L 12.7284,4.6051887 h 0.20108 l -0.579957,1.54514 z"
     id="text1"
     aria-label="January" />
  <path
     style="font-weight:800;font-size:5.64433px;font-family:'JetBrains Mono';-inkscape-font-specification:'JetBrains Mono Ultra-Bold';display:inline;fill:#ff0707;stroke-width:0.0232829"
     d="m 6.8336517,13.268221 q -0.4176804,0 -0.7224742,-0.152397 Q 5.8063837,12.957783 5.6370538,12.681211 5.4733682,12.398994 5.4733682,12.026468 v -1.749742 q 0,-0.3725257 0.1636856,-0.6490979 0.1693299,-0.2822165 0.4741237,-0.4346134 0.3047938,-0.1580412 0.7168299,-0.1580412 0.4176804,0 0.7168299,0.1580412 0.3047938,0.1523969 0.4684794,0.4346134 0.1693299,0.2765722 0.1693299,0.6490979 v 1.749742 q 0,0.372526 -0.1693299,0.654743 -0.1636856,0.276572 -0.4684794,0.434613 -0.2991495,0.152397 -0.7111856,0.152397 z m -0.00564,-0.733763 q 0.2652835,0 0.4120361,-0.135464 0.1523969,-0.135464 0.1523969,-0.372526 v -1.749742 q 0,-0.237062 -0.1523969,-0.3725257 -0.1467526,-0.1354639 -0.4120361,-0.1354639 -0.2652835,0 -0.4176804,0.1354639 -0.1467526,0.1354637 -0.1467526,0.3725257 v 1.749742 q 0,0.237062 0.1523969,0.372526 0.1523969,0.135464 0.4120361,0.135464 z m 0,-1.021624 q -0.1749742,0 -0.2878608,-0.09595 -0.1072423,-0.101598 -0.1072423,-0.282217 0,-0.180618 0.1072423,-0.270928 0.1128866,-0.09595 0.2878608,-0.09595 0.1806186,0 0.2878608,0.09595 0.1072423,0.09031 0.1072423,0.270928 0,0.180619 -0.1072423,0.282217 -0.1072422,0.09595 -0.2878608,0.09595 z m 2.1448477,1.698944 V 12.449793 H 10.011412 V 9.9493549 L 8.9615664,10.705695 V 9.7687364 L 9.9267468,9.0914168 h 0.9313142 v 3.3583762 h 0.824072 v 0.761985 z"
     id="text2"
     aria-label="01" />
  <path
     d="M 9.5245844,7.9039898 V 7.7149051 l 0.3908692,-0.388047 q 0.028222,-0.028222 0.043743,-0.06491 0.015522,-0.038099 0.015522,-0.077609 0,-0.057854 -0.035277,-0.095953 -0.033866,-0.038099 -0.090309,-0.038099 -0.057854,0 -0.094542,0.03951 -0.035277,0.03951 -0.035277,0.1015978 h -0.211662 q 0,-0.098776 0.043743,-0.1721518 0.045155,-0.074787 0.122764,-0.1171196 0.07902,-0.042332 0.1820293,-0.042332 0.1001867,0 0.1749738,0.03951 0.07479,0.038099 0.11712,0.1086532 0.04233,0.069143 0.04233,0.1608631 0,0.081843 -0.03528,0.1594521 -0.03528,0.076198 -0.114297,0.1509855 L 9.7955117,7.713494 h 0.4063913 v 0.1904958 z m 1.1796636,0.014111 q -0.10442,0 -0.180618,-0.038099 -0.0762,-0.03951 -0.118531,-0.1086531 -0.04092,-0.070554 -0.04092,-0.1636853 V 7.1702282 q 0,-0.093131 0.04092,-0.1622742 0.04233,-0.070554 0.118531,-0.1086532 0.0762,-0.03951 0.179207,-0.03951 0.10442,0 0.179207,0.03951 0.0762,0.038099 0.11712,0.1086532 0.04233,0.069143 0.04233,0.1622742 V 7.607663 q 0,0.093131 -0.04233,0.1636853 -0.04092,0.069143 -0.11712,0.1086531 -0.07479,0.038099 -0.177796,0.038099 z m -0.0014,-0.1834404 q 0.06632,0 0.103009,-0.033866 0.0381,-0.033866 0.0381,-0.093131 V 7.1702282 q 0,-0.059265 -0.0381,-0.093131 -0.03669,-0.033866 -0.103009,-0.033866 -0.06632,0 -0.10442,0.033866 -0.03669,0.033866 -0.03669,0.093131 V 7.607663 q 0,0.059265 0.0381,0.093131 0.0381,0.033866 0.103009,0.033866 z m 0,-0.2554055 q -0.04374,0 -0.07197,-0.023988 -0.02681,-0.025399 -0.02681,-0.070554 0,-0.045155 0.02681,-0.067732 0.02822,-0.023988 0.07197,-0.023988 0.04515,0 0.07196,0.023988 0.02681,0.022577 0.02681,0.067732 0,0.045155 -0.02681,0.070554 -0.02681,0.023988 -0.07196,0.023988 z m 0.515044,0.4247351 V 7.7149051 l 0.39087,-0.388047 q 0.02822,-0.028222 0.04374,-0.06491 0.01552,-0.038099 0.01552,-0.077609 0,-0.057854 -0.03528,-0.095953 -0.03387,-0.038099 -0.09031,-0.038099 -0.05785,0 -0.09454,0.03951 -0.03528,0.03951 -0.03528,0.1015978 h -0.211662 q 0,-0.098776 0.04374,-0.1721518 0.04515,-0.074787 0.122764,-0.1171196 0.07902,-0.042332 0.182029,-0.042332 0.100187,0 0.174974,0.03951 0.07479,0.038099 0.11712,0.1086532 0.04233,0.069143 0.04233,0.1608631 0,0.081843 -0.03528,0.1594521 -0.03528,0.076198 -0.114297,0.1509855 L 11.488809,7.713494 H 11.8952 v 0.1904958 z m 1.178253,0.014111 q -0.110064,0 -0.191907,-0.042332 -0.08043,-0.043744 -0.124175,-0.1213529 -0.04374,-0.07902 -0.04374,-0.1862625 0,-0.057854 0.02681,-0.139697 0.02681,-0.081843 0.07338,-0.1665074 l 0.211662,-0.388047 h 0.241295 l -0.272339,0.4628342 0.0071,0.00423 q 0.02399,-0.035277 0.06632,-0.055032 0.04374,-0.019755 0.09595,-0.019755 0.08325,0 0.142519,0.038099 0.06068,0.038099 0.09313,0.1086532 0.03387,0.070554 0.03387,0.1679185 0,0.1030088 -0.04374,0.1792071 -0.04374,0.076198 -0.124175,0.1171197 -0.08043,0.040921 -0.191907,0.040921 z m 0,-0.176385 q 0.04798,0 0.08184,-0.018344 0.03387,-0.019755 0.05221,-0.055032 0.01976,-0.036688 0.01976,-0.084665 0,-0.049388 -0.01976,-0.084665 -0.01834,-0.036688 -0.05221,-0.056443 -0.03387,-0.019755 -0.08184,-0.019755 -0.04657,0 -0.08184,0.019755 -0.03387,0.019755 -0.05362,0.056443 -0.01834,0.035277 -0.01834,0.084665 0,0.047977 0.01834,0.084665 0.01975,0.035277 0.05362,0.055032 0.03528,0.018344 0.08184,0.018344 z"
     id="text3"
     style="font-weight:800;font-size:1.41108px;font-family:'JetBrains Mono';-inkscape-font-specification:'JetBrains Mono Ultra-Bold';fill:#ff0707;stroke-width:0.0232829"
     aria-label="2026" />
</svg>
