<?xml version="1.0" encoding="UTF-8" ?>
<!DOCTYPE svg PUBLIC "-//W3C//DTD SVG 1.1//EN" "http://www.w3.org/Graphics/SVG/1.1/DTD/svg11.dtd">
<svg width="256pt" height="256pt" viewBox="0 0 256 256" version="1.1" xmlns="http://www.w3.org/2000/svg">
<g id="#2ddefaff">
<path fill="#2ddefa" opacity="1.00" d=" M 125.24 0.00 L 130.78 0.00 C 160.57 0.57 190.00 11.97 212.32 31.71 C 238.88 54.71 255.07 89.07 256.00 124.18 L 256.00 131.79 C 255.14 162.64 242.67 192.99 221.48 215.43 C 198.13 240.68 164.22 255.68 129.83 256.00 L 125.15 256.00 C 95.39 255.41 66.00 244.02 43.69 224.31 C 17.12 201.31 0.93 166.96 0.00 131.84 L 0.00 124.19 C 0.93 89.30 16.90 55.15 43.16 32.16 C 65.56 12.15 95.21 0.57 125.24 0.00 M 106.77 18.02 C 105.39 19.31 105.31 20.61 106.54 21.93 C 105.29 23.55 105.68 25.60 105.58 27.50 C 106.57 27.49 108.54 27.48 109.52 27.47 C 107.75 24.60 107.49 21.23 106.77 18.02 M 106.32 28.30 C 105.16 32.63 105.87 37.15 105.50 41.57 L 107.27 41.64 C 107.08 39.49 106.88 37.35 106.73 35.20 C 107.31 35.17 108.45 35.12 109.02 35.09 C 109.70 35.56 110.39 36.00 111.08 36.47 C 112.49 37.11 113.90 37.79 115.28 38.50 C 115.98 39.73 116.87 40.83 118.35 41.11 C 118.67 44.51 121.10 47.40 120.65 50.93 C 121.07 56.38 117.82 60.96 116.18 65.92 C 120.25 63.03 120.88 57.50 122.21 53.03 C 124.08 45.95 120.05 38.95 115.12 34.18 C 114.70 33.56 114.27 32.95 113.83 32.35 C 112.84 31.59 111.86 30.84 110.87 30.09 C 110.66 29.59 110.24 28.60 110.03 28.11 C 108.79 28.18 107.55 28.24 106.32 28.30 M 183.03 50.24 C 183.19 51.29 183.42 52.32 183.72 53.33 C 181.91 54.44 182.26 57.22 182.97 58.82 C 183.44 58.84 184.37 58.87 184.84 58.89 C 184.75 57.53 184.61 56.17 184.41 54.83 L 185.46 55.41 C 185.40 50.73 190.44 46.60 195.05 47.44 L 193.21 47.94 L 194.04 49.14 C 194.74 49.28 196.15 49.57 196.85 49.71 C 196.27 46.07 194.61 42.21 191.00 40.67 C 186.40 41.34 184.61 46.50 183.03 50.24 M 105.76 42.43 C 105.59 50.36 105.54 58.32 105.83 66.25 C 101.50 64.64 96.49 65.22 92.97 68.34 L 94.42 69.13 C 92.77 68.34 91.15 67.49 89.57 66.57 C 89.53 66.55 89.45 66.50 89.41 66.48 C 87.78 65.53 86.15 64.58 84.55 63.60 C 84.51 63.58 84.44 63.54 84.41 63.52 C 82.19 62.10 79.91 60.80 77.59 59.57 C 77.55 59.55 77.48 59.51 77.44 59.49 C 75.78 58.56 74.14 57.61 72.51 56.63 C 72.47 56.60 72.40 56.56 72.37 56.54 C 69.55 54.67 66.53 53.16 63.52 51.65 C 63.47 51.62 63.38 51.57 63.34 51.54 C 62.62 51.07 61.19 50.13 60.47 49.66 L 60.67 48.52 C 58.57 49.08 59.09 51.34 58.98 52.99 C 59.00 73.68 59.04 94.37 58.98 115.06 C 59.06 118.00 58.51 121.12 59.87 123.86 C 59.84 124.30 59.77 125.17 59.73 125.60 C 59.64 126.92 59.59 128.25 59.59 129.58 C 59.78 130.90 59.98 132.23 60.19 133.56 C 60.00 133.86 59.61 134.45 59.41 134.75 C 59.94 145.02 59.50 155.32 59.64 165.60 C 59.64 169.14 59.64 172.68 59.65 176.22 C 59.64 177.13 59.64 178.95 59.64 179.86 C 59.65 180.46 59.67 181.66 59.68 182.26 C 59.63 182.92 59.53 184.25 59.48 184.92 C 59.58 185.37 59.78 186.27 59.88 186.72 C 59.80 187.38 59.64 188.69 59.56 189.35 L 59.74 191.80 C 59.90 192.10 60.24 192.69 60.40 192.99 C 59.47 194.47 59.56 195.89 60.68 197.26 C 60.37 197.78 59.75 198.83 59.44 199.36 L 59.64 200.97 C 59.64 202.91 59.65 204.84 59.67 206.79 C 62.48 205.60 65.12 204.06 67.66 202.39 C 69.10 201.67 70.58 201.00 71.88 200.05 C 72.79 199.45 73.70 198.84 74.56 198.17 C 75.02 197.86 75.95 197.24 76.41 196.92 C 77.62 196.46 78.82 195.97 80.01 195.45 L 79.19 195.63 C 80.48 195.09 81.65 194.37 82.70 193.47 C 84.04 193.82 86.58 192.45 86.50 191.00 L 88.40 190.84 L 87.64 190.77 C 91.39 188.94 94.96 186.76 98.49 184.54 L 98.69 184.57 C 101.37 182.92 104.42 181.74 106.54 179.34 C 108.16 179.25 109.48 178.12 110.93 177.48 C 111.58 177.13 112.88 176.43 113.54 176.08 C 115.73 174.66 117.95 173.24 120.38 172.26 C 120.55 172.02 120.89 171.56 121.06 171.33 C 125.15 169.58 128.82 167.05 132.69 164.89 C 133.94 164.20 135.19 163.50 136.43 162.77 C 145.90 157.46 155.14 151.74 164.70 146.58 L 164.69 146.36 C 166.25 145.40 167.80 144.42 169.36 143.47 C 169.42 143.44 169.54 143.37 169.59 143.34 L 171.27 142.49 C 171.33 142.46 171.45 142.39 171.51 142.35 C 173.16 141.41 174.80 140.44 176.43 139.46 C 176.46 139.44 176.53 139.40 176.57 139.37 C 177.77 138.64 178.98 137.91 180.17 137.13 C 184.69 135.15 188.86 132.44 193.38 130.45 C 195.03 129.88 195.98 128.43 196.35 126.78 C 196.79 125.27 197.05 123.70 197.40 122.17 C 194.51 121.79 194.73 124.74 194.23 126.67 C 192.15 125.57 190.07 124.46 188.10 123.18 C 188.07 119.76 184.32 117.56 181.32 119.13 C 179.73 118.28 178.09 117.51 176.54 116.59 C 176.50 116.57 176.43 116.53 176.39 116.51 C 174.10 115.18 171.75 113.95 169.48 112.60 C 169.44 112.58 169.37 112.54 169.34 112.51 C 167.14 111.10 164.86 109.80 162.53 108.62 C 162.48 108.60 162.39 108.55 162.34 108.52 L 160.57 107.56 C 160.53 107.53 160.45 107.49 160.41 107.47 C 158.75 106.54 157.11 105.58 155.49 104.59 C 155.45 104.57 155.38 104.52 155.34 104.50 C 153.13 103.08 150.83 101.82 148.54 100.55 C 148.50 100.53 148.42 100.48 148.38 100.46 C 146.78 99.52 145.17 98.58 143.57 97.63 C 143.54 97.61 143.47 97.57 143.44 97.55 C 141.19 96.14 138.87 94.86 136.56 93.57 C 136.52 93.55 136.45 93.50 136.41 93.48 C 134.17 92.09 131.82 90.86 129.50 89.61 C 129.46 89.58 129.39 89.54 129.35 89.52 C 127.15 88.13 124.88 86.84 122.60 85.58 C 122.57 85.56 122.50 85.52 122.46 85.50 C 120.20 84.10 117.87 82.81 115.54 81.54 C 115.50 81.52 115.42 81.47 115.39 81.45 C 113.77 80.51 112.17 79.53 110.56 78.58 C 110.53 78.56 110.46 78.51 110.42 78.49 C 108.77 77.53 107.10 76.62 105.48 75.61 C 106.56 73.70 107.09 71.57 107.39 69.41 C 106.82 69.43 105.69 69.47 105.12 69.49 C 105.67 69.20 106.77 68.64 107.32 68.35 C 107.10 63.59 106.81 58.84 107.25 54.09 C 106.92 50.00 106.87 45.93 107.25 41.84 L 105.76 42.43 M 194.42 50.31 C 194.36 51.03 194.25 52.47 194.19 53.19 C 196.63 53.97 197.06 52.05 197.01 50.12 C 196.36 50.17 195.07 50.27 194.42 50.31 M 194.20 53.68 C 192.97 59.03 190.38 63.99 185.90 67.32 C 185.36 64.84 185.07 62.32 184.78 59.80 C 184.34 59.79 183.47 59.77 183.03 59.77 C 182.26 62.77 183.89 66.28 184.09 69.50 C 186.55 69.95 190.30 72.24 191.98 69.32 C 192.74 68.25 193.39 67.11 194.06 65.99 C 192.22 66.40 190.37 66.80 188.49 66.99 C 190.39 65.76 192.62 65.34 194.80 64.92 C 195.18 63.42 195.55 61.91 195.92 60.40 C 194.61 60.84 193.31 61.29 192.01 61.73 C 194.03 60.79 196.63 60.28 196.97 57.64 L 195.24 57.84 C 196.51 56.66 197.35 55.19 197.43 53.42 C 196.63 53.48 195.01 53.61 194.20 53.68 M 186.59 70.66 C 186.19 72.05 188.74 72.68 189.72 72.05 C 189.96 70.69 187.57 70.32 186.59 70.66 M 175.48 78.29 L 175.16 78.31 C 174.40 79.54 173.64 80.77 172.89 82.02 C 173.74 81.78 175.43 81.31 176.27 81.07 C 176.95 81.04 178.29 80.96 178.96 80.92 C 178.62 81.32 177.95 82.10 177.61 82.49 C 176.34 82.48 175.07 82.48 173.80 82.49 C 171.93 82.08 171.57 84.95 170.60 86.04 C 171.60 86.09 173.60 86.19 174.60 86.24 L 174.20 87.02 C 173.23 87.13 171.28 87.34 170.30 87.45 L 170.37 88.50 C 172.27 88.40 174.17 88.29 176.08 88.23 C 177.12 86.90 178.15 85.56 179.12 84.18 C 180.61 83.07 181.87 81.69 183.10 80.29 C 183.75 79.58 184.42 78.88 185.10 78.19 C 183.37 78.46 181.63 78.64 179.89 78.75 L 179.31 79.14 C 178.94 78.90 178.20 78.42 177.83 78.18 C 180.17 76.85 182.76 76.42 185.44 76.54 L 186.17 75.19 C 185.58 78.97 188.20 82.32 187.44 86.09 C 189.39 85.79 191.36 85.58 193.33 85.38 C 191.84 84.96 190.34 84.57 188.84 84.17 C 188.74 81.34 188.38 78.36 186.75 75.96 C 187.42 75.19 188.76 73.65 189.43 72.88 C 186.54 73.36 183.64 73.81 180.75 74.29 C 182.30 73.30 184.04 72.68 185.88 72.58 L 185.62 70.01 C 180.80 70.51 178.43 75.09 175.48 78.29 M 184.04 87.94 C 181.92 88.31 181.25 90.60 180.19 92.15 C 181.74 92.08 183.28 92.47 184.14 93.89 C 182.76 93.35 181.23 93.28 179.54 93.69 C 179.57 95.19 179.64 96.69 179.74 98.19 C 180.78 99.56 181.67 101.03 182.47 102.55 C 182.94 102.41 183.90 102.13 184.38 101.98 C 183.49 100.48 183.37 98.77 183.39 97.07 C 183.69 96.42 184.30 95.11 184.61 94.46 L 184.76 94.64 C 185.13 93.75 185.53 92.88 185.94 92.02 C 186.97 91.72 187.99 91.42 189.02 91.13 C 189.39 93.38 189.82 95.64 190.39 97.85 C 190.90 97.72 191.92 97.44 192.44 97.31 C 191.88 95.09 191.29 92.89 190.59 90.72 C 192.52 91.00 194.33 91.72 196.11 92.47 C 196.89 93.10 198.45 94.35 199.24 94.97 L 199.31 93.37 C 200.46 93.13 201.62 92.91 202.77 92.69 C 202.63 92.27 202.36 91.44 202.22 91.02 C 201.51 90.30 200.82 89.58 200.13 88.86 C 198.79 87.20 196.90 86.21 195.01 85.35 C 191.98 87.88 187.71 87.49 184.04 87.94 M 169.78 89.95 C 169.69 92.43 169.73 94.91 169.97 97.37 C 171.46 97.29 172.95 97.17 174.44 97.01 C 174.52 96.30 174.68 94.88 174.76 94.17 C 173.78 94.33 171.81 94.65 170.83 94.81 C 174.06 94.27 175.35 91.63 175.90 88.65 C 173.85 89.06 171.81 89.51 169.78 89.95 M 198.82 94.79 C 199.02 96.98 199.33 99.16 199.40 101.36 C 200.30 101.12 202.10 100.65 203.00 100.42 L 203.07 99.02 C 204.04 97.37 203.14 95.37 202.80 93.67 C 202.05 94.05 200.55 94.80 199.80 95.17 L 198.82 94.79 M 170.59 100.12 C 172.21 100.24 173.83 100.35 175.45 100.44 C 175.30 99.78 175.00 98.45 174.84 97.79 C 173.07 97.89 170.68 97.71 170.59 100.12 M 190.64 99.50 C 191.79 102.41 192.18 105.53 192.94 108.55 C 188.81 110.19 184.60 108.67 180.57 107.56 C 179.46 105.98 178.35 103.85 176.03 104.09 C 176.24 103.57 176.66 102.54 176.87 102.02 C 176.02 101.90 174.32 101.65 173.47 101.53 C 173.41 102.01 173.30 102.95 173.24 103.42 C 174.54 104.66 175.76 105.97 176.98 107.28 C 177.66 107.20 179.01 107.03 179.69 106.94 C 178.05 109.18 180.80 109.17 181.93 109.75 C 185.58 110.89 189.42 111.94 193.22 110.86 C 193.82 113.05 194.28 115.29 194.44 117.56 C 197.54 117.04 194.83 112.92 194.81 110.84 C 196.85 109.18 199.09 107.63 200.45 105.30 C 199.73 105.36 198.30 105.48 197.58 105.54 C 196.54 106.75 195.30 107.72 193.69 108.00 C 193.98 105.05 192.90 102.25 192.59 99.36 C 192.11 99.39 191.13 99.46 190.64 99.50 M 198.92 104.11 C 200.13 105.21 202.46 103.50 201.65 102.03 C 200.49 100.95 198.13 102.69 198.92 104.11 M 184.36 103.16 C 183.63 104.93 186.40 106.10 187.76 105.44 C 188.09 103.96 185.65 102.05 184.36 103.16 M 195.37 118.07 C 194.46 119.03 195.06 122.43 196.74 121.31 C 197.50 120.35 197.02 117.04 195.37 118.07 Z" />
<path fill="#2ddefa" opacity="1.00" d=" M 98.41 70.51 C 99.48 70.44 100.54 70.35 101.61 70.24 C 101.51 70.66 101.31 71.48 101.22 71.89 C 102.57 72.19 103.93 72.39 105.32 72.50 C 104.69 72.81 103.44 73.44 102.82 73.75 L 104.05 74.64 L 103.24 74.06 C 102.98 73.87 102.45 73.50 102.19 73.31 C 101.27 73.04 100.34 72.78 99.42 72.53 C 99.11 71.84 98.77 71.17 98.41 70.51 Z" />
</g>
<g id="#000000ff">
<path fill="#000000" opacity="1.00" d=" M 106.77 18.02 C 107.49 21.23 107.75 24.60 109.52 27.47 C 108.54 27.48 106.57 27.49 105.58 27.50 C 105.68 25.60 105.29 23.55 106.54 21.93 C 105.31 20.61 105.39 19.31 106.77 18.02 Z" />
<path fill="#000000" opacity="1.00" d=" M 194.42 50.31 C 195.07 50.27 196.36 50.17 197.01 50.12 C 197.06 52.05 196.63 53.97 194.19 53.19 C 194.25 52.47 194.36 51.03 194.42 50.31 Z" />
<path fill="#000000" opacity="1.00" d=" M 182.97 58.82 C 182.26 57.22 181.91 54.44 183.72 53.33 C 183.89 53.70 184.24 54.45 184.41 54.83 C 184.61 56.17 184.75 57.53 184.84 58.89 C 184.37 58.87 183.44 58.84 182.97 58.82 Z" />
<path fill="#000000" opacity="1.00" d=" M 175.48 78.29 C 178.43 75.09 180.80 70.51 185.62 70.01 L 185.88 72.58 C 184.04 72.68 182.30 73.30 180.75 74.29 C 183.64 73.81 186.54 73.36 189.43 72.88 C 188.76 73.65 187.42 75.19 186.75 75.96 C 188.38 78.36 188.74 81.34 188.84 84.17 C 190.34 84.57 191.84 84.96 193.33 85.38 C 191.36 85.58 189.39 85.79 187.44 86.09 C 188.20 82.32 185.58 78.97 186.17 75.19 L 185.44 76.54 C 182.76 76.42 180.17 76.85 177.83 78.18 C 177.05 78.21 176.26 78.25 175.48 78.29 Z" />
<path fill="#000000" opacity="1.00" d=" M 179.89 78.75 C 181.63 78.64 183.37 78.46 185.10 78.19 C 184.42 78.88 183.75 79.58 183.10 80.29 C 182.34 80.14 180.82 79.85 180.06 79.71 C 179.78 80.01 179.23 80.62 178.96 80.92 C 178.29 80.96 176.95 81.04 176.27 81.07 C 177.29 80.45 178.31 79.80 179.31 79.14 L 179.89 78.75 Z" />
<path fill="#000000" opacity="1.00" d=" M 174.20 87.02 C 175.93 86.23 177.56 85.26 179.12 84.18 C 178.15 85.56 177.12 86.90 176.08 88.23 C 174.17 88.29 172.27 88.40 170.37 88.50 L 170.30 87.45 C 171.28 87.34 173.23 87.13 174.20 87.02 Z" />
<path fill="#000000" opacity="1.00" d=" M 184.04 87.94 C 187.71 87.49 191.98 87.88 195.01 85.35 C 196.90 86.21 198.79 87.20 200.13 88.86 C 198.78 89.26 197.44 89.66 196.11 90.05 C 196.75 89.32 197.40 88.59 198.05 87.86 C 195.67 88.12 191.65 86.28 191.27 89.85 C 190.29 89.70 189.32 89.56 188.34 89.42 C 185.68 90.48 182.95 91.39 180.19 92.15 C 181.25 90.60 181.92 88.31 184.04 87.94 Z" />
<path fill="#000000" opacity="1.00" d=" M 198.82 94.79 L 199.80 95.17 C 199.95 95.34 200.25 95.69 200.39 95.86 C 200.40 97.23 199.89 98.57 199.65 99.91 C 200.51 99.69 202.22 99.24 203.07 99.02 L 203.00 100.42 C 202.10 100.65 200.30 101.12 199.40 101.36 C 199.33 99.16 199.02 96.98 198.82 94.79 Z" />
<path fill="#000000" opacity="1.00" d=" M 84.30 106.47 C 99.89 104.97 115.56 105.24 131.18 105.79 C 135.78 106.43 140.33 107.40 144.91 108.11 C 145.89 112.19 146.54 116.35 147.47 120.44 C 148.43 124.67 149.06 128.98 150.04 133.21 C 149.30 134.01 148.57 134.81 147.83 135.61 C 147.68 132.66 147.37 129.72 146.98 126.79 C 146.78 124.93 146.46 123.10 146.15 121.26 C 145.88 119.77 145.63 118.29 145.36 116.80 C 144.93 114.42 144.48 112.05 143.98 109.68 C 142.61 109.44 141.25 109.18 139.89 108.90 L 139.42 108.79 C 138.81 108.61 137.58 108.26 136.96 108.09 C 125.43 105.97 113.71 107.64 102.09 107.05 C 94.17 107.09 86.14 107.34 78.40 109.18 C 76.28 109.42 74.60 110.69 73.60 112.55 C 69.17 118.41 64.24 123.89 59.59 129.58 C 59.59 128.25 59.64 126.92 59.73 125.60 C 64.50 119.87 70.00 114.74 74.39 108.69 C 77.70 107.99 80.95 107.00 84.30 106.47 Z" />
<path fill="#000000" opacity="1.00" d=" M 60.74 114.64 C 63.18 114.57 65.61 114.53 68.05 114.49 C 66.83 115.85 65.63 117.22 64.42 118.60 C 62.88 117.59 61.15 116.62 60.74 114.64 Z" />
<path fill="#000000" opacity="1.00" d=" M 194.23 126.67 C 194.73 124.74 194.51 121.79 197.40 122.17 C 197.05 123.70 196.79 125.27 196.35 126.78 L 195.57 127.36 C 195.24 127.19 194.56 126.84 194.23 126.67 Z" />
<path fill="#000000" opacity="1.00" d=" M 144.69 124.84 L 144.81 125.32 C 144.51 126.27 144.21 127.22 143.89 128.16 C 143.52 129.57 144.08 130.53 145.60 131.04 C 145.41 131.78 145.22 132.52 145.03 133.27 C 144.56 132.40 143.62 130.68 143.16 129.82 C 141.87 131.21 140.59 132.60 139.31 133.99 C 142.00 134.13 144.69 134.27 147.37 134.60 L 146.40 135.52 C 143.38 135.65 140.34 135.64 137.32 135.81 C 137.14 135.81 136.79 135.80 136.62 135.80 C 131.47 135.19 126.28 135.29 121.12 135.56 L 120.19 135.15 C 120.39 135.87 120.78 137.29 120.98 138.01 C 120.50 137.96 119.54 137.88 119.07 137.84 L 119.59 136.58 L 120.04 135.58 C 107.49 135.50 94.95 135.88 82.41 135.32 C 85.60 134.43 88.84 133.78 92.04 133.00 C 96.64 133.34 101.25 133.49 105.87 133.42 C 107.23 133.42 108.59 133.45 109.95 133.49 C 111.78 133.55 113.60 133.60 115.43 133.65 L 115.98 133.72 C 119.74 134.54 123.46 133.50 127.15 132.87 C 130.65 133.77 134.41 134.22 137.92 133.13 C 140.72 130.85 142.67 127.77 144.69 124.84 Z" />
<path fill="#000000" opacity="1.00" d=" M 135.52 159.67 C 135.81 160.71 136.11 161.74 136.43 162.77 C 135.19 163.50 133.94 164.20 132.69 164.89 C 131.09 164.19 129.47 163.52 127.81 162.97 C 130.32 162.79 132.84 162.68 135.35 162.58 C 135.40 161.85 135.48 160.40 135.52 159.67 Z" />
<path fill="#000000" opacity="1.00" d=" M 102.97 179.63 C 103.89 177.61 104.78 175.58 105.74 173.58 C 106.38 174.95 107.01 176.33 107.70 177.67 L 108.77 177.75 C 109.31 177.68 110.39 177.54 110.93 177.48 C 109.48 178.12 108.16 179.25 106.54 179.34 C 105.64 179.41 103.86 179.56 102.97 179.63 Z" />
<path fill="#000000" opacity="1.00" d=" M 82.96 191.26 C 84.13 191.12 85.31 191.03 86.50 191.00 C 86.58 192.45 84.04 193.82 82.70 193.47 C 82.77 192.92 82.89 191.81 82.96 191.26 Z" />
</g>
<g id="#092c32ff">
<path fill="#092c32" opacity="1.00" d=" M 106.32 28.30 C 107.55 28.24 108.79 28.18 110.03 28.11 C 110.24 28.60 110.66 29.59 110.87 30.09 C 111.86 30.84 112.84 31.59 113.83 32.35 C 112.30 33.39 110.75 34.42 109.02 35.09 C 108.45 35.12 107.31 35.17 106.73 35.20 C 106.88 37.35 107.08 39.49 107.27 41.64 L 105.50 41.57 C 105.87 37.15 105.16 32.63 106.32 28.30 Z" />
<path fill="#092c32" opacity="1.00" d=" M 184.36 103.16 C 185.65 102.05 188.09 103.96 187.76 105.44 C 186.40 106.10 183.63 104.93 184.36 103.16 Z" />
</g>
<g id="#135c67ff">
<path fill="#135c67" opacity="1.00" d=" M 113.83 32.35 C 114.27 32.95 114.70 33.56 115.12 34.18 C 114.97 34.40 114.69 34.85 114.55 35.07 C 113.41 35.57 112.24 36.02 111.08 36.47 C 110.39 36.00 109.70 35.56 109.02 35.09 C 110.75 34.42 112.30 33.39 113.83 32.35 Z" />
</g>
<g id="#061f23ff">
<path fill="#061f23" opacity="1.00" d=" M 115.12 34.18 C 120.05 38.95 124.08 45.95 122.21 53.03 C 120.88 57.50 120.25 63.03 116.18 65.92 C 117.82 60.96 121.07 56.38 120.65 50.93 C 121.10 47.40 118.67 44.51 118.35 41.11 C 116.87 40.83 115.98 39.73 115.28 38.50 C 113.90 37.79 112.49 37.11 111.08 36.47 C 112.24 36.02 113.41 35.57 114.55 35.07 C 114.69 34.85 114.97 34.40 115.12 34.18 Z" />
</g>
<g id="#072428ff">
<path fill="#072428" opacity="1.00" d=" M 183.03 50.24 C 184.61 46.50 186.40 41.34 191.00 40.67 C 194.61 42.21 196.27 46.07 196.85 49.71 C 196.15 49.57 194.74 49.28 194.04 49.14 L 193.21 47.94 L 195.05 47.44 C 190.44 46.60 185.40 50.73 185.46 55.41 L 184.41 54.83 C 184.24 54.45 183.89 53.70 183.72 53.33 C 183.42 52.32 183.19 51.29 183.03 50.24 M 189.47 44.25 C 188.45 45.50 190.74 46.60 191.51 45.45 C 192.52 44.19 190.24 43.17 189.47 44.25 Z" />
</g>
<g id="#07061bff">
<path fill="#07061b" opacity="1.00" d=" M 105.76 42.43 L 107.25 41.84 C 106.87 45.93 106.92 50.00 107.25 54.09 C 106.81 58.84 107.10 63.59 107.32 68.35 C 106.77 68.64 105.67 69.20 105.12 69.49 C 105.69 69.47 106.82 69.43 107.39 69.41 C 107.09 71.57 106.56 73.70 105.48 75.61 L 104.92 75.25 C 104.70 75.10 104.27 74.79 104.05 74.64 L 102.82 73.75 C 103.44 73.44 104.69 72.81 105.32 72.50 C 103.93 72.39 102.57 72.19 101.22 71.89 C 101.31 71.48 101.51 70.66 101.61 70.24 C 100.54 70.35 99.48 70.44 98.41 70.51 C 98.77 71.17 99.11 71.84 99.42 72.53 C 96.27 73.17 93.13 73.82 89.94 74.27 C 84.58 74.90 79.47 76.79 74.10 77.43 C 73.85 87.65 73.41 97.93 74.31 108.11 L 74.39 108.69 C 72.07 109.93 70.31 111.90 68.53 113.78 C 65.78 113.61 63.02 113.48 60.27 113.32 C 61.90 111.28 63.45 108.95 65.92 107.84 C 68.14 106.77 70.65 107.52 72.98 107.76 C 73.06 97.17 73.21 86.58 72.85 75.99 C 77.70 75.28 82.14 72.83 87.06 72.62 C 90.54 72.41 93.98 71.75 97.29 70.65 C 96.33 70.15 95.38 69.64 94.42 69.13 L 92.97 68.34 C 96.49 65.22 101.50 64.64 105.83 66.25 C 105.54 58.32 105.59 50.36 105.76 42.43 M 98.80 67.37 C 99.72 69.37 103.79 70.20 103.17 66.99 C 101.71 67.10 100.25 67.22 98.80 67.37 Z" />
</g>
<g id="#0e4750ff">
<path fill="#0e4750" opacity="1.00" d=" M 189.47 44.25 C 190.24 43.17 192.52 44.19 191.51 45.45 C 190.74 46.60 188.45 45.50 189.47 44.25 Z" />
</g>
<g id="#78eafcff">
<path fill="#78eafc" opacity="1.00" d=" M 58.98 52.99 C 59.09 51.34 58.57 49.08 60.67 48.52 L 60.47 49.66 C 59.57 54.38 60.11 59.21 60.00 63.98 C 59.92 83.94 60.16 103.90 59.87 123.86 C 58.51 121.12 59.06 118.00 58.98 115.06 C 59.04 94.37 59.00 73.68 58.98 52.99 Z" />
</g>
<g id="#352fc7ff">
<path fill="#352fc7" opacity="1.00" d=" M 60.00 63.98 C 60.11 59.21 59.57 54.38 60.47 49.66 C 61.19 50.13 62.62 51.07 63.34 51.54 C 63.38 51.57 63.47 51.62 63.52 51.65 C 66.53 53.16 69.55 54.67 72.37 56.54 C 72.40 56.56 72.47 56.60 72.51 56.63 C 74.14 57.61 75.78 58.56 77.44 59.49 C 77.48 59.51 77.55 59.55 77.59 59.57 C 79.91 60.80 82.19 62.10 84.41 63.52 C 84.44 63.54 84.51 63.58 84.55 63.60 C 86.15 64.58 87.78 65.53 89.41 66.48 C 89.45 66.50 89.53 66.55 89.57 66.57 C 91.15 67.49 92.77 68.34 94.42 69.13 C 87.50 70.98 80.33 71.71 73.36 73.31 C 73.23 73.98 72.98 75.32 72.85 75.99 C 73.21 86.58 73.06 97.17 72.98 107.76 C 70.65 107.52 68.14 106.77 65.92 107.84 C 63.45 108.95 61.90 111.28 60.27 113.32 C 63.02 113.48 65.78 113.61 68.53 113.78 L 67.96 114.39 L 68.05 114.49 C 65.61 114.53 63.18 114.57 60.74 114.64 C 61.15 116.62 62.88 117.59 64.42 118.60 C 62.89 120.34 61.33 122.06 59.87 123.86 C 60.16 103.90 59.92 83.94 60.00 63.98 Z" />
<path fill="#352fc7" opacity="1.00" d=" M 89.94 74.27 C 93.13 73.82 96.27 73.17 99.42 72.53 C 100.34 72.78 101.27 73.04 102.19 73.31 C 102.02 83.12 102.25 92.94 101.99 102.75 C 101.38 102.38 100.15 101.64 99.54 101.27 C 99.53 99.51 99.51 97.75 99.49 95.99 C 99.43 97.70 99.37 99.42 99.30 101.13 C 96.95 101.77 94.68 102.73 92.98 104.55 C 86.61 104.88 80.51 106.81 74.31 108.11 C 73.41 97.93 73.85 87.65 74.10 77.43 C 79.47 76.79 84.58 74.90 89.94 74.27 Z" />
<path fill="#352fc7" opacity="1.00" d=" M 103.24 74.06 L 104.05 74.64 C 104.27 74.79 104.70 75.10 104.92 75.25 L 105.48 75.61 C 107.10 76.62 108.77 77.53 110.42 78.49 C 110.46 78.51 110.53 78.56 110.56 78.58 C 112.17 79.53 113.77 80.51 115.39 81.45 C 115.42 81.47 115.50 81.52 115.54 81.54 C 117.87 82.81 120.20 84.10 122.46 85.50 C 122.50 85.52 122.57 85.56 122.60 85.58 C 124.88 86.84 127.15 88.13 129.35 89.52 C 129.39 89.54 129.46 89.58 129.50 89.61 C 131.82 90.86 134.17 92.09 136.41 93.48 C 136.45 93.50 136.52 93.55 136.56 93.57 C 138.87 94.86 141.19 96.14 143.44 97.55 C 143.47 97.57 143.54 97.61 143.57 97.63 C 145.17 98.58 146.78 99.52 148.38 100.46 C 148.42 100.48 148.50 100.53 148.54 100.55 C 150.83 101.82 153.13 103.08 155.34 104.50 C 155.38 104.52 155.45 104.57 155.49 104.59 C 157.11 105.58 158.75 106.54 160.41 107.47 C 160.45 107.49 160.53 107.53 160.57 107.56 L 162.34 108.52 C 162.39 108.55 162.48 108.60 162.53 108.62 C 164.86 109.80 167.14 111.10 169.34 112.51 C 169.37 112.54 169.44 112.58 169.48 112.60 C 171.75 113.95 174.10 115.18 176.39 116.51 C 176.43 116.53 176.50 116.57 176.54 116.59 C 178.09 117.51 179.73 118.28 181.32 119.13 L 181.63 119.33 L 181.94 119.47 C 184.09 120.54 186.08 121.89 188.10 123.18 C 190.07 124.46 192.15 125.57 194.23 126.67 C 194.56 126.84 195.24 127.19 195.57 127.36 C 190.78 131.15 185.13 133.59 180.17 137.13 C 178.98 137.91 177.77 138.64 176.57 139.37 C 176.53 139.40 176.46 139.44 176.43 139.46 C 174.80 140.44 173.16 141.41 171.51 142.35 C 171.45 142.39 171.33 142.46 171.27 142.49 L 169.59 143.34 C 169.54 143.37 169.42 143.44 169.36 143.47 C 167.80 144.42 166.25 145.40 164.69 146.36 C 164.64 142.96 164.24 139.57 163.78 136.21 C 165.17 135.76 166.57 135.32 167.94 134.80 C 169.15 133.10 168.39 130.84 168.61 128.89 C 166.14 128.10 163.54 128.06 160.97 128.18 C 158.98 123.40 157.11 118.58 154.90 113.90 C 155.53 113.64 156.77 113.13 157.40 112.87 C 155.66 111.16 153.88 109.47 151.79 108.19 L 150.53 107.44 C 144.61 105.75 138.59 103.87 132.37 103.85 C 122.51 103.33 112.64 103.33 102.77 103.85 C 103.25 93.92 102.37 83.98 103.24 74.06 Z" />
<path fill="#352fc7" opacity="1.00" d=" M 139.89 108.90 C 141.25 109.18 142.61 109.44 143.98 109.68 C 144.48 112.05 144.93 114.42 145.36 116.80 C 144.99 116.72 144.25 116.55 143.88 116.46 C 143.31 114.50 142.62 112.55 141.46 110.85 C 141.07 110.36 140.28 109.39 139.89 108.90 Z" />
</g>
<g id="#92c2caff">
<path fill="#92c2ca" opacity="1.00" d=" M 63.34 51.54 C 63.38 51.57 63.47 51.62 63.52 51.65 C 63.47 51.62 63.38 51.57 63.34 51.54 Z" />
</g>
<g id="#104e58ff">
<path fill="#104e58" opacity="1.00" d=" M 194.20 53.68 C 195.01 53.61 196.63 53.48 197.43 53.42 C 197.35 55.19 196.51 56.66 195.24 57.84 L 196.97 57.64 C 196.63 60.28 194.03 60.79 192.01 61.73 C 193.31 61.29 194.61 60.84 195.92 60.40 C 195.55 61.91 195.18 63.42 194.80 64.92 C 192.62 65.34 190.39 65.76 188.49 66.99 C 190.37 66.80 192.22 66.40 194.06 65.99 C 193.39 67.11 192.74 68.25 191.98 69.32 C 190.30 72.24 186.55 69.95 184.09 69.50 C 183.89 66.28 182.26 62.77 183.03 59.77 C 183.47 59.77 184.34 59.79 184.78 59.80 C 185.07 62.32 185.36 64.84 185.90 67.32 C 190.38 63.99 192.97 59.03 194.20 53.68 Z" />
<path fill="#104e58" opacity="1.00" d=" M 175.16 78.31 L 175.48 78.29 C 176.26 78.25 177.05 78.21 177.83 78.18 C 178.20 78.42 178.94 78.90 179.31 79.14 C 178.31 79.80 177.29 80.45 176.27 81.07 C 175.43 81.31 173.74 81.78 172.89 82.02 C 173.64 80.77 174.40 79.54 175.16 78.31 Z" />
<path fill="#104e58" opacity="1.00" d=" M 180.06 79.71 C 180.82 79.85 182.34 80.14 183.10 80.29 C 181.87 81.69 180.61 83.07 179.12 84.18 C 177.56 85.26 175.93 86.23 174.20 87.02 L 174.60 86.24 C 174.97 85.52 175.34 84.79 175.72 84.07 C 175.24 83.67 174.28 82.89 173.80 82.49 C 175.07 82.48 176.34 82.48 177.61 82.49 C 177.95 82.10 178.62 81.32 178.96 80.92 C 179.23 80.62 179.78 80.01 180.06 79.71 Z" />
<path fill="#104e58" opacity="1.00" d=" M 199.80 95.17 C 200.55 94.80 202.05 94.05 202.80 93.67 C 203.14 95.37 204.04 97.37 203.07 99.02 C 202.22 99.24 200.51 99.69 199.65 99.91 C 199.89 98.57 200.40 97.23 200.39 95.86 C 200.25 95.69 199.95 95.34 199.80 95.17 Z" />
<path fill="#104e58" opacity="1.00" d=" M 179.74 98.19 C 180.95 97.83 182.19 97.49 183.39 97.07 C 183.37 98.77 183.49 100.48 184.38 101.98 C 183.90 102.13 182.94 102.41 182.47 102.55 C 181.67 101.03 180.78 99.56 179.74 98.19 Z" />
</g>
<g id="#7fccd8ff">
<path fill="#7fccd8" opacity="1.00" d=" M 72.37 56.54 C 72.40 56.56 72.47 56.60 72.51 56.63 C 72.47 56.60 72.40 56.56 72.37 56.54 Z" />
</g>
<g id="#79bbc5ff">
<path fill="#79bbc5" opacity="1.00" d=" M 77.44 59.49 C 77.48 59.51 77.55 59.55 77.59 59.57 C 77.55 59.55 77.48 59.51 77.44 59.49 Z" />
</g>
<g id="#89c7d1ff">
<path fill="#89c7d1" opacity="1.00" d=" M 84.41 63.52 C 84.44 63.54 84.51 63.58 84.55 63.60 C 84.51 63.58 84.44 63.54 84.41 63.52 Z" />
<path fill="#89c7d1" opacity="1.00" d=" M 122.46 85.50 C 122.50 85.52 122.57 85.56 122.60 85.58 C 122.57 85.56 122.50 85.52 122.46 85.50 Z" />
</g>
<g id="#8dbbc3ff">
<path fill="#8dbbc3" opacity="1.00" d=" M 89.41 66.48 C 89.45 66.50 89.53 66.55 89.57 66.57 C 89.53 66.55 89.45 66.50 89.41 66.48 Z" />
</g>
<g id="#0a3339ff">
<path fill="#0a3339" opacity="1.00" d=" M 98.80 67.37 C 100.25 67.22 101.71 67.10 103.17 66.99 C 103.79 70.20 99.72 69.37 98.80 67.37 Z" />
</g>
<g id="#110f40ff">
<path fill="#110f40" opacity="1.00" d=" M 94.42 69.13 C 95.38 69.64 96.33 70.15 97.29 70.65 C 93.98 71.75 90.54 72.41 87.06 72.62 C 82.14 72.83 77.70 75.28 72.85 75.99 C 72.98 75.32 73.23 73.98 73.36 73.31 C 80.33 71.71 87.50 70.98 94.42 69.13 Z" />
<path fill="#110f40" opacity="1.00" d=" M 102.19 73.31 C 102.45 73.50 102.98 73.87 103.24 74.06 C 102.37 83.98 103.25 93.92 102.77 103.85 C 99.50 104.00 96.24 104.34 92.98 104.55 C 94.68 102.73 96.95 101.77 99.30 101.13 C 99.37 99.42 99.43 97.70 99.49 95.99 C 99.51 97.75 99.53 99.51 99.54 101.27 C 100.15 101.64 101.38 102.38 101.99 102.75 C 102.25 92.94 102.02 83.12 102.19 73.31 Z" />
</g>
<g id="#030f10ff">
<path fill="#030f10" opacity="1.00" d=" M 186.59 70.66 C 187.57 70.32 189.96 70.69 189.72 72.05 C 188.74 72.68 186.19 72.05 186.59 70.66 Z" />
</g>
<g id="#8bc9d3ff">
<path fill="#8bc9d3" opacity="1.00" d=" M 110.42 78.49 C 110.46 78.51 110.53 78.56 110.56 78.58 C 110.53 78.56 110.46 78.51 110.42 78.49 Z" />
</g>
<g id="#8db9c0ff">
<path fill="#8db9c0" opacity="1.00" d=" M 115.39 81.45 C 115.42 81.47 115.50 81.52 115.54 81.54 C 115.50 81.52 115.42 81.47 115.39 81.45 Z" />
</g>
<g id="#08272bff">
<path fill="#08272b" opacity="1.00" d=" M 170.60 86.04 C 171.57 84.95 171.93 82.08 173.80 82.49 C 174.28 82.89 175.24 83.67 175.72 84.07 C 175.34 84.79 174.97 85.52 174.60 86.24 C 173.60 86.19 171.60 86.09 170.60 86.04 Z" />
</g>
<g id="#104d56ff">
<path fill="#104d56" opacity="1.00" d=" M 191.27 89.85 C 191.65 86.28 195.67 88.12 198.05 87.86 C 197.40 88.59 196.75 89.32 196.11 90.05 C 197.44 89.66 198.78 89.26 200.13 88.86 C 200.82 89.58 201.51 90.30 202.22 91.02 C 200.19 91.55 198.16 92.08 196.11 92.47 C 194.33 91.72 192.52 91.00 190.59 90.72 C 191.29 92.89 191.88 95.09 192.44 97.31 C 191.92 97.44 190.90 97.72 190.39 97.85 C 189.82 95.64 189.39 93.38 189.02 91.13 C 187.99 91.42 186.97 91.72 185.94 92.02 C 185.53 92.88 185.13 93.75 184.76 94.64 L 184.61 94.46 L 184.14 93.89 C 183.28 92.47 181.74 92.08 180.19 92.15 C 182.95 91.39 185.68 90.48 188.34 89.42 C 189.32 89.56 190.29 89.70 191.27 89.85 Z" />
</g>
<g id="#87c5cfff">
<path fill="#87c5cf" opacity="1.00" d=" M 129.35 89.52 C 129.39 89.54 129.46 89.58 129.50 89.61 C 129.46 89.58 129.39 89.54 129.35 89.52 Z" />
<path fill="#87c5cf" opacity="1.00" d=" M 136.41 93.48 C 136.45 93.50 136.52 93.55 136.56 93.57 C 136.52 93.55 136.45 93.50 136.41 93.48 Z" />
</g>
<g id="#0e434bff">
<path fill="#0e434b" opacity="1.00" d=" M 169.78 89.95 C 171.81 89.51 173.85 89.06 175.90 88.65 C 175.35 91.63 174.06 94.27 170.83 94.81 C 171.81 94.65 173.78 94.33 174.76 94.17 C 174.68 94.88 174.52 96.30 174.44 97.01 C 172.95 97.17 171.46 97.29 169.97 97.37 C 169.73 94.91 169.69 92.43 169.78 89.95 Z" />
</g>
<g id="#030f11ff">
<path fill="#030f11" opacity="1.00" d=" M 196.11 92.47 C 198.16 92.08 200.19 91.55 202.22 91.02 C 202.36 91.44 202.63 92.27 202.77 92.69 C 201.62 92.91 200.46 93.13 199.31 93.37 L 199.24 94.97 C 198.45 94.35 196.89 93.10 196.11 92.47 Z" />
<path fill="#030f11" opacity="1.00" d=" M 190.64 99.50 C 191.13 99.46 192.11 99.39 192.59 99.36 C 192.90 102.25 193.98 105.05 193.69 108.00 C 195.30 107.72 196.54 106.75 197.58 105.54 C 198.30 105.48 199.73 105.36 200.45 105.30 C 199.09 107.63 196.85 109.18 194.81 110.84 C 194.83 112.92 197.54 117.04 194.44 117.56 C 194.28 115.29 193.82 113.05 193.22 110.86 C 189.42 111.94 185.58 110.89 181.93 109.75 C 180.80 109.17 178.05 109.18 179.69 106.94 C 179.01 107.03 177.66 107.20 176.98 107.28 C 175.76 105.97 174.54 104.66 173.24 103.42 C 173.30 102.95 173.41 102.01 173.47 101.53 C 174.32 101.65 176.02 101.90 176.87 102.02 C 176.66 102.54 176.24 103.57 176.03 104.09 C 178.35 103.85 179.46 105.98 180.57 107.56 C 184.60 108.67 188.81 110.19 192.94 108.55 C 192.18 105.53 191.79 102.41 190.64 99.50 Z" />
<path fill="#030f11" opacity="1.00" d=" M 59.74 191.80 C 60.37 191.79 61.64 191.78 62.27 191.77 C 62.48 193.10 62.67 194.44 62.86 195.78 C 62.34 196.41 61.30 197.66 60.78 198.29 C 61.47 198.60 62.83 199.23 63.52 199.54 C 62.50 199.49 60.46 199.40 59.44 199.36 C 59.75 198.83 60.37 197.78 60.68 197.26 C 61.87 196.21 63.20 192.34 60.40 192.99 C 60.24 192.69 59.90 192.10 59.74 191.80 Z" />
<path fill="#030f11" opacity="1.00" d=" M 71.63 193.07 C 72.61 192.75 73.60 192.43 74.58 192.12 C 75.87 194.06 75.80 196.22 74.56 198.17 C 73.70 198.84 72.79 199.45 71.88 200.05 C 73.08 198.42 74.20 196.71 75.05 194.87 C 74.20 194.42 72.49 193.52 71.63 193.07 Z" />
</g>
<g id="#061d20ff">
<path fill="#061d20" opacity="1.00" d=" M 179.54 93.69 C 181.23 93.28 182.76 93.35 184.14 93.89 L 184.61 94.46 C 184.30 95.11 183.69 96.42 183.39 97.07 C 182.19 97.49 180.95 97.83 179.74 98.19 C 179.64 96.69 179.57 95.19 179.54 93.69 Z" />
</g>
<g id="#74c5d2ff">
<path fill="#74c5d2" opacity="1.00" d=" M 143.44 97.55 C 143.47 97.57 143.54 97.61 143.57 97.63 C 143.54 97.61 143.47 97.57 143.44 97.55 Z" />
</g>
<g id="#0a2f35ff">
<path fill="#0a2f35" opacity="1.00" d=" M 170.59 100.12 C 170.68 97.71 173.07 97.89 174.84 97.79 C 175.00 98.45 175.30 99.78 175.45 100.44 C 173.83 100.35 172.21 100.24 170.59 100.12 Z" />
</g>
<g id="#8ccad4ff">
<path fill="#8ccad4" opacity="1.00" d=" M 148.38 100.46 C 148.42 100.48 148.50 100.53 148.54 100.55 C 148.50 100.53 148.42 100.48 148.38 100.46 Z" />
</g>
<g id="#08292eff">
<path fill="#08292e" opacity="1.00" d=" M 198.92 104.11 C 198.13 102.69 200.49 100.95 201.65 102.03 C 202.46 103.50 200.13 105.21 198.92 104.11 Z" />
</g>
<g id="#cfa1bfff">
<path fill="#cfa1bf" opacity="1.00" d=" M 74.31 108.11 C 80.51 106.81 86.61 104.88 92.98 104.55 C 96.24 104.34 99.50 104.00 102.77 103.85 C 112.64 103.33 122.51 103.33 132.37 103.85 L 131.18 105.79 C 115.56 105.24 99.89 104.97 84.30 106.47 C 80.95 107.00 77.70 107.99 74.39 108.69 L 74.31 108.11 Z" />
<path fill="#cfa1bf" opacity="1.00" d=" M 68.53 113.78 C 70.31 111.90 72.07 109.93 74.39 108.69 C 70.00 114.74 64.50 119.87 59.73 125.60 C 59.77 125.17 59.84 124.30 59.87 123.86 C 61.33 122.06 62.89 120.34 64.42 118.60 C 65.63 117.22 66.83 115.85 68.05 114.49 L 67.96 114.39 L 68.53 113.78 Z" />
<path fill="#cfa1bf" opacity="1.00" d=" M 97.10 159.19 C 103.52 158.19 109.68 155.65 116.24 155.55 C 116.61 155.87 117.36 156.52 117.74 156.85 C 116.10 157.47 114.51 158.17 112.90 158.85 C 107.39 161.65 100.95 161.32 95.43 164.04 C 92.62 164.12 89.81 163.99 87.00 163.80 C 90.13 161.83 93.36 159.76 97.10 159.19 Z" />
</g>
<g id="#b98ba9ff">
<path fill="#b98ba9" opacity="1.00" d=" M 132.37 103.85 C 138.59 103.87 144.61 105.75 150.53 107.44 L 151.79 108.19 C 151.05 108.42 149.59 108.87 148.85 109.09 C 148.70 111.41 149.40 113.66 149.82 115.92 C 149.05 117.43 148.26 118.93 147.47 120.44 C 146.54 116.35 145.89 112.19 144.91 108.11 C 140.33 107.40 135.78 106.43 131.18 105.79 L 132.37 103.85 Z" />
<path fill="#b98ba9" opacity="1.00" d=" M 105.12 168.38 C 105.74 168.48 106.98 168.70 107.60 168.80 C 107.54 169.19 107.41 169.96 107.35 170.35 C 107.52 172.87 108.14 175.32 108.77 177.75 L 107.70 177.67 C 107.01 176.33 106.38 174.95 105.74 173.58 C 104.78 175.58 103.89 177.61 102.97 179.63 C 101.23 180.84 99.13 181.22 97.05 181.18 C 89.69 181.25 82.33 181.06 74.98 181.33 C 82.48 184.45 90.63 183.52 98.49 184.54 C 94.96 186.76 91.39 188.94 87.64 190.77 C 86.10 190.64 84.58 190.47 83.05 190.31 C 82.60 188.74 82.67 186.92 81.74 185.54 C 78.47 185.08 75.16 185.22 71.87 184.98 C 68.84 181.56 63.73 183.00 59.68 182.26 C 59.67 181.66 59.65 180.46 59.64 179.86 C 64.19 180.05 68.90 181.03 73.31 179.45 C 70.27 178.90 67.19 178.68 64.11 178.57 C 65.18 177.96 66.25 177.34 67.33 176.73 C 74.71 176.99 82.10 176.65 89.48 176.93 C 84.73 178.11 79.80 177.84 74.96 178.33 C 82.48 179.41 90.06 179.83 97.65 179.84 C 102.72 178.61 102.86 172.22 105.12 168.38 Z" />
</g>
<g id="#8bc7d0ff">
<path fill="#8bc7d0" opacity="1.00" d=" M 155.34 104.50 C 155.38 104.52 155.45 104.57 155.49 104.59 C 155.45 104.57 155.38 104.52 155.34 104.50 Z" />
</g>
<g id="#646567ff">
<path fill="#646567" opacity="1.00" d=" M 78.40 109.18 C 86.14 107.34 94.17 107.09 102.09 107.05 C 113.71 107.64 125.43 105.97 136.96 108.09 C 134.63 109.19 133.27 111.29 132.54 113.70 C 132.35 114.10 131.99 114.89 131.81 115.28 C 131.50 113.10 132.04 110.98 132.79 108.95 C 129.34 108.70 125.88 108.45 122.43 108.23 C 122.06 109.72 121.70 111.21 121.33 112.71 C 121.11 111.15 120.89 109.59 120.67 108.04 C 118.06 108.21 115.46 108.45 112.85 108.60 C 109.45 108.63 106.05 108.56 102.66 108.70 C 105.40 111.60 110.00 109.97 113.57 110.38 C 112.20 110.89 110.83 111.38 109.43 111.81 L 108.39 112.07 C 106.19 111.78 104.02 111.27 101.86 110.79 C 101.65 110.53 101.23 110.02 101.03 109.76 C 97.62 109.45 93.57 108.35 90.74 110.89 C 89.19 111.07 87.67 110.41 86.17 110.15 C 86.34 111.55 86.52 112.95 86.70 114.35 C 85.99 115.21 85.29 116.07 84.61 116.95 C 84.41 117.22 84.01 117.76 83.81 118.03 C 82.77 119.46 81.72 120.88 80.65 122.28 C 79.71 117.93 82.57 114.09 84.03 110.20 C 82.15 109.85 80.28 109.48 78.40 109.18 Z" />
<path fill="#646567" opacity="1.00" d=" M 68.68 187.04 C 70.19 186.35 71.61 189.75 69.86 190.26 C 68.14 190.48 68.02 188.09 68.68 187.04 Z" />
</g>
<g id="#85b5bdff">
<path fill="#85b5bd" opacity="1.00" d=" M 160.41 107.47 C 160.45 107.49 160.53 107.53 160.57 107.56 C 160.53 107.53 160.45 107.49 160.41 107.47 Z" />
</g>
<g id="#2b2793ff">
<path fill="#2b2793" opacity="1.00" d=" M 112.85 108.60 C 115.46 108.45 118.06 108.21 120.67 108.04 C 120.89 109.59 121.11 111.15 121.33 112.71 C 121.70 111.21 122.06 109.72 122.43 108.23 C 125.88 108.45 129.34 108.70 132.79 108.95 C 132.04 110.98 131.50 113.10 131.81 115.28 C 131.56 115.70 131.06 116.53 130.81 116.95 C 130.17 116.88 128.91 116.75 128.28 116.68 C 127.77 115.26 127.26 113.85 126.76 112.43 C 125.60 112.08 124.45 111.73 123.30 111.37 C 123.75 112.60 124.17 113.85 124.52 115.11 C 125.21 115.12 126.58 115.13 127.27 115.13 C 126.72 116.21 126.17 117.28 125.62 118.35 C 123.71 113.71 116.18 114.69 115.83 119.74 C 115.59 120.68 115.37 121.62 115.18 122.57 L 114.84 124.00 C 113.11 124.21 111.37 124.35 109.64 124.52 C 109.28 124.09 108.56 123.24 108.20 122.81 C 108.33 120.36 108.19 117.81 106.78 115.70 C 108.13 115.21 109.49 114.73 110.84 114.25 C 110.37 113.44 109.90 112.62 109.43 111.81 C 110.83 111.38 112.20 110.89 113.57 110.38 L 112.85 108.60 M 117.25 113.24 C 117.74 113.82 117.74 113.82 117.25 113.24 Z" />
<path fill="#2b2793" opacity="1.00" d=" M 101.03 109.76 C 101.23 110.02 101.65 110.53 101.86 110.79 C 102.56 111.69 103.26 112.59 104.03 113.44 C 102.30 113.87 100.57 114.30 98.85 114.75 C 98.92 114.02 99.07 112.58 99.14 111.86 C 99.77 111.16 100.40 110.46 101.03 109.76 Z" />
</g>
<g id="#3d3e45ff">
<path fill="#3d3e45" opacity="1.00" d=" M 136.96 108.09 C 137.58 108.26 138.81 108.61 139.42 108.79 C 139.13 110.20 139.51 111.67 140.29 112.86 C 140.59 112.36 141.17 111.35 141.46 110.85 C 142.62 112.55 143.31 114.50 143.88 116.46 C 143.25 116.31 141.98 115.99 141.35 115.83 C 139.00 113.29 135.74 113.14 132.54 113.70 C 133.27 111.29 134.63 109.19 136.96 108.09 Z" />
<path fill="#3d3e45" opacity="1.00" d=" M 65.08 191.66 C 68.98 192.06 67.88 196.30 68.06 199.05 C 67.53 199.39 66.49 200.05 65.96 200.38 C 63.77 197.96 63.81 194.52 65.08 191.66 M 66.92 199.39 C 67.09 197.25 67.12 195.11 67.03 192.97 C 64.24 193.87 64.47 198.16 66.92 199.39 Z" />
</g>
<g id="#3c2e2eff">
<path fill="#3c2e2e" opacity="1.00" d=" M 148.85 109.09 C 149.59 108.87 151.05 108.42 151.79 108.19 C 153.88 109.47 155.66 111.16 157.40 112.87 C 156.77 113.13 155.53 113.64 154.90 113.90 C 154.59 113.71 153.96 113.33 153.65 113.14 C 154.44 117.38 156.22 121.34 157.26 125.52 C 157.26 125.98 157.24 126.91 157.24 127.38 C 156.10 125.32 155.09 123.20 154.24 121.01 C 154.09 121.98 153.79 123.92 153.64 124.89 C 152.72 123.63 151.81 122.36 150.98 121.04 C 150.53 119.34 150.18 117.63 149.82 115.92 C 149.40 113.66 148.70 111.41 148.85 109.09 Z" />
</g>
<g id="#7ac9d5ff">
<path fill="#7ac9d5" opacity="1.00" d=" M 162.34 108.52 C 162.39 108.55 162.48 108.60 162.53 108.62 C 162.48 108.60 162.39 108.55 162.34 108.52 Z" />
</g>
<g id="#393035ff">
<path fill="#393035" opacity="1.00" d=" M 73.60 112.55 C 74.60 110.69 76.28 109.42 78.40 109.18 C 80.28 109.48 82.15 109.85 84.03 110.20 C 82.57 114.09 79.71 117.93 80.65 122.28 C 81.72 120.88 82.77 119.46 83.81 118.03 C 84.20 119.67 84.68 121.28 85.24 122.87 C 85.56 123.05 86.19 123.42 86.50 123.61 C 86.85 123.79 87.56 124.15 87.91 124.32 C 87.45 125.13 87.00 125.95 86.57 126.78 C 87.75 128.22 89.89 129.42 89.41 131.59 C 87.47 131.73 85.76 130.98 84.51 129.51 C 84.15 126.52 83.92 123.52 83.53 120.54 C 82.94 122.28 82.35 124.03 81.90 125.82 C 81.36 126.03 80.28 126.45 79.74 126.66 C 78.33 126.79 76.92 126.93 75.52 127.15 C 77.25 122.33 79.37 117.66 81.21 112.89 C 78.68 112.75 76.14 112.64 73.60 112.55 M 78.33 124.18 C 78.81 124.73 78.81 124.73 78.33 124.18 Z" />
</g>
<g id="#101112ff">
<path fill="#101112" opacity="1.00" d=" M 90.74 110.89 C 93.57 108.35 97.62 109.45 101.03 109.76 C 100.40 110.46 99.77 111.16 99.14 111.86 C 97.64 111.06 96.01 108.86 94.25 110.25 C 94.10 111.06 94.07 111.88 94.16 112.71 C 94.07 113.23 93.88 114.27 93.79 114.79 C 93.39 114.05 93.00 113.32 92.61 112.58 C 91.11 112.59 89.61 112.63 88.11 112.70 C 87.76 113.11 87.05 113.94 86.70 114.35 C 86.52 112.95 86.34 111.55 86.17 110.15 C 87.67 110.41 89.19 111.07 90.74 110.89 Z" />
<path fill="#101112" opacity="1.00" d=" M 123.45 125.17 C 124.27 124.37 125.08 123.56 125.86 122.71 C 126.56 122.86 127.95 123.16 128.65 123.32 L 129.20 123.68 C 128.86 125.10 128.53 126.53 128.23 127.97 C 127.66 128.48 127.11 129.01 126.56 129.55 C 126.47 129.17 126.29 128.42 126.21 128.04 C 125.28 127.09 124.36 126.13 123.45 125.17 M 124.78 124.59 C 124.53 126.00 125.10 126.54 126.47 126.19 C 126.72 124.79 126.15 124.25 124.78 124.59 Z" />
<path fill="#101112" opacity="1.00" d=" M 73.95 130.03 C 76.23 129.28 78.59 128.85 80.95 128.44 C 81.59 128.52 82.87 128.66 83.52 128.73 C 83.77 128.93 84.26 129.31 84.51 129.51 C 85.76 130.98 87.47 131.73 89.41 131.59 C 89.64 131.61 90.10 131.67 90.33 131.69 C 90.81 131.81 91.78 132.03 92.26 132.14 L 92.04 133.00 C 88.84 133.78 85.60 134.43 82.41 135.32 C 79.98 135.37 77.55 135.33 75.13 135.28 C 73.42 135.13 71.71 134.96 70.00 134.81 C 69.54 135.92 68.88 136.89 68.01 137.70 C 68.17 136.97 68.50 135.51 68.66 134.78 C 65.58 134.85 62.49 134.85 59.41 134.75 C 59.61 134.45 60.00 133.86 60.19 133.56 C 64.89 132.90 69.85 132.75 73.95 130.03 Z" />
<path fill="#101112" opacity="1.00" d=" M 76.41 196.92 C 77.06 194.83 78.24 193.04 80.30 192.14 C 79.40 193.44 78.48 194.73 77.54 196.01 L 79.19 195.63 L 80.01 195.45 C 78.82 195.97 77.62 196.46 76.41 196.92 Z" />
</g>
<g id="#bebec1ff">
<path fill="#bebec1" opacity="1.00" d=" M 102.66 108.70 C 106.05 108.56 109.45 108.63 112.85 108.60 L 113.57 110.38 C 110.00 109.97 105.40 111.60 102.66 108.70 Z" />
</g>
<g id="#8b8366ff">
<path fill="#8b8366" opacity="1.00" d=" M 139.42 108.79 L 139.89 108.90 C 140.28 109.39 141.07 110.36 141.46 110.85 C 141.17 111.35 140.59 112.36 140.29 112.86 C 139.51 111.67 139.13 110.20 139.42 108.79 Z" />
</g>
<g id="#656669ff">
<path fill="#656669" opacity="1.00" d=" M 94.25 110.25 C 96.01 108.86 97.64 111.06 99.14 111.86 C 99.07 112.58 98.92 114.02 98.85 114.75 C 99.40 115.86 99.99 116.95 100.64 118.02 C 100.36 118.43 99.82 119.24 99.54 119.65 C 98.66 118.93 97.78 118.20 96.90 117.49 L 96.34 117.04 L 95.92 117.36 C 95.55 117.66 94.81 118.26 94.44 118.56 L 94.31 118.66 C 93.19 118.02 92.07 117.39 90.94 116.76 C 91.50 115.37 92.06 113.97 92.61 112.58 C 93.00 113.32 93.39 114.05 93.79 114.79 C 93.88 114.27 94.07 113.23 94.16 112.71 C 94.07 111.88 94.10 111.06 94.25 110.25 M 95.16 115.06 C 95.30 118.39 98.14 113.51 95.16 115.06 Z" />
<path fill="#656669" opacity="1.00" d=" M 70.56 187.03 C 71.83 187.52 73.83 187.03 74.62 188.45 C 74.29 189.25 73.87 190.02 73.48 190.80 C 72.48 189.57 71.50 188.32 70.56 187.03 Z" />
</g>
<g id="#343066ff">
<path fill="#343066" opacity="1.00" d=" M 101.86 110.79 C 104.02 111.27 106.19 111.78 108.39 112.07 L 109.43 111.81 C 109.90 112.62 110.37 113.44 110.84 114.25 C 109.49 114.73 108.13 115.21 106.78 115.70 C 105.88 114.93 104.94 114.20 104.03 113.44 C 103.26 112.59 102.56 111.69 101.86 110.79 Z" />
</g>
<g id="#6b6c75ff">
<path fill="#6b6c75" opacity="1.00" d=" M 123.30 111.37 C 124.45 111.73 125.60 112.08 126.76 112.43 C 127.26 113.85 127.77 115.26 128.28 116.68 C 128.91 116.75 130.17 116.88 130.81 116.95 C 130.70 117.11 130.48 117.44 130.38 117.60 C 128.23 118.68 127.11 120.79 125.86 122.71 C 125.08 123.56 124.27 124.37 123.45 125.17 C 124.36 126.13 125.28 127.09 126.21 128.04 C 126.29 128.42 126.47 129.17 126.56 129.55 C 127.11 129.01 127.66 128.48 128.23 127.97 C 128.92 127.80 130.30 127.46 130.99 127.29 C 130.41 126.07 129.83 124.86 129.20 123.68 L 128.65 123.32 C 128.97 122.17 129.30 121.02 129.64 119.88 C 131.10 122.36 132.75 124.72 134.48 127.02 C 134.51 128.93 134.67 130.85 134.58 132.77 C 132.49 133.61 130.91 131.06 129.06 130.36 C 128.39 131.17 127.75 132.01 127.15 132.87 C 123.46 133.50 119.74 134.54 115.98 133.72 C 116.68 133.34 118.07 132.58 118.77 132.20 C 118.97 132.38 119.36 132.73 119.55 132.90 C 119.88 131.90 120.20 130.89 120.53 129.89 C 120.80 130.54 121.35 131.84 121.62 132.49 C 122.39 130.94 122.75 129.24 122.56 127.51 C 122.43 126.02 122.29 124.52 122.14 123.03 C 121.60 123.23 120.52 123.64 119.98 123.85 C 119.44 123.65 118.38 123.26 117.85 123.06 C 117.85 123.68 117.85 124.90 117.85 125.52 L 117.51 125.21 L 116.44 124.18 C 116.12 123.78 115.49 122.97 115.18 122.57 C 115.37 121.62 115.59 120.68 115.83 119.74 C 115.82 120.18 115.80 121.06 115.79 121.50 C 118.66 119.66 122.37 118.77 124.95 121.63 C 125.18 120.54 125.42 119.45 125.62 118.35 C 126.17 117.28 126.72 116.21 127.27 115.13 C 126.58 115.13 125.21 115.12 124.52 115.11 C 124.17 113.85 123.75 112.60 123.30 111.37 Z" />
</g>
<g id="#7ac8d5ff">
<path fill="#7ac8d5" opacity="1.00" d=" M 169.34 112.51 C 169.37 112.54 169.44 112.58 169.48 112.60 C 169.44 112.58 169.37 112.54 169.34 112.51 Z" />
</g>
<g id="#2a2692ff">
<path fill="#2a2692" opacity="1.00" d=" M 59.59 129.58 C 64.24 123.89 69.17 118.41 73.60 112.55 C 76.14 112.64 78.68 112.75 81.21 112.89 C 79.37 117.66 77.25 122.33 75.52 127.15 C 75.01 128.12 74.50 129.08 73.95 130.03 C 69.85 132.75 64.89 132.90 60.19 133.56 C 59.98 132.23 59.78 130.90 59.59 129.58 Z" />
</g>
<g id="#b5b3b6ff">
<path fill="#b5b3b6" opacity="1.00" d=" M 88.11 112.70 C 89.61 112.63 91.11 112.59 92.61 112.58 C 92.06 113.97 91.50 115.37 90.94 116.76 C 92.07 117.39 93.19 118.02 94.31 118.66 L 94.38 118.71 L 93.99 120.13 C 92.86 119.56 91.73 118.99 90.60 118.42 C 90.24 118.80 89.51 119.57 89.14 119.95 C 88.47 119.12 87.83 118.26 87.22 117.38 C 86.90 118.03 86.26 119.32 85.94 119.97 C 85.61 119.22 84.94 117.71 84.61 116.95 C 85.29 116.07 85.99 115.21 86.70 114.35 C 87.05 113.94 87.76 113.11 88.11 112.70 Z" />
</g>
<g id="#aa9d8bff">
<path fill="#aa9d8b" opacity="1.00" d=" M 117.25 113.24 C 117.74 113.82 117.74 113.82 117.25 113.24 Z" />
</g>
<g id="#a7a6a9ff">
<path fill="#a7a6a9" opacity="1.00" d=" M 132.54 113.70 C 135.74 113.14 139.00 113.29 141.35 115.83 C 141.37 117.70 141.44 119.58 141.60 121.45 C 141.62 121.74 141.67 122.34 141.70 122.64 C 141.42 122.92 140.87 123.48 140.60 123.76 C 139.96 122.87 139.32 121.99 138.69 121.10 C 137.40 121.23 136.10 121.36 134.81 121.48 C 134.26 120.61 133.72 119.73 133.17 118.86 C 132.67 120.25 132.17 121.64 131.67 123.04 C 133.83 123.13 136.00 123.15 138.15 123.48 C 138.63 124.88 136.99 126.09 136.52 127.36 C 136.93 127.97 137.35 128.57 137.78 129.18 C 137.24 130.48 136.71 131.78 136.19 133.08 C 136.63 133.09 137.49 133.12 137.92 133.13 C 134.41 134.22 130.65 133.77 127.15 132.87 C 127.75 132.01 128.39 131.17 129.06 130.36 C 130.91 131.06 132.49 133.61 134.58 132.77 C 134.67 130.85 134.51 128.93 134.48 127.02 C 132.75 124.72 131.10 122.36 129.64 119.88 C 129.82 119.31 130.19 118.17 130.38 117.60 C 130.48 117.44 130.70 117.11 130.81 116.95 C 131.06 116.53 131.56 115.70 131.81 115.28 C 131.99 114.89 132.35 114.10 132.54 113.70 M 132.76 116.87 C 134.56 116.94 136.36 116.96 138.16 116.96 C 138.06 116.46 137.87 115.45 137.77 114.95 C 135.98 115.25 134.17 115.64 132.76 116.87 Z" />
<path fill="#a7a6a9" opacity="1.00" d=" M 129.20 123.68 C 129.83 124.86 130.41 126.07 130.99 127.29 C 130.30 127.46 128.92 127.80 128.23 127.97 C 128.53 126.53 128.86 125.10 129.20 123.68 Z" />
<path fill="#a7a6a9" opacity="1.00" d=" M 75.52 127.15 C 76.92 126.93 78.33 126.79 79.74 126.66 C 80.28 126.45 81.36 126.03 81.90 125.82 C 82.42 126.80 82.96 127.77 83.52 128.73 C 82.87 128.66 81.59 128.52 80.95 128.44 C 78.59 128.85 76.23 129.28 73.95 130.03 C 74.50 129.08 75.01 128.12 75.52 127.15 Z" />
</g>
<g id="#14141bff">
<path fill="#14141b" opacity="1.00" d=" M 153.65 113.14 C 153.96 113.33 154.59 113.71 154.90 113.90 C 157.11 118.58 158.98 123.40 160.97 128.18 C 160.25 128.18 158.82 128.20 158.11 128.21 C 157.90 127.54 157.47 126.19 157.26 125.52 C 156.22 121.34 154.44 117.38 153.65 113.14 Z" />
</g>
<g id="#a0a9bbff">
<path fill="#a0a9bb" opacity="1.00" d=" M 98.85 114.75 C 100.57 114.30 102.30 113.87 104.03 113.44 C 104.94 114.20 105.88 114.93 106.78 115.70 C 108.19 117.81 108.33 120.36 108.20 122.81 C 108.56 123.24 109.28 124.09 109.64 124.52 C 110.17 125.39 110.67 126.28 111.14 127.18 C 110.11 126.54 109.09 125.89 108.07 125.22 C 108.47 127.32 108.58 129.40 105.88 129.68 C 106.12 130.88 106.37 132.08 106.61 133.29 C 107.19 132.87 108.33 132.03 108.91 131.61 C 109.17 132.08 109.69 133.02 109.95 133.49 C 108.59 133.45 107.23 133.42 105.87 133.42 C 105.36 131.58 104.84 129.76 104.31 127.93 C 105.49 125.58 106.44 123.11 106.85 120.50 C 105.83 119.91 104.81 119.33 103.79 118.74 C 102.46 120.09 101.33 119.82 100.64 118.02 C 99.99 116.95 99.40 115.86 98.85 114.75 Z" />
<path fill="#a0a9bb" opacity="1.00" d=" M 124.78 124.59 C 126.15 124.25 126.72 124.79 126.47 126.19 C 125.10 126.54 124.53 126.00 124.78 124.59 Z" />
</g>
<g id="#453c45ff">
<path fill="#453c45" opacity="1.00" d=" M 95.16 115.06 C 98.14 113.51 95.30 118.39 95.16 115.06 Z" />
</g>
<g id="#9199a6ff">
<path fill="#9199a6" opacity="1.00" d=" M 115.83 119.74 C 116.18 114.69 123.71 113.71 125.62 118.35 C 125.42 119.45 125.18 120.54 124.95 121.63 C 122.37 118.77 118.66 119.66 115.79 121.50 C 115.80 121.06 115.82 120.18 115.83 119.74 Z" />
</g>
<g id="#808588ff">
<path fill="#808588" opacity="1.00" d=" M 132.76 116.87 C 134.17 115.64 135.98 115.25 137.77 114.95 C 137.87 115.45 138.06 116.46 138.16 116.96 C 136.36 116.96 134.56 116.94 132.76 116.87 Z" />
</g>
<g id="#6b7890ff">
<path fill="#6b7890" opacity="1.00" d=" M 141.35 115.83 C 141.98 115.99 143.25 116.31 143.88 116.46 C 144.25 116.55 144.99 116.72 145.36 116.80 C 145.63 118.29 145.88 119.77 146.15 121.26 C 144.63 121.33 143.11 121.39 141.60 121.45 C 141.44 119.58 141.37 117.70 141.35 115.83 Z" />
</g>
<g id="#e3b6d3ff">
<path fill="#e3b6d3" opacity="1.00" d=" M 147.47 120.44 C 148.26 118.93 149.05 117.43 149.82 115.92 C 150.18 117.63 150.53 119.34 150.98 121.04 C 151.79 124.26 152.84 127.42 153.48 130.69 C 153.45 131.49 153.37 133.09 153.33 133.89 C 152.23 133.66 151.14 133.43 150.04 133.21 C 149.06 128.98 148.43 124.67 147.47 120.44 Z" />
</g>
<g id="#77c5d2ff">
<path fill="#77c5d2" opacity="1.00" d=" M 176.39 116.51 C 176.43 116.53 176.50 116.57 176.54 116.59 C 176.50 116.57 176.43 116.53 176.39 116.51 Z" />
</g>
<g id="#7c5e78ff">
<path fill="#7c5e78" opacity="1.00" d=" M 83.81 118.03 C 84.01 117.76 84.41 117.22 84.61 116.95 C 84.94 117.71 85.61 119.22 85.94 119.97 C 86.26 119.32 86.90 118.03 87.22 117.38 C 87.83 118.26 88.47 119.12 89.14 119.95 C 89.51 119.57 90.24 118.80 90.60 118.42 C 91.73 118.99 92.86 119.56 93.99 120.13 L 94.38 118.71 C 94.40 118.67 94.43 118.60 94.44 118.56 C 94.81 118.26 95.55 117.66 95.92 117.36 C 95.21 119.23 96.21 121.01 97.93 121.84 C 97.94 122.01 97.97 122.36 97.99 122.54 C 97.95 122.89 97.87 123.60 97.83 123.95 C 97.98 124.58 98.29 125.83 98.45 126.45 C 97.28 126.32 96.11 126.19 94.95 126.05 C 93.84 125.90 92.73 125.72 91.65 125.47 C 92.43 124.37 93.22 123.27 94.01 122.16 C 93.48 122.09 92.43 121.95 91.91 121.88 C 93.53 119.98 89.79 119.64 91.08 121.80 C 90.28 121.82 88.67 121.84 87.87 121.86 C 88.83 118.74 84.37 120.12 87.12 122.13 L 86.50 123.61 C 86.19 123.42 85.56 123.05 85.24 122.87 C 84.68 121.28 84.20 119.67 83.81 118.03 Z" />
</g>
<g id="#9b8d9bff">
<path fill="#9b8d9b" opacity="1.00" d=" M 95.92 117.36 L 96.34 117.04 L 96.90 117.49 C 97.50 118.86 97.83 120.34 97.93 121.84 C 96.21 121.01 95.21 119.23 95.92 117.36 Z" />
</g>
<g id="#382f3bff">
<path fill="#382f3b" opacity="1.00" d=" M 94.31 118.66 L 94.44 118.56 C 94.43 118.60 94.40 118.67 94.38 118.71 L 94.31 118.66 Z" />
</g>
<g id="#5a4b57ff">
<path fill="#5a4b57" opacity="1.00" d=" M 96.90 117.49 C 97.78 118.20 98.66 118.93 99.54 119.65 C 99.82 119.24 100.36 118.43 100.64 118.02 C 101.33 119.82 102.46 120.09 103.79 118.74 C 104.81 119.33 105.83 119.91 106.85 120.50 C 106.44 123.11 105.49 125.58 104.31 127.93 C 104.84 129.76 105.36 131.58 105.87 133.42 C 101.25 133.49 96.64 133.34 92.04 133.00 L 92.26 132.14 C 92.30 131.99 92.37 131.67 92.41 131.51 C 94.09 131.34 95.77 131.17 97.46 131.00 C 96.55 130.07 95.64 129.14 94.74 128.21 C 94.79 127.67 94.90 126.59 94.95 126.05 C 96.11 126.19 97.28 126.32 98.45 126.45 C 98.29 125.83 97.98 124.58 97.83 123.95 C 97.87 123.60 97.95 122.89 97.99 122.54 C 97.97 122.36 97.94 122.01 97.93 121.84 C 97.83 120.34 97.50 118.86 96.90 117.49 M 101.38 121.53 C 101.47 122.46 101.66 124.32 101.75 125.25 C 103.89 125.06 104.96 123.24 106.00 121.62 C 104.48 121.23 102.92 121.32 101.38 121.53 Z" />
<path fill="#5a4b57" opacity="1.00" d=" M 141.60 121.45 C 143.11 121.39 144.63 121.33 146.15 121.26 C 146.46 123.10 146.78 124.93 146.98 126.79 C 146.83 127.42 146.52 128.69 146.37 129.32 C 145.75 129.03 144.51 128.45 143.89 128.16 C 144.21 127.22 144.51 126.27 144.81 125.32 L 144.69 124.84 C 143.70 124.09 142.70 123.35 141.70 122.64 C 141.67 122.34 141.62 121.74 141.60 121.45 Z" />
</g>
<g id="#2b2786ff">
<path fill="#2b2786" opacity="1.00" d=" M 125.86 122.71 C 127.11 120.79 128.23 118.68 130.38 117.60 C 130.19 118.17 129.82 119.31 129.64 119.88 C 129.30 121.02 128.97 122.17 128.65 123.32 C 127.95 123.16 126.56 122.86 125.86 122.71 Z" />
</g>
<g id="#0a0b0bff">
<path fill="#0a0b0b" opacity="1.00" d=" M 181.32 119.13 C 184.32 117.56 188.07 119.76 188.10 123.18 C 186.08 121.89 184.09 120.54 181.94 119.47 C 181.78 119.38 181.48 119.22 181.32 119.13 Z" />
<path fill="#0a0b0b" opacity="1.00" d=" M 59.64 165.60 C 66.23 165.76 72.81 166.29 79.40 166.13 C 87.28 166.65 95.19 166.30 103.08 166.67 C 102.09 169.50 101.14 172.34 100.21 175.18 L 99.76 175.78 C 96.45 176.90 92.91 176.64 89.48 176.93 C 82.10 176.65 74.71 176.99 67.33 176.73 C 64.76 176.59 62.21 176.39 59.65 176.22 C 59.64 172.68 59.64 169.14 59.64 165.60 Z" />
</g>
<g id="#041517ff">
<path fill="#041517" opacity="1.00" d=" M 195.37 118.07 C 197.02 117.04 197.50 120.35 196.74 121.31 C 195.06 122.43 194.46 119.03 195.37 118.07 Z" />
</g>
<g id="#726e75ff">
<path fill="#726e75" opacity="1.00" d=" M 133.17 118.86 C 133.72 119.73 134.26 120.61 134.81 121.48 C 136.10 121.36 137.40 121.23 138.69 121.10 C 139.32 121.99 139.96 122.87 140.60 123.76 C 140.87 123.48 141.42 122.92 141.70 122.64 C 142.70 123.35 143.70 124.09 144.69 124.84 C 142.67 127.77 140.72 130.85 137.92 133.13 C 137.49 133.12 136.63 133.09 136.19 133.08 C 136.71 131.78 137.24 130.48 137.78 129.18 C 137.35 128.57 136.93 127.97 136.52 127.36 C 136.99 126.09 138.63 124.88 138.15 123.48 C 136.00 123.15 133.83 123.13 131.67 123.04 C 132.17 121.64 132.67 120.25 133.17 118.86 M 140.12 126.29 C 138.35 129.14 143.41 126.72 140.12 126.29 Z" />
</g>
<g id="#8aabb0ff">
<path fill="#8aabb0" opacity="1.00" d=" M 181.32 119.13 C 181.48 119.22 181.78 119.38 181.94 119.47 L 181.63 119.33 L 181.32 119.13 Z" />
</g>
<g id="#5e3846ff">
<path fill="#5e3846" opacity="1.00" d=" M 87.12 122.13 C 84.37 120.12 88.83 118.74 87.87 121.86 L 87.12 122.13 Z" />
</g>
<g id="#512432ff">
<path fill="#512432" opacity="1.00" d=" M 91.08 121.80 C 89.79 119.64 93.53 119.98 91.91 121.88 L 91.08 121.80 Z" />
</g>
<g id="#312c84ff">
<path fill="#312c84" opacity="1.00" d=" M 83.53 120.54 C 83.92 123.52 84.15 126.52 84.51 129.51 C 84.26 129.31 83.77 128.93 83.52 128.73 C 82.96 127.77 82.42 126.80 81.90 125.82 C 82.35 124.03 82.94 122.28 83.53 120.54 Z" />
</g>
<g id="#ad9599ff">
<path fill="#ad9599" opacity="1.00" d=" M 101.38 121.53 C 102.92 121.32 104.48 121.23 106.00 121.62 C 104.96 123.24 103.89 125.06 101.75 125.25 C 101.66 124.32 101.47 122.46 101.38 121.53 Z" />
</g>
<g id="#0a0a0aff">
<path fill="#0a0a0a" opacity="1.00" d=" M 150.98 121.04 C 151.81 122.36 152.72 123.63 153.64 124.89 C 153.79 123.92 154.09 121.98 154.24 121.01 C 155.09 123.20 156.10 125.32 157.24 127.38 C 157.30 128.51 157.15 129.62 156.80 130.69 C 154.78 130.06 155.28 126.49 154.26 124.69 C 154.33 127.39 153.89 130.60 156.50 132.30 C 156.67 133.05 157.02 134.53 157.20 135.27 C 160.76 136.07 164.43 135.69 167.94 134.80 C 166.57 135.32 165.17 135.76 163.78 136.21 C 160.89 136.03 158.02 136.43 155.19 136.99 C 154.60 134.89 154.00 132.80 153.48 130.69 C 152.84 127.42 151.79 124.26 150.98 121.04 Z" />
<path fill="#0a0a0a" opacity="1.00" d=" M 110.68 163.66 C 115.01 163.59 119.33 163.37 123.65 163.11 C 124.81 163.11 125.98 163.08 127.15 163.01 C 125.55 163.71 123.85 164.33 122.55 165.53 C 121.11 167.09 121.46 169.39 121.06 171.33 C 120.89 171.56 120.55 172.02 120.38 172.26 C 119.68 170.21 119.56 167.63 117.58 166.32 C 115.09 164.39 111.30 165.13 109.44 167.58 C 108.73 168.50 108.04 169.42 107.35 170.35 C 107.41 169.96 107.54 169.19 107.60 168.80 C 107.90 168.13 108.49 166.77 108.79 166.09 C 108.00 165.80 106.43 165.20 105.64 164.90 C 106.46 165.06 108.11 165.37 108.93 165.53 C 109.37 165.06 110.24 164.13 110.68 163.66 Z" />
</g>
<g id="#b19ea4ff">
<path fill="#b19ea4" opacity="1.00" d=" M 87.12 122.13 L 87.87 121.86 C 88.67 121.84 90.28 121.82 91.08 121.80 L 91.91 121.88 C 92.43 121.95 93.48 122.09 94.01 122.16 C 93.22 123.27 92.43 124.37 91.65 125.47 C 90.80 124.77 89.96 124.06 89.14 123.34 C 88.84 123.59 88.22 124.08 87.91 124.32 C 87.56 124.15 86.85 123.79 86.50 123.61 L 87.12 122.13 Z" />
</g>
<g id="#8c909aff">
<path fill="#8c909a" opacity="1.00" d=" M 87.91 124.32 C 88.22 124.08 88.84 123.59 89.14 123.34 C 89.96 124.06 90.80 124.77 91.65 125.47 C 92.73 125.72 93.84 125.90 94.95 126.05 C 94.90 126.59 94.79 127.67 94.74 128.21 C 94.06 128.80 93.40 129.41 92.75 130.03 C 92.67 130.40 92.49 131.14 92.41 131.51 C 92.37 131.67 92.30 131.99 92.26 132.14 C 91.78 132.03 90.81 131.81 90.33 131.69 C 90.10 131.67 89.64 131.61 89.41 131.59 C 89.89 129.42 87.75 128.22 86.57 126.78 C 87.00 125.95 87.45 125.13 87.91 124.32 M 88.28 126.27 C 88.78 126.79 88.78 126.79 88.28 126.27 Z" />
</g>
<g id="#383e5bff">
<path fill="#383e5b" opacity="1.00" d=" M 115.18 122.57 C 115.49 122.97 116.12 123.78 116.44 124.18 C 114.90 125.61 112.84 127.36 113.20 129.72 C 113.75 131.13 114.63 132.37 115.43 133.65 C 113.60 133.60 111.78 133.55 109.95 133.49 C 109.69 133.02 109.17 132.08 108.91 131.61 C 108.33 132.03 107.19 132.87 106.61 133.29 C 106.37 132.08 106.12 130.88 105.88 129.68 C 108.58 129.40 108.47 127.32 108.07 125.22 C 109.09 125.89 110.11 126.54 111.14 127.18 C 110.67 126.28 110.17 125.39 109.64 124.52 C 111.37 124.35 113.11 124.21 114.84 124.00 L 115.18 122.57 Z" />
</g>
<g id="#ab8e90ff">
<path fill="#ab8e90" opacity="1.00" d=" M 117.85 123.06 C 118.38 123.26 119.44 123.65 119.98 123.85 C 120.52 123.64 121.60 123.23 122.14 123.03 C 122.29 124.52 122.43 126.02 122.56 127.51 C 120.85 127.22 119.03 126.91 117.85 125.52 C 117.85 124.90 117.85 123.68 117.85 123.06 Z" />
</g>
<g id="#7a727aff">
<path fill="#7a727a" opacity="1.00" d=" M 78.33 124.18 C 78.81 124.73 78.81 124.73 78.33 124.18 Z" />
</g>
<g id="#8b8e9bff">
<path fill="#8b8e9b" opacity="1.00" d=" M 113.20 129.72 C 112.84 127.36 114.90 125.61 116.44 124.18 L 117.51 125.21 C 116.73 126.29 115.94 127.37 115.16 128.45 C 116.35 128.12 117.53 127.78 118.72 127.45 C 118.27 128.57 117.84 129.69 117.42 130.82 C 117.76 131.17 118.43 131.86 118.77 132.20 C 118.07 132.58 116.68 133.34 115.98 133.72 L 115.43 133.65 C 114.63 132.37 113.75 131.13 113.20 129.72 Z" />
</g>
<g id="#383646ff">
<path fill="#383646" opacity="1.00" d=" M 117.51 125.21 L 117.85 125.52 C 119.03 126.91 120.85 127.22 122.56 127.51 C 122.75 129.24 122.39 130.94 121.62 132.49 C 121.35 131.84 120.80 130.54 120.53 129.89 C 120.20 130.89 119.88 131.90 119.55 132.90 C 119.36 132.73 118.97 132.38 118.77 132.20 C 118.43 131.86 117.76 131.17 117.42 130.82 C 117.84 129.69 118.27 128.57 118.72 127.45 C 117.53 127.78 116.35 128.12 115.16 128.45 C 115.94 127.37 116.73 126.29 117.51 125.21 Z" />
</g>
<g id="#b88aa8ff">
<path fill="#b88aa8" opacity="1.00" d=" M 154.26 124.69 C 155.28 126.49 154.78 130.06 156.80 130.69 C 157.15 129.62 157.30 128.51 157.24 127.38 C 157.24 126.91 157.26 125.98 157.26 125.52 C 157.47 126.19 157.90 127.54 158.11 128.21 C 158.82 128.20 160.25 128.18 160.97 128.18 C 163.54 128.06 166.14 128.10 168.61 128.89 C 165.43 128.99 162.24 129.00 159.05 128.96 C 159.21 129.56 159.54 130.76 159.70 131.36 C 162.84 131.56 166.78 132.19 168.61 128.89 C 168.39 130.84 169.15 133.10 167.94 134.80 C 164.43 135.69 160.76 136.07 157.20 135.27 C 157.02 134.53 156.67 133.05 156.50 132.30 C 153.89 130.60 154.33 127.39 154.26 124.69 Z" />
</g>
<g id="#604d5eff">
<path fill="#604d5e" opacity="1.00" d=" M 88.28 126.27 C 88.78 126.79 88.78 126.79 88.28 126.27 Z" />
</g>
<g id="#96979eff">
<path fill="#96979e" opacity="1.00" d=" M 140.12 126.29 C 143.41 126.72 138.35 129.14 140.12 126.29 Z" />
</g>
<g id="#b78aa7ff">
<path fill="#b78aa7" opacity="1.00" d=" M 146.37 129.32 C 146.52 128.69 146.83 127.42 146.98 126.79 C 147.37 129.72 147.68 132.66 147.83 135.61 C 148.57 134.81 149.30 134.01 150.04 133.21 C 151.14 133.43 152.23 133.66 153.33 133.89 C 153.37 133.09 153.45 131.49 153.48 130.69 C 154.00 132.80 154.60 134.89 155.19 136.99 C 158.02 136.43 160.89 136.03 163.78 136.21 C 164.24 139.57 164.64 142.96 164.69 146.36 L 164.70 146.58 C 155.14 151.74 145.90 157.46 136.43 162.77 C 136.11 161.74 135.81 160.71 135.52 159.67 C 135.56 158.43 135.64 157.20 135.71 155.97 C 129.69 155.42 123.73 156.53 117.74 156.85 C 117.36 156.52 116.61 155.87 116.24 155.55 C 109.68 155.65 103.52 158.19 97.10 159.19 C 93.36 159.76 90.13 161.83 87.00 163.80 C 89.81 163.99 92.62 164.12 95.43 164.04 C 96.16 164.05 97.60 164.07 98.33 164.08 C 92.09 165.60 85.48 163.88 79.40 166.13 C 72.81 166.29 66.23 165.76 59.64 165.60 C 59.50 155.32 59.94 145.02 59.41 134.75 C 62.49 134.85 65.58 134.85 68.66 134.78 C 68.50 135.51 68.17 136.97 68.01 137.70 C 68.88 136.89 69.54 135.92 70.00 134.81 C 71.71 134.96 73.42 135.13 75.13 135.28 C 74.86 135.57 74.33 136.17 74.06 136.47 C 89.24 136.52 104.42 136.49 119.59 136.58 L 119.07 137.84 C 119.54 137.88 120.50 137.96 120.98 138.01 C 120.78 137.29 120.39 135.87 120.19 135.15 L 121.12 135.56 C 125.83 138.08 131.72 137.55 136.62 135.80 C 136.79 135.80 137.14 135.81 137.32 135.81 C 140.13 136.87 144.20 138.50 146.40 135.52 L 147.37 134.60 C 144.69 134.27 142.00 134.13 139.31 133.99 C 140.59 132.60 141.87 131.21 143.16 129.82 C 143.62 130.68 144.56 132.40 145.03 133.27 C 145.22 132.52 145.41 131.78 145.60 131.04 C 144.08 130.53 143.52 129.57 143.89 128.16 C 144.51 128.45 145.75 129.03 146.37 129.32 M 160.13 139.28 C 158.48 142.21 163.43 139.59 160.13 139.28 Z" />
</g>
<g id="#898d8aff">
<path fill="#898d8a" opacity="1.00" d=" M 195.57 127.36 L 196.35 126.78 C 195.98 128.43 195.03 129.88 193.38 130.45 C 188.86 132.44 184.69 135.15 180.17 137.13 C 185.13 133.59 190.78 131.15 195.57 127.36 Z" />
<path fill="#898d8a" opacity="1.00" d=" M 59.88 186.72 C 62.24 186.88 64.59 186.91 66.95 186.97 C 66.97 187.57 67.00 188.79 67.02 189.39 C 64.53 189.35 62.05 189.34 59.56 189.35 C 59.64 188.69 59.80 187.38 59.88 186.72 Z" />
</g>
<g id="#403a42ff">
<path fill="#403a42" opacity="1.00" d=" M 92.75 130.03 C 93.40 129.41 94.06 128.80 94.74 128.21 C 95.64 129.14 96.55 130.07 97.46 131.00 C 95.77 131.17 94.09 131.34 92.41 131.51 C 92.49 131.14 92.67 130.40 92.75 130.03 Z" />
</g>
<g id="#e4b4d3ff">
<path fill="#e4b4d3" opacity="1.00" d=" M 159.05 128.96 C 162.24 129.00 165.43 128.99 168.61 128.89 C 166.78 132.19 162.84 131.56 159.70 131.36 C 159.54 130.76 159.21 129.56 159.05 128.96 Z" />
</g>
<g id="#ecbddcff">
<path fill="#ecbddc" opacity="1.00" d=" M 75.13 135.28 C 77.55 135.33 79.98 135.37 82.41 135.32 C 94.95 135.88 107.49 135.50 120.04 135.58 L 119.59 136.58 C 104.42 136.49 89.24 136.52 74.06 136.47 C 74.33 136.17 74.86 135.57 75.13 135.28 Z" />
<path fill="#ecbddc" opacity="1.00" d=" M 95.43 164.04 C 100.95 161.32 107.39 161.65 112.90 158.85 C 112.66 159.77 112.43 160.69 112.19 161.62 C 116.06 161.57 120.03 161.51 123.65 163.11 C 119.33 163.37 115.01 163.59 110.68 163.66 C 110.24 164.13 109.37 165.06 108.93 165.53 C 108.11 165.37 106.46 165.06 105.64 164.90 C 103.25 164.31 100.79 164.00 98.33 164.08 C 97.60 164.07 96.16 164.05 95.43 164.04 Z" />
</g>
<g id="#cd9bbbff">
<path fill="#cd9bbb" opacity="1.00" d=" M 121.12 135.56 C 126.28 135.29 131.47 135.19 136.62 135.80 C 131.72 137.55 125.83 138.08 121.12 135.56 Z" />
</g>
<g id="#cca1beff">
<path fill="#cca1be" opacity="1.00" d=" M 137.32 135.81 C 140.34 135.64 143.38 135.65 146.40 135.52 C 144.20 138.50 140.13 136.87 137.32 135.81 Z" />
</g>
<g id="#5d605eff">
<path fill="#5d605e" opacity="1.00" d=" M 160.13 139.28 C 163.43 139.59 158.48 142.21 160.13 139.28 Z" />
</g>
<g id="#86c2ccff">
<path fill="#86c2cc" opacity="1.00" d=" M 176.43 139.46 C 176.46 139.44 176.53 139.40 176.57 139.37 C 176.53 139.40 176.46 139.44 176.43 139.46 Z" />
</g>
<g id="#90eefcff">
<path fill="#90eefc" opacity="1.00" d=" M 171.27 142.49 C 171.33 142.46 171.45 142.39 171.51 142.35 C 171.45 142.39 171.33 142.46 171.27 142.49 Z" />
</g>
<g id="#b2f3fdff">
<path fill="#b2f3fd" opacity="1.00" d=" M 169.36 143.47 C 169.42 143.44 169.54 143.37 169.59 143.34 C 169.54 143.37 169.42 143.44 169.36 143.47 Z" />
</g>
<g id="#c092b0ff">
<path fill="#c092b0" opacity="1.00" d=" M 117.74 156.85 C 123.73 156.53 129.69 155.42 135.71 155.97 C 135.64 157.20 135.56 158.43 135.52 159.67 C 135.48 160.40 135.40 161.85 135.35 162.58 C 132.84 162.68 130.32 162.79 127.81 162.97 L 127.15 163.01 C 125.98 163.08 124.81 163.11 123.65 163.11 C 120.03 161.51 116.06 161.57 112.19 161.62 C 112.43 160.69 112.66 159.77 112.90 158.85 C 114.51 158.17 116.10 157.47 117.74 156.85 Z" />
</g>
<g id="#d8a7c7ff">
<path fill="#d8a7c7" opacity="1.00" d=" M 98.33 164.08 C 100.79 164.00 103.25 164.31 105.64 164.90 C 106.43 165.20 108.00 165.80 108.79 166.09 C 108.49 166.77 107.90 168.13 107.60 168.80 C 106.98 168.70 105.74 168.48 105.12 168.38 C 104.68 167.54 104.00 166.97 103.08 166.67 C 95.19 166.30 87.28 166.65 79.40 166.13 C 85.48 163.88 92.09 165.60 98.33 164.08 Z" />
</g>
<g id="#bfc1b1ff">
<path fill="#bfc1b1" opacity="1.00" d=" M 122.55 165.53 C 123.85 164.33 125.55 163.71 127.15 163.01 L 127.81 162.97 C 129.47 163.52 131.09 164.19 132.69 164.89 C 128.82 167.05 125.15 169.58 121.06 171.33 C 121.46 169.39 121.11 167.09 122.55 165.53 Z" />
</g>
<g id="#cadfdcff">
<path fill="#cadfdc" opacity="1.00" d=" M 109.44 167.58 C 111.30 165.13 115.09 164.39 117.58 166.32 C 119.56 167.63 119.68 170.21 120.38 172.26 C 117.95 173.24 115.73 174.66 113.54 176.08 C 110.44 174.31 109.15 171.03 109.44 167.58 Z" />
<path fill="#cadfdc" opacity="1.00" d=" M 60.40 192.99 C 63.20 192.34 61.87 196.21 60.68 197.26 C 59.56 195.89 59.47 194.47 60.40 192.99 Z" />
</g>
<g id="#e4b9d7ff">
<path fill="#e4b9d7" opacity="1.00" d=" M 103.08 166.67 C 104.00 166.97 104.68 167.54 105.12 168.38 C 102.86 172.22 102.72 178.61 97.65 179.84 C 98.32 178.47 98.99 177.10 99.76 175.78 L 100.21 175.18 C 101.14 172.34 102.09 169.50 103.08 166.67 Z" />
</g>
<g id="#d4a7c7ff">
<path fill="#d4a7c7" opacity="1.00" d=" M 107.35 170.35 C 108.04 169.42 108.73 168.50 109.44 167.58 C 109.15 171.03 110.44 174.31 113.54 176.08 C 112.88 176.43 111.58 177.13 110.93 177.48 C 110.39 177.54 109.31 177.68 108.77 177.75 C 108.14 175.32 107.52 172.87 107.35 170.35 Z" />
</g>
<g id="#cda0bdff">
<path fill="#cda0bd" opacity="1.00" d=" M 89.48 176.93 C 92.91 176.64 96.45 176.90 99.76 175.78 C 98.99 177.10 98.32 178.47 97.65 179.84 C 90.06 179.83 82.48 179.41 74.96 178.33 C 79.80 177.84 84.73 178.11 89.48 176.93 Z" />
</g>
<g id="#d0a1c0ff">
<path fill="#d0a1c0" opacity="1.00" d=" M 59.65 176.22 C 62.21 176.39 64.76 176.59 67.33 176.73 C 66.25 177.34 65.18 177.96 64.11 178.57 C 67.19 178.68 70.27 178.90 73.31 179.45 C 68.90 181.03 64.19 180.05 59.64 179.86 C 59.64 178.95 59.64 177.13 59.65 176.22 Z" />
</g>
<g id="#ca9dbaff">
<path fill="#ca9dba" opacity="1.00" d=" M 102.97 179.63 C 103.86 179.56 105.64 179.41 106.54 179.34 C 104.42 181.74 101.37 182.92 98.69 184.57 L 98.49 184.54 C 90.63 183.52 82.48 184.45 74.98 181.33 C 82.33 181.06 89.69 181.25 97.05 181.18 C 99.13 181.22 101.23 180.84 102.97 179.63 Z" />
</g>
<g id="#d0a4c1ff">
<path fill="#d0a4c1" opacity="1.00" d=" M 59.68 182.26 C 63.73 183.00 68.84 181.56 71.87 184.98 C 67.74 185.01 63.61 184.98 59.48 184.92 C 59.53 184.25 59.63 182.92 59.68 182.26 Z" />
</g>
<g id="#d0d0d0ff">
<path fill="#d0d0d0" opacity="1.00" d=" M 59.48 184.92 C 63.61 184.98 67.74 185.01 71.87 184.98 C 75.16 185.22 78.47 185.08 81.74 185.54 C 82.67 186.92 82.60 188.74 83.05 190.31 C 84.58 190.47 86.10 190.64 87.64 190.77 L 88.40 190.84 L 86.50 191.00 C 85.31 191.03 84.13 191.12 82.96 191.26 C 82.89 191.81 82.77 192.92 82.70 193.47 C 81.65 194.37 80.48 195.09 79.19 195.63 L 77.54 196.01 C 78.48 194.73 79.40 193.44 80.30 192.14 C 78.24 193.04 77.06 194.83 76.41 196.92 C 75.95 197.24 75.02 197.86 74.56 198.17 C 75.80 196.22 75.87 194.06 74.58 192.12 C 73.60 192.43 72.61 192.75 71.63 193.07 C 72.49 193.52 74.20 194.42 75.05 194.87 C 74.20 196.71 73.08 198.42 71.88 200.05 C 70.58 201.00 69.10 201.67 67.66 202.39 C 65.02 201.75 62.34 201.27 59.64 200.97 L 59.44 199.36 C 60.46 199.40 62.50 199.49 63.52 199.54 C 62.83 199.23 61.47 198.60 60.78 198.29 C 61.30 197.66 62.34 196.41 62.86 195.78 C 62.67 194.44 62.48 193.10 62.27 191.77 C 61.64 191.78 60.37 191.79 59.74 191.80 L 59.56 189.35 C 62.05 189.34 64.53 189.35 67.02 189.39 C 67.00 188.79 66.97 187.57 66.95 186.97 C 64.59 186.91 62.24 186.88 59.88 186.72 C 59.78 186.27 59.58 185.37 59.48 184.92 M 68.68 187.04 C 68.02 188.09 68.14 190.48 69.86 190.26 C 71.61 189.75 70.19 186.35 68.68 187.04 M 70.56 187.03 C 71.50 188.32 72.48 189.57 73.48 190.80 C 73.87 190.02 74.29 189.25 74.62 188.45 C 73.83 187.03 71.83 187.52 70.56 187.03 M 76.14 187.47 C 75.72 188.87 76.21 189.36 77.60 188.93 C 78.02 187.52 77.53 187.03 76.14 187.47 M 65.08 191.66 C 63.81 194.52 63.77 197.96 65.96 200.38 C 66.49 200.05 67.53 199.39 68.06 199.05 C 67.88 196.30 68.98 192.06 65.08 191.66 M 69.08 196.20 C 68.60 197.77 69.19 198.31 70.86 197.81 C 71.34 196.22 70.75 195.69 69.08 196.20 Z" />
<path fill="#d0d0d0" opacity="1.00" d=" M 66.92 199.39 C 64.47 198.16 64.24 193.87 67.03 192.97 C 67.12 195.11 67.09 197.25 66.92 199.39 Z" />
</g>
<g id="#b0b0b0ff">
<path fill="#b0b0b0" opacity="1.00" d=" M 76.14 187.47 C 77.53 187.03 78.02 187.52 77.60 188.93 C 76.21 189.36 75.72 188.87 76.14 187.47 Z" />
</g>
<g id="#69736bff">
<path fill="#69736b" opacity="1.00" d=" M 69.08 196.20 C 70.75 195.69 71.34 196.22 70.86 197.81 C 69.19 198.31 68.60 197.77 69.08 196.20 Z" />
</g>
<g id="#b587a5ff">
<path fill="#b587a5" opacity="1.00" d=" M 59.64 200.97 C 62.34 201.27 65.02 201.75 67.66 202.39 C 65.12 204.06 62.48 205.60 59.67 206.79 C 59.65 204.84 59.64 202.91 59.64 200.97 Z" />
</g>
</svg>
