<?xml version="1.0" encoding="UTF-8" ?>
<!DOCTYPE svg PUBLIC "-//W3C//DTD SVG 1.1//EN" "http://www.w3.org/Graphics/SVG/1.1/DTD/svg11.dtd">
<svg width="256pt" height="256pt" viewBox="0 0 256 256" version="1.1" xmlns="http://www.w3.org/2000/svg">
<g id="#7d47a4ff">
<path fill="#7d47a4" opacity="1.00" d=" M 127.29 0.00 L 128.68 0.00 C 148.52 0.36 168.35 4.83 186.03 13.94 C 213.60 27.86 235.74 52.10 247.10 80.82 C 252.36 94.00 255.33 108.06 256.00 122.22 L 256.00 133.75 C 255.42 147.30 252.71 160.75 247.91 173.43 C 234.83 156.19 223.04 138.00 210.00 120.73 C 208.22 117.69 206.16 114.72 203.10 112.83 C 171.63 90.36 140.26 67.74 108.85 45.19 C 105.72 42.80 101.72 41.70 97.81 42.21 C 90.00 42.91 83.52 50.18 83.74 58.03 C 83.71 80.37 83.76 102.71 83.72 125.05 C 83.61 129.25 83.75 133.46 84.09 137.65 C 84.09 138.15 84.08 139.16 84.08 139.66 C 83.96 142.22 83.92 144.80 83.67 147.35 L 83.40 147.65 C 81.85 148.63 82.14 150.49 82.05 152.02 C 82.08 161.38 81.85 170.73 81.93 180.09 C 81.88 181.43 82.40 182.53 83.49 183.38 L 83.91 183.86 C 83.80 188.80 83.22 193.83 84.23 198.71 C 85.01 202.22 87.47 204.93 89.74 207.59 C 91.99 211.74 95.02 215.37 97.67 219.26 C 106.46 231.51 115.29 243.73 124.05 256.00 L 120.26 256.00 C 88.80 254.28 58.29 240.22 36.38 217.61 C 14.44 195.36 1.42 164.85 0.00 133.67 L 0.00 122.43 C 0.73 112.82 1.94 103.21 4.62 93.93 C 13.20 62.53 34.35 34.86 62.32 18.24 C 81.83 6.42 104.53 0.37 127.29 0.00 Z" />
<path fill="#7d47a4" opacity="1.00" d=" M 102.68 186.33 C 104.02 185.56 105.40 184.86 106.79 184.15 C 106.66 185.50 106.57 186.85 106.50 188.21 C 105.21 187.80 103.93 187.39 102.64 186.98 L 102.68 186.33 Z" />
</g>
<g id="#b400ffff">
<path fill="#b400ff" opacity="1.00" d=" M 83.74 58.03 C 83.52 50.18 90.00 42.91 97.81 42.21 C 101.72 41.70 105.72 42.80 108.85 45.19 C 140.26 67.74 171.63 90.36 203.10 112.83 C 206.16 114.72 208.22 117.69 210.00 120.73 C 212.08 127.42 210.04 135.17 204.18 139.27 C 203.41 139.21 201.86 139.08 201.09 139.01 C 198.83 135.93 197.32 132.38 196.17 128.76 L 196.72 128.70 C 197.40 128.81 198.76 129.04 199.43 129.15 C 201.89 129.59 201.59 126.09 199.54 125.77 C 198.71 125.27 197.89 124.77 197.07 124.27 C 198.02 122.47 198.78 120.58 199.32 118.62 C 196.70 118.73 194.55 120.10 192.93 122.08 L 192.93 120.84 C 193.22 113.59 190.07 105.93 183.98 101.78 C 180.21 100.21 175.76 99.00 171.84 100.75 C 164.05 103.82 158.98 111.50 156.16 119.06 C 155.67 125.45 151.80 131.11 146.85 134.98 C 145.04 136.08 145.40 138.39 145.02 140.18 C 141.71 142.54 138.43 144.99 135.82 148.15 L 135.56 148.25 C 133.56 144.57 129.23 144.06 125.55 143.38 L 125.26 143.10 C 123.73 141.72 122.51 140.04 121.79 138.11 C 123.19 139.17 124.57 140.25 125.96 141.33 C 126.31 140.83 127.00 139.81 127.34 139.30 C 126.89 138.52 125.98 136.95 125.52 136.16 C 127.02 136.84 128.47 137.65 129.84 138.56 C 129.79 137.91 129.69 136.60 129.64 135.95 C 130.25 136.12 131.47 136.47 132.08 136.65 C 131.52 136.06 130.95 135.48 130.38 134.90 C 128.31 132.92 126.36 130.80 124.75 128.41 L 126.03 128.10 C 126.79 129.13 127.74 129.45 128.88 129.08 C 128.67 128.73 128.26 128.03 128.05 127.67 C 127.18 126.70 126.33 125.71 125.47 124.73 C 124.35 123.06 123.57 121.20 123.03 119.27 C 123.92 119.86 124.82 120.45 125.73 121.03 C 125.47 120.65 124.97 119.90 124.71 119.53 C 124.97 118.01 124.36 117.13 122.86 116.88 C 122.32 115.95 121.78 115.02 121.25 114.09 L 121.02 113.67 C 121.85 110.01 118.40 109.08 115.85 107.86 C 115.59 107.64 115.07 107.20 114.81 106.98 C 113.33 105.73 111.84 104.50 110.38 103.25 C 110.96 104.49 111.54 105.74 112.11 107.00 C 107.83 105.02 102.92 105.58 99.00 108.07 C 95.76 111.08 94.06 115.31 92.31 119.28 C 91.08 121.79 91.46 124.64 91.43 127.34 C 90.79 129.49 90.07 131.63 89.44 133.79 C 89.25 134.51 88.86 135.93 88.67 136.65 C 87.98 135.99 87.29 135.34 86.59 134.70 C 85.76 135.68 84.93 136.67 84.09 137.65 C 83.75 133.46 83.61 129.25 83.72 125.05 C 83.76 102.71 83.71 80.37 83.74 58.03 Z" />
<path fill="#b400ff" opacity="1.00" d=" M 146.84 139.09 C 147.19 134.56 152.75 133.70 155.02 130.26 C 152.93 133.73 150.14 136.74 146.84 139.09 Z" />
<path fill="#b400ff" opacity="1.00" d=" M 92.84 140.48 C 94.15 139.54 95.45 138.60 96.79 137.70 L 97.42 138.67 C 96.63 141.79 94.73 144.94 95.85 148.23 C 96.45 147.35 97.04 146.47 97.63 145.59 C 98.18 145.42 99.28 145.06 99.83 144.88 C 100.10 145.71 100.64 147.37 100.90 148.20 C 102.05 146.22 103.18 144.22 104.38 142.28 C 104.60 143.76 104.66 145.33 103.60 146.53 C 102.67 147.79 101.73 149.03 100.75 150.25 L 100.71 150.29 C 99.92 150.83 99.38 151.57 99.08 152.49 C 97.91 155.83 93.84 156.44 91.45 158.71 C 90.96 158.22 89.98 157.25 89.50 156.77 C 89.73 155.15 89.99 153.55 90.21 151.94 C 90.22 151.74 90.24 151.35 90.25 151.15 C 90.05 150.21 89.86 149.28 89.66 148.35 C 90.33 146.68 91.08 145.05 91.74 143.38 C 92.11 142.41 92.48 141.45 92.84 140.48 Z" />
<path fill="#b400ff" opacity="1.00" d=" M 192.82 140.77 C 194.30 141.87 195.69 143.08 197.04 144.34 C 196.45 144.74 195.27 145.54 194.68 145.94 C 193.89 144.28 193.23 142.56 192.82 140.77 Z" />
<path fill="#b400ff" opacity="1.00" d=" M 136.34 152.02 C 137.35 147.72 141.84 144.66 146.08 144.35 C 143.86 146.41 141.52 148.35 139.43 150.54 C 138.99 151.68 138.59 152.85 138.19 154.01 C 137.72 153.51 136.80 152.52 136.34 152.02 Z" />
<path fill="#b400ff" opacity="1.00" d=" M 101.06 166.91 C 101.87 166.41 102.67 165.88 103.46 165.34 C 103.77 166.92 104.22 168.49 105.00 169.91 C 106.07 172.06 107.12 174.22 108.13 176.39 L 107.83 176.73 C 107.30 179.18 107.05 181.67 106.79 184.15 C 105.40 184.86 104.02 185.56 102.68 186.33 C 102.04 183.10 101.37 179.87 101.24 176.58 C 101.41 173.36 101.31 170.13 101.06 166.91 Z" />
<path fill="#b400ff" opacity="1.00" d=" M 146.09 174.20 C 147.40 172.84 148.60 171.39 149.82 169.95 C 149.76 172.78 149.72 175.60 149.58 178.43 C 149.40 178.56 149.05 178.82 148.88 178.95 C 147.94 177.37 147.01 175.79 146.09 174.20 Z" />
<path fill="#b400ff" opacity="1.00" d=" M 85.07 183.19 C 89.31 181.36 91.32 177.06 94.19 173.74 L 93.88 174.74 C 92.86 178.78 91.58 182.79 91.00 186.93 C 90.54 189.69 92.61 191.92 94.04 194.03 C 95.85 196.57 97.17 199.42 98.02 202.42 C 98.02 205.19 98.15 207.96 98.30 210.73 C 95.27 210.24 92.41 209.07 89.74 207.59 C 87.47 204.93 85.01 202.22 84.23 198.71 C 83.22 193.83 83.80 188.80 83.91 183.86 L 85.07 183.19 Z" />
<path fill="#b400ff" opacity="1.00" d=" M 102.64 186.98 C 103.93 187.39 105.21 187.80 106.50 188.21 C 106.41 190.76 106.45 193.32 106.19 195.87 C 105.72 197.72 105.16 199.54 104.63 201.37 C 103.30 200.26 101.95 199.17 100.70 197.97 C 100.70 197.40 100.70 196.25 100.70 195.67 C 101.62 192.84 102.64 189.99 102.64 186.98 Z" />
</g>
<g id="#e0dedfff">
<path fill="#e0dedf" opacity="1.00" d=" M 171.84 100.75 C 175.76 99.00 180.21 100.21 183.98 101.78 C 190.07 105.93 193.22 113.59 192.93 120.84 C 192.66 122.33 192.32 123.81 192.01 125.30 C 191.55 125.40 190.62 125.61 190.15 125.71 C 190.10 125.51 189.99 125.10 189.94 124.89 C 191.69 119.81 192.04 112.69 187.48 108.98 C 186.34 107.33 185.51 105.41 184.04 104.01 C 180.20 102.93 175.97 101.94 172.01 102.91 C 166.46 106.92 164.82 113.88 164.81 120.38 C 164.76 120.76 164.66 121.52 164.61 121.90 C 164.45 122.39 164.13 123.38 163.98 123.88 C 162.12 121.27 161.77 118.06 161.35 114.99 C 159.71 116.45 157.97 117.81 156.16 119.06 C 158.98 111.50 164.05 103.82 171.84 100.75 Z" />
</g>
<g id="#6f7883ff">
<path fill="#6f7883" opacity="1.00" d=" M 172.01 102.91 C 175.97 101.94 180.20 102.93 184.04 104.01 C 185.51 105.41 186.34 107.33 187.48 108.98 C 185.34 108.11 183.63 106.55 181.73 105.30 C 177.68 105.24 173.61 106.19 169.79 107.50 C 166.61 108.62 165.59 112.18 165.46 115.21 C 167.57 115.93 169.66 116.70 171.75 117.50 C 171.70 114.31 171.60 111.09 172.32 107.96 C 172.34 110.99 172.18 114.02 172.33 117.04 C 172.79 117.45 173.70 118.25 174.15 118.65 C 173.09 118.34 172.00 118.09 170.92 117.87 C 169.54 117.62 168.16 117.37 166.78 117.14 C 166.10 118.21 165.45 119.29 164.81 120.38 C 164.82 113.88 166.46 106.92 172.01 102.91 M 172.19 104.16 C 170.66 104.91 170.52 105.57 171.77 106.14 C 173.27 105.37 173.41 104.71 172.19 104.16 Z" />
</g>
<g id="#0a121eff">
<path fill="#0a121e" opacity="1.00" d=" M 110.38 103.25 C 111.84 104.50 113.33 105.73 114.81 106.98 C 114.13 108.47 113.46 109.96 112.85 111.47 C 112.76 109.96 112.63 108.44 112.11 107.00 C 111.54 105.74 110.96 104.49 110.38 103.25 Z" />
<path fill="#0a121e" opacity="1.00" d=" M 118.83 116.06 C 119.63 115.40 120.44 114.74 121.25 114.09 C 121.78 115.02 122.32 115.95 122.86 116.88 C 122.88 118.19 123.50 119.07 124.71 119.53 C 124.97 119.90 125.47 120.65 125.73 121.03 C 124.82 120.45 123.92 119.86 123.03 119.27 C 121.63 118.20 120.28 117.05 118.83 116.06 Z" />
<path fill="#0a121e" opacity="1.00" d=" M 180.26 123.06 L 181.61 122.96 C 182.63 123.43 183.63 123.92 184.64 124.43 C 184.72 125.14 184.89 126.55 184.97 127.25 C 184.55 126.87 183.71 126.10 183.29 125.71 C 182.30 124.81 181.29 123.92 180.26 123.06 Z" />
<path fill="#0a121e" opacity="1.00" d=" M 93.32 124.65 C 93.38 125.51 93.45 126.37 93.53 127.24 C 92.21 130.09 91.57 133.19 90.98 136.26 C 90.48 135.43 89.97 134.60 89.44 133.79 C 90.07 131.63 90.79 129.49 91.43 127.34 C 91.56 126.93 91.82 126.13 91.95 125.73 C 92.29 125.46 92.97 124.92 93.32 124.65 Z" />
<path fill="#0a121e" opacity="1.00" d=" M 100.57 128.03 C 102.34 127.57 104.14 127.22 105.94 126.90 C 105.81 127.48 105.54 128.66 105.41 129.24 C 104.74 129.31 103.41 129.45 102.75 129.51 C 102.07 129.60 100.71 129.77 100.02 129.86 C 100.09 129.43 100.21 128.57 100.27 128.14 L 100.57 128.03 Z" />
<path fill="#0a121e" opacity="1.00" d=" M 93.93 137.28 C 96.42 135.89 98.83 134.35 101.43 133.17 C 101.82 133.51 102.60 134.20 102.99 134.55 C 103.19 135.72 103.88 137.06 102.61 137.90 L 102.30 138.28 C 102.38 137.29 102.53 135.32 102.60 134.34 C 100.62 135.37 98.66 136.46 96.79 137.70 C 95.45 138.60 94.15 139.54 92.84 140.48 C 92.74 139.63 92.64 138.77 92.55 137.92 C 92.89 137.76 93.58 137.44 93.93 137.28 Z" />
<path fill="#0a121e" opacity="1.00" d=" M 86.59 134.70 C 87.29 135.34 87.98 135.99 88.67 136.65 L 88.64 136.77 L 87.88 136.60 C 85.91 135.66 85.65 138.80 87.05 139.54 C 86.90 139.82 86.58 140.38 86.43 140.66 C 85.64 140.32 84.86 139.99 84.08 139.66 C 84.08 139.16 84.09 138.15 84.09 137.65 C 84.93 136.67 85.76 135.68 86.59 134.70 Z" />
<path fill="#0a121e" opacity="1.00" d=" M 111.75 145.03 C 114.28 144.46 116.52 142.97 119.19 143.00 C 119.00 143.68 118.61 145.03 118.42 145.71 C 117.13 145.19 115.78 144.14 114.52 145.30 C 113.53 143.51 109.64 149.00 111.75 145.03 Z" />
<path fill="#0a121e" opacity="1.00" d=" M 123.17 145.03 C 123.26 144.86 123.46 144.51 123.55 144.34 L 124.26 145.21 C 124.43 145.41 124.78 145.82 124.96 146.03 C 123.75 147.29 122.54 148.55 121.45 149.91 C 121.29 150.20 120.96 150.77 120.80 151.06 C 122.12 151.82 124.04 153.05 123.21 154.87 C 122.56 156.34 120.05 156.18 120.07 158.07 C 119.04 161.41 120.33 164.81 120.94 168.10 C 120.75 168.30 120.38 168.70 120.20 168.90 L 119.57 169.12 C 119.54 165.85 119.36 162.50 117.73 159.58 L 117.53 159.09 C 117.43 159.20 117.24 159.42 117.15 159.53 C 116.91 159.93 116.42 160.73 116.18 161.12 C 116.31 162.68 116.53 164.23 116.74 165.78 C 116.40 165.79 115.73 165.83 115.39 165.84 C 115.36 165.05 115.31 163.47 115.28 162.67 C 114.71 162.69 113.57 162.73 113.00 162.75 C 112.61 161.70 112.21 160.66 111.79 159.64 C 113.73 159.99 115.28 158.86 116.75 157.80 C 116.84 157.24 117.02 156.14 117.12 155.59 C 118.52 155.41 119.74 154.87 120.78 153.96 C 117.92 151.92 114.40 154.17 111.42 154.73 C 113.04 155.83 115.01 154.92 116.77 154.99 C 114.93 156.24 112.68 157.07 111.45 159.04 C 110.78 158.02 110.07 157.02 109.40 156.00 C 109.54 155.48 109.82 154.43 109.96 153.91 C 115.42 152.99 119.86 149.25 123.17 145.03 Z" />
<path fill="#0a121e" opacity="1.00" d=" M 127.57 146.18 C 128.50 145.83 129.44 145.47 130.38 145.12 C 131.43 146.36 132.47 147.60 133.60 148.77 C 134.09 148.64 135.07 148.38 135.56 148.25 L 135.82 148.15 L 135.55 148.96 C 135.18 150.01 134.82 151.06 134.48 152.12 C 134.06 151.69 133.23 150.83 132.81 150.40 C 132.37 152.13 131.95 153.87 131.72 155.64 L 131.54 156.83 C 131.17 154.62 130.83 152.41 130.51 150.19 C 131.04 150.15 132.09 150.07 132.62 150.03 C 132.28 149.57 131.59 148.66 131.25 148.20 C 130.01 147.55 128.75 146.93 127.57 146.18 Z" />
<path fill="#0a121e" opacity="1.00" d=" M 103.85 164.18 C 103.23 161.99 101.11 159.11 104.01 157.61 C 104.18 158.59 104.52 160.57 104.69 161.56 C 105.02 160.81 105.43 160.11 105.89 159.45 C 105.91 159.80 105.94 160.50 105.95 160.84 C 105.10 162.33 104.29 163.84 103.46 165.34 C 102.67 165.88 101.87 166.41 101.06 166.91 C 102.00 166.01 102.92 165.09 103.85 164.18 Z" />
<path fill="#0a121e" opacity="1.00" d=" M 111.66 168.83 C 112.53 168.18 113.41 167.53 114.28 166.88 C 114.71 168.09 115.21 169.26 115.78 170.41 C 116.03 170.86 116.54 171.74 116.79 172.18 C 118.03 174.25 119.25 176.34 120.70 178.27 C 120.99 178.56 121.57 179.15 121.86 179.45 C 122.23 175.99 122.32 172.51 122.52 169.05 C 122.60 174.89 122.66 180.73 124.01 186.45 C 120.18 181.80 118.68 175.61 114.16 171.46 L 114.09 171.38 C 113.32 170.50 112.51 169.64 111.66 168.83 Z" />
</g>
<g id="#dff2e6ff">
<path fill="#dff2e6" opacity="1.00" d=" M 172.19 104.16 C 173.41 104.71 173.27 105.37 171.77 106.14 C 170.52 105.57 170.66 104.91 172.19 104.16 Z" />
</g>
<g id="#ece6e9ff">
<path fill="#ece6e9" opacity="1.00" d=" M 99.00 108.07 C 102.92 105.58 107.83 105.02 112.11 107.00 C 112.63 108.44 112.76 109.96 112.85 111.47 L 112.88 112.44 L 112.92 112.98 C 114.73 114.29 116.83 115.09 118.83 116.06 C 120.28 117.05 121.63 118.20 123.03 119.27 C 123.57 121.20 124.35 123.06 125.47 124.73 C 123.62 123.61 121.55 122.97 119.48 122.38 C 118.68 121.67 117.88 120.96 117.08 120.25 C 116.49 120.40 115.30 120.70 114.70 120.85 C 113.32 121.10 110.87 121.71 111.19 123.53 C 112.54 124.05 113.90 123.06 115.03 122.44 L 116.45 123.22 C 115.68 123.81 114.90 124.39 114.13 124.97 C 113.26 125.60 112.40 126.25 111.55 126.92 C 109.34 126.01 107.36 124.67 105.41 123.32 C 103.72 124.17 101.93 124.76 100.06 125.03 C 99.50 123.04 98.92 121.06 98.33 119.08 C 98.41 121.94 98.51 124.80 98.47 127.66 C 97.58 126.08 96.73 124.48 95.88 122.88 C 95.55 124.74 95.22 126.60 94.90 128.46 L 93.53 127.24 C 93.45 126.37 93.38 125.51 93.32 124.65 L 93.20 123.78 C 92.89 124.27 92.26 125.24 91.95 125.73 C 91.82 126.13 91.56 126.93 91.43 127.34 C 91.46 124.64 91.08 121.79 92.31 119.28 C 94.06 115.31 95.76 111.08 99.00 108.07 Z" />
<path fill="#ece6e9" opacity="1.00" d=" M 100.17 179.24 C 100.43 178.57 100.97 177.24 101.24 176.58 C 101.37 179.87 102.04 183.10 102.68 186.33 L 102.64 186.98 C 102.64 189.99 101.62 192.84 100.70 195.67 C 100.59 192.77 101.34 189.93 101.47 187.05 C 101.43 184.39 100.70 181.82 100.17 179.24 Z" />
</g>
<g id="#dfdfdeff">
<path fill="#dfdfde" opacity="1.00" d=" M 169.79 107.50 C 173.61 106.19 177.68 105.24 181.73 105.30 C 183.63 106.55 185.34 108.11 187.48 108.98 C 192.04 112.69 191.69 119.81 189.94 124.89 C 189.28 122.42 188.37 120.01 187.24 117.71 C 186.13 119.84 185.17 122.07 184.64 124.43 C 183.63 123.92 182.63 123.43 181.61 122.96 L 180.26 123.06 C 179.87 123.09 179.10 123.16 178.71 123.19 C 177.22 121.64 175.78 120.05 174.15 118.65 C 173.70 118.25 172.79 117.45 172.33 117.04 C 172.18 114.02 172.34 110.99 172.32 107.96 C 171.60 111.09 171.70 114.31 171.75 117.50 C 169.66 116.70 167.57 115.93 165.46 115.21 C 165.59 112.18 166.61 108.62 169.79 107.50 M 181.12 119.24 C 180.66 120.60 181.15 121.13 182.58 120.84 C 183.02 119.48 182.54 118.95 181.12 119.24 Z" />
<path fill="#dfdfde" opacity="1.00" d=" M 126.72 173.31 C 128.16 172.49 130.39 174.37 128.89 175.71 C 127.57 176.15 126.76 175.61 126.48 174.12 L 126.72 173.31 Z" />
<path fill="#dfdfde" opacity="1.00" d=" M 106.79 184.15 C 107.05 181.67 107.30 179.18 107.83 176.73 C 108.43 177.56 109.04 178.40 109.65 179.23 C 109.09 179.78 108.55 180.34 108.00 180.91 C 108.19 181.38 108.57 182.32 108.75 182.79 C 110.01 186.94 107.33 190.75 106.51 194.71 C 106.43 195.00 106.27 195.58 106.19 195.87 C 106.45 193.32 106.41 190.76 106.50 188.21 C 106.57 186.85 106.66 185.50 106.79 184.15 Z" />
</g>
<g id="#76727dff">
<path fill="#76727d" opacity="1.00" d=" M 114.81 106.98 C 115.07 107.20 115.59 107.64 115.85 107.86 C 117.51 109.86 119.24 111.78 121.02 113.67 L 121.25 114.09 C 120.44 114.74 119.63 115.40 118.83 116.06 C 116.83 115.09 114.73 114.29 112.92 112.98 L 113.44 112.88 L 113.38 112.36 L 112.88 112.44 L 112.85 111.47 C 113.46 109.96 114.13 108.47 114.81 106.98 M 115.23 111.14 C 114.31 112.53 116.63 114.03 117.84 113.43 C 118.67 112.05 116.54 109.97 115.23 111.14 Z" />
<path fill="#76727d" opacity="1.00" d=" M 132.81 150.40 C 133.23 150.83 134.06 151.69 134.48 152.12 C 134.97 154.76 136.87 156.50 139.03 157.88 C 138.72 158.41 138.11 159.46 137.80 159.99 C 138.29 161.86 138.76 163.73 139.14 165.63 C 137.64 165.33 136.15 165.02 134.66 164.67 C 134.24 164.25 133.39 163.42 132.97 163.00 C 131.04 162.33 130.51 164.71 131.16 166.05 C 131.20 166.39 131.28 167.07 131.32 167.41 C 131.18 167.86 130.90 168.76 130.76 169.21 C 129.95 167.87 129.18 166.50 128.53 165.08 C 129.32 162.62 129.96 160.12 130.46 157.59 C 130.76 157.95 131.36 158.67 131.66 159.04 C 132.00 159.19 132.69 159.50 133.03 159.65 C 132.97 159.22 132.84 158.37 132.78 157.95 C 132.52 157.37 131.98 156.22 131.72 155.64 C 131.95 153.87 132.37 152.13 132.81 150.40 Z" />
</g>
<g id="#3c3b3bff">
<path fill="#3c3b3b" opacity="1.00" d=" M 115.85 107.86 C 118.40 109.08 121.85 110.01 121.02 113.67 C 119.24 111.78 117.51 109.86 115.85 107.86 Z" />
<path fill="#3c3b3b" opacity="1.00" d=" M 111.55 126.92 C 112.40 126.25 113.26 125.60 114.13 124.97 C 115.56 125.12 116.98 125.33 118.42 125.48 C 116.57 125.80 114.77 126.33 113.06 127.08 L 111.55 126.92 Z" />
<path fill="#3c3b3b" opacity="1.00" d=" M 129.45 156.35 C 129.70 156.66 130.20 157.28 130.46 157.59 C 129.96 160.12 129.32 162.62 128.53 165.08 C 127.62 167.75 127.13 170.53 126.72 173.31 L 126.48 174.12 L 126.32 173.57 C 126.13 172.88 125.77 171.52 125.58 170.84 C 123.36 175.11 123.28 180.36 125.93 184.48 C 125.96 183.77 126.02 182.34 126.05 181.63 C 128.34 185.28 127.80 189.69 128.11 193.79 L 127.36 194.37 C 126.46 191.88 125.38 189.45 123.88 187.27 C 123.34 190.48 123.71 193.72 123.87 196.94 L 122.86 197.67 C 121.80 193.41 121.79 188.72 119.44 184.88 L 118.84 183.96 L 120.43 184.12 C 118.90 181.26 117.19 178.43 114.60 176.40 L 114.19 176.33 C 114.15 174.70 114.14 173.08 114.16 171.46 C 118.68 175.61 120.18 181.80 124.01 186.45 C 122.66 180.73 122.60 174.89 122.52 169.05 C 122.32 172.51 122.23 175.99 121.86 179.45 C 121.57 179.15 120.99 178.56 120.70 178.27 C 120.85 176.13 121.13 174.01 121.23 171.88 C 121.19 171.18 121.11 169.79 121.07 169.10 L 120.20 168.90 C 120.38 168.70 120.75 168.30 120.94 168.10 L 121.38 167.47 C 121.82 164.29 122.15 161.10 122.64 157.93 C 122.86 157.61 123.30 156.97 123.53 156.65 C 124.43 158.52 124.38 160.67 124.85 162.67 C 126.48 161.35 126.11 159.00 126.56 157.16 C 126.76 158.95 127.01 160.72 127.29 162.50 C 128.90 160.84 129.11 158.51 129.45 156.35 Z" />
</g>
<g id="#aaaaacff">
<path fill="#aaaaac" opacity="1.00" d=" M 115.23 111.14 C 116.54 109.97 118.67 112.05 117.84 113.43 C 116.63 114.03 114.31 112.53 115.23 111.14 Z" />
</g>
<g id="#2c1e31ff">
<path fill="#2c1e31" opacity="1.00" d=" M 112.88 112.44 L 113.38 112.36 L 113.44 112.88 L 112.92 112.98 L 112.88 112.44 Z" />
</g>
<g id="#b9b7bfff">
<path fill="#b9b7bf" opacity="1.00" d=" M 156.16 119.06 C 157.97 117.81 159.71 116.45 161.35 114.99 C 161.77 118.06 162.12 121.27 163.98 123.88 C 164.70 125.17 165.43 126.46 166.15 127.75 C 165.45 127.83 164.04 128.00 163.34 128.08 C 163.84 129.06 164.33 130.05 164.85 131.03 C 164.46 130.65 163.67 129.88 163.27 129.50 C 162.79 134.58 161.46 140.03 157.14 143.24 C 158.63 138.91 159.62 134.34 158.65 129.76 C 157.01 132.94 155.89 136.75 152.70 138.77 C 150.25 140.21 147.57 141.23 145.04 142.52 C 145.67 142.84 146.94 143.48 147.58 143.79 C 147.20 143.93 146.46 144.21 146.08 144.35 C 141.84 144.66 137.35 147.72 136.34 152.02 C 136.04 151.01 135.78 149.99 135.55 148.96 L 135.82 148.15 C 138.43 144.99 141.71 142.54 145.02 140.18 C 145.40 138.39 145.04 136.08 146.85 134.98 C 151.80 131.11 155.67 125.45 156.16 119.06 M 146.84 139.09 C 150.14 136.74 152.93 133.73 155.02 130.26 C 152.75 133.70 147.19 134.56 146.84 139.09 Z" />
</g>
<g id="#d2b1cfff">
<path fill="#d2b1cf" opacity="1.00" d=" M 122.86 116.88 C 124.36 117.13 124.97 118.01 124.71 119.53 C 123.50 119.07 122.88 118.19 122.86 116.88 Z" />
<path fill="#d2b1cf" opacity="1.00" d=" M 114.70 120.85 C 115.30 120.70 116.49 120.40 117.08 120.25 C 117.88 120.96 118.68 121.67 119.48 122.38 C 121.55 122.97 123.62 123.61 125.47 124.73 C 126.33 125.71 127.18 126.70 128.05 127.67 C 127.54 127.78 126.54 128.00 126.03 128.10 L 124.75 128.41 C 126.36 130.80 128.31 132.92 130.38 134.90 C 129.82 135.27 128.68 136.01 128.12 136.38 C 126.91 135.69 125.71 135.00 124.50 134.31 C 124.39 134.81 124.17 135.81 124.06 136.31 C 122.74 134.80 121.42 133.30 120.07 131.83 C 120.59 133.94 121.13 136.04 121.79 138.11 C 122.51 140.04 123.73 141.72 125.26 143.10 C 125.01 143.62 124.51 144.68 124.26 145.21 L 123.55 144.34 C 123.46 144.51 123.26 144.86 123.17 145.03 C 122.08 144.11 120.95 143.25 119.84 142.36 L 120.99 142.20 C 119.65 139.38 118.36 136.53 117.34 133.58 C 118.54 131.07 118.88 128.28 119.04 125.53 L 118.42 125.48 C 116.98 125.33 115.56 125.12 114.13 124.97 C 114.90 124.39 115.68 123.81 116.45 123.22 L 115.03 122.44 C 114.95 122.04 114.78 121.24 114.70 120.85 Z" />
<path fill="#d2b1cf" opacity="1.00" d=" M 96.79 137.70 C 98.66 136.46 100.62 135.37 102.60 134.34 C 102.53 135.32 102.38 137.29 102.30 138.28 C 102.04 138.35 101.51 138.50 101.24 138.58 C 100.74 138.57 99.75 138.55 99.25 138.54 C 98.99 138.86 98.47 139.50 98.21 139.82 C 98.01 139.53 97.62 138.96 97.42 138.67 L 96.79 137.70 Z" />
</g>
<g id="#f0e9e6ff">
<path fill="#f0e9e6" opacity="1.00" d=" M 164.81 120.38 C 165.45 119.29 166.10 118.21 166.78 117.14 C 168.16 117.37 169.54 117.62 170.92 117.87 C 171.36 120.72 172.01 123.74 174.55 125.50 C 174.33 124.18 174.11 122.88 173.88 121.57 C 175.77 123.86 177.97 125.88 180.35 127.66 C 180.43 127.95 180.59 128.52 180.68 128.81 C 182.22 128.47 183.77 128.13 185.32 127.79 C 184.54 128.61 183.76 129.43 182.98 130.26 C 182.94 130.88 182.85 132.12 182.81 132.75 C 180.80 134.24 178.75 135.70 176.55 136.91 C 173.64 138.11 170.41 137.95 167.99 135.79 C 166.83 134.27 165.84 132.65 164.85 131.03 C 164.33 130.05 163.84 129.06 163.34 128.08 C 164.04 128.00 165.45 127.83 166.15 127.75 C 165.43 126.46 164.70 125.17 163.98 123.88 C 166.39 123.16 168.89 123.46 171.35 123.67 C 169.47 122.05 166.95 122.08 164.61 121.90 C 164.66 121.52 164.76 120.76 164.81 120.38 M 171.67 128.71 C 171.20 129.78 170.65 130.82 170.26 131.92 C 170.22 134.24 174.54 135.15 174.99 132.53 C 174.09 132.50 172.29 132.45 171.38 132.42 C 171.75 131.02 172.44 129.76 173.42 128.69 C 172.98 128.69 172.11 128.71 171.67 128.71 Z" />
</g>
<g id="#d4d0d0ff">
<path fill="#d4d0d0" opacity="1.00" d=" M 170.92 117.87 C 172.00 118.09 173.09 118.34 174.15 118.65 C 175.78 120.05 177.22 121.64 178.71 123.19 C 178.77 123.86 178.90 125.20 178.96 125.88 C 180.40 125.82 181.85 125.76 183.29 125.71 C 183.71 126.10 184.55 126.87 184.97 127.25 C 184.89 126.55 184.72 125.14 184.64 124.43 C 185.17 122.07 186.13 119.84 187.24 117.71 C 188.37 120.01 189.28 122.42 189.94 124.89 C 189.99 125.10 190.10 125.51 190.15 125.71 C 190.62 125.61 191.55 125.40 192.01 125.30 C 192.32 123.81 192.66 122.33 192.93 120.84 L 192.93 122.08 C 193.00 125.17 192.72 128.25 192.24 131.30 L 192.05 132.47 C 191.62 130.97 191.14 129.49 190.69 128.00 C 189.37 130.52 187.64 132.78 186.17 135.20 C 186.11 135.44 185.99 135.90 185.93 136.13 C 185.47 137.72 185.00 139.29 184.51 140.86 C 184.01 139.39 184.14 137.87 184.54 136.41 C 183.85 135.80 183.16 135.20 182.48 134.61 C 182.56 134.14 182.73 133.21 182.81 132.75 C 182.85 132.12 182.94 130.88 182.98 130.26 C 183.76 129.43 184.54 128.61 185.32 127.79 C 183.77 128.13 182.22 128.47 180.68 128.81 C 180.59 128.52 180.43 127.95 180.35 127.66 C 177.97 125.88 175.77 123.86 173.88 121.57 C 174.11 122.88 174.33 124.18 174.55 125.50 C 172.01 123.74 171.36 120.72 170.92 117.87 Z" />
</g>
<g id="#c4b0c5ff">
<path fill="#c4b0c5" opacity="1.00" d=" M 98.47 127.66 C 98.51 124.80 98.41 121.94 98.33 119.08 C 98.92 121.06 99.50 123.04 100.06 125.03 C 101.93 124.76 103.72 124.17 105.41 123.32 C 107.36 124.67 109.34 126.01 111.55 126.92 L 113.06 127.08 C 112.37 127.77 111.68 128.47 111.00 129.18 C 108.23 127.31 105.30 124.06 101.69 126.17 C 101.41 126.63 100.85 127.56 100.57 128.03 L 100.27 128.14 C 99.93 128.40 99.26 128.91 98.92 129.17 L 99.22 129.91 L 100.02 129.86 C 100.71 129.77 102.07 129.60 102.75 129.51 L 102.90 130.46 C 103.19 131.81 103.10 133.18 102.99 134.55 C 102.60 134.20 101.82 133.51 101.43 133.17 C 98.83 134.35 96.42 135.89 93.93 137.28 C 93.95 133.93 93.83 130.58 93.53 127.24 L 94.90 128.46 C 95.22 126.60 95.55 124.74 95.88 122.88 C 96.73 124.48 97.58 126.08 98.47 127.66 Z" />
</g>
<g id="#b5abaaff">
<path fill="#b5abaa" opacity="1.00" d=" M 181.12 119.24 C 182.54 118.95 183.02 119.48 182.58 120.84 C 181.15 121.13 180.66 120.60 181.12 119.24 Z" />
</g>
<g id="#9a97c6ff">
<path fill="#9a97c6" opacity="1.00" d=" M 192.93 122.08 C 194.55 120.10 196.70 118.73 199.32 118.62 C 198.78 120.58 198.02 122.47 197.07 124.27 C 197.89 124.77 198.71 125.27 199.54 125.77 C 199.24 126.87 199.13 128.04 199.43 129.15 C 198.76 129.04 197.40 128.81 196.72 128.70 C 196.58 128.71 196.31 128.75 196.17 128.76 C 195.51 128.06 194.82 127.38 194.10 126.73 C 193.99 127.11 193.77 127.87 193.66 128.25 C 193.18 129.26 192.71 130.28 192.24 131.30 C 192.72 128.25 193.00 125.17 192.93 122.08 Z" />
</g>
<g id="#c7b0b3ff">
<path fill="#c7b0b3" opacity="1.00" d=" M 111.19 123.53 C 110.87 121.71 113.32 121.10 114.70 120.85 C 114.78 121.24 114.95 122.04 115.03 122.44 C 113.90 123.06 112.54 124.05 111.19 123.53 Z" />
</g>
<g id="#4f2c68ff">
<path fill="#4f2c68" opacity="1.00" d=" M 210.00 120.73 C 223.04 138.00 234.83 156.19 247.91 173.43 C 237.84 200.19 218.51 223.32 193.97 238.00 C 176.40 248.60 156.24 254.84 135.75 256.00 L 124.05 256.00 C 115.29 243.73 106.46 231.51 97.67 219.26 C 95.02 215.37 91.99 211.74 89.74 207.59 C 92.41 209.07 95.27 210.24 98.30 210.73 C 99.52 210.72 100.74 210.68 101.96 210.60 C 104.21 210.08 106.41 209.31 108.40 208.12 C 109.33 207.46 110.23 206.77 111.15 206.12 C 111.46 205.93 112.07 205.55 112.37 205.35 C 113.54 204.76 114.66 204.04 115.40 202.93 C 117.68 200.90 120.34 199.38 122.86 197.67 L 123.87 196.94 C 125.04 196.10 126.21 195.24 127.36 194.37 L 128.11 193.79 C 129.19 192.98 130.32 192.24 131.43 191.47 C 134.91 188.99 138.37 186.47 141.83 183.95 C 142.61 183.38 143.38 182.81 144.16 182.24 C 143.68 180.84 142.66 179.18 143.89 177.86 C 144.39 179.02 144.87 180.20 145.32 181.40 C 146.51 180.59 147.70 179.78 148.88 178.95 C 149.05 178.82 149.40 178.56 149.58 178.43 C 150.00 178.10 150.85 177.44 151.28 177.12 C 151.45 176.98 151.80 176.71 151.98 176.58 C 155.99 173.91 159.91 171.10 163.77 168.21 C 165.17 167.18 166.59 166.16 168.02 165.16 C 169.79 163.92 171.56 162.69 173.28 161.37 C 174.85 160.15 176.45 158.95 178.11 157.85 C 179.34 157.03 180.59 156.22 181.82 155.40 C 182.40 154.98 183.55 154.15 184.12 153.74 C 186.20 152.15 188.32 150.60 190.42 149.04 C 191.83 148.00 193.24 146.94 194.68 145.94 C 195.27 145.54 196.45 144.74 197.04 144.34 C 199.44 142.69 201.86 141.05 204.18 139.27 C 210.04 135.17 212.08 127.42 210.00 120.73 Z" />
<path fill="#4f2c68" opacity="1.00" d=" M 106.08 137.17 C 106.47 137.42 107.26 137.92 107.66 138.16 C 107.88 140.03 108.00 141.90 108.00 143.78 L 106.88 145.05 C 106.52 142.44 106.28 139.81 106.08 137.17 Z" />
</g>
<g id="#484747ff">
<path fill="#484747" opacity="1.00" d=" M 163.98 123.88 C 164.13 123.38 164.45 122.39 164.61 121.90 C 166.95 122.08 169.47 122.05 171.35 123.67 C 168.89 123.46 166.39 123.16 163.98 123.88 Z" />
<path fill="#484747" opacity="1.00" d=" M 108.62 156.53 L 109.40 156.00 C 110.07 157.02 110.78 158.02 111.45 159.04 L 111.79 159.64 C 112.21 160.66 112.61 161.70 113.00 162.75 C 113.43 164.12 113.83 165.51 114.28 166.88 C 113.41 167.53 112.53 168.18 111.66 168.83 C 109.88 167.43 108.63 165.53 108.94 163.16 C 109.43 163.13 110.43 163.06 110.93 163.03 C 110.07 160.89 109.25 158.74 108.62 156.53 Z" />
</g>
<g id="#6d89aaff">
<path fill="#6d89aa" opacity="1.00" d=" M 178.71 123.19 C 179.10 123.16 179.87 123.09 180.26 123.06 C 181.29 123.92 182.30 124.81 183.29 125.71 C 181.85 125.76 180.40 125.82 178.96 125.88 C 178.90 125.20 178.77 123.86 178.71 123.19 Z" />
</g>
<g id="#a509e2ff">
<path fill="#a509e2" opacity="1.00" d=" M 91.95 125.73 C 92.26 125.24 92.89 124.27 93.20 123.78 L 93.32 124.65 C 92.97 124.92 92.29 125.46 91.95 125.73 Z" />
</g>
<g id="#e8dce2ff">
<path fill="#e8dce2" opacity="1.00" d=" M 101.69 126.17 C 105.30 124.06 108.23 127.31 111.00 129.18 C 111.68 128.47 112.37 127.77 113.06 127.08 C 114.77 126.33 116.57 125.80 118.42 125.48 L 119.04 125.53 C 118.88 128.28 118.54 131.07 117.34 133.58 C 116.96 134.18 116.20 135.38 115.82 135.97 C 114.36 137.90 112.24 139.05 109.90 139.53 C 109.15 139.08 108.41 138.62 107.66 138.16 C 107.26 137.92 106.47 137.42 106.08 137.17 C 106.28 139.81 106.52 142.44 106.88 145.05 L 108.00 143.78 C 108.32 143.42 108.96 142.69 109.29 142.32 C 112.56 142.61 116.19 141.73 116.79 137.97 C 117.61 139.55 118.30 141.33 119.84 142.36 C 120.95 143.25 122.08 144.11 123.17 145.03 C 119.86 149.25 115.42 152.99 109.96 153.91 C 110.27 153.48 110.88 152.63 111.19 152.20 C 112.27 151.14 113.30 150.04 114.34 148.93 C 112.89 148.37 111.45 147.79 110.01 147.21 C 109.11 148.01 108.21 148.80 107.31 149.59 C 107.29 148.86 107.26 147.38 107.24 146.65 C 106.33 146.62 104.51 146.56 103.60 146.53 C 104.66 145.33 104.60 143.76 104.38 142.28 C 104.20 141.98 103.83 141.39 103.65 141.10 C 106.08 139.89 105.08 137.53 102.61 137.90 C 103.88 137.06 103.19 135.72 102.99 134.55 C 103.10 133.18 103.19 131.81 102.90 130.46 C 104.29 131.29 105.12 130.88 105.41 129.24 C 105.54 128.66 105.81 127.48 105.94 126.90 C 104.14 127.22 102.34 127.57 100.57 128.03 C 100.85 127.56 101.41 126.63 101.69 126.17 M 108.99 134.73 C 110.13 137.07 112.70 135.14 113.68 133.61 C 112.11 133.94 110.55 134.33 108.99 134.73 M 111.75 145.03 C 109.64 149.00 113.53 143.51 114.52 145.30 C 115.78 144.14 117.13 145.19 118.42 145.71 C 118.61 145.03 119.00 143.68 119.19 143.00 C 116.52 142.97 114.28 144.46 111.75 145.03 Z" />
</g>
<g id="#9a41c7ff">
<path fill="#9a41c7" opacity="1.00" d=" M 199.54 125.77 C 201.59 126.09 201.89 129.59 199.43 129.15 C 199.13 128.04 199.24 126.87 199.54 125.77 Z" />
</g>
<g id="#ead0d3ff">
<path fill="#ead0d3" opacity="1.00" d=" M 194.10 126.73 C 194.82 127.38 195.51 128.06 196.17 128.76 C 197.32 132.38 198.83 135.93 201.09 139.01 C 201.86 139.08 203.41 139.21 204.18 139.27 C 201.86 141.05 199.44 142.69 197.04 144.34 C 195.69 143.08 194.30 141.87 192.82 140.77 C 193.23 142.56 193.89 144.28 194.68 145.94 C 193.24 146.94 191.83 148.00 190.42 149.04 C 190.12 148.51 189.52 147.45 189.22 146.92 C 186.99 143.69 187.41 139.63 185.93 136.13 C 185.99 135.90 186.11 135.44 186.17 135.20 C 187.13 134.79 188.10 134.37 189.07 133.96 C 189.21 134.59 189.49 135.85 189.62 136.48 L 190.09 136.78 L 190.64 137.09 C 191.07 137.33 191.91 137.81 192.33 138.05 L 192.76 138.29 C 194.36 139.15 196.12 139.64 197.90 140.03 C 197.27 137.92 196.62 135.82 195.82 133.77 C 195.11 131.92 194.36 130.09 193.66 128.25 C 193.77 127.87 193.99 127.11 194.10 126.73 M 189.70 138.80 C 189.44 140.06 189.19 141.32 188.97 142.58 C 189.53 142.68 190.65 142.88 191.21 142.98 C 190.63 143.98 191.41 146.48 192.82 145.91 C 193.15 144.71 192.76 143.76 191.67 143.05 C 191.10 141.59 190.51 140.14 189.70 138.80 Z" />
<path fill="#ead0d3" opacity="1.00" d=" M 87.05 139.54 C 85.65 138.80 85.91 135.66 87.88 136.60 C 87.67 137.33 87.26 138.80 87.05 139.54 Z" />
<path fill="#ead0d3" opacity="1.00" d=" M 166.25 156.79 C 169.32 155.32 172.65 154.45 176.08 154.77 C 174.37 155.50 175.49 157.55 177.08 157.08 C 177.34 157.27 177.85 157.66 178.11 157.85 C 176.45 158.95 174.85 160.15 173.28 161.37 C 173.74 159.91 174.21 158.45 174.67 156.99 C 173.53 156.78 172.40 156.57 171.27 156.36 C 170.95 156.82 170.32 157.72 170.01 158.18 C 169.24 158.17 167.70 158.14 166.93 158.13 C 167.97 159.44 169.01 160.75 170.02 162.07 C 168.82 161.61 167.64 161.12 166.46 160.61 C 165.37 159.11 164.27 157.62 163.18 156.12 C 163.95 156.29 165.49 156.62 166.25 156.79 Z" />
</g>
<g id="#c500ffff">
<path fill="#c500ff" opacity="1.00" d=" M 90.98 136.26 C 91.57 133.19 92.21 130.09 93.53 127.24 C 93.83 130.58 93.95 133.93 93.93 137.28 C 93.58 137.44 92.89 137.76 92.55 137.92 C 92.22 137.91 91.56 137.89 91.22 137.88 C 91.16 137.47 91.04 136.66 90.98 136.26 Z" />
</g>
<g id="#f7dcf4ff">
<path fill="#f7dcf4" opacity="1.00" d=" M 98.92 129.17 C 99.26 128.91 99.93 128.40 100.27 128.14 C 100.21 128.57 100.09 129.43 100.02 129.86 L 99.22 129.91 L 98.92 129.17 Z" />
</g>
<g id="#b27aabff">
<path fill="#b27aab" opacity="1.00" d=" M 126.03 128.10 C 126.54 128.00 127.54 127.78 128.05 127.67 C 128.26 128.03 128.67 128.73 128.88 129.08 C 127.74 129.45 126.79 129.13 126.03 128.10 Z" />
</g>
<g id="#6d0100ff">
<path fill="#6d0100" opacity="1.00" d=" M 171.67 128.71 C 172.11 128.71 172.98 128.69 173.42 128.69 C 172.44 129.76 171.75 131.02 171.38 132.42 C 172.29 132.45 174.09 132.50 174.99 132.53 C 174.54 135.15 170.22 134.24 170.26 131.92 C 170.65 130.82 171.20 129.78 171.67 128.71 Z" />
<path fill="#6d0100" opacity="1.00" d=" M 108.99 134.73 C 110.55 134.33 112.11 133.94 113.68 133.61 C 112.70 135.14 110.13 137.07 108.99 134.73 Z" />
<path fill="#6d0100" opacity="1.00" d=" M 100.75 150.25 C 101.73 149.03 102.67 147.79 103.60 146.53 C 104.51 146.56 106.33 146.62 107.24 146.65 C 107.26 147.38 107.29 148.86 107.31 149.59 C 108.21 148.80 109.11 148.01 110.01 147.21 C 111.45 147.79 112.89 148.37 114.34 148.93 C 113.30 150.04 112.27 151.14 111.19 152.20 L 109.94 150.60 C 108.87 150.90 107.79 151.23 106.73 151.58 C 106.08 150.75 105.44 149.92 104.79 149.10 L 104.35 150.07 C 103.45 150.12 101.65 150.21 100.75 150.25 Z" />
<path fill="#6d0100" opacity="1.00" d=" M 99.08 152.49 L 99.58 152.89 C 101.10 153.74 100.34 155.68 100.59 157.07 C 97.44 155.82 94.29 156.95 92.24 159.53 C 92.05 159.32 91.65 158.91 91.45 158.71 C 93.84 156.44 97.91 155.83 99.08 152.49 Z" />
</g>
<g id="#babfb7ff">
<path fill="#babfb7" opacity="1.00" d=" M 186.17 135.20 C 187.64 132.78 189.37 130.52 190.69 128.00 C 191.14 129.49 191.62 130.97 192.05 132.47 C 192.14 134.33 192.21 136.19 192.33 138.05 C 191.91 137.81 191.07 137.33 190.64 137.09 C 191.63 135.94 191.34 134.18 190.33 133.15 C 189.69 134.34 189.61 135.54 190.09 136.78 L 189.62 136.48 C 189.49 135.85 189.21 134.59 189.07 133.96 C 188.10 134.37 187.13 134.79 186.17 135.20 Z" />
</g>
<g id="#8432a1ff">
<path fill="#8432a1" opacity="1.00" d=" M 196.17 128.76 C 196.31 128.75 196.58 128.71 196.72 128.70 L 196.17 128.76 Z" />
</g>
<g id="#b62124ff">
<path fill="#b62124" opacity="1.00" d=" M 102.75 129.51 C 103.41 129.45 104.74 129.31 105.41 129.24 C 105.12 130.88 104.29 131.29 102.90 130.46 L 102.75 129.51 Z" />
<path fill="#b62124" opacity="1.00" d=" M 120.07 158.07 C 120.71 158.03 122.00 157.97 122.64 157.93 C 122.15 161.10 121.82 164.29 121.38 167.47 L 120.94 168.10 C 120.33 164.81 119.04 161.41 120.07 158.07 Z" />
<path fill="#b62124" opacity="1.00" d=" M 116.18 161.12 C 116.42 160.73 116.91 159.93 117.15 159.53 L 117.73 159.58 C 119.36 162.50 119.54 165.85 119.57 169.12 C 118.31 169.55 117.04 169.98 115.78 170.41 C 115.21 169.26 114.71 168.09 114.28 166.88 C 113.83 165.51 113.43 164.12 113.00 162.75 C 113.57 162.73 114.71 162.69 115.28 162.67 C 115.31 163.47 115.36 165.05 115.39 165.84 C 115.73 165.83 116.40 165.79 116.74 165.78 C 116.53 164.23 116.31 162.68 116.18 161.12 Z" />
<path fill="#b62124" opacity="1.00" d=" M 133.09 163.86 C 133.48 164.06 134.27 164.47 134.66 164.67 C 136.15 165.02 137.64 165.33 139.14 165.63 L 139.19 165.99 C 138.84 166.24 138.15 166.74 137.80 166.99 C 137.09 166.84 135.66 166.55 134.95 166.40 L 134.64 166.21 L 134.30 166.04 C 133.98 165.74 133.35 165.12 133.04 164.81 L 133.09 163.86 Z" />
</g>
<g id="#5e5164ff">
<path fill="#5e5164" opacity="1.00" d=" M 192.24 131.30 C 192.71 130.28 193.18 129.26 193.66 128.25 C 194.36 130.09 195.11 131.92 195.82 133.77 C 194.84 132.94 193.79 132.18 192.77 131.42 C 192.73 133.71 192.73 136.00 192.76 138.29 L 192.33 138.05 C 192.21 136.19 192.14 134.33 192.05 132.47 L 192.24 131.30 Z" />
<path fill="#5e5164" opacity="1.00" d=" M 89.44 133.79 C 89.97 134.60 90.48 135.43 90.98 136.26 C 91.04 136.66 91.16 137.47 91.22 137.88 C 91.56 137.89 92.22 137.91 92.55 137.92 C 92.64 138.77 92.74 139.63 92.84 140.48 C 92.48 141.45 92.11 142.41 91.74 143.38 C 90.31 142.93 88.88 142.48 87.45 142.05 C 87.94 144.25 88.66 146.38 89.44 148.49 C 88.87 148.93 87.75 149.80 87.18 150.23 C 86.02 149.26 84.85 148.30 83.67 147.35 C 83.92 144.80 83.96 142.22 84.08 139.66 C 84.86 139.99 85.64 140.32 86.43 140.66 C 86.58 140.38 86.90 139.82 87.05 139.54 C 87.26 138.80 87.67 137.33 87.88 136.60 L 88.64 136.77 L 88.67 136.65 C 88.86 135.93 89.25 134.51 89.44 133.79 Z" />
</g>
<g id="#92909aff">
<path fill="#92909a" opacity="1.00" d=" M 152.70 138.77 C 155.89 136.75 157.01 132.94 158.65 129.76 C 159.62 134.34 158.63 138.91 157.14 143.24 C 161.46 140.03 162.79 134.58 163.27 129.50 C 163.67 129.88 164.46 130.65 164.85 131.03 C 165.84 132.65 166.83 134.27 167.99 135.79 C 167.77 137.48 167.57 139.18 167.17 140.84 C 165.87 142.40 164.36 143.86 163.63 145.81 C 163.43 145.40 163.04 144.60 162.84 144.20 C 160.45 145.94 157.92 147.91 154.78 147.78 C 154.45 147.71 153.79 147.59 153.46 147.53 C 152.28 148.77 151.10 150.02 149.98 151.32 C 149.90 150.87 149.76 149.99 149.69 149.55 C 149.99 148.43 151.67 147.26 150.75 146.14 C 148.54 147.47 147.05 149.64 145.54 151.67 C 144.20 152.70 142.85 153.72 141.51 154.73 C 140.81 153.34 140.12 151.94 139.43 150.54 C 141.52 148.35 143.86 146.41 146.08 144.35 C 146.46 144.21 147.20 143.93 147.58 143.79 C 146.94 143.48 145.67 142.84 145.04 142.52 C 147.57 141.23 150.25 140.21 152.70 138.77 Z" />
</g>
<g id="#6a6270ff">
<path fill="#6a6270" opacity="1.00" d=" M 120.07 131.83 C 121.42 133.30 122.74 134.80 124.06 136.31 C 124.17 135.81 124.39 134.81 124.50 134.31 C 125.71 135.00 126.91 135.69 128.12 136.38 C 128.68 136.01 129.82 135.27 130.38 134.90 C 130.95 135.48 131.52 136.06 132.08 136.65 C 131.47 136.47 130.25 136.12 129.64 135.95 C 129.69 136.60 129.79 137.91 129.84 138.56 C 128.47 137.65 127.02 136.84 125.52 136.16 C 125.98 136.95 126.89 138.52 127.34 139.30 C 127.00 139.81 126.31 140.83 125.96 141.33 C 124.57 140.25 123.19 139.17 121.79 138.11 C 121.13 136.04 120.59 133.94 120.07 131.83 Z" />
<path fill="#6a6270" opacity="1.00" d=" M 126.72 173.31 C 127.13 170.53 127.62 167.75 128.53 165.08 C 129.18 166.50 129.95 167.87 130.76 169.21 C 130.90 168.76 131.18 167.86 131.32 167.41 C 131.28 167.07 131.20 166.39 131.16 166.05 C 131.63 165.74 132.57 165.12 133.04 164.81 C 133.35 165.12 133.98 165.74 134.30 166.04 L 134.56 166.31 L 134.95 166.40 C 135.66 166.55 137.09 166.84 137.80 166.99 C 136.74 170.42 133.76 172.63 132.17 175.75 C 131.46 177.12 130.67 178.47 129.69 179.67 C 130.64 181.82 129.75 184.01 129.18 186.13 C 128.69 188.27 130.14 189.96 131.43 191.47 C 130.32 192.24 129.19 192.98 128.11 193.79 C 127.80 189.69 128.34 185.28 126.05 181.63 C 126.03 178.94 126.13 176.25 126.32 173.57 L 126.48 174.12 C 126.76 175.61 127.57 176.15 128.89 175.71 C 130.39 174.37 128.16 172.49 126.72 173.31 Z" />
</g>
<g id="#b700ffff">
<path fill="#b700ff" opacity="1.00" d=" M 192.77 131.42 C 193.79 132.18 194.84 132.94 195.82 133.77 C 196.62 135.82 197.27 137.92 197.90 140.03 C 196.12 139.64 194.36 139.15 192.76 138.29 C 192.73 136.00 192.73 133.71 192.77 131.42 Z" />
<path fill="#b700ff" opacity="1.00" d=" M 139.03 157.88 C 140.43 159.66 140.75 161.94 141.30 164.07 C 140.62 164.74 139.92 165.38 139.19 165.99 L 139.14 165.63 C 138.76 163.73 138.29 161.86 137.80 159.99 C 138.11 159.46 138.72 158.41 139.03 157.88 Z" />
</g>
<g id="#8d9199ff">
<path fill="#8d9199" opacity="1.00" d=" M 176.55 136.91 C 178.75 135.70 180.80 134.24 182.81 132.75 C 182.73 133.21 182.56 134.14 182.48 134.61 C 181.26 137.49 180.89 140.61 181.21 143.71 C 180.85 144.35 180.49 144.99 180.14 145.63 C 181.88 146.93 183.59 148.28 185.27 149.66 C 182.57 150.61 179.84 151.48 177.09 152.29 C 176.75 153.11 176.41 153.94 176.08 154.77 C 172.65 154.45 169.32 155.32 166.25 156.79 C 165.49 156.62 163.95 156.29 163.18 156.12 C 164.27 157.62 165.37 159.11 166.46 160.61 C 166.33 161.04 166.06 161.91 165.93 162.34 C 164.28 160.98 162.16 161.11 160.17 161.09 C 159.70 161.07 158.77 161.02 158.30 161.00 C 159.87 159.52 161.61 158.23 163.55 157.27 C 162.23 156.38 160.93 155.49 159.60 154.64 C 158.16 153.74 156.72 152.85 155.26 151.99 C 156.97 152.23 158.69 152.43 160.39 152.77 C 161.42 153.47 162.45 154.19 163.50 154.86 C 163.89 154.98 164.67 155.21 165.06 155.32 L 165.43 155.39 L 166.34 155.56 C 168.73 154.36 171.20 153.30 173.73 152.42 C 173.34 152.28 172.56 152.02 172.17 151.89 C 172.71 150.52 173.25 149.15 173.83 147.80 C 175.01 146.50 176.22 145.23 177.42 143.96 C 177.30 143.39 177.05 142.25 176.92 141.68 C 176.67 140.10 176.61 138.50 176.55 136.91 Z" />
</g>
<g id="#7c797cff">
<path fill="#7c797c" opacity="1.00" d=" M 190.33 133.15 C 191.34 134.18 191.63 135.94 190.64 137.09 L 190.09 136.78 C 189.61 135.54 189.69 134.34 190.33 133.15 Z" />
</g>
<g id="#816083ff">
<path fill="#816083" opacity="1.00" d=" M 117.34 133.58 C 118.36 136.53 119.65 139.38 120.99 142.20 L 119.84 142.36 C 118.30 141.33 117.61 139.55 116.79 137.97 C 116.55 137.47 116.06 136.47 115.82 135.97 C 116.20 135.38 116.96 134.18 117.34 133.58 Z" />
</g>
<g id="#afafb6ff">
<path fill="#afafb6" opacity="1.00" d=" M 181.21 143.71 C 180.89 140.61 181.26 137.49 182.48 134.61 C 183.16 135.20 183.85 135.80 184.54 136.41 C 184.14 137.87 184.01 139.39 184.51 140.86 C 183.97 143.77 183.52 146.84 186.19 148.87 C 186.42 148.56 186.87 147.93 187.10 147.61 C 187.56 147.60 188.50 147.57 188.96 147.56 L 189.22 146.92 C 189.52 147.45 190.12 148.51 190.42 149.04 C 188.32 150.60 186.20 152.15 184.12 153.74 C 182.48 152.05 178.08 155.16 181.82 155.40 C 180.59 156.22 179.34 157.03 178.11 157.85 C 177.85 157.66 177.34 157.27 177.08 157.08 C 176.83 156.50 176.33 155.35 176.08 154.77 C 176.41 153.94 176.75 153.11 177.09 152.29 C 179.84 151.48 182.57 150.61 185.27 149.66 C 183.59 148.28 181.88 146.93 180.14 145.63 C 180.49 144.99 180.85 144.35 181.21 143.71 Z" />
<path fill="#afafb6" opacity="1.00" d=" M 114.53 200.78 C 114.75 201.32 115.18 202.39 115.40 202.93 C 114.66 204.04 113.54 204.76 112.37 205.35 C 112.49 203.62 113.01 201.80 114.53 200.78 Z" />
</g>
<g id="#e9b2b6ff">
<path fill="#e9b2b6" opacity="1.00" d=" M 109.90 139.53 C 112.24 139.05 114.36 137.90 115.82 135.97 C 116.06 136.47 116.55 137.47 116.79 137.97 C 116.19 141.73 112.56 142.61 109.29 142.32 C 108.96 142.69 108.32 143.42 108.00 143.78 C 108.00 141.90 107.88 140.03 107.66 138.16 C 108.41 138.62 109.15 139.08 109.90 139.53 Z" />
</g>
<g id="#d8a7a8ff">
<path fill="#d8a7a8" opacity="1.00" d=" M 167.99 135.79 C 170.41 137.95 173.64 138.11 176.55 136.91 C 176.61 138.50 176.67 140.10 176.92 141.68 C 175.47 140.87 174.18 142.35 172.84 142.73 C 170.70 144.23 168.83 141.93 167.17 140.84 C 167.57 139.18 167.77 137.48 167.99 135.79 Z" />
</g>
<g id="#9a98a0ff">
<path fill="#9a98a0" opacity="1.00" d=" M 185.93 136.13 C 187.41 139.63 186.99 143.69 189.22 146.92 L 188.96 147.56 C 188.50 147.57 187.56 147.60 187.10 147.61 C 186.87 147.93 186.42 148.56 186.19 148.87 C 183.52 146.84 183.97 143.77 184.51 140.86 C 185.00 139.29 185.47 137.72 185.93 136.13 Z" />
</g>
<g id="#a771aaff">
<path fill="#a771aa" opacity="1.00" d=" M 99.25 138.54 C 99.75 138.55 100.74 138.57 101.24 138.58 C 100.96 140.37 100.86 142.29 99.56 143.70 C 99.63 143.99 99.77 144.59 99.83 144.88 C 99.28 145.06 98.18 145.42 97.63 145.59 C 97.04 146.47 96.45 147.35 95.85 148.23 C 94.73 144.94 96.63 141.79 97.42 138.67 C 97.62 138.96 98.01 139.53 98.21 139.82 C 98.47 139.50 98.99 138.86 99.25 138.54 Z" />
</g>
<g id="#82697bff">
<path fill="#82697b" opacity="1.00" d=" M 101.24 138.58 C 101.51 138.50 102.04 138.35 102.30 138.28 C 102.29 139.39 102.92 140.31 103.65 141.10 C 103.83 141.39 104.20 141.98 104.38 142.28 C 103.18 144.22 102.05 146.22 100.90 148.20 C 100.64 147.37 100.10 145.71 99.83 144.88 C 99.77 144.59 99.63 143.99 99.56 143.70 C 100.86 142.29 100.96 140.37 101.24 138.58 Z" />
</g>
<g id="#a6555cff">
<path fill="#a6555c" opacity="1.00" d=" M 102.30 138.28 L 102.61 137.90 C 105.08 137.53 106.08 139.89 103.65 141.10 C 102.92 140.31 102.29 139.39 102.30 138.28 Z" />
</g>
<g id="#575760ff">
<path fill="#575760" opacity="1.00" d=" M 189.70 138.80 C 190.51 140.14 191.10 141.59 191.67 143.05 L 191.21 142.98 C 190.65 142.88 189.53 142.68 188.97 142.58 C 189.19 141.32 189.44 140.06 189.70 138.80 Z" />
<path fill="#575760" opacity="1.00" d=" M 153.15 149.30 C 154.54 148.98 155.05 149.51 154.69 150.90 C 153.31 151.21 152.79 150.68 153.15 149.30 Z" />
<path fill="#575760" opacity="1.00" d=" M 109.16 181.16 C 111.50 181.73 112.98 184.30 114.23 186.23 C 114.15 188.14 113.24 190.12 114.15 191.97 C 115.64 193.82 116.89 195.84 117.82 198.02 C 118.01 194.79 118.11 191.55 118.00 188.31 L 117.10 187.92 C 116.86 186.32 116.65 184.73 116.47 183.14 C 117.21 183.57 118.70 184.44 119.44 184.88 C 121.79 188.72 121.80 193.41 122.86 197.67 C 120.34 199.38 117.68 200.90 115.40 202.93 C 115.18 202.39 114.75 201.32 114.53 200.78 C 114.09 199.84 113.65 198.91 113.19 197.98 C 112.16 195.08 109.37 193.99 106.51 194.71 C 107.33 190.75 110.01 186.94 108.75 182.79 C 108.86 182.38 109.06 181.57 109.16 181.16 Z" />
</g>
<g id="#e9c9ccff">
<path fill="#e9c9cc" opacity="1.00" d=" M 167.17 140.84 C 168.83 141.93 170.70 144.23 172.84 142.73 C 174.18 142.35 175.47 140.87 176.92 141.68 C 177.05 142.25 177.30 143.39 177.42 143.96 C 176.22 145.23 175.01 146.50 173.83 147.80 C 173.61 148.03 173.16 148.48 172.94 148.71 C 171.85 148.50 170.75 148.33 169.66 148.18 C 168.24 148.39 166.84 148.70 165.44 149.00 C 165.20 148.65 164.73 147.93 164.49 147.57 C 164.27 147.13 163.84 146.25 163.63 145.81 C 164.36 143.86 165.87 142.40 167.17 140.84 Z" />
</g>
<g id="#7a6785ff">
<path fill="#7a6785" opacity="1.00" d=" M 87.45 142.05 C 88.88 142.48 90.31 142.93 91.74 143.38 C 91.08 145.05 90.33 146.68 89.66 148.35 L 89.44 148.49 C 88.66 146.38 87.94 144.25 87.45 142.05 Z" />
</g>
<g id="#a57099ff">
<path fill="#a57099" opacity="1.00" d=" M 125.26 143.10 L 125.55 143.38 C 126.24 144.30 126.88 145.25 127.57 146.18 C 128.75 146.93 130.01 147.55 131.25 148.20 L 131.08 149.69 C 128.72 149.08 126.58 147.85 124.96 146.03 C 124.78 145.82 124.43 145.41 124.26 145.21 C 124.51 144.68 125.01 143.62 125.26 143.10 Z" />
</g>
<g id="#828089ff">
<path fill="#828089" opacity="1.00" d=" M 125.55 143.38 C 129.23 144.06 133.56 144.57 135.56 148.25 C 135.07 148.38 134.09 148.64 133.60 148.77 C 132.47 147.60 131.43 146.36 130.38 145.12 C 129.44 145.47 128.50 145.83 127.57 146.18 C 126.88 145.25 126.24 144.30 125.55 143.38 Z" />
<path fill="#828089" opacity="1.00" d=" M 117.10 187.92 L 118.00 188.31 C 118.11 191.55 118.01 194.79 117.82 198.02 C 116.89 195.84 115.64 193.82 114.15 191.97 C 115.10 190.60 116.05 189.22 117.10 187.92 Z" />
</g>
<g id="#ac3dddff">
<path fill="#ac3ddd" opacity="1.00" d=" M 191.21 142.98 L 191.67 143.05 C 192.76 143.76 193.15 144.71 192.82 145.91 C 191.41 146.48 190.63 143.98 191.21 142.98 Z" />
</g>
<g id="#707680ff">
<path fill="#707680" opacity="1.00" d=" M 154.78 147.78 C 157.92 147.91 160.45 145.94 162.84 144.20 C 163.04 144.60 163.43 145.40 163.63 145.81 C 163.84 146.25 164.27 147.13 164.49 147.57 C 164.73 150.15 164.89 152.74 165.06 155.32 C 164.67 155.21 163.89 154.98 163.50 154.86 C 162.45 154.19 161.42 153.47 160.39 152.77 C 158.31 151.35 156.43 149.67 154.78 147.78 Z" />
</g>
<g id="#403f3fff">
<path fill="#403f3f" opacity="1.00" d=" M 124.96 146.03 C 126.58 147.85 128.72 149.08 131.08 149.69 L 131.25 148.20 C 131.59 148.66 132.28 149.57 132.62 150.03 C 132.09 150.07 131.04 150.15 130.51 150.19 C 130.83 152.41 131.17 154.62 131.54 156.83 L 131.72 155.64 C 131.98 156.22 132.52 157.37 132.78 157.95 C 132.50 158.22 131.94 158.76 131.66 159.04 C 131.36 158.67 130.76 157.95 130.46 157.59 C 130.20 157.28 129.70 156.66 129.45 156.35 C 129.11 158.51 128.90 160.84 127.29 162.50 C 127.01 160.72 126.76 158.95 126.56 157.16 C 126.11 159.00 126.48 161.35 124.85 162.67 C 124.38 160.67 124.43 158.52 123.53 156.65 C 123.69 156.36 124.02 155.78 124.19 155.50 C 124.55 155.41 125.28 155.25 125.65 155.16 L 126.25 154.92 C 127.36 154.63 128.48 154.37 129.62 154.15 C 129.61 153.97 129.59 153.60 129.58 153.41 C 128.69 153.55 126.91 153.83 126.02 153.97 C 126.12 153.24 126.32 151.76 126.42 151.03 C 125.91 151.65 125.39 152.26 124.86 152.87 C 122.57 153.74 123.78 149.02 121.45 149.91 C 122.54 148.55 123.75 147.29 124.96 146.03 Z" />
<path fill="#403f3f" opacity="1.00" d=" M 105.00 169.91 C 106.83 171.24 109.50 172.12 109.76 174.73 C 109.36 175.15 108.54 175.98 108.13 176.39 C 107.12 174.22 106.07 172.06 105.00 169.91 Z" />
</g>
<g id="#b0b4beff">
<path fill="#b0b4be" opacity="1.00" d=" M 145.54 151.67 C 147.05 149.64 148.54 147.47 150.75 146.14 C 151.67 147.26 149.99 148.43 149.69 149.55 C 148.95 150.56 148.21 151.57 147.47 152.57 C 146.99 152.35 146.02 151.90 145.54 151.67 Z" />
</g>
<g id="#ceced7ff">
<path fill="#ceced7" opacity="1.00" d=" M 153.46 147.53 C 153.79 147.59 154.45 147.71 154.78 147.78 C 156.43 149.67 158.31 151.35 160.39 152.77 C 158.69 152.43 156.97 152.23 155.26 151.99 C 155.12 151.95 154.84 151.89 154.70 151.85 C 155.39 154.84 152.05 156.17 150.48 158.13 C 151.79 157.81 153.11 157.46 154.41 157.09 C 154.34 157.42 154.20 158.09 154.13 158.42 C 152.80 159.67 151.80 161.18 151.29 162.95 C 150.96 162.67 150.31 162.11 149.99 161.84 C 149.17 167.02 151.72 171.93 151.28 177.12 C 150.85 177.44 150.00 178.10 149.58 178.43 C 149.72 175.60 149.76 172.78 149.82 169.95 C 148.60 171.39 147.40 172.84 146.09 174.20 C 144.37 176.31 140.86 177.99 141.55 181.19 C 141.62 181.88 141.76 183.26 141.83 183.95 C 138.37 186.47 134.91 188.99 131.43 191.47 C 130.14 189.96 128.69 188.27 129.18 186.13 C 130.40 186.42 131.62 186.72 132.83 187.03 C 134.54 185.07 136.13 182.97 136.98 180.48 C 135.75 179.92 134.52 179.36 133.30 178.80 C 132.92 177.78 132.54 176.77 132.17 175.75 C 133.76 172.63 136.74 170.42 137.80 166.99 C 138.15 166.74 138.84 166.24 139.19 165.99 C 139.92 165.38 140.62 164.74 141.30 164.07 C 143.46 161.61 145.33 158.91 146.91 156.05 C 147.22 155.55 147.85 154.57 148.17 154.07 C 148.77 153.15 149.37 152.23 149.98 151.32 C 151.10 150.02 152.28 148.77 153.46 147.53 M 153.15 149.30 C 152.79 150.68 153.31 151.21 154.69 150.90 C 155.05 149.51 154.54 148.98 153.15 149.30 M 150.03 159.35 C 148.45 162.33 153.34 159.52 150.03 159.35 Z" />
</g>
<g id="#6e2e9aff">
<path fill="#6e2e9a" opacity="1.00" d=" M 82.05 152.02 C 82.14 150.49 81.85 148.63 83.40 147.65 C 83.88 159.55 83.50 171.47 83.49 183.38 C 82.40 182.53 81.88 181.43 81.93 180.09 C 81.85 170.73 82.08 161.38 82.05 152.02 Z" />
</g>
<g id="#e8e5eaff">
<path fill="#e8e5ea" opacity="1.00" d=" M 83.40 147.65 L 83.67 147.35 C 84.85 148.30 86.02 149.26 87.18 150.23 C 87.75 149.80 88.87 148.93 89.44 148.49 L 89.66 148.35 C 89.86 149.28 90.05 150.21 90.25 151.15 C 90.24 151.35 90.22 151.74 90.21 151.94 C 88.33 151.27 86.38 150.87 84.39 150.80 C 84.25 153.45 84.09 156.11 83.99 158.76 C 84.94 160.62 85.22 162.60 84.18 164.48 C 86.39 162.85 89.63 163.58 91.51 161.47 C 89.92 161.31 88.32 161.18 86.73 161.07 C 87.66 159.64 88.58 158.20 89.50 156.77 C 89.98 157.25 90.96 158.22 91.45 158.71 C 91.65 158.91 92.05 159.32 92.24 159.53 C 94.29 156.95 97.44 155.82 100.59 157.07 C 101.37 156.83 102.15 156.60 102.93 156.37 L 103.77 157.19 C 104.75 157.67 105.79 158.02 106.88 158.23 C 107.15 158.38 107.70 158.68 107.98 158.84 L 106.53 159.17 L 105.89 159.45 C 105.43 160.11 105.02 160.81 104.69 161.56 C 104.52 160.57 104.18 158.59 104.01 157.61 C 101.11 159.11 103.23 161.99 103.85 164.18 C 102.92 165.09 102.00 166.01 101.06 166.91 C 99.21 168.62 97.31 170.28 95.59 172.12 C 94.60 170.20 93.32 168.41 91.25 167.59 C 90.40 169.93 89.40 172.23 88.00 174.30 C 88.46 171.37 89.24 168.51 89.98 165.64 C 82.83 168.47 86.13 177.37 85.07 183.19 L 83.91 183.86 L 83.49 183.38 C 83.50 171.47 83.88 159.55 83.40 147.65 Z" />
<path fill="#e8e5ea" opacity="1.00" d=" M 99.08 152.49 C 99.38 151.57 99.92 150.83 100.71 150.29 C 100.98 150.61 101.51 151.24 101.78 151.56 C 101.23 151.89 100.13 152.56 99.58 152.89 L 99.08 152.49 Z" />
</g>
<g id="#f2f1f1ff">
<path fill="#f2f1f1" opacity="1.00" d=" M 164.49 147.57 C 164.73 147.93 165.20 148.65 165.44 149.00 C 166.14 150.37 167.44 151.02 168.85 151.43 C 169.05 150.62 169.45 148.99 169.66 148.18 C 170.75 148.33 171.85 148.50 172.94 148.71 C 170.57 151.08 168.06 153.32 165.43 155.39 L 165.06 155.32 C 164.89 152.74 164.73 150.15 164.49 147.57 Z" />
</g>
<g id="#bbae98ff">
<path fill="#bbae98" opacity="1.00" d=" M 165.44 149.00 C 166.84 148.70 168.24 148.39 169.66 148.18 C 169.45 148.99 169.05 150.62 168.85 151.43 C 167.44 151.02 166.14 150.37 165.44 149.00 Z" />
</g>
<g id="#42424aff">
<path fill="#42424a" opacity="1.00" d=" M 172.94 148.71 C 173.16 148.48 173.61 148.03 173.83 147.80 C 173.25 149.15 172.71 150.52 172.17 151.89 C 172.56 152.02 173.34 152.28 173.73 152.42 C 171.20 153.30 168.73 154.36 166.34 155.56 L 165.43 155.39 C 168.06 153.32 170.57 151.08 172.94 148.71 Z" />
<path fill="#42424a" opacity="1.00" d=" M 106.51 194.71 C 109.37 193.99 112.16 195.08 113.19 197.98 C 112.65 200.95 110.99 203.51 109.68 206.17 L 111.15 206.12 C 110.23 206.77 109.33 207.46 108.40 208.12 C 108.24 207.23 108.04 206.35 107.82 205.48 C 107.03 203.92 105.92 202.55 104.63 201.37 C 105.16 199.54 105.72 197.72 106.19 195.87 C 106.27 195.58 106.43 195.00 106.51 194.71 Z" />
</g>
<g id="#98c1c2ff">
<path fill="#98c1c2" opacity="1.00" d=" M 104.79 149.10 C 105.44 149.92 106.08 150.75 106.73 151.58 C 107.79 151.23 108.87 150.90 109.94 150.60 C 108.91 152.11 107.87 153.62 106.83 155.12 C 105.31 154.93 103.79 154.75 102.27 154.59 C 103.01 153.10 103.70 151.60 104.35 150.07 L 104.79 149.10 Z" />
</g>
<g id="#7d8c96ff">
<path fill="#7d8c96" opacity="1.00" d=" M 134.48 152.12 C 134.82 151.06 135.18 150.01 135.55 148.96 C 135.78 149.99 136.04 151.01 136.34 152.02 C 136.80 152.52 137.72 153.51 138.19 154.01 C 138.59 152.85 138.99 151.68 139.43 150.54 C 140.12 151.94 140.81 153.34 141.51 154.73 C 142.85 153.72 144.20 152.70 145.54 151.67 C 146.02 151.90 146.99 152.35 147.47 152.57 C 148.21 151.57 148.95 150.56 149.69 149.55 C 149.76 149.99 149.90 150.87 149.98 151.32 C 149.37 152.23 148.77 153.15 148.17 154.07 L 147.30 154.21 C 147.20 154.67 147.01 155.59 146.91 156.05 C 145.33 158.91 143.46 161.61 141.30 164.07 C 140.75 161.94 140.43 159.66 139.03 157.88 C 136.87 156.50 134.97 154.76 134.48 152.12 Z" />
</g>
<g id="#b51e1cff">
<path fill="#b51e1c" opacity="1.00" d=" M 100.75 150.25 C 101.65 150.21 103.45 150.12 104.35 150.07 C 103.70 151.60 103.01 153.10 102.27 154.59 C 103.79 154.75 105.31 154.93 106.83 155.12 C 107.87 153.62 108.91 152.11 109.94 150.60 L 111.19 152.20 C 110.88 152.63 110.27 153.48 109.96 153.91 C 109.82 154.43 109.54 155.48 109.40 156.00 L 108.62 156.53 C 107.05 157.03 105.40 157.17 103.77 157.19 L 102.93 156.37 C 102.15 156.60 101.37 156.83 100.59 157.07 C 100.34 155.68 101.10 153.74 99.58 152.89 C 100.13 152.56 101.23 151.89 101.78 151.56 C 101.51 151.24 100.98 150.61 100.71 150.29 L 100.75 150.25 Z" />
</g>
<g id="#edeeefff">
<path fill="#edeeef" opacity="1.00" d=" M 121.45 149.91 C 123.78 149.02 122.57 153.74 124.86 152.87 C 125.39 152.26 125.91 151.65 126.42 151.03 C 126.32 151.76 126.12 153.24 126.02 153.97 C 126.91 153.83 128.69 153.55 129.58 153.41 C 129.59 153.60 129.61 153.97 129.62 154.15 C 128.48 154.37 127.36 154.63 126.25 154.92 L 125.65 155.16 C 125.28 155.25 124.55 155.41 124.19 155.50 C 124.02 155.78 123.69 156.36 123.53 156.65 C 123.30 156.97 122.86 157.61 122.64 157.93 C 122.00 157.97 120.71 158.03 120.07 158.07 C 120.05 156.18 122.56 156.34 123.21 154.87 C 124.04 153.05 122.12 151.82 120.80 151.06 C 120.96 150.77 121.29 150.20 121.45 149.91 Z" />
<path fill="#edeeef" opacity="1.00" d=" M 111.42 154.73 C 114.40 154.17 117.92 151.92 120.78 153.96 C 119.74 154.87 118.52 155.41 117.12 155.59 C 117.02 156.14 116.84 157.24 116.75 157.80 C 115.28 158.86 113.73 159.99 111.79 159.64 L 111.45 159.04 C 112.68 157.07 114.93 156.24 116.77 154.99 C 115.01 154.92 113.04 155.83 111.42 154.73 Z" />
<path fill="#edeeef" opacity="1.00" d=" M 161.08 166.17 C 161.60 165.39 162.14 164.63 162.69 163.87 C 163.05 165.31 163.41 166.76 163.77 168.21 C 159.91 171.10 155.99 173.91 151.98 176.58 C 152.68 173.50 153.84 170.56 155.26 167.75 C 156.14 169.05 156.90 170.75 158.60 171.11 C 159.67 169.60 160.35 167.86 161.08 166.17 Z" />
<path fill="#edeeef" opacity="1.00" d=" M 141.55 181.19 C 140.86 177.99 144.37 176.31 146.09 174.20 C 147.01 175.79 147.94 177.37 148.88 178.95 C 147.70 179.78 146.51 180.59 145.32 181.40 C 144.87 180.20 144.39 179.02 143.89 177.86 C 142.66 179.18 143.68 180.84 144.16 182.24 C 143.38 182.81 142.61 183.38 141.83 183.95 C 141.76 183.26 141.62 181.88 141.55 181.19 Z" />
<path fill="#edeeef" opacity="1.00" d=" M 132.17 175.75 C 132.54 176.77 132.92 177.78 133.30 178.80 C 134.52 179.36 135.75 179.92 136.98 180.48 C 136.13 182.97 134.54 185.07 132.83 187.03 C 131.62 186.72 130.40 186.42 129.18 186.13 C 129.75 184.01 130.64 181.82 129.69 179.67 C 130.67 178.47 131.46 177.12 132.17 175.75 Z" />
<path fill="#edeeef" opacity="1.00" d=" M 99.46 196.17 C 99.87 196.77 100.28 197.38 100.70 197.97 C 101.95 199.17 103.30 200.26 104.63 201.37 C 105.92 202.55 107.03 203.92 107.82 205.48 C 106.54 205.35 105.62 204.44 104.76 203.59 C 102.95 201.77 101.05 200.04 99.01 198.48 C 99.12 197.90 99.35 196.75 99.46 196.17 Z" />
</g>
<g id="#ccc9d1ff">
<path fill="#ccc9d1" opacity="1.00" d=" M 84.39 150.80 C 86.38 150.87 88.33 151.27 90.21 151.94 C 89.99 153.55 89.73 155.15 89.50 156.77 C 88.58 158.20 87.66 159.64 86.73 161.07 C 88.32 161.18 89.92 161.31 91.51 161.47 C 89.63 163.58 86.39 162.85 84.18 164.48 C 85.22 162.60 84.94 160.62 83.99 158.76 C 84.09 156.11 84.25 153.45 84.39 150.80 Z" />
</g>
<g id="#e8e9ecff">
<path fill="#e8e9ec" opacity="1.00" d=" M 154.70 151.85 C 154.84 151.89 155.12 151.95 155.26 151.99 C 156.72 152.85 158.16 153.74 159.60 154.64 C 157.97 154.98 156.35 155.32 154.73 155.66 C 154.65 156.01 154.49 156.73 154.41 157.09 C 153.11 157.46 151.79 157.81 150.48 158.13 C 152.05 156.17 155.39 154.84 154.70 151.85 Z" />
</g>
<g id="#e7e7ebff">
<path fill="#e7e7eb" opacity="1.00" d=" M 181.82 155.40 C 178.08 155.16 182.48 152.05 184.12 153.74 C 183.55 154.15 182.40 154.98 181.82 155.40 Z" />
</g>
<g id="#b874e2ff">
<path fill="#b874e2" opacity="1.00" d=" M 147.30 154.21 L 148.17 154.07 C 147.85 154.57 147.22 155.55 146.91 156.05 C 147.01 155.59 147.20 154.67 147.30 154.21 Z" />
</g>
<g id="#6eb6adff">
<path fill="#6eb6ad" opacity="1.00" d=" M 154.73 155.66 C 156.35 155.32 157.97 154.98 159.60 154.64 C 158.59 155.45 157.58 156.25 156.58 157.07 C 157.40 157.16 159.05 157.35 159.87 157.44 C 158.27 158.50 156.74 159.68 155.47 161.12 C 156.18 161.09 157.59 161.03 158.30 161.00 C 158.77 161.02 159.70 161.07 160.17 161.09 C 158.66 163.01 157.56 165.22 156.89 167.56 C 158.43 166.82 159.95 166.02 161.47 165.22 L 161.08 166.17 C 160.35 167.86 159.67 169.60 158.60 171.11 C 156.90 170.75 156.14 169.05 155.26 167.75 C 155.12 167.45 154.84 166.84 154.70 166.53 C 155.62 165.70 156.54 164.87 157.46 164.03 C 156.71 163.99 155.22 163.91 154.47 163.86 C 154.37 162.05 154.24 160.23 154.13 158.42 C 154.20 158.09 154.34 157.42 154.41 157.09 C 154.49 156.73 154.65 156.01 154.73 155.66 Z" />
</g>
<g id="#d8e0c6ff">
<path fill="#d8e0c6" opacity="1.00" d=" M 159.60 154.64 C 160.93 155.49 162.23 156.38 163.55 157.27 C 161.61 158.23 159.87 159.52 158.30 161.00 C 157.59 161.03 156.18 161.09 155.47 161.12 C 156.74 159.68 158.27 158.50 159.87 157.44 C 159.05 157.35 157.40 157.16 156.58 157.07 C 157.58 156.25 158.59 155.45 159.60 154.64 Z" />
</g>
<g id="#ffffffff">
<path fill="#ffffff" opacity="1.00" d=" M 176.08 154.77 C 176.33 155.35 176.83 156.50 177.08 157.08 C 175.49 157.55 174.37 155.50 176.08 154.77 Z" />
</g>
<g id="#621b1bff">
<path fill="#621b1b" opacity="1.00" d=" M 103.77 157.19 C 105.40 157.17 107.05 157.03 108.62 156.53 C 109.25 158.74 110.07 160.89 110.93 163.03 C 110.43 163.06 109.43 163.13 108.94 163.16 C 108.81 161.69 108.90 160.10 107.98 158.84 C 107.70 158.68 107.15 158.38 106.88 158.23 C 105.79 158.02 104.75 157.67 103.77 157.19 Z" />
</g>
<g id="#7fc7b9ff">
<path fill="#7fc7b9" opacity="1.00" d=" M 171.27 156.36 C 172.40 156.57 173.53 156.78 174.67 156.99 C 174.21 158.45 173.74 159.91 173.28 161.37 C 171.56 162.69 169.79 163.92 168.02 165.16 C 167.31 164.22 166.61 163.29 165.93 162.34 C 166.06 161.91 166.33 161.04 166.46 160.61 C 167.64 161.12 168.82 161.61 170.02 162.07 C 169.01 160.75 167.97 159.44 166.93 158.13 C 167.70 158.14 169.24 158.17 170.01 158.18 C 170.32 157.72 170.95 156.82 171.27 156.36 Z" />
</g>
<g id="#1d1d20ff">
<path fill="#1d1d20" opacity="1.00" d=" M 131.66 159.04 C 131.94 158.76 132.50 158.22 132.78 157.95 C 132.84 158.37 132.97 159.22 133.03 159.65 C 132.69 159.50 132.00 159.19 131.66 159.04 Z" />
</g>
<g id="#8f2e2eff">
<path fill="#8f2e2e" opacity="1.00" d=" M 105.89 159.45 L 106.53 159.17 L 107.19 160.10 C 106.88 160.28 106.26 160.66 105.95 160.84 C 105.94 160.50 105.91 159.80 105.89 159.45 Z" />
</g>
<g id="#cccacfff">
<path fill="#cccacf" opacity="1.00" d=" M 106.53 159.17 L 107.98 158.84 C 108.90 160.10 108.81 161.69 108.94 163.16 C 108.63 165.53 109.88 167.43 111.66 168.83 C 112.51 169.64 113.32 170.50 114.09 171.38 C 112.30 170.61 110.54 169.76 108.81 168.84 C 109.93 171.13 110.71 173.57 110.91 176.11 C 110.62 175.77 110.05 175.08 109.76 174.73 C 109.50 172.12 106.83 171.24 105.00 169.91 C 104.22 168.49 103.77 166.92 103.46 165.34 C 104.29 163.84 105.10 162.33 105.95 160.84 C 106.26 160.66 106.88 160.28 107.19 160.10 L 106.53 159.17 Z" />
</g>
<g id="#d9ebedff">
<path fill="#d9ebed" opacity="1.00" d=" M 117.15 159.53 C 117.24 159.42 117.43 159.20 117.53 159.09 L 117.73 159.58 L 117.15 159.53 Z" />
</g>
<g id="#f9f9fbff">
<path fill="#f9f9fb" opacity="1.00" d=" M 150.03 159.35 C 153.34 159.52 148.45 162.33 150.03 159.35 Z" />
</g>
<g id="#f4f2f1ff">
<path fill="#f4f2f1" opacity="1.00" d=" M 151.29 162.95 C 151.80 161.18 152.80 159.67 154.13 158.42 C 154.24 160.23 154.37 162.05 154.47 163.86 C 155.22 163.91 156.71 163.99 157.46 164.03 C 156.54 164.87 155.62 165.70 154.70 166.53 C 153.72 165.20 152.53 164.03 151.29 162.95 Z" />
</g>
<g id="#cfd9c1ff">
<path fill="#cfd9c1" opacity="1.00" d=" M 160.17 161.09 C 162.16 161.11 164.28 160.98 165.93 162.34 C 166.61 163.29 167.31 164.22 168.02 165.16 C 166.59 166.16 165.17 167.18 163.77 168.21 C 163.41 166.76 163.05 165.31 162.69 163.87 C 162.14 164.63 161.60 165.39 161.08 166.17 L 161.47 165.22 C 159.95 166.02 158.43 166.82 156.89 167.56 C 157.56 165.22 158.66 163.01 160.17 161.09 Z" />
</g>
<g id="#bdbec6ff">
<path fill="#bdbec6" opacity="1.00" d=" M 149.99 161.84 C 150.31 162.11 150.96 162.67 151.29 162.95 C 152.53 164.03 153.72 165.20 154.70 166.53 C 154.84 166.84 155.12 167.45 155.26 167.75 C 153.84 170.56 152.68 173.50 151.98 176.58 C 151.80 176.71 151.45 176.98 151.28 177.12 C 151.72 171.93 149.17 167.02 149.99 161.84 Z" />
</g>
<g id="#6d494dff">
<path fill="#6d494d" opacity="1.00" d=" M 131.16 166.05 C 130.51 164.71 131.04 162.33 132.97 163.00 L 133.09 163.86 L 133.04 164.81 C 132.57 165.12 131.63 165.74 131.16 166.05 Z" />
</g>
<g id="#a9b6bcff">
<path fill="#a9b6bc" opacity="1.00" d=" M 132.97 163.00 C 133.39 163.42 134.24 164.25 134.66 164.67 C 134.27 164.47 133.48 164.06 133.09 163.86 L 132.97 163.00 Z" />
</g>
<g id="#cfccd5ff">
<path fill="#cfccd5" opacity="1.00" d=" M 85.07 183.19 C 86.13 177.37 82.83 168.47 89.98 165.64 C 89.24 168.51 88.46 171.37 88.00 174.30 C 89.40 172.23 90.40 169.93 91.25 167.59 C 93.32 168.41 94.60 170.20 95.59 172.12 C 95.24 172.52 94.54 173.33 94.19 173.74 C 91.32 177.06 89.31 181.36 85.07 183.19 Z" />
</g>
<g id="#a9bac0ff">
<path fill="#a9bac0" opacity="1.00" d=" M 134.30 166.04 L 134.64 166.21 L 134.95 166.40 L 134.56 166.31 L 134.30 166.04 Z" />
</g>
<g id="#af99beff">
<path fill="#af99be" opacity="1.00" d=" M 95.59 172.12 C 97.31 170.28 99.21 168.62 101.06 166.91 C 101.31 170.13 101.41 173.36 101.24 176.58 C 100.97 177.24 100.43 178.57 100.17 179.24 L 99.73 178.78 C 97.85 177.32 95.87 176.03 93.88 174.74 L 94.19 173.74 C 94.54 173.33 95.24 172.52 95.59 172.12 Z" />
</g>
<g id="#a7a6adff">
<path fill="#a7a6ad" opacity="1.00" d=" M 108.81 168.84 C 110.54 169.76 112.30 170.61 114.09 171.38 L 114.16 171.46 C 114.14 173.08 114.15 174.70 114.19 176.33 C 114.16 176.72 114.10 177.50 114.06 177.89 C 113.41 177.08 112.82 176.22 112.17 175.42 C 111.29 177.02 111.45 179.69 113.54 180.20 C 113.67 179.62 113.93 178.47 114.06 177.89 C 115.75 179.84 117.28 181.91 118.84 183.96 L 119.44 184.88 C 118.70 184.44 117.21 183.57 116.47 183.14 C 116.65 184.73 116.86 186.32 117.10 187.92 C 116.05 189.22 115.10 190.60 114.15 191.97 C 113.24 190.12 114.15 188.14 114.23 186.23 C 112.98 184.30 111.50 181.73 109.16 181.16 C 109.06 181.57 108.86 182.38 108.75 182.79 C 108.57 182.32 108.19 181.38 108.00 180.91 C 108.55 180.34 109.09 179.78 109.65 179.23 C 109.04 178.40 108.43 177.56 107.83 176.73 L 108.13 176.39 C 108.54 175.98 109.36 175.15 109.76 174.73 C 110.05 175.08 110.62 175.77 110.91 176.11 C 110.71 173.57 109.93 171.13 108.81 168.84 Z" />
</g>
<g id="#8c3943ff">
<path fill="#8c3943" opacity="1.00" d=" M 119.57 169.12 L 120.20 168.90 L 121.07 169.10 C 121.11 169.79 121.19 171.18 121.23 171.88 C 119.75 171.98 118.27 172.08 116.79 172.18 C 116.54 171.74 116.03 170.86 115.78 170.41 C 117.04 169.98 118.31 169.55 119.57 169.12 Z" />
</g>
<g id="#2c2b2cff">
<path fill="#2c2b2c" opacity="1.00" d=" M 125.93 184.48 C 123.28 180.36 123.36 175.11 125.58 170.84 C 125.77 171.52 126.13 172.88 126.32 173.57 C 126.13 176.25 126.03 178.94 126.05 181.63 C 126.02 182.34 125.96 183.77 125.93 184.48 Z" />
</g>
<g id="#8a6176ff">
<path fill="#8a6176" opacity="1.00" d=" M 116.79 172.18 C 118.27 172.08 119.75 171.98 121.23 171.88 C 121.13 174.01 120.85 176.13 120.70 178.27 C 119.25 176.34 118.03 174.25 116.79 172.18 Z" />
</g>
<g id="#c6abd3ff">
<path fill="#c6abd3" opacity="1.00" d=" M 93.88 174.74 C 95.87 176.03 97.85 177.32 99.73 178.78 C 99.16 180.48 98.63 182.33 97.03 183.37 C 95.69 182.27 96.52 180.38 96.21 178.91 C 95.61 178.54 94.42 177.82 93.82 177.45 C 94.14 180.75 95.52 183.79 96.20 187.00 C 95.99 188.54 95.23 189.93 94.64 191.36 C 94.85 192.40 95.05 193.45 95.26 194.50 L 94.04 194.03 C 92.61 191.92 90.54 189.69 91.00 186.93 C 91.58 182.79 92.86 178.78 93.88 174.74 Z" />
</g>
<g id="#cacacdff">
<path fill="#cacacd" opacity="1.00" d=" M 112.17 175.42 C 112.82 176.22 113.41 177.08 114.06 177.89 C 113.93 178.47 113.67 179.62 113.54 180.20 C 111.45 179.69 111.29 177.02 112.17 175.42 Z" />
</g>
<g id="#222223ff">
<path fill="#222223" opacity="1.00" d=" M 114.19 176.33 L 114.60 176.40 C 117.19 178.43 118.90 181.26 120.43 184.12 L 118.84 183.96 C 117.28 181.91 115.75 179.84 114.06 177.89 C 114.10 177.50 114.16 176.72 114.19 176.33 Z" />
</g>
<g id="#bf9dcdff">
<path fill="#bf9dcd" opacity="1.00" d=" M 93.82 177.45 C 94.42 177.82 95.61 178.54 96.21 178.91 C 96.52 180.38 95.69 182.27 97.03 183.37 C 98.63 182.33 99.16 180.48 99.73 178.78 L 100.17 179.24 C 100.70 181.82 101.43 184.39 101.47 187.05 C 101.34 189.93 100.59 192.77 100.70 195.67 C 100.70 196.25 100.70 197.40 100.70 197.97 C 100.28 197.38 99.87 196.77 99.46 196.17 C 99.35 196.75 99.12 197.90 99.01 198.48 C 98.68 199.79 98.35 201.10 98.02 202.42 C 97.17 199.42 95.85 196.57 94.04 194.03 L 95.26 194.50 C 95.05 193.45 94.85 192.40 94.64 191.36 C 95.23 189.93 95.99 188.54 96.20 187.00 C 95.52 183.79 94.14 180.75 93.82 177.45 Z" />
</g>
<g id="#585861ff">
<path fill="#585861" opacity="1.00" d=" M 123.88 187.27 C 125.38 189.45 126.46 191.88 127.36 194.37 C 126.21 195.24 125.04 196.10 123.87 196.94 C 123.71 193.72 123.34 190.48 123.88 187.27 Z" />
</g>
<g id="#2b2c2eff">
<path fill="#2b2c2e" opacity="1.00" d=" M 113.19 197.98 C 113.65 198.91 114.09 199.84 114.53 200.78 C 113.01 201.80 112.49 203.62 112.37 205.35 C 112.07 205.55 111.46 205.93 111.15 206.12 L 109.68 206.17 C 110.99 203.51 112.65 200.95 113.19 197.98 Z" />
</g>
<g id="#ac7ec0ff">
<path fill="#ac7ec0" opacity="1.00" d=" M 99.01 198.48 C 101.05 200.04 102.95 201.77 104.76 203.59 C 103.75 205.90 102.82 208.24 101.96 210.60 C 100.74 210.68 99.52 210.72 98.30 210.73 C 98.15 207.96 98.02 205.19 98.02 202.42 C 98.35 201.10 98.68 199.79 99.01 198.48 Z" />
</g>
<g id="#bdbac2ff">
<path fill="#bdbac2" opacity="1.00" d=" M 101.96 210.60 C 102.82 208.24 103.75 205.90 104.76 203.59 C 105.62 204.44 106.54 205.35 107.82 205.48 C 108.04 206.35 108.24 207.23 108.40 208.12 C 106.41 209.31 104.21 210.08 101.96 210.60 Z" />
</g>
</svg>
