<?xml version="1.0" encoding="UTF-8" standalone="no"?>
<svg
   width="64"
   height="64"
   viewBox="0 0 16.933 16.933"
   version="1.1"
   id="svg3"
   sodipodi:docname="system-software-update.svg"
   inkscape:version="1.4.2 (ebf0e940d0, 2025-05-08)"
   xmlns:inkscape="http://www.inkscape.org/namespaces/inkscape"
   xmlns:sodipodi="http://sodipodi.sourceforge.net/DTD/sodipodi-0.dtd"
   xmlns="http://www.w3.org/2000/svg"
   xmlns:svg="http://www.w3.org/2000/svg">
  <defs
     id="defs3" />
  <sodipodi:namedview
     id="namedview3"
     pagecolor="#ffffff"
     bordercolor="#000000"
     borderopacity="0.25"
     inkscape:showpageshadow="2"
     inkscape:pageopacity="0.0"
     inkscape:pagecheckerboard="0"
     inkscape:deskcolor="#d1d1d1"
     inkscape:zoom="9.171875"
     inkscape:cx="31.945486"
     inkscape:cy="32"
     inkscape:window-width="1440"
     inkscape:window-height="827"
     inkscape:window-x="0"
     inkscape:window-y="0"
     inkscape:window-maximized="1"
     inkscape:current-layer="svg3" />
  <circle
     cx="8.466"
     cy="8.466"
     r="7.144"
     fill="#4c8cff"
     style="paint-order:stroke fill markers"
     id="circle1" />
  <path
     fill="#457eff"
     d="M8.467 1.323a7.144 7.144 0 0 0-7.144 7.144A7.14 7.14 0 0 0 6.27 15.26a10.14 10.14 0 0 0 9.283-7.62 7.144 7.144 0 0 0-7.086-6.317"
     style="paint-order:stroke fill markers"
     id="path1" />
  <path
     fill="#00f"
     d="M8.467 1.323A7.14 7.14 0 0 0 1.97 5.512a8.767 8.767 0 0 0 8.694 7.725 8.8 8.8 0 0 0 3.776-.864 7.14 7.14 0 0 0 1.17-3.907 7.144 7.144 0 0 0-7.144-7.143z"
     opacity=".1"
     style="paint-order:stroke fill markers"
     id="path2" />
  <g
     id="g1"
     transform="matrix(0.26849129,0,0,0.26849129,2.1868303,1.4971628)">
    <g
       id="#fdfffeff"
       transform="matrix(0.17341756,0,0,0.17341756,3.1305433,1.7705796)">
      <path
         fill="#fdfffe"
         opacity="1"
         d="m 166.55,39.53 c 4.79,-3.35 11.98,-2.27 15.61,2.3 2.07,2.59 4.97,4.41 6.72,7.28 3.82,4.14 8.46,7.51 11.92,11.99 3.11,3.77 8.67,6.49 8.65,12 -0.15,3.01 0.11,6.76 -2.74,8.66 -2.91,2.98 -7.47,3.29 -11.3,2.27 -2.27,-0.85 -3.79,-3.83 -6.22,-3.76 -2.49,2.39 -4.71,5.21 -8.1,6.42 -2.34,-2.58 -5.54,-4.53 -7.14,-7.68 0.17,-0.36 0.51,-1.09 0.69,-1.46 0.48,-1.42 1.9,-2 3.04,-2.81 0.78,-1.32 1.8,-2.47 2.85,-3.58 -0.99,-1.13 -1.99,-2.24 -2.96,-3.39 -3.43,-0.51 -4.87,2.78 -6.53,5.05 -0.7,0.18 -2.09,0.54 -2.79,0.72 -2.66,-2.24 -5.32,-4.66 -7.27,-7.54 0.94,-3.19 5.07,-4.7 6.23,-8 -1.82,-3.16 -4.59,-6.25 -4.34,-10.12 0.56,-2.99 1.34,-6.23 3.68,-8.35 z"
         id="path1-6" />
      <path
         fill="#fdfffe"
         opacity="1"
         d="m 129.73,53.87 c 3.44,-1.93 7.53,-1.08 11.02,0.24 7.81,8.17 15.89,16.15 24.02,23.98 5.18,5.84 10.86,11.27 16.73,16.42 3.07,2.6 5.03,6.19 8.05,8.85 2.46,2.05 4.26,4.8 5.09,7.9 0.77,4.98 -2.44,10.82 -7.66,11.67 -3,0.24 -6.54,0.33 -8.84,-1.97 -3.64,-3.73 -7.64,-7.09 -10.93,-11.16 -9.79,-8.87 -18.52,-18.84 -28.37,-27.67 -4.08,-5.24 -9.58,-9.14 -13.61,-14.38 -1.86,-2.02 -0.96,-4.94 -1.16,-7.42 1.48,-2.43 2.71,-5.52 5.66,-6.46 z"
         id="path2-3" />
      <path
         fill="#fdfffe"
         opacity="1"
         d="m 123.16,76.98 c 2.94,2.29 5.57,5.3 8.31,7.95 -5.67,6.13 -11.74,11.9 -17.3,18.13 -2.85,3.87 -7.5,5.89 -10.06,10.01 -2.02,3.03 -6.09,4.21 -7.48,7.72 -2.2,1.81 -4.08,3.96 -5.82,6.21 -1.87,2.79 -5.31,3.86 -7.4,6.47 -3.15,1.51 -6.17,4.71 -6.13,8.38 3.11,5.27 8.24,8.89 12.41,13.27 3.7,4.4 8.61,7.65 11.82,12.46 1.54,1.53 3.42,2.71 5.61,3.03 6.43,-5.39 11.56,-12.11 17.8,-17.72 5.59,-4.77 9.64,-11.08 15.46,-15.6 7.23,-7.11 14.1,-14.65 21.93,-21.11 0.56,0.27 1.68,0.8 2.23,1.07 1.62,2.23 3.66,4.11 5.38,6.27 0.14,3.32 -4.13,4.27 -5.42,6.96 -8.95,8.37 -17.33,17.3 -26.1,25.89 -1.82,1.57 -3.61,3.19 -5.04,5.14 -4.39,5.52 -10.65,9.24 -14.79,14.99 -3.8,3.77 -9.09,6.22 -14.56,5.46 -4.85,-1.05 -8.94,-4.16 -12.21,-7.78 -3.37,-4.08 -8.52,-6.37 -11.2,-11.06 -4.01,-4.89 -9.01,-8.88 -13.14,-13.67 -1.71,-3.76 -2.97,-7.72 -2.23,-11.9 1.17,-1.98 1.89,-4.24 3.51,-5.93 1.65,-2.92 4.7,-4.53 6.86,-7.01 15.67,-16.06 31.61,-31.87 47.56,-47.63 z"
         id="path3-6" />
      <path
         fill="#fdfffe"
         opacity="1"
         d="m 130.91,117.44 c 1.31,-1.02 2.55,-2.14 3.92,-3.08 3.81,2.92 6.57,6.92 10.04,10.2 -1.52,0.84 -3,1.73 -4.49,2.61 -3.13,-3.27 -6.28,-6.53 -9.47,-9.73 z"
         id="path4-7" />
      <path
         fill="#fdfffe"
         opacity="1"
         d="m 120.29,128.97 c 4.38,2.03 7.13,6.2 10.65,9.31 -1.39,1.08 -2.81,2.12 -4.25,3.13 -0.8,-0.56 -1.59,-1.12 -2.39,-1.67 -1.68,-3.26 -4.85,-5.32 -7.03,-8.2 0.99,-0.88 1.97,-1.77 3.02,-2.57 z"
         id="path5-5" />
      <path
         fill="#fdfffe"
         opacity="1"
         d="m 103.64,144.93 c 1.2,-1 2.4,-2.01 3.59,-3.01 2.98,3.08 6.35,5.79 8.95,9.22 0.15,1.88 -1.74,3.11 -3.39,3.38 -3.2,-3.02 -6.44,-6.11 -9.15,-9.59 z"
         id="path6-3" />
      <path
         fill="#fdfffe"
         opacity="1"
         d="m 64.1,173.97 c 3.07,-4.21 7.2,-7.56 10.84,-11.29 1.68,1.52 3.47,2.9 5.44,4.04 0.39,0.81 0.77,1.64 1.16,2.46 0.59,0.29 1.75,0.87 2.34,1.16 -0.05,1.35 -0.12,2.7 -0.22,4.06 -3.98,3.09 -7.12,8.2 -12.65,8.59 -2.8,-1.82 -4.7,-4.71 -6.86,-7.21 -0.01,-0.45 -0.04,-1.36 -0.05,-1.81 z"
         id="path7" />
      <path
         fill="#fdfffe"
         opacity="1"
         d="m 42.7,199.7 c 5.47,-7.17 13.1,-12.4 18.8,-19.41 1.86,1.6 3.66,3.26 5.51,4.87 -3.49,5.06 -7.98,9.31 -12.64,13.27 -2.78,3.4 -5.86,6.68 -9.58,9.04 -2.93,0.61 -5.9,-0.95 -8.79,-1.44 1.91,-2.42 4.24,-4.48 6.7,-6.33 z"
         id="path8" />
    </g>
  </g>
  <path
     fill="#ffffff"
     d="m 11.365375,13.493 v -2.646 h -1.323 l 2.117,-2.116 2.116,2.116 h -1.323 v 2.646 z"
     style="paint-order:stroke markers fill"
     id="path3"
     sodipodi:nodetypes="cccccccc" />
</svg>
