<?xml version="1.0" encoding="UTF-8" standalone="no"?>
<svg
   width="64"
   height="64"
   viewBox="0 0 16.933 16.933"
   version="1.1"
   id="svg4"
   sodipodi:docname="virtualbox.svg"
   inkscape:version="1.4.2 (ebf0e940d0, 2025-05-08)"
   xmlns:inkscape="http://www.inkscape.org/namespaces/inkscape"
   xmlns:sodipodi="http://sodipodi.sourceforge.net/DTD/sodipodi-0.dtd"
   xmlns="http://www.w3.org/2000/svg"
   xmlns:svg="http://www.w3.org/2000/svg">
  <defs
     id="defs4" />
  <sodipodi:namedview
     id="namedview4"
     pagecolor="#ffffff"
     bordercolor="#000000"
     borderopacity="0.25"
     inkscape:showpageshadow="2"
     inkscape:pageopacity="0.0"
     inkscape:pagecheckerboard="0"
     inkscape:deskcolor="#d1d1d1"
     inkscape:zoom="6.485495"
     inkscape:cx="32.071569"
     inkscape:cy="31.994474"
     inkscape:window-width="1440"
     inkscape:window-height="827"
     inkscape:window-x="0"
     inkscape:window-y="0"
     inkscape:window-maximized="1"
     inkscape:current-layer="svg4" />
  <circle
     cx="8.466"
     cy="8.466"
     r="7.144"
     fill="#f0f0f0"
     style="paint-order:stroke fill markers;fill:#f0f0f0;fill-opacity:1"
     id="circle1" />
  <path
     d="M 12.823581,8.8773323 H 8.4670998 L 7.7536678,11.289888 H 6.8884431 c -0.020873,0 -0.039844,-0.01296 -0.045537,-0.03348 L 5.2813265,5.8695243 h 1.0872251 l 0.5749202,1.9847413 h 1.085327 L 7.1559817,4.8464608 H 3.9000003 l 1.9391689,6.6908172 c 0.132817,0.457625 0.5635316,0.777524 1.0492739,0.777524 H 8.5392058 L 9.2526385,9.9022525 h 2.5292785 v 1.3430105 c 0,0.01296 -0.0039,0.02416 -0.01324,0.03348 -0.0096,0.0093 -0.0209,0.01296 -0.03416,0.01296 H 9.9262769 l -0.3036153,1.023046 h 2.1118604 c 0.29216,0 0.565399,-0.111584 0.772231,-0.314357 0.206835,-0.202709 0.318759,-0.470574 0.318759,-0.75705 V 8.8772839 Z"
     fill="#00758a"
     id="path1-0"
     style="stroke-width:0.0589154" />
  <path
     d="m 12.527552,7.8542674 h 0.296029 v -1.936383 c 0,-0.2864568 -0.113898,-0.5543113 -0.318759,-0.7570661 C 12.299893,4.9580695 12.02475,4.8464608 11.73253,4.8464608 H 9.6624544 L 8.7706674,7.8542674 Z M 10.44607,5.8695261 h 1.288364 c 0.01324,0 0.02469,0.00371 0.03416,0.013019 0.0096,0.00929 0.01324,0.020459 0.01324,0.033485 V 6.831204 h -1.620361 l 0.286508,-0.9635365 z"
     fill="#f29111"
     id="path2-3"
     style="fill:#e9af56;fill-opacity:1;stroke-width:0.0589154" />
</svg>
