<?xml version="1.0" encoding="UTF-8" standalone="no"?>
<svg
   width="64"
   height="64"
   viewBox="0 0 16.933 16.933"
   version="1.1"
   id="svg3"
   sodipodi:docname="visualstudiocode.svg"
   xml:space="preserve"
   inkscape:version="1.4.2 (ebf0e940d0, 2025-05-08)"
   xmlns:inkscape="http://www.inkscape.org/namespaces/inkscape"
   xmlns:sodipodi="http://sodipodi.sourceforge.net/DTD/sodipodi-0.dtd"
   xmlns="http://www.w3.org/2000/svg"
   xmlns:svg="http://www.w3.org/2000/svg"><defs
     id="defs3" /><sodipodi:namedview
     id="namedview3"
     pagecolor="#ffffff"
     bordercolor="#000000"
     borderopacity="0.25"
     inkscape:showpageshadow="2"
     inkscape:pageopacity="0.0"
     inkscape:pagecheckerboard="0"
     inkscape:deskcolor="#d1d1d1"
     inkscape:zoom="10"
     inkscape:cx="32"
     inkscape:cy="31.55"
     inkscape:window-width="1440"
     inkscape:window-height="827"
     inkscape:window-x="0"
     inkscape:window-y="0"
     inkscape:window-maximized="1"
     inkscape:current-layer="g4" /><circle
     cx="8.466"
     cy="8.466"
     r="7.144"
     fill="#f0f0f0"
     style="paint-order:stroke fill markers"
     id="circle1" /><g
     id="g4"
     transform="matrix(0.05077892,0,0,0.05077892,1.9496721,1.6924679)"><g
       id="#fdfafdfd"><path
         fill="#fdfafd"
         opacity="1"
         d="m 209.28,59.4 c 2.07,0.01 4.15,-0.03 6.22,-0.09 l -1.04,0.28 c -8.43,2.17 -16.34,5.99 -23.68,10.6 -3.9,2.52 -7.77,5.1 -11.42,7.96 -3.34,2.53 -6.67,5.09 -9.65,8.04 -3.01,2.39 -5.91,4.9 -8.49,7.75 -6.5,5.93 -12.22,12.64 -17.93,19.3 -0.41,0.46 -1.21,1.4 -1.62,1.86 -1.27,0.73 -2.59,1.36 -3.88,2.04 1.51,-3.66 4.72,-6.11 6.95,-9.29 4.44,-4.95 8.44,-10.28 13.53,-14.62 3.46,-3.95 7.88,-6.82 11.45,-10.65 9.39,-6.96 18.27,-14.85 28.9,-19.96 3.56,-1.07 7.12,-2.1 10.66,-3.22 z"
         id="path2-6" /></g><g
       id="#4563d4f4"><path
         fill="#4563d4"
         opacity="0.96"
         d="m 215.5,59.31 c 1.9,-0.11 3.79,-0.16 5.7,-0.2 1.92,1.51 4.75,1.62 6.61,-0.08 1.17,0.17 2.36,0.31 3.54,0.52 l 1.03,1.46 c -2.95,-0.29 -5.93,-0.27 -8.88,-0.05 -1.27,0.05 -2.53,0.11 -3.78,0.17 -1.69,-0.71 -3.46,-1.23 -5.26,-1.54 z"
         id="path3-7" /></g><g
       id="#102cd1f8"><path
         fill="#102cd1"
         opacity="0.97"
         d="m 221.2,59.11 c 2.17,-0.56 4.42,-0.57 6.61,-0.08 -1.86,1.7 -4.69,1.59 -6.61,0.08 z"
         id="path4" /></g><g
       id="#0722f0ff"><path
         fill="#0722f0"
         opacity="1"
         d="m 190.78,70.19 c 7.34,-4.61 15.25,-8.43 23.68,-10.6 1.8,0.31 3.57,0.83 5.26,1.54 -3.11,0.22 -6.18,0.8 -9.17,1.64 -6.44,1.74 -11.98,5.6 -17.54,9.12 -0.75,-0.57 -1.49,-1.13 -2.23,-1.7 z"
         id="path5" /><path
         fill="#0722f0"
         opacity="1"
         d="m 169.71,86.19 c 2.98,-2.95 6.31,-5.51 9.65,-8.04 -0.03,0.4 -0.08,1.2 -0.11,1.6 1.31,-0.27 2.63,-0.54 3.94,-0.86 -2.41,1.9 -4.72,3.92 -7.08,5.87 0.24,-0.81 0.48,-1.62 0.72,-2.42 -2.22,1.55 -4.62,2.81 -7.12,3.85 z"
         id="path6" /><path
         fill="#0722f0"
         opacity="1"
         d="m 23.18,121.2 c 6.45,-1.56 12.92,-3.04 19.41,-4.4 2.01,0.05 4.02,0.04 6.04,0.02 3.22,0 6.45,0.27 9.63,0.81 -5.83,1.62 -12.01,-0.43 -17.77,1.54 -6.82,1.29 -14.67,2.33 -19.33,8.08 -4.59,6.15 -2.17,14.43 1.3,20.51 -4.17,-0.95 -7.85,-3.4 -10.39,-6.84 0.46,-2.3 2.87,-3.91 2.48,-6.44 -1.62,0.6 -3.23,1.24 -4.84,1.88 0.06,-0.62 0.18,-1.86 0.24,-2.49 1.11,-0.8 2.53,-0.97 3.79,-1.43 l 0.77,-0.25 c 1.58,-2.59 1.76,-5.64 -0.1,-8.13 2.91,-0.98 5.81,-2.03 8.77,-2.86 z"
         id="path7" /><path
         fill="#0722f0"
         opacity="1"
         d="m 47.37,167.76 c 4.59,2.15 9.5,3.54 14.49,4.37 1.49,0.43 2.96,0.93 4.43,1.45 -0.78,0.02 -2.34,0.08 -3.12,0.11 -6.51,-0.18 -12.78,-2.18 -19.27,-2.6 -0.31,-0.09 -0.94,-0.27 -1.26,-0.36 2.06,-0.18 4.11,-0.46 6.16,-0.72 -0.36,-0.56 -1.07,-1.69 -1.43,-2.25 z"
         id="path8" /></g><g
       id="#2843ace3"><path
         fill="#2843ac"
         opacity="0.89"
         d="m 231.35,59.55 c 1.99,0.31 4,0.64 5.96,1.15 1.68,0.75 3.3,1.65 4.74,2.8 1,1.33 2.21,2.48 3.61,3.38 2.3,2.51 4.18,5.48 5.29,8.7 0.94,3.73 1.9,7.46 2.55,11.26 l -1.67,0.08 c -0.23,-2.77 -0.95,-5.45 -1.72,-8.1 -0.99,-3.63 -2.75,-7.02 -5.08,-9.96 -2.57,-3.13 -6.04,-5.38 -9.83,-6.75 -0.94,-0.37 -1.88,-0.73 -2.82,-1.1 z"
         id="path9" /></g><g
       id="#cedbf5ff"><path
         fill="#cedbf5"
         opacity="1"
         d="m 210.55,62.77 c 2.99,-0.84 6.06,-1.42 9.17,-1.64 1.25,-0.06 2.51,-0.12 3.78,-0.17 -1.1,1.05 -2.27,2.01 -3.57,2.81 -2.29,-0.08 -4.59,0.03 -6.84,0.48 -0.64,-0.37 -1.91,-1.11 -2.54,-1.48 z"
         id="path10" /><path
         fill="#cedbf5"
         opacity="1"
         d="m 44.68,112.35 c 10.32,-1.79 20.9,-0.4 31.24,0.75 7.49,0.81 14.44,4.17 21.96,4.79 1.2,1.22 2.65,2.13 4.22,2.79 3.88,1.66 7.17,4.36 10.89,6.31 -6.21,-2.46 -12.37,-5.05 -18.69,-7.22 -4.43,-2.38 -9.44,-3.16 -14.38,-3.67 -0.61,-0.12 -1.82,-0.35 -2.43,-0.47 -1.81,-0.37 -3.62,-0.76 -5.44,-1.06 -3.39,-0.45 -6.76,-1.02 -10.12,-1.62 -5.7,-1.08 -11.51,-0.07 -17.25,-0.6 z"
         id="path11" /></g><g
       id="#a5b0edff"><path
         fill="#a5b0ed"
         opacity="1"
         d="m 223.5,60.96 c 2.95,-0.22 5.93,-0.24 8.88,0.05 0.94,0.37 1.88,0.73 2.82,1.1 -0.58,0.3 -1.76,0.89 -2.34,1.18 -1.95,-0.47 -3.92,-0.79 -5.89,-1.11 1.2,0.78 2.41,1.56 3.59,2.38 -0.05,0.27 -0.14,0.8 -0.19,1.07 -2.14,-0.3 -4.28,-0.58 -6.4,-0.98 -1.35,-0.28 -2.69,-0.61 -4.04,-0.88 1.3,-0.8 2.47,-1.76 3.57,-2.81 z"
         id="path12" /><path
         fill="#a5b0ed"
         opacity="1"
         d="m 61.86,172.13 c 6.4,0.47 12.82,0.44 19.23,0.7 l 1.06,0.23 c -4.3,0.99 -8.48,2.65 -12.97,2.34 -0.17,0.64 -0.53,1.92 -0.7,2.56 l -0.03,-0.2 c -0.09,-0.69 -0.27,-2.07 -0.36,-2.77 -1.68,-0.14 -3.36,-0.3 -5.04,-0.44 l 0.12,-0.86 c 0.78,-0.03 2.34,-0.09 3.12,-0.11 -1.47,-0.52 -2.94,-1.02 -4.43,-1.45 z"
         id="path13" /></g><g
       id="#599dd7ff"><path
         fill="#599dd7"
         opacity="1"
         d="m 226.97,62.18 c 1.97,0.32 3.94,0.64 5.89,1.11 1.89,2.23 3.79,4.53 6.32,6.07 -3.34,0.18 -6.61,-0.45 -9.02,-2.91 l 0.21,-0.82 c 0.05,-0.27 0.14,-0.8 0.19,-1.07 -1.18,-0.82 -2.39,-1.6 -3.59,-2.38 z"
         id="path14" /></g><g
       id="#88d3e7ff"><path
         fill="#88d3e7"
         opacity="1"
         d="m 235.2,62.11 c 3.79,1.37 7.26,3.62 9.83,6.75 -0.28,0.29 -0.83,0.86 -1.11,1.14 -0.73,-0.1 -2.18,-0.3 -2.91,-0.4 -0.46,-0.06 -1.37,-0.18 -1.83,-0.24 -2.53,-1.54 -4.43,-3.84 -6.32,-6.07 0.58,-0.29 1.76,-0.88 2.34,-1.18 z"
         id="path15" /></g><g
       id="#beaddfff"><path
         fill="#beaddf"
         opacity="1"
         d="m 193.01,71.89 c 5.56,-3.52 11.1,-7.38 17.54,-9.12 0.63,0.37 1.9,1.11 2.54,1.48 -1.59,0.78 -3.13,1.64 -4.62,2.58 -4.72,-0.88 -8.2,2.82 -11.76,5.2 1,0.08 2.99,0.25 3.98,0.33 -3.74,3.13 -9.02,3.01 -13.28,5.18 -2.81,1.98 -6.3,4 -7.65,7.2 0.55,0.32 1.64,0.96 2.18,1.28 -0.43,-0.01 -1.29,-0.04 -1.72,-0.05 -0.36,1.33 -0.67,2.67 -1.04,3.99 -0.22,-0.71 -0.65,-2.13 -0.87,-2.84 -2.61,0.2 -4.5,2.02 -6.21,3.82 -1.03,0.98 -2.09,1.91 -3.21,2.78 -1.89,1.15 -3.14,2.95 -4.12,4.87 1.92,-1.21 3.99,-2.19 6.34,-1.95 -1.59,2.13 -5.68,3.57 -4.06,6.83 -6.11,4.81 -11.79,10.11 -17.43,15.46 -0.97,-0.76 -1.94,-1.52 -2.91,-2.27 4.5,-4.52 8.29,-9.68 12.86,-14.13 1.12,-1.11 2.37,-2.39 1.91,-4.13 0.67,-0.8 1.33,-1.6 2.02,-2.38 2.42,-1.92 4.6,-4.11 6.7,-6.36 1.97,-1.63 3.93,-3.28 5.91,-4.9 2.36,-1.95 4.67,-3.97 7.08,-5.87 3.21,-2.41 6.43,-4.83 9.82,-7 z"
         id="path16" /></g><g
       id="#20212a2c"><path
         fill="#20212a"
         opacity="0.17"
         d="m 242.05,63.5 c 1.96,-1.34 4.74,1.36 3.61,3.38 -1.4,-0.9 -2.61,-2.05 -3.61,-3.38 z"
         id="path17" /></g><g
       id="#a769d0ff"><path
         fill="#a769d0"
         opacity="1"
         d="m 213.09,64.25 c 2.25,-0.45 4.55,-0.56 6.84,-0.48 1.35,0.27 2.69,0.6 4.04,0.88 -0.74,1.03 -1.47,2.06 -2.21,3.09 -0.48,0.03 -1.44,0.08 -1.91,0.11 -0.96,0.05 -1.91,0.15 -2.86,0.29 -1.66,0.41 -3.28,1.01 -4.88,1.6 0.48,0.35 1.45,1.06 1.93,1.41 -0.86,1.25 -1.71,2.51 -2.55,3.77 -2.76,-0.58 -5.37,0.31 -7.34,2.29 -1.93,1.35 -3.95,2.58 -6.02,3.71 -3.32,1.1 -6.74,1.82 -10.15,2.55 -0.32,-1.96 -0.49,-3.94 -0.57,-5.93 4.26,-2.17 9.54,-2.05 13.28,-5.18 2.56,-1.89 5.2,-3.67 7.78,-5.53 1.49,-0.94 3.03,-1.8 4.62,-2.58 z"
         id="path18" /></g><g
       id="#6574bdff"><path
         fill="#6574bd"
         opacity="1"
         d="m 221.76,67.74 c 0.74,-1.03 1.47,-2.06 2.21,-3.09 2.12,0.4 4.26,0.68 6.4,0.98 l -0.21,0.82 c -0.96,0.71 -1.94,1.37 -2.93,2.03 -1.81,-0.29 -3.63,-0.64 -5.47,-0.74 z"
         id="path19" /><path
         fill="#6574bd"
         opacity="1"
         d="m 253.6,87.71 c 0.5,4.25 0.68,8.54 0.61,12.82 -1.1,7.12 -2.92,14.19 -6.09,20.68 -1.54,3.03 -2.46,6.54 -5.14,8.83 2.02,-3.65 3.95,-7.37 5.33,-11.31 2.52,-5.31 4.2,-11 4.83,-16.85 0.48,-4.7 0.23,-9.45 0.46,-14.17 z"
         id="path20" /></g><g
       id="#40a7cfff"><path
         fill="#40a7cf"
         opacity="1"
         d="m 230.16,66.45 c 2.41,2.46 5.68,3.09 9.02,2.91 0.46,0.06 1.37,0.18 1.83,0.24 -1.65,0.9 -2.55,2.55 -3.45,4.12 -1.35,-0.14 -2.7,-0.29 -4.04,-0.44 -0.26,0.6 -0.78,1.79 -1.04,2.39 -0.41,0.11 -1.22,0.34 -1.63,0.46 -3.77,-0.69 -7.61,-0.39 -11.41,-0.62 1.74,-1.29 3.56,-2.44 5.42,-3.54 0.78,-1.17 1.55,-2.35 2.37,-3.49 0.99,-0.66 1.97,-1.32 2.93,-2.03 z"
         id="path21" /></g><g
       id="#e075dfff"><path
         fill="#e075df"
         opacity="1"
         d="m 196.71,72.03 c 3.56,-2.38 7.04,-6.08 11.76,-5.2 -2.58,1.86 -5.22,3.64 -7.78,5.53 -0.99,-0.08 -2.98,-0.25 -3.98,-0.33 z"
         id="path22" /></g><g
       id="#6080d2ff"><path
         fill="#6080d2"
         opacity="1"
         d="m 216.99,68.14 c 0.95,-0.14 1.9,-0.24 2.86,-0.29 1.52,0.67 5.32,0.5 4.41,3 -4.02,1.89 -8.08,5.04 -12.77,4.07 0.84,-1.26 1.69,-2.52 2.55,-3.77 1.5,-0.55 5.04,-0.61 2.95,-3.01 z"
         id="path23" /><path
         fill="#6080d2"
         opacity="1"
         d="m 239.01,134.61 c 0.23,-1.82 1.25,-3.85 3.41,-3.6 0.2,1.59 -1.77,3.83 -3.41,3.6 z"
         id="path24" /><path
         fill="#6080d2"
         opacity="1"
         d="m 231.06,143.04 c 2.36,-2.63 4.95,-5.06 7.64,-7.36 -2.03,2.92 -4.7,5.38 -7.64,7.36 z"
         id="path25" /><path
         fill="#6080d2"
         opacity="1"
         d="m 224.14,147.59 c 1.84,-1.43 3.89,-2.56 5.92,-3.69 -1.81,2.12 -4.14,3.7 -6.64,4.91 z"
         id="path26" /></g><g
       id="#c0d5efff"><path
         fill="#c0d5ef"
         opacity="1"
         d="m 219.85,67.85 c 0.47,-0.03 1.43,-0.08 1.91,-0.11 1.84,0.1 3.66,0.45 5.47,0.74 -0.82,1.14 -1.59,2.32 -2.37,3.49 -1.86,1.1 -3.68,2.25 -5.42,3.54 -0.55,0.39 -1.1,0.8 -1.64,1.2 3.14,0.51 6.88,-0.25 9.4,2.12 -6.06,-1.94 -12.36,-0.96 -18.31,0.89 -1.71,-0.58 -3.25,-1.51 -4.74,-2.51 1.97,-1.98 4.58,-2.87 7.34,-2.29 4.69,0.97 8.75,-2.18 12.77,-4.07 0.91,-2.5 -2.89,-2.33 -4.41,-3 z"
         id="path27" /><path
         fill="#c0d5ef"
         opacity="1"
         d="m 168.89,93.72 c 1.53,-0.4 3.08,-0.75 4.63,-1.11 -0.77,1.36 -1.52,2.74 -2.41,4.03 -2.35,-0.24 -4.42,0.74 -6.34,1.95 0.98,-1.92 2.23,-3.72 4.12,-4.87 z"
         id="path28" /></g><g
       id="#98a1e7ff"><path
         fill="#98a1e7"
         opacity="1"
         d="m 212.11,69.74 c 1.6,-0.59 3.22,-1.19 4.88,-1.6 2.09,2.4 -1.45,2.46 -2.95,3.01 -0.48,-0.35 -1.45,-1.06 -1.93,-1.41 z"
         id="path29" /></g><g
       id="#71e9e8ff"><path
         fill="#71e9e8"
         opacity="1"
         d="m 243.92,70 c 0.28,-0.28 0.83,-0.85 1.11,-1.14 2.33,2.94 4.09,6.33 5.08,9.96 -0.17,0.86 -0.5,2.58 -0.67,3.44 -0.76,-1.79 -1.49,-3.58 -2.19,-5.38 -0.39,-1.03 -0.81,-2.04 -1.27,-3.03 -0.63,-1.32 -1.39,-2.56 -2.06,-3.85 z"
         id="path30" /></g><g
       id="#0c1691ff"><path
         fill="#0c1691"
         opacity="1"
         d="m 179.36,78.15 c 3.65,-2.86 7.52,-5.44 11.42,-7.96 0.74,0.57 1.48,1.13 2.23,1.7 -3.39,2.17 -6.61,4.59 -9.82,7 -1.31,0.32 -2.63,0.59 -3.94,0.86 0.03,-0.4 0.08,-1.2 0.11,-1.6 z"
         id="path31" /><path
         fill="#0c1691"
         opacity="1"
         d="m 161.22,93.94 c 3.22,-0.97 5.74,-3.36 8.98,-4.28 -2.1,2.25 -4.28,4.44 -6.7,6.36 -2.16,0.48 -3.96,1.6 -4.79,3.72 -6.08,3.36 -9.93,9.38 -15.42,13.5 5.71,-6.66 11.43,-13.37 17.93,-19.3 z"
         id="path32" /></g><g
       id="#35b3adff"><path
         fill="#35b3ad"
         opacity="1"
         d="m 237.56,73.72 c 0.9,-1.57 1.8,-3.22 3.45,-4.12 0.73,0.1 2.18,0.3 2.91,0.4 0.67,1.29 1.43,2.53 2.06,3.85 0.03,1.91 -0.03,3.83 -0.08,5.75 -2.05,-0.98 -4.14,-1.87 -6.28,-2.63 -0.64,-1.11 -1.36,-2.18 -2.06,-3.25 z"
         id="path33" /></g><g
       id="#5ebdddff"><path
         fill="#5ebddd"
         opacity="1"
         d="m 233.52,73.28 c 1.34,0.15 2.69,0.3 4.04,0.44 0.7,1.07 1.42,2.14 2.06,3.25 0.57,1.32 1.11,2.66 1.7,3.97 -2.47,-0.87 -4.86,-1.93 -7.18,-3.14 -1.1,-0.56 -2.18,-1.14 -3.29,-1.67 0.41,-0.12 1.22,-0.35 1.63,-0.46 0.26,-0.6 0.78,-1.79 1.04,-2.39 z"
         id="path34" /></g><g
       id="#24bdccff"><path
         fill="#24bdcc"
         opacity="1"
         d="m 245.98,73.85 c 0.46,0.99 0.88,2 1.27,3.03 0.49,5.51 -0.84,10.98 -2.72,16.12 -0.38,-4.18 -1.04,-8.39 -3.21,-12.06 -0.59,-1.31 -1.13,-2.65 -1.7,-3.97 2.14,0.76 4.23,1.65 6.28,2.63 0.05,-1.92 0.11,-3.84 0.08,-5.75 z"
         id="path35" /></g><g
       id="#82dde6fe"><path
         fill="#82dde6"
         opacity="1"
         d="m 217.8,76.71 c 0.54,-0.4 1.09,-0.81 1.64,-1.2 3.8,0.23 7.64,-0.07 11.41,0.62 1.11,0.53 2.19,1.11 3.29,1.67 0.14,0.49 0.44,1.49 0.59,1.98 -1.41,-0.05 -2.81,-0.07 -4.21,-0.15 -1.11,-0.27 -2.22,-0.53 -3.32,-0.8 -2.52,-2.37 -6.26,-1.61 -9.4,-2.12 z"
         id="path36" /></g><g
       id="#2e3a4348"><path
         fill="#2e3a43"
         opacity="0.28"
         d="m 250.95,75.58 c 1.79,1.67 1.93,4.21 2.52,6.44 1.27,6.03 2.41,12.45 0.74,18.51 0.07,-4.28 -0.11,-8.57 -0.61,-12.82 l -0.1,-0.87 c -0.65,-3.8 -1.61,-7.53 -2.55,-11.26 z"
         id="path37" /></g><g
       id="#e5a5e7ff"><path
         fill="#e5a5e7"
         opacity="1"
         d="m 198.13,80.92 c 2.07,-1.13 4.09,-2.36 6.02,-3.71 1.49,1 3.03,1.93 4.74,2.51 -2.45,0.71 -4.86,1.56 -7.22,2.52 -1.18,-0.46 -2.36,-0.9 -3.54,-1.32 z"
         id="path38" /><path
         fill="#e5a5e7"
         opacity="1"
         d="m 185.45,88.05 c 1.13,-1.41 2.58,-2.5 4.15,-3.38 -0.12,1.26 -0.25,2.52 -0.38,3.78 -3.19,1.83 -6.32,3.75 -9.47,5.64 1.97,-1.95 3.88,-3.95 5.7,-6.04 z"
         id="path39" /></g><g
       id="#5be7eaff"><path
         fill="#5be7ea"
         opacity="1"
         d="m 247.25,76.88 c 0.7,1.8 1.43,3.59 2.19,5.38 0.17,-0.86 0.5,-2.58 0.67,-3.44 0.77,2.65 1.49,5.33 1.72,8.1 0.04,1.66 0.03,3.34 0,5.01 -0.38,0.3 -1.15,0.89 -1.54,1.19 0.19,-3.48 0.25,-7.04 -0.81,-10.4 -1.19,2.96 -1.94,6.05 -2.67,9.14 -1.02,4.82 -4.15,9.17 -3.54,14.28 1.2,-2.23 1.95,-4.65 2.3,-7.15 0.46,2.38 1.34,4.65 2.58,6.74 -0.64,2.16 -1.38,4.28 -2.15,6.4 -0.43,0.13 -1.3,0.39 -1.73,0.53 0.26,-1.76 0.49,-3.52 0.73,-5.28 -1.28,1.46 -2.51,2.97 -3.7,4.51 0.16,-1.13 0.31,-2.26 0.45,-3.39 -1.34,0.72 -1.98,2.08 -2.62,3.39 -0.1,-0.36 -0.31,-1.06 -0.41,-1.42 0.57,-2.04 1.11,-4.09 1.53,-6.17 1.44,-6.71 -0.02,-13.61 -3.03,-19.67 -0.54,-0.72 -1.2,-1.32 -1.97,-1.81 -1.57,-1.08 -3.14,-2.15 -4.73,-3.19 1.4,0.08 2.8,0.1 4.21,0.15 -0.15,-0.49 -0.45,-1.49 -0.59,-1.98 2.32,1.21 4.71,2.27 7.18,3.14 2.17,3.67 2.83,7.88 3.21,12.06 1.88,-5.14 3.21,-10.61 2.72,-16.12 z"
         id="path40" /></g><g
       id="#d890f5ff"><path
         fill="#d890f5"
         opacity="1"
         d="m 179.76,84.74 c 1.35,-3.2 4.84,-5.22 7.65,-7.2 0.08,1.99 0.25,3.97 0.57,5.93 -1.42,1.36 -3.07,2.48 -5.01,2.96 l -1.03,-0.41 c -0.54,-0.32 -1.63,-0.96 -2.18,-1.28 z"
         id="path41" /></g><g
       id="#f6fffdff"><path
         fill="#f6fffd"
         opacity="1"
         d="m 227.2,78.83 c 1.1,0.27 2.21,0.53 3.32,0.8 1.59,1.04 3.16,2.11 4.73,3.19 3.43,6.96 3.56,15.08 2.27,22.6 0.68,-0.28 2.05,-0.84 2.73,-1.12 -0.42,2.08 -0.96,4.13 -1.53,6.17 -0.24,0.57 -0.72,1.72 -0.95,2.29 -2.67,6.77 -5.96,13.27 -9.84,19.43 -1.72,0.33 -3.46,0.25 -5.18,0.07 5.99,-7.99 10.27,-17.15 12.5,-26.89 1.37,-5.51 1.72,-11.3 -0.36,-16.69 -0.82,-4.38 -4.63,-7.03 -7.69,-9.85 z"
         id="path42" /></g><g
       id="#e4c5eeff"><path
         fill="#e4c5ee"
         opacity="1"
         d="m 198.13,80.92 c 1.18,0.42 2.36,0.86 3.54,1.32 -4.22,1.92 -8.41,3.94 -12.45,6.21 0.13,-1.26 0.26,-2.52 0.38,-3.78 -1.57,0.88 -3.02,1.97 -4.15,3.38 -0.81,-0.56 -1.64,-1.1 -2.48,-1.62 1.94,-0.48 3.59,-1.6 5.01,-2.96 3.41,-0.73 6.83,-1.45 10.15,-2.55 z"
         id="path43" /></g><g
       id="#1624b5ff"><path
         fill="#1624b5"
         opacity="1"
         d="m 169.71,86.19 c 2.5,-1.04 4.9,-2.3 7.12,-3.85 -0.24,0.8 -0.48,1.61 -0.72,2.42 -1.98,1.62 -3.94,3.27 -5.91,4.9 -3.24,0.92 -5.76,3.31 -8.98,4.28 2.58,-2.85 5.48,-5.36 8.49,-7.75 z"
         id="path44" /><path
         fill="#1624b5"
         opacity="1"
         d="m 3.94,134.15 c 1.19,0.98 2.39,1.95 3.65,2.85 0.77,-1.06 1.54,-2.11 2.36,-3.13 -0.06,0.63 -0.18,1.87 -0.24,2.49 1.61,-0.64 3.22,-1.28 4.84,-1.88 0.39,2.53 -2.02,4.14 -2.48,6.44 2.54,3.44 6.22,5.89 10.39,6.84 0.52,0.92 1.06,1.83 1.62,2.73 1.58,2.45 3.58,4.59 5.72,6.56 -1.68,0.66 -3.3,-0.1 -4.84,-0.71 -0.35,0.41 -1.05,1.23 -1.4,1.65 0.86,1.32 1.72,2.65 2.59,3.97 -0.93,0.14 -2.79,0.42 -3.72,0.56 -4.65,-2.79 -8.96,-6.13 -12.78,-9.95 0.12,-3.09 0.26,-6.19 0.48,-9.28 -1.97,-0.7 -4.7,-0.46 -5.99,-2.37 -0.42,-1.98 -0.3,-4.02 -0.26,-6.03 z"
         id="path45" /><path
         fill="#1624b5"
         opacity="1"
         d="m 218.24,148.44 c 1.98,-0.16 3.98,-0.3 5.9,-0.85 l -0.72,1.22 c -0.34,0.24 -1.02,0.71 -1.36,0.95 -4.26,1.62 -8.4,3.59 -12.8,4.82 -1.29,-0.23 -2.43,-0.75 -3.42,-1.57 1.01,-0.29 2.03,-0.59 3.05,-0.89 2.72,-0.76 5.27,-2 7.72,-3.42 0.41,-0.06 1.22,-0.19 1.63,-0.26 z"
         id="path46" /></g><g
       id="#8ffafcff"><path
         fill="#8ffafc"
         opacity="1"
         d="m 235.25,82.82 c 0.77,0.49 1.43,1.09 1.97,1.81 3.01,6.06 4.47,12.96 3.03,19.67 -0.68,0.28 -2.05,0.84 -2.73,1.12 1.29,-7.52 1.16,-15.64 -2.27,-22.6 z"
         id="path47" /><path
         fill="#8ffafc"
         opacity="1"
         d="m 250.29,93.12 c 0.39,-0.3 1.16,-0.89 1.54,-1.19 -0.07,4.54 -0.21,9.1 -0.99,13.58 -0.25,0.86 -0.49,1.72 -0.72,2.59 0.16,-1.99 -0.31,-3.93 -1.02,-5.77 0.34,-3.08 0.9,-6.13 1.19,-9.21 z"
         id="path48" /><path
         fill="#8ffafc"
         opacity="1"
         d="m 94.67,125.47 c 3.29,0.68 6.51,1.67 9.86,2.03 4.7,0.48 8.72,3.21 13.23,4.41 0.78,0.38 1.56,0.76 2.35,1.14 -4.96,-0.82 -9.55,-2.96 -14.43,-4.07 -4.05,-1.21 -8.05,-2.58 -12.16,-3.57 z"
         id="path49" /></g><g
       id="#29e5e8ff"><path
         fill="#29e5e8"
         opacity="1"
         d="m 249.48,82.72 c 1.06,3.36 1,6.92 0.81,10.4 -0.29,3.08 -0.85,6.13 -1.19,9.21 -0.24,0.85 -0.71,2.55 -0.95,3.4 -1.24,-2.09 -2.12,-4.36 -2.58,-6.74 -0.35,2.5 -1.1,4.92 -2.3,7.15 -0.61,-5.11 2.52,-9.46 3.54,-14.28 0.73,-3.09 1.48,-6.18 2.67,-9.14 z"
         id="path50" /><path
         fill="#29e5e8"
         opacity="1"
         d="m 9.04,131.68 c 0.38,-0.81 0.77,-1.61 1.19,-2.4 0.5,0.02 1.49,0.06 1.98,0.08 -0.28,0.48 -0.85,1.43 -1.13,1.91 -0.51,0.1 -1.53,0.31 -2.04,0.41 z"
         id="path51" /></g><g
       id="#eddefbff"><path
         fill="#eddefb"
         opacity="1"
         d="m 180.22,85.97 c 0.43,0.01 1.29,0.04 1.72,0.05 l 1.03,0.41 c 0.84,0.52 1.67,1.06 2.48,1.62 -1.82,2.09 -3.73,4.09 -5.7,6.04 -1.38,1.02 -2.76,2.03 -4.13,3.05 0.14,-1.06 0.33,-2.12 0.56,-3.17 1.03,-1.32 2.08,-2.62 3,-4.01 0.37,-1.32 0.68,-2.66 1.04,-3.99 z"
         id="path52" /></g><g
       id="#cd7df7ff"><path
         fill="#cd7df7"
         opacity="1"
         d="m 172.1,90.94 c 1.71,-1.8 3.6,-3.62 6.21,-3.82 0.22,0.71 0.65,2.13 0.87,2.84 -0.92,1.39 -1.97,2.69 -3,4.01 -0.9,-1.53 -2.6,-2.23 -4.08,-3.03 z"
         id="path53" /></g><g
       id="#217bc5ff"><path
         fill="#217bc5"
         opacity="1"
         d="m 251.83,86.92 1.67,-0.08 0.1,0.87 c -0.23,4.72 0.02,9.47 -0.46,14.17 -0.74,1.23 -1.55,2.41 -2.3,3.63 0.78,-4.48 0.92,-9.04 0.99,-13.58 0.03,-1.67 0.04,-3.35 0,-5.01 z"
         id="path54" /></g><g
       id="#c467bfff"><path
         fill="#c467bf"
         opacity="1"
         d="m 168.89,93.72 c 1.12,-0.87 2.18,-1.8 3.21,-2.78 1.48,0.8 3.18,1.5 4.08,3.03 -0.23,1.05 -0.42,2.11 -0.56,3.17 -2.85,2.11 -5.75,4.17 -8.57,6.33 -1.62,-3.26 2.47,-4.7 4.06,-6.83 0.89,-1.29 1.64,-2.67 2.41,-4.03 -1.55,0.36 -3.1,0.71 -4.63,1.11 z"
         id="path55" /><path
         fill="#c467bf"
         opacity="1"
         d="m 202.07,147.98 c 1.46,-0.37 2.93,-0.74 4.39,-1.14 0.28,0.37 0.85,1.11 1.13,1.48 0.02,0.39 0.06,1.16 0.08,1.55 l 0.02,0.18 c 0.3,0.52 0.9,1.56 1.2,2.07 -1.02,0.3 -2.04,0.6 -3.05,0.89 -1.48,-1.21 -3.05,-2.29 -4.65,-3.32 0.22,-0.43 0.66,-1.29 0.88,-1.71 z"
         id="path56" /><path
         fill="#c467bf"
         opacity="1"
         d="m 43.9,171.09 c 6.49,0.42 12.76,2.42 19.27,2.6 l -0.12,0.86 C 56.52,174.4 50,173.6 43.9,171.09 Z"
         id="path57" /></g><g
       id="#232e57ff"><path
         fill="#232e57"
         opacity="1"
         d="m 158.71,99.74 c 0.83,-2.12 2.63,-3.24 4.79,-3.72 -0.69,0.78 -1.35,1.58 -2.02,2.38 -3.55,3.82 -7.09,7.64 -10.63,11.47 -4.81,3.73 -8.79,8.38 -12.79,12.94 -0.36,-0.46 -1.07,-1.37 -1.42,-1.83 1.63,-2 3.38,-3.89 5.03,-5.88 0.41,-0.46 1.21,-1.4 1.62,-1.86 5.49,-4.12 9.34,-10.14 15.42,-13.5 z"
         id="path58" /></g><g
       id="#f5eee8fd"><path
         fill="#f5eee8"
         opacity="1"
         d="m 161.48,98.4 c 0.46,1.74 -0.79,3.02 -1.91,4.13 -4.57,4.45 -8.36,9.61 -12.86,14.13 -1.1,0.82 -2.25,1.57 -3.37,2.36 2.42,-3.12 4.92,-6.17 7.51,-9.15 3.54,-3.83 7.08,-7.65 10.63,-11.47 z"
         id="path59" /><path
         fill="#f5eee8"
         opacity="1"
         d="m 47.37,167.76 c 2.77,-0.48 5.53,-1.06 8.34,-1.25 4.17,1.27 8.45,2.15 12.78,2.63 3.79,0.31 7.71,0.61 11.36,-0.69 0.14,-0.01 0.42,-0.03 0.56,-0.04 0.94,-0.14 2.81,-0.43 3.75,-0.57 -1.29,0.51 -2.56,1.07 -3.82,1.67 -0.11,0.49 -0.34,1.48 -0.46,1.97 0.51,0.34 1.53,1.03 2.05,1.38 l -0.84,-0.03 c -6.41,-0.26 -12.83,-0.23 -19.23,-0.7 -4.99,-0.83 -9.9,-2.22 -14.49,-4.37 z"
         id="path60" /></g><g
       id="#0d23d2ff"><path
         fill="#0d23d2"
         opacity="1"
         d="m 250.84,105.51 c 0.75,-1.22 1.56,-2.4 2.3,-3.63 -0.63,5.85 -2.31,11.54 -4.83,16.85 0.13,-3.61 0.88,-7.15 1.81,-10.63 0.23,-0.87 0.47,-1.73 0.72,-2.59 z"
         id="path61" /><path
         fill="#0d23d2"
         opacity="1"
         d="m 1.8,136.37 c 0.52,-0.37 1.56,-1.11 2.08,-1.48 -0.04,2.01 -0.16,4.05 0.26,6.03 1.29,1.91 4.02,1.67 5.99,2.37 -0.22,3.09 -0.36,6.19 -0.48,9.28 -2.43,-3.02 -4.83,-6.09 -6.51,-9.61 l 0.05,-1.28 C 3.42,140.4 2.91,139.19 2.41,138.05 2.26,137.63 1.95,136.79 1.8,136.37 Z"
         id="path62" /></g><g
       id="#e2eae1ff"><path
         fill="#e2eae1"
         opacity="1"
         d="m 249.1,102.33 c 0.71,1.84 1.18,3.78 1.02,5.77 -2.56,8.95 -7.23,17.14 -12.94,24.44 l -1.3,-0.9 c -0.1,-0.33 -0.31,-0.99 -0.41,-1.32 -2.53,0.57 -5.05,1.14 -7.54,1.87 3.88,-6.16 7.17,-12.66 9.84,-19.43 -0.06,0.67 -0.16,2.02 -0.22,2.69 1.24,-1.26 2.67,-2.32 4.51,-2.34 -0.4,4.21 -3.31,7.38 -5.38,10.86 4.92,-2.2 7.94,-6.78 9.32,-11.84 0.77,-2.12 1.51,-4.24 2.15,-6.4 0.24,-0.85 0.71,-2.55 0.95,-3.4 z"
         id="path63" /><path
         fill="#e2eae1"
         opacity="1"
         d="m 105.68,128.98 c 4.88,1.11 9.47,3.25 14.43,4.07 1.28,0.58 2.54,1.19 3.8,1.81 -2.69,1.99 -5.36,4.02 -8.01,6.06 -1.56,1.05 -3.16,2.05 -4.82,2.93 3.22,-2.28 6.38,-4.63 9.54,-6.99 -4.72,-3.1 -9.69,-5.82 -14.94,-7.88 z"
         id="path64" /></g><g
       id="#b7e8e4ff"><path
         fill="#b7e8e4"
         opacity="1"
         d="m 241.3,111.89 c 1.19,-1.54 2.42,-3.05 3.7,-4.51 -0.24,1.76 -0.47,3.52 -0.73,5.28 0.43,-0.14 1.3,-0.4 1.73,-0.53 -1.38,5.06 -4.4,9.64 -9.32,11.84 2.07,-3.48 4.98,-6.65 5.38,-10.86 -1.84,0.02 -3.27,1.08 -4.51,2.34 0.06,-0.67 0.16,-2.02 0.22,-2.69 0.23,-0.57 0.71,-1.72 0.95,-2.29 0.1,0.36 0.31,1.06 0.41,1.42 0.64,-1.31 1.28,-2.67 2.62,-3.39 -0.14,1.13 -0.29,2.26 -0.45,3.39 z"
         id="path65" /></g><g
       id="#11186aff"><path
         fill="#11186a"
         opacity="1"
         d="m 237.18,132.54 c 5.71,-7.3 10.38,-15.49 12.94,-24.44 -0.93,3.48 -1.68,7.02 -1.81,10.63 -1.38,3.94 -3.31,7.66 -5.33,11.31 l -0.56,0.97 c -2.16,-0.25 -3.18,1.78 -3.41,3.6 l -0.31,1.07 c -2.69,2.3 -5.28,4.73 -7.64,7.36 -0.25,0.22 -0.75,0.64 -1,0.86 -2.03,1.13 -4.08,2.26 -5.92,3.69 -1.92,0.55 -3.92,0.69 -5.9,0.85 7.17,-4.15 13.78,-9.39 18.94,-15.9 z"
         id="path66" /></g><g
       id="#f8f4d1ff"><path
         fill="#f8f4d1"
         opacity="1"
         d="m 44.65,110.5 c 4.8,0.2 9.61,-0.01 14.42,0.11 7.59,1.21 15.41,0.72 22.91,2.58 3,0.52 5.98,1.15 8.88,2.06 1.33,0.27 2.66,0.57 3.95,0.98 1.14,0.3 2.27,0.61 3.4,0.94 4.01,0.19 7.24,2.99 11.02,4.08 2.72,1.8 6.98,0.59 8.67,3.93 -6.83,-2 -12.84,-6.49 -20.02,-7.29 -7.52,-0.62 -14.47,-3.98 -21.96,-4.79 -10.34,-1.15 -20.92,-2.54 -31.24,-0.75 -2.88,0.66 -5.76,1.31 -8.65,1.93 -5.76,1.29 -11.5,2.8 -16.88,5.28 -3.75,1.8 -8.37,3.27 -10.36,7.25 -1.24,0.47 -2.42,1.1 -3.52,1.85 0.95,-1.81 2.52,-3.04 4.12,-4.24 10.41,-6.88 22.72,-9.77 34.78,-12.23 0.12,-0.42 0.36,-1.27 0.48,-1.69 z"
         id="path67" /><path
         fill="#f8f4d1"
         opacity="1"
         d="m 193.73,148.91 c 11.39,-1.63 21.21,-8.53 29.02,-16.65 1.72,0.18 3.46,0.26 5.18,-0.07 -1.45,1.41 -3.03,2.9 -3.21,5.05 1.38,0.09 2.76,0.13 4.15,0.11 -1.47,1.27 -2.96,2.54 -4.67,3.47 -0.56,-0.24 -1.69,-0.73 -2.25,-0.98 -5.46,1.61 -10.34,4.66 -15.49,7 -1.46,0.4 -2.93,0.77 -4.39,1.14 -2.72,0.74 -5.52,1.11 -8.34,0.93 z"
         id="path68" /></g><g
       id="#89b064ff"><path
         fill="#89b064"
         opacity="1"
         d="m 138.06,122.81 c 4,-4.56 7.98,-9.21 12.79,-12.94 -2.59,2.98 -5.09,6.03 -7.51,9.15 -4.57,4.11 -7.68,9.64 -12.74,13.24 1.19,-1.79 2.4,-3.58 3.8,-5.21 1.26,-1.38 2.47,-2.8 3.66,-4.24 z"
         id="path69" /></g><g
       id="#222fd2ff"><path
         fill="#222fd2"
         opacity="1"
         d="m 36.03,114.28 c 2.89,-0.62 5.77,-1.27 8.65,-1.93 1.37,1.43 2.7,2.92 3.95,4.47 -2.02,0.02 -4.03,0.03 -6.04,-0.02 -1.97,-1.34 -4.23,-2.1 -6.56,-2.52 z"
         id="path70" /></g><g
       id="#2539f7ff"><path
         fill="#2539f7"
         opacity="1"
         d="m 44.68,112.35 c 5.74,0.53 11.55,-0.48 17.25,0.6 3.36,0.6 6.73,1.17 10.12,1.62 -0.78,1.27 -1.55,2.54 -2.32,3.81 3.22,1.29 6.83,1.61 9.76,3.57 -6.34,-0.87 -12.7,-1.61 -19.1,-1.95 -6.58,-1.16 -13.26,-0.56 -19.9,-0.83 5.76,-1.97 11.94,0.08 17.77,-1.54 -3.18,-0.54 -6.41,-0.81 -9.63,-0.81 -1.25,-1.55 -2.58,-3.04 -3.95,-4.47 z"
         id="path71" /></g><g
       id="#252c71ff"><path
         fill="#252c71"
         opacity="1"
         d="m 19.15,119.56 c 5.38,-2.48 11.12,-3.99 16.88,-5.28 2.33,0.42 4.59,1.18 6.56,2.52 -6.49,1.36 -12.96,2.84 -19.41,4.4 -1.37,-0.47 -2.71,-1.02 -4.03,-1.64 z"
         id="path72" /></g><g
       id="#2531d4fd"><path
         fill="#2531d4"
         opacity="1"
         d="m 72.05,114.57 c 1.82,0.3 3.63,0.69 5.44,1.06 2.14,3.47 5.58,6.11 9.73,6.52 4.16,0.97 8.32,1.95 12.56,2.5 1.96,0.13 3.28,1.76 4.75,2.85 -3.35,-0.36 -6.57,-1.35 -9.86,-2.03 -4.94,-1.65 -10.09,-2.47 -15.18,-3.52 -2.93,-1.96 -6.54,-2.28 -9.76,-3.57 0.77,-1.27 1.54,-2.54 2.32,-3.81 z"
         id="path73" /></g><g
       id="#e0e5d1ff"><path
         fill="#e0e5d1"
         opacity="1"
         d="m 137.79,117.14 c 1.29,-0.68 2.61,-1.31 3.88,-2.04 -1.65,1.99 -3.4,3.88 -5.03,5.88 -1.67,2 -3.3,4.03 -4.96,6.04 -1.06,1.15 -2.1,2.32 -3.12,3.5 -1.07,0.9 -2.17,1.79 -3.44,2.4 -2.54,-1.11 -4.93,-2.57 -7.46,-3.72 -1.08,-0.53 -2.17,-1.05 -3.27,-1.56 1.25,-0.81 2.5,-1.61 3.78,-2.37 3.37,1.17 6.12,4.49 9.72,4.52 4.16,-3.5 6.66,-8.44 9.9,-12.65 z"
         id="path74" /></g><g
       id="#2021a8fe"><path
         fill="#2021a8"
         opacity="1"
         d="m 77.49,115.63 c 0.61,0.12 1.82,0.35 2.43,0.47 2.01,0.44 4.01,0.97 6,1.51 0.53,0.9 1.07,1.79 1.62,2.68 -0.08,0.47 -0.24,1.4 -0.32,1.86 -4.15,-0.41 -7.59,-3.05 -9.73,-6.52 z"
         id="path75" /></g><g
       id="#e0db86ff"><path
         fill="#e0db86"
         opacity="1"
         d="m 79.92,116.1 c 4.94,0.51 9.95,1.29 14.38,3.67 -2.81,-0.67 -5.61,-1.35 -8.38,-2.16 -1.99,-0.54 -3.99,-1.07 -6,-1.51 z"
         id="path76" /><path
         fill="#e0db86"
         opacity="1"
         d="m 227.93,132.19 c 2.49,-0.73 5.01,-1.3 7.54,-1.87 0.1,0.33 0.31,0.99 0.41,1.32 -2.39,1.84 -4.74,3.73 -7.01,5.71 -1.39,0.02 -2.77,-0.02 -4.15,-0.11 0.18,-2.15 1.76,-3.64 3.21,-5.05 z"
         id="path77" /></g><g
       id="#b9dedcff"><path
         fill="#b9dedc"
         opacity="1"
         d="m 143.34,119.02 c 1.12,-0.79 2.27,-1.54 3.37,-2.36 0.97,0.75 1.94,1.51 2.91,2.27 -5.03,4.98 -9.74,10.26 -14.67,15.33 4.53,2.82 9.49,4.83 14.16,7.4 -5.19,-1.92 -10.93,-2.82 -15.44,-6.23 -1.54,1.19 -2.68,2.74 -3.46,4.52 -0.32,0.12 -0.97,0.37 -1.29,0.49 0.68,0.78 1.37,1.56 2.09,2.31 -1.14,0.01 -2.61,-1.29 -3.55,-0.23 -7.08,6.67 -13.33,14.57 -21.98,19.3 0.1,-0.71 0.3,-2.14 0.4,-2.85 -0.55,-0.02 -1.67,-0.08 -2.22,-0.11 l 0.91,-0.77 c 4.04,-3.18 8.32,-6.09 11.79,-9.93 1.53,-1.58 3.02,-3.2 4.51,-4.84 3.67,-2.93 7.19,-6.2 9.26,-10.5 0.12,-0.14 0.36,-0.42 0.47,-0.56 5.06,-3.6 8.17,-9.13 12.74,-13.24 z"
         id="path78" /></g><g
       id="#090d6cff"><path
         fill="#090d6c"
         opacity="1"
         d="m 85.92,117.61 c 2.77,0.81 5.57,1.49 8.38,2.16 6.32,2.17 12.48,4.76 18.69,7.22 0.35,0.16 1.05,0.49 1.4,0.65 1.1,0.51 2.19,1.03 3.27,1.56 0.03,0.68 0.07,2.03 0.1,2.71 -4.51,-1.2 -8.53,-3.93 -13.23,-4.41 -1.47,-1.09 -2.79,-2.72 -4.75,-2.85 -4.24,-0.55 -8.4,-1.53 -12.56,-2.5 0.08,-0.46 0.24,-1.39 0.32,-1.86 -0.55,-0.89 -1.09,-1.78 -1.62,-2.68 z"
         id="path79" /></g><g
       id="#c8ca6af3"><path
         fill="#c8ca6a"
         opacity="0.95"
         d="m 97.88,117.89 c 7.18,0.8 13.19,5.29 20.02,7.29 l 0.27,0.09 c -1.28,0.76 -2.53,1.56 -3.78,2.37 -0.35,-0.16 -1.05,-0.49 -1.4,-0.65 -3.72,-1.95 -7.01,-4.65 -10.89,-6.31 -1.57,-0.66 -3.02,-1.57 -4.22,-2.79 z"
         id="path80" /></g><g
       id="#fafef7ff"><path
         fill="#fafef7"
         opacity="1"
         d="m 21.16,127.25 c 4.66,-5.75 12.51,-6.79 19.33,-8.08 6.64,0.27 13.32,-0.33 19.9,0.83 -7.39,0.7 -14.83,1.39 -22.03,3.28 -5.45,-1.01 -11.67,0.41 -15.53,4.52 -3.15,4.61 -2.7,10.93 -0.74,15.93 0.89,1.62 1.85,3.19 2.82,4.76 -0.2,0.5 -0.62,1.5 -0.83,2 -0.56,-0.9 -1.1,-1.81 -1.62,-2.73 -3.47,-6.08 -5.89,-14.36 -1.3,-20.51 z"
         id="path81" /></g><g
       id="#132ecfff"><path
         fill="#132ecf"
         opacity="1"
         d="m 8.79,126.81 c 1.99,-3.98 6.61,-5.45 10.36,-7.25 1.32,0.62 2.66,1.17 4.03,1.64 -2.96,0.83 -5.86,1.88 -8.77,2.86 1.86,2.49 1.68,5.54 0.1,8.13 l -0.77,0.25 c -0.04,-1.02 -0.09,-2.03 -0.14,-3.04 -0.34,-0.01 -1.04,-0.03 -1.39,-0.04 -0.49,-0.02 -1.48,-0.06 -1.98,-0.08 -0.36,-0.62 -1.08,-1.85 -1.44,-2.47 z"
         id="path82" /></g><g
       id="#545e747a"><path
         fill="#545e74"
         opacity="0.48"
         d="m 38.36,123.28 c 7.2,-1.89 14.64,-2.58 22.03,-3.28 6.4,0.34 12.76,1.08 19.1,1.95 5.09,1.05 10.24,1.87 15.18,3.52 l -1.15,-0.06 c -5.96,-0.5 -11.71,-2.39 -17.67,-2.95 -14.03,-2.14 -28.78,-1.75 -42,3.88 1.46,-1.08 2.95,-2.12 4.51,-3.06 z"
         id="path83" /></g><g
       id="#256787ff"><path
         fill="#256787"
         opacity="1"
         d="m 131.68,127.02 c 1.66,-2.01 3.29,-4.04 4.96,-6.04 0.35,0.46 1.06,1.37 1.42,1.83 -1.19,1.44 -2.4,2.86 -3.66,4.24 -0.68,-0.01 -2.04,-0.03 -2.72,-0.03 z"
         id="path84" /></g><g
       id="#bbc0f5fc"><path
         fill="#bbc0f5"
         opacity="1"
         d="m 22.83,127.8 c 3.86,-4.11 10.08,-5.53 15.53,-4.52 -1.56,0.94 -3.05,1.98 -4.51,3.06 -2.93,1.98 -5.16,4.74 -7.22,7.57 l -1.14,1.01 c -0.67,4.13 0.41,8.24 1.28,12.26 -1.22,-1.5 -2.24,-4.34 -4.68,-3.45 -1.96,-5 -2.41,-11.32 0.74,-15.93 z"
         id="path85" /></g><g
       id="#392fb0d4"><path
         fill="#392fb0"
         opacity="0.83"
         d="m 5.27,128.66 c 1.1,-0.75 2.28,-1.38 3.52,-1.85 -1.47,2.54 -3.27,4.87 -4.85,7.34 l -0.06,0.74 c -0.52,0.37 -1.56,1.11 -2.08,1.48 1.07,-2.6 1.85,-5.37 3.47,-7.71 z"
         id="path86" /></g><g
       id="#1d256dff"><path
         fill="#1d256d"
         opacity="1"
         d="m 8.79,126.81 c 0.36,0.62 1.08,1.85 1.44,2.47 -0.42,0.79 -0.81,1.59 -1.19,2.4 0.51,-0.1 1.53,-0.31 2.04,-0.41 0.28,-0.48 0.85,-1.43 1.13,-1.91 0.35,0.01 1.05,0.03 1.39,0.04 0.05,1.01 0.1,2.02 0.14,3.04 -1.26,0.46 -2.68,0.63 -3.79,1.43 -0.82,1.02 -1.59,2.07 -2.36,3.13 -1.26,-0.9 -2.46,-1.87 -3.65,-2.85 1.58,-2.47 3.38,-4.8 4.85,-7.34 z"
         id="path87" /></g><g
       id="#2e90adff"><path
         fill="#2e90ad"
         opacity="1"
         d="m 131.68,127.02 c 0.68,0 2.04,0.02 2.72,0.03 -1.4,1.63 -2.61,3.42 -3.8,5.21 -0.11,0.14 -0.35,0.42 -0.47,0.56 l -1.51,0.85 c -0.01,-0.79 -0.05,-2.36 -0.06,-3.15 1.02,-1.18 2.06,-2.35 3.12,-3.5 z"
         id="path88" /></g><g
       id="#13349fff"><path
         fill="#13349f"
         opacity="1"
         d="m 117.66,129.2 c 2.53,1.15 4.92,2.61 7.46,3.72 1.27,-0.61 2.37,-1.5 3.44,-2.4 0.01,0.79 0.05,2.36 0.06,3.15 -2.74,3.08 -5.59,6.11 -7.75,9.65 -1.49,1.64 -2.98,3.26 -4.51,4.84 -0.32,-0.5 -0.96,-1.5 -1.28,-2 1.08,-1.78 2.15,-3.56 3.19,-5.36 -0.6,0.03 -1.78,0.09 -2.37,0.12 2.65,-2.04 5.32,-4.07 8.01,-6.06 -1.26,-0.62 -2.52,-1.23 -3.8,-1.81 -0.79,-0.38 -1.57,-0.76 -2.35,-1.14 -0.03,-0.68 -0.07,-2.03 -0.1,-2.71 z"
         id="path89" /></g><g
       id="#e8dbd1ff"><path
         fill="#e8dbd1"
         opacity="1"
         d="m 228.87,137.35 c 2.27,-1.98 4.62,-3.87 7.01,-5.71 l 1.3,0.9 c -5.16,6.51 -11.77,11.75 -18.94,15.9 -0.41,0.07 -1.22,0.2 -1.63,0.26 -3.05,-0.14 -6.07,0.26 -8.92,1.35 l -0.02,-0.18 c -0.02,-0.39 -0.06,-1.16 -0.08,-1.55 6.21,-0.73 11.15,-4.86 16.61,-7.5 1.71,-0.93 3.2,-2.2 4.67,-3.47 z"
         id="path90" /></g><g
       id="#509e8dff"><path
         fill="#509e8d"
         opacity="1"
         d="m 128.62,133.67 1.51,-0.85 c -2.07,4.3 -5.59,7.57 -9.26,10.5 2.16,-3.54 5.01,-6.57 7.75,-9.65 z"
         id="path91" /></g><g
       id="#ebd2ecfe"><path
         fill="#ebd2ec"
         opacity="1"
         d="m 25.49,134.92 1.14,-1.01 c -2.79,6.86 1.21,14.46 6.26,19.14 3.28,3.09 6.4,6.6 10.66,8.36 3.48,2.06 7.24,3.6 11.11,4.77 l 1.05,0.33 c -2.81,0.19 -5.57,0.77 -8.34,1.25 l -0.51,0.06 c -1.03,-1.83 -2.91,-2.67 -4.96,-2.41 -1.54,-0.86 -3.07,-1.73 -4.58,-2.63 -2.58,-1.81 -5.04,-3.79 -7.52,-5.73 -2.14,-1.97 -4.14,-4.11 -5.72,-6.56 0.21,-0.5 0.63,-1.5 0.83,-2 0.56,0.04 1.67,0.12 2.23,0.16 -0.09,-0.37 -0.28,-1.1 -0.37,-1.47 -0.87,-4.02 -1.95,-8.13 -1.28,-12.26 z"
         id="path92" /></g><g
       id="#d1d970fe"><path
         fill="#d1d970"
         opacity="1"
         d="m 130.21,139.95 c 0.78,-1.78 1.92,-3.33 3.46,-4.52 4.51,3.41 10.25,4.31 15.44,6.23 l 0.5,0.2 c 1.19,0.66 2.37,1.35 3.58,1.98 -0.19,0.5 -0.57,1.48 -0.76,1.97 -5.18,-1.91 -10.1,-4.65 -15.54,-5.84 -1.5,-0.6 -2.93,-1.56 -4.58,-1.66 -0.7,1.99 2.56,2.83 3.77,3.98 -1.92,-0.86 -3.88,-1.65 -5.87,-2.34 z"
         id="path93" /></g><g
       id="#3d40959c"><path
         fill="#3d4095"
         opacity="0.61"
         d="m 2.41,138.05 c 0.5,1.14 1.01,2.35 0.78,3.63 -1.83,0.44 -2,-2.82 -0.78,-3.63 z"
         id="path94" /></g><g
       id="#02026eff"><path
         fill="#02026e"
         opacity="1"
         d="m 132.31,138.31 c 1.65,0.1 3.08,1.06 4.58,1.66 8.21,4.76 17.06,8.39 26.21,10.9 1.58,0.45 3.17,0.92 4.76,1.35 3.15,0.98 6.39,1.72 9.68,2.05 -0.91,0.7 -1.82,1.39 -2.75,2.06 -5.67,-1.26 -11.27,-2.82 -16.92,-4.18 -7.71,-2.13 -14.74,-6.15 -21.79,-9.86 -1.21,-1.15 -4.47,-1.99 -3.77,-3.98 z"
         id="path95" /><path
         fill="#02026e"
         opacity="1"
         d="m 84.95,165.64 c 1.17,-1.67 3.2,-2.24 5.05,-1.31 -1.31,1.41 -3.21,1.83 -5.05,1.31 z"
         id="path96" /></g><g
       id="#f1f1ebf4"><path
         fill="#f1f1eb"
         opacity="0.96"
         d="m 128.92,140.44 c 0.32,-0.12 0.97,-0.37 1.29,-0.49 1.99,0.69 3.95,1.48 5.87,2.34 7.05,3.71 14.08,7.73 21.79,9.86 -0.73,0.16 -2.19,0.48 -2.92,0.64 -2.87,-0.2 -5.39,-1.65 -8,-2.7 -5.56,-1.84 -10.87,-4.47 -15.94,-7.34 -0.72,-0.75 -1.41,-1.53 -2.09,-2.31 z"
         id="path97" /></g><g
       id="#f3f0cdff"><path
         fill="#f3f0cd"
         opacity="1"
         d="m 136.89,139.97 c 5.44,1.19 10.36,3.93 15.54,5.84 0.19,-0.49 0.57,-1.47 0.76,-1.97 2.61,1.1 5.29,2 7.98,2.86 0.64,1.39 1.28,2.78 1.93,4.17 -9.15,-2.51 -18,-6.14 -26.21,-10.9 z"
         id="path98" /></g><g
       id="#e08081ff"><path
         fill="#e08081"
         opacity="1"
         d="m 206.46,146.84 c 5.15,-2.34 10.03,-5.39 15.49,-7 0.56,0.25 1.69,0.74 2.25,0.98 -5.46,2.64 -10.4,6.77 -16.61,7.5 -0.28,-0.37 -0.85,-1.11 -1.13,-1.48 z"
         id="path99" /></g><g
       id="#23396aff"><path
         fill="#23396a"
         opacity="1"
         d="m 115.9,140.92 c 0.59,-0.03 1.77,-0.09 2.37,-0.12 -1.04,1.8 -2.11,3.58 -3.19,5.36 0.32,0.5 0.96,1.5 1.28,2 -3.47,3.84 -7.75,6.75 -11.79,9.93 -1.93,-1.71 -3.7,-3.6 -5.35,-5.59 3.9,-2.97 8.73,-4.76 11.86,-8.65 1.66,-0.88 3.26,-1.88 4.82,-2.93 z"
         id="path100" /></g><g
       id="#666a6b77"><path
         fill="#666a6b"
         opacity="0.47"
         d="m 149.61,141.86 c 3.26,0.8 6.42,1.96 9.56,3.16 11.06,3.76 22.92,5.54 34.56,3.89 l 0.01,0.79 c -10.89,1.66 -22.07,0.08 -32.57,-3 -2.69,-0.86 -5.37,-1.76 -7.98,-2.86 -1.21,-0.63 -2.39,-1.32 -3.58,-1.98 z"
         id="path101" /></g><g
       id="#ffffffff"><path
         fill="#ffffff"
         opacity="1"
         d="m 3.14,142.96 c 1.68,3.52 4.08,6.59 6.51,9.61 3.82,3.82 8.13,7.16 12.78,9.95 3.95,2.43 8.29,4.14 12.6,5.83 2.5,0.89 5.05,1.68 7.61,2.38 0.32,0.09 0.95,0.27 1.26,0.36 6.1,2.51 12.62,3.31 19.15,3.46 1.68,0.14 3.36,0.3 5.04,0.44 0.09,0.7 0.27,2.08 0.36,2.77 -4.55,-0.16 -9.1,0.1 -13.65,-0.21 0.02,-0.58 0.04,-1.73 0.05,-2.3 -1.35,0 -2.7,0 -4.04,0 -1.22,-0.7 -2.58,-0.94 -3.95,-1.11 -1.21,-0.62 -2.54,-0.8 -3.88,-0.9 -5.68,-2.52 -11.6,-4.54 -16.84,-7.95 -3.58,-2.4 -7.56,-4.01 -11.08,-6.41 -1.59,-1.74 -3.17,-3.57 -5.28,-4.71 -0.95,-1.92 -1.94,-3.97 -3.99,-4.92 -0.81,-2.13 -1.76,-4.2 -2.65,-6.29 z"
         id="path102" /></g><g
       id="#c99cedf8"><path
         fill="#c99ced"
         opacity="0.97"
         d="m 22.09,143.73 c 2.44,-0.89 3.46,1.95 4.68,3.45 0.09,0.37 0.28,1.1 0.37,1.47 -0.56,-0.04 -1.67,-0.12 -2.23,-0.16 -0.97,-1.57 -1.93,-3.14 -2.82,-4.76 z"
         id="path103" /></g><g
       id="#626b92b3"><path
         fill="#626b92"
         opacity="0.7"
         d="m 104.04,148.04 c 2.27,-1.53 4.63,-2.91 7.04,-4.19 -3.13,3.89 -7.96,5.68 -11.86,8.65 -6.09,3.47 -12.49,6.4 -18.93,9.16 -2.1,0.72 -4.23,1.34 -6.36,1.97 -6.2,2.12 -12.76,2.65 -19.27,2.55 -3.87,-1.17 -7.63,-2.71 -11.11,-4.77 1.6,0.42 3.2,0.87 4.75,1.47 6.46,2.89 13.84,2.28 20.66,1.29 12.51,-3.29 24.33,-8.98 35.08,-16.13 z"
         id="path104" /><path
         fill="#626b92"
         opacity="0.7"
         d="m 209.26,154.58 c 4.4,-1.23 8.54,-3.2 12.8,-4.82 -1.06,0.75 -2.13,1.5 -3.28,2.1 -10.03,4.27 -20.83,7.18 -31.82,6.62 -9.92,0.29 -19.64,-1.87 -29.21,-4.23 -1.01,-0.34 -1.95,-0.82 -2.8,-1.46 0.73,-0.16 2.19,-0.48 2.92,-0.64 5.65,1.36 11.25,2.92 16.92,4.18 1.67,0.37 3.34,0.69 5.04,0.93 4.47,0.69 9.11,1.31 13.53,-0.06 5.32,-0.77 10.76,-0.86 15.9,-2.62 z"
         id="path105" /></g><g
       id="#d3d9dfff"><path
         fill="#d3d9df"
         opacity="1"
         d="m 161.17,146.7 c 10.5,3.08 21.68,4.66 32.57,3 0.01,0.66 0.03,1.98 0.04,2.63 1.68,0.93 3.5,1.56 5.37,1.98 -2.64,0.36 -5.31,0.51 -7.97,0.4 -0.74,-0.04 -2.21,-0.14 -2.94,-0.18 -6.75,-1.1 -13.54,-1.98 -20.38,-2.31 -1.59,-0.43 -3.18,-0.9 -4.76,-1.35 -0.65,-1.39 -1.29,-2.78 -1.93,-4.17 z"
         id="path106" /></g><g
       id="#e7bfdcfd"><path
         fill="#e7bfdc"
         opacity="1"
         d="m 193.73,148.91 c 2.82,0.18 5.62,-0.19 8.34,-0.93 -0.22,0.42 -0.66,1.28 -0.88,1.71 1.6,1.03 3.17,2.11 4.65,3.32 -2.23,0.46 -4.44,0.98 -6.69,1.3 -1.87,-0.42 -3.69,-1.05 -5.37,-1.98 -0.01,-0.65 -0.03,-1.97 -0.04,-2.63 l -0.01,-0.79 m 2.37,2.26 c 0.25,1.14 0.85,1.88 1.83,2.23 2.42,0.29 2.13,-1.7 1.96,-3.41 -1.26,0.4 -2.53,0.79 -3.79,1.18 z"
         id="path107" /></g><g
       id="#be5b8bff"><path
         fill="#be5b8b"
         opacity="1"
         d="m 207.69,150.05 c 2.85,-1.09 5.87,-1.49 8.92,-1.35 -2.45,1.42 -5,2.66 -7.72,3.42 -0.3,-0.51 -0.9,-1.55 -1.2,-2.07 z"
         id="path108" /></g><g
       id="#ee9eb4ff"><path
         fill="#ee9eb4"
         opacity="1"
         d="m 196.1,151.17 c 1.26,-0.39 2.53,-0.78 3.79,-1.18 0.17,1.71 0.46,3.7 -1.96,3.41 -0.98,-0.35 -1.58,-1.09 -1.83,-2.23 z"
         id="path109" /></g><g
       id="#6f84beff"><path
         fill="#6f84be"
         opacity="1"
         d="m 167.86,152.22 c 6.84,0.33 13.63,1.21 20.38,2.31 -3.57,0.01 -7.14,0.08 -10.7,-0.26 -3.29,-0.33 -6.53,-1.07 -9.68,-2.05 z"
         id="path110" /></g><g
       id="#202763fe"><path
         fill="#202763"
         opacity="1"
         d="m 80.29,161.66 c 6.44,-2.76 12.84,-5.69 18.93,-9.16 1.65,1.99 3.42,3.88 5.35,5.59 -5.06,1.65 -9.14,5.61 -14.57,6.24 -1.85,-0.93 -3.88,-0.36 -5.05,1.31 -1.53,0.9 -3.05,1.82 -4.54,2.77 -0.14,0.01 -0.42,0.03 -0.56,0.04 -1.01,-0.22 -3.02,-0.66 -4.03,-0.88 1.59,-1.89 3.11,-3.84 4.47,-5.91 z"
         id="path111" /></g><g
       id="#242de5ff"><path
         fill="#242de5"
         opacity="1"
         d="m 199.15,154.31 c 2.25,-0.32 4.46,-0.84 6.69,-1.3 0.99,0.82 2.13,1.34 3.42,1.57 -5.14,1.76 -10.58,1.85 -15.9,2.62 -1.85,0.03 -3.7,0.01 -5.54,0.01 1.11,-0.83 2.23,-1.66 3.36,-2.5 2.66,0.11 5.33,-0.04 7.97,-0.4 z"
         id="path112" /></g><g
       id="#0e1babff"><path
         fill="#0e1bab"
         opacity="1"
         d="m 177.54,154.27 c 3.56,0.34 7.13,0.27 10.7,0.26 0.73,0.04 2.2,0.14 2.94,0.18 -1.13,0.84 -2.25,1.67 -3.36,2.5 -2.67,0 -5.33,0.08 -7.99,0.05 -1.7,-0.24 -3.37,-0.56 -5.04,-0.93 0.93,-0.67 1.84,-1.36 2.75,-2.06 z"
         id="path113" /></g><g
       id="#1022d3ff"><path
         fill="#1022d3"
         opacity="1"
         d="m 24.96,156.34 c 1.54,0.61 3.16,1.37 4.84,0.71 2.48,1.94 4.94,3.92 7.52,5.73 -0.45,0.18 -1.36,0.52 -1.81,0.69 -0.24,1.62 -0.35,3.25 -0.48,4.88 -4.31,-1.69 -8.65,-3.4 -12.6,-5.83 0.93,-0.14 2.79,-0.42 3.72,-0.56 -0.87,-1.32 -1.73,-2.65 -2.59,-3.97 0.35,-0.42 1.05,-1.24 1.4,-1.65 z"
         id="path114" /></g><g
       id="#4634c0de"><path
         fill="#4634c0"
         opacity="0.87"
         d="m 179.83,157.26 c 2.66,0.03 5.32,-0.05 7.99,-0.05 1.84,0 3.69,0.02 5.54,-0.01 -4.42,1.37 -9.06,0.75 -13.53,0.06 z"
         id="path115" /></g><g
       id="#1665ebff"><path
         fill="#1665eb"
         opacity="1"
         d="m 90,164.33 c 5.43,-0.63 9.51,-4.59 14.57,-6.24 l -0.91,0.77 c -2.75,2.02 -5.77,3.6 -8.82,5.08 -3.54,1.35 -7.11,2.62 -10.68,3.9 -0.94,0.14 -2.81,0.43 -3.75,0.57 1.49,-0.95 3.01,-1.87 4.54,-2.77 1.84,0.52 3.74,0.1 5.05,-1.31 z"
         id="path116" /><path
         fill="#1665eb"
         opacity="1"
         d="m 54.66,166.18 c 6.51,0.1 13.07,-0.43 19.27,-2.55 -0.07,0.66 -0.21,2 -0.28,2.67 -1.76,0.88 -3.49,1.81 -5.16,2.84 -4.33,-0.48 -8.61,-1.36 -12.78,-2.63 z"
         id="path117" /></g><g
       id="#e2e8d9ff"><path
         fill="#e2e8d9"
         opacity="1"
         d="m 103.66,158.86 c 0.55,0.03 1.67,0.09 2.22,0.11 -0.1,0.71 -0.3,2.14 -0.4,2.85 l -0.04,0.32 c -7.21,4.76 -15.02,8.86 -23.51,10.72 -0.52,-0.35 -1.54,-1.04 -2.05,-1.38 4.29,-0.72 8.35,-2.37 12.13,-4.48 1.34,-0.59 2.11,-1.86 2.83,-3.06 3.05,-1.48 6.07,-3.06 8.82,-5.08 z"
         id="path118" /></g><g
       id="#193bcdfd"><path
         fill="#193bcd"
         opacity="1"
         d="m 73.93,163.63 c 2.13,-0.63 4.26,-1.25 6.36,-1.97 -1.36,2.07 -2.88,4.02 -4.47,5.91 1.01,0.22 3.02,0.66 4.03,0.88 -3.65,1.3 -7.57,1 -11.36,0.69 1.67,-1.03 3.4,-1.96 5.16,-2.84 0.07,-0.67 0.21,-2.01 0.28,-2.67 z"
         id="path119" /></g><g
       id="#1b23b1ff"><path
         fill="#1b23b1"
         opacity="1"
         d="m 35.51,163.47 c 0.45,-0.17 1.36,-0.51 1.81,-0.69 1.51,0.9 3.04,1.77 4.58,2.63 0.94,1.84 2.84,3.14 4.96,2.41 l 0.51,-0.06 c 0.36,0.56 1.07,1.69 1.43,2.25 -2.05,0.26 -4.1,0.54 -6.16,0.72 -2.56,-0.7 -5.11,-1.49 -7.61,-2.38 0.13,-1.63 0.24,-3.26 0.48,-4.88 z"
         id="path120" /></g><g
       id="#7180ebfa"><path
         fill="#7180eb"
         opacity="0.98"
         d="m 41.9,165.41 c 2.05,-0.26 3.93,0.58 4.96,2.41 -2.12,0.73 -4.02,-0.57 -4.96,-2.41 z"
         id="path121" /></g><g
       id="#e0e78cff"><path
         fill="#e0e78c"
         opacity="1"
         d="m 84.16,167.84 c 3.57,-1.28 7.14,-2.55 10.68,-3.9 -0.72,1.2 -1.49,2.47 -2.83,3.06 -3.78,2.11 -7.84,3.76 -12.13,4.48 0.12,-0.49 0.35,-1.48 0.46,-1.97 1.26,-0.6 2.53,-1.16 3.82,-1.67 z"
         id="path122" /></g></g></svg>
