<?xml version="1.0" encoding="UTF-8" standalone="no"?>
<svg
   width="64"
   height="64"
   viewBox="0 0 16.933 16.933"
   version="1.1"
   id="svg5"
   sodipodi:docname="wine-winecfg.svg"
   inkscape:version="1.4.2 (ebf0e940d0, 2025-05-08)"
   xmlns:inkscape="http://www.inkscape.org/namespaces/inkscape"
   xmlns:sodipodi="http://sodipodi.sourceforge.net/DTD/sodipodi-0.dtd"
   xmlns="http://www.w3.org/2000/svg"
   xmlns:svg="http://www.w3.org/2000/svg">
  <defs
     id="defs5" />
  <sodipodi:namedview
     id="namedview5"
     pagecolor="#ffffff"
     bordercolor="#000000"
     borderopacity="0.25"
     inkscape:showpageshadow="2"
     inkscape:pageopacity="0.0"
     inkscape:pagecheckerboard="0"
     inkscape:deskcolor="#d1d1d1"
     inkscape:zoom="9.171875"
     inkscape:cx="31.945486"
     inkscape:cy="32"
     inkscape:window-width="1440"
     inkscape:window-height="827"
     inkscape:window-x="0"
     inkscape:window-y="0"
     inkscape:window-maximized="1"
     inkscape:current-layer="svg5" />
  <circle
     cx="8.466"
     cy="8.466"
     r="7.144"
     fill="#2196f3"
     style="paint-order:stroke fill markers"
     id="circle1" />
  <g
     id="g6"
     transform="translate(0.09239989,-0.00901437)">
    <path
       id="rect4"
       style="opacity:1;fill:#ffffff;stroke-width:0.264578"
       d="M 4.730855,4.7885485 H 8.0193763 V 8.2789962 H 4.730855 Z" />
    <path
       id="rect5"
       style="opacity:1;fill:#ffffff;stroke-width:0.264578"
       d="M 8.5386171,4.730855 H 11.827138 V 8.221303 H 8.5386171 Z" />
    <path
       id="rect4-6"
       style="opacity:1;fill:#ffffff;stroke-width:0.264578"
       d="M 4.7096705,8.6625681 H 7.9981918 V 12.153016 H 4.7096705 Z" />
    <path
       id="rect5-7"
       style="opacity:1;fill:#ffffff;stroke-width:0.264578"
       d="M 8.5462799,8.7202616 H 11.834801 V 12.21071 H 8.5462799 Z" />
  </g>
  <g
     paint-order="stroke markers fill"
     transform="translate(.982 -279.17)"
     id="g5">
    <circle
       cx="11.718"
       cy="291.87"
       r="3.175"
       fill="#f55"
       id="circle2" />
    <circle
       cx="11.718"
       cy="291.87"
       r="1.588"
       opacity=".15"
       id="circle3" />
    <g
       fill="#fff"
       id="g4">
      <path
         d="M11.718 290.522a1.343 1.343 0 0 0-1.343 1.344 1.343 1.343 0 0 0 1.343 1.343 1.343 1.343 0 0 0 1.343-1.343 1.343 1.343 0 0 0-1.343-1.344m0 .61a.733.733 0 0 1 .733.734.733.733 0 0 1-.733.732.733.733 0 0 1-.733-.732.733.733 0 0 1 .733-.733z"
         id="path3" />
      <path
         d="M11.474 289.973h.488v.854h-.488zm0 2.93h.488v.855h-.488zm2.137-1.282v.489h-.855v-.489zm-2.931 0v.489h-.855v-.489zm2.55 1.41-.346.346-.604-.605.345-.345zm-2.073-2.072-.345.345-.605-.604.345-.345zm-.605 2.418-.345-.346.605-.604.345.345zm2.073-2.073-.345-.345.604-.604.345.345z"
         id="path4" />
    </g>
  </g>
</svg>
