<?xml version="1.0" encoding="UTF-8" standalone="no"?>
<svg
   width="64"
   height="64"
   viewBox="0 0 16.933 16.933"
   version="1.1"
   id="svg6"
   sodipodi:docname="wine-winefile.svg"
   inkscape:version="1.4.2 (ebf0e940d0, 2025-05-08)"
   xmlns:inkscape="http://www.inkscape.org/namespaces/inkscape"
   xmlns:sodipodi="http://sodipodi.sourceforge.net/DTD/sodipodi-0.dtd"
   xmlns="http://www.w3.org/2000/svg"
   xmlns:svg="http://www.w3.org/2000/svg">
  <sodipodi:namedview
     id="namedview6"
     pagecolor="#ffffff"
     bordercolor="#000000"
     borderopacity="0.25"
     inkscape:showpageshadow="2"
     inkscape:pageopacity="0.0"
     inkscape:pagecheckerboard="0"
     inkscape:deskcolor="#d1d1d1"
     inkscape:zoom="9.171875"
     inkscape:cx="31.945486"
     inkscape:cy="32"
     inkscape:window-width="1440"
     inkscape:window-height="827"
     inkscape:window-x="0"
     inkscape:window-y="0"
     inkscape:window-maximized="1"
     inkscape:current-layer="svg6" />
  <defs
     id="defs2">
    <linearGradient
       id="a"
       x1="42"
       x2="44"
       y1="51"
       y2="55"
       gradientTransform="scale(.26458)"
       gradientUnits="userSpaceOnUse">
      <stop
         offset="0"
         id="stop1" />
      <stop
         offset="1"
         stop-opacity="0"
         id="stop2" />
    </linearGradient>
  </defs>
  <circle
     cx="8.466"
     cy="8.466"
     r="7.408"
     fill="#5677fc"
     style="paint-order:stroke fill markers"
     id="circle2" />
  <path
     fill="url(#a)"
     d="m15.164 11.613-7.327 4.23a7 7 0 0 0 .63.032 7.41 7.41 0 0 0 6.697-4.262"
     opacity=".1"
     style="paint-order:stroke fill markers"
     id="path2" />
  <path
     d="M8.466 1.058a7.41 7.41 0 0 0-6.692 4.234h5.052l.318-.53c.15-.251.443-.529.793-.529h6.608a7.41 7.41 0 0 0-6.079-3.175"
     opacity=".2"
     id="path3" />
  <path
     fill="#fff"
     d="M4.278 3.704a6.4 6.4 0 0 0-1.29 1.588h3.838l.318-.53c.15-.251.443-.529.793-.529h5.244a6 6 0 0 0-.523-.529z"
     style="paint-order:stroke fill markers"
     id="path4" />
  <path
     d="M8.467 1.058A7.4 7.4 0 0 0 3.58 2.91h9.776a7.4 7.4 0 0 0-4.89-1.852z"
     opacity=".15"
     style="paint-order:stroke fill markers"
     id="path5" />
  <rect
     width="3.969"
     height=".529"
     x="9.26"
     y="4.762"
     opacity=".25"
     ry=".265"
     style="paint-order:stroke markers fill"
     id="rect5" />
  <g
     id="g6"
     transform="matrix(0.78403138,0,0,0.78403138,2.2918113,2.9720223)">
    <path
       id="rect4"
       style="opacity:1;fill:#ffffff;stroke-width:0.264578"
       d="M 4.730855,4.7885485 H 8.0193763 V 8.2789962 H 4.730855 Z" />
    <path
       id="rect5-2"
       style="opacity:1;fill:#ffffff;stroke-width:0.264578"
       d="M 8.5386171,4.730855 H 11.827138 V 8.221303 H 8.5386171 Z" />
    <path
       id="rect4-6"
       style="opacity:1;fill:#ffffff;stroke-width:0.264578"
       d="M 4.7096705,8.6625681 H 7.9981918 V 12.153016 H 4.7096705 Z" />
    <path
       id="rect5-7"
       style="opacity:1;fill:#ffffff;stroke-width:0.264578"
       d="M 8.5462799,8.7202616 H 11.834801 V 12.21071 H 8.5462799 Z" />
  </g>
</svg>
