<?xml version="1.0" encoding="UTF-8" ?>
<!DOCTYPE svg PUBLIC "-//W3C//DTD SVG 1.1//EN" "http://www.w3.org/Graphics/SVG/1.1/DTD/svg11.dtd">
<svg width="256pt" height="256pt" viewBox="0 0 256 256" version="1.1" xmlns="http://www.w3.org/2000/svg">
<g id="#414040ec">
<path fill="#414040" opacity="0.93" d=" M 236.22 14.91 C 240.41 12.40 243.90 8.71 248.47 6.89 C 247.64 11.54 243.70 14.43 241.23 18.16 C 237.08 25.16 232.09 31.62 227.06 38.00 C 223.96 42.88 221.37 48.07 218.15 52.88 C 217.34 54.46 215.67 56.14 216.56 58.04 C 218.23 61.95 220.36 65.66 222.30 69.44 C 225.40 74.35 225.10 80.43 225.40 86.01 C 225.86 90.86 223.36 95.20 222.07 99.72 C 221.03 102.60 220.57 105.95 218.21 108.12 C 215.90 110.30 213.34 112.20 210.66 113.89 C 213.63 110.40 218.43 108.35 219.82 103.70 C 220.93 100.34 223.06 96.81 221.69 93.22 C 220.16 88.62 220.49 83.78 220.45 79.02 C 220.24 71.17 215.42 64.58 212.79 57.45 C 211.18 51.74 215.25 46.63 218.02 42.03 C 222.10 35.15 228.89 30.15 231.85 22.57 C 229.10 24.17 226.55 26.09 224.15 28.17 C 219.80 31.95 214.73 34.72 209.94 37.86 C 207.68 39.24 205.44 40.84 202.82 41.42 C 198.33 42.19 193.92 40.59 189.80 39.00 C 184.06 36.71 178.14 34.70 171.99 33.90 C 167.48 33.23 163.10 34.80 158.79 35.88 C 160.99 36.75 163.22 37.57 165.44 38.39 C 161.37 41.89 156.51 44.18 151.95 46.92 C 146.84 49.97 144.82 55.86 141.18 60.25 C 139.88 61.89 137.52 61.65 135.71 62.27 C 134.37 53.71 141.03 46.68 147.84 42.64 C 147.19 43.50 146.55 44.36 145.87 45.19 C 141.74 49.36 136.50 53.80 137.20 60.36 C 142.59 57.90 143.95 51.30 148.58 47.83 C 152.42 44.99 156.69 42.72 160.15 39.37 C 155.82 39.47 151.82 41.14 147.84 42.64 C 150.59 40.74 153.33 38.82 156.04 36.85 C 153.83 35.66 151.45 33.44 148.77 34.64 C 146.37 36.66 144.56 39.25 142.35 41.46 C 145.01 37.88 146.91 32.79 152.00 32.25 C 158.03 31.20 163.64 27.36 169.92 28.43 C 175.35 29.22 181.34 28.76 186.05 32.06 C 190.55 34.33 194.74 38.14 200.10 37.78 C 204.93 34.07 211.14 32.77 215.90 28.94 C 222.39 23.83 230.14 20.56 236.22 14.91 Z" />
<path fill="#414040" opacity="0.93" d=" M 23.61 23.07 C 29.30 24.42 32.41 29.76 35.85 33.98 C 39.31 38.84 43.35 43.26 46.72 48.17 C 49.44 52.05 49.24 57.41 47.03 61.49 C 47.37 57.42 48.11 52.86 45.73 49.23 C 42.92 44.76 39.16 41.00 35.96 36.83 C 33.57 33.67 30.89 30.74 27.85 28.19 C 30.08 31.66 32.41 35.06 34.69 38.49 C 33.95 38.52 32.46 38.58 31.71 38.61 C 34.18 43.30 36.79 47.92 39.05 52.72 C 39.55 54.07 40.42 55.45 40.14 56.95 C 38.76 63.62 32.32 68.08 31.66 74.99 C 31.20 79.36 30.11 83.64 29.77 88.01 C 30.24 92.85 32.30 97.36 33.86 101.93 C 35.35 106.43 39.73 108.84 42.93 112.00 C 47.65 116.69 54.39 118.04 60.30 120.59 C 67.82 123.75 76.09 124.00 83.80 126.39 C 83.73 126.74 83.61 127.44 83.54 127.79 C 78.74 129.51 73.47 129.10 68.52 130.19 C 59.42 132.33 49.98 133.95 41.99 139.14 C 47.99 133.62 56.30 132.34 63.83 130.12 C 68.56 126.93 74.90 130.00 79.84 127.00 C 75.55 124.70 70.46 125.36 65.96 123.68 C 60.03 121.41 54.01 119.32 48.25 116.64 C 44.09 114.76 41.38 110.90 37.71 108.33 C 35.61 106.57 32.55 105.11 32.46 101.97 C 31.68 97.22 29.81 92.76 28.75 88.10 C 29.01 82.76 30.35 77.51 31.03 72.21 C 33.66 66.99 36.90 62.05 39.75 56.92 C 37.14 50.20 33.48 43.97 29.97 37.70 L 29.73 37.05 C 28.13 32.20 25.39 27.85 23.61 23.07 Z" />
<path fill="#414040" opacity="0.93" d=" M 72.77 31.10 C 78.00 29.49 83.56 29.53 88.99 29.47 C 92.51 29.40 95.71 31.03 99.04 31.91 C 102.35 32.96 106.35 33.35 108.35 36.61 C 112.34 42.32 117.49 47.66 118.88 54.72 C 120.32 61.32 124.39 67.47 123.41 74.44 C 121.22 66.74 120.21 58.70 116.90 51.34 C 115.43 47.13 112.15 44.00 109.71 40.36 C 108.16 38.24 106.86 35.57 104.14 34.77 C 99.13 32.91 93.91 31.69 88.85 29.98 C 84.64 30.69 80.38 31.11 76.18 31.92 C 69.38 33.27 63.98 38.26 57.26 39.76 C 56.41 39.31 54.72 38.40 53.87 37.95 C 55.45 38.07 57.03 38.31 58.61 38.47 L 58.75 38.41 C 59.36 38.10 60.59 37.50 61.20 37.20 C 65.37 35.78 68.87 33.05 72.77 31.10 Z" />
<path fill="#414040" opacity="0.93" d=" M 40.49 75.60 C 41.70 72.11 42.94 68.64 44.18 65.16 C 44.26 65.74 44.43 66.88 44.52 67.45 C 43.71 71.91 42.77 77.03 38.93 79.93 C 34.93 79.10 35.63 74.29 35.22 71.24 C 35.75 71.06 36.81 70.72 37.35 70.54 C 37.42 72.22 37.47 73.91 37.52 75.59 C 38.51 75.60 39.50 75.60 40.49 75.60 Z" />
<path fill="#414040" opacity="0.93" d=" M 32.53 87.01 C 32.00 82.83 38.60 81.05 40.03 85.03 C 40.99 87.65 42.96 90.83 41.42 93.54 L 40.93 93.52 C 40.01 90.81 39.21 88.06 38.36 85.33 C 37.33 85.37 35.26 85.44 34.23 85.48 C 34.31 88.45 34.93 91.35 35.85 94.17 C 39.08 99.54 42.53 105.71 49.03 107.53 C 48.59 105.71 48.10 103.90 47.55 102.12 C 50.41 103.68 52.93 105.75 55.62 107.56 C 58.09 109.20 61.19 109.70 63.52 111.56 C 64.91 112.77 64.20 114.82 64.45 116.42 C 55.64 117.45 48.12 111.52 42.23 105.70 C 36.91 100.95 32.82 94.26 32.53 87.01 Z" />
<path fill="#414040" opacity="0.93" d=" M 188.95 122.16 C 192.31 120.56 195.95 119.68 199.67 119.56 C 198.41 120.05 197.19 120.62 195.96 121.17 C 187.44 124.68 178.52 127.12 169.28 127.55 C 169.35 128.01 169.49 128.93 169.56 129.40 C 180.92 129.23 191.62 133.40 202.12 137.26 C 204.22 137.89 205.89 139.33 207.41 140.86 C 205.99 140.07 204.62 139.18 203.30 138.24 C 200.45 137.40 197.54 136.82 194.68 136.06 C 190.05 134.83 185.76 132.50 180.99 131.75 C 176.12 130.92 171.18 130.50 166.30 129.65 C 166.31 128.59 166.32 127.54 166.33 126.49 C 173.86 124.96 181.90 125.60 188.95 122.16 Z" />
<path fill="#414040" opacity="0.93" d=" M 37.41 180.57 C 38.37 172.81 36.00 164.76 38.34 157.21 C 38.80 165.55 40.38 173.94 39.00 182.28 C 39.87 183.03 40.75 183.78 41.63 184.53 C 42.65 192.67 42.13 202.04 35.31 207.69 C 37.20 202.54 40.90 197.79 40.59 192.06 C 40.45 189.76 41.07 187.03 39.28 185.22 C 34.06 185.49 37.53 190.98 37.58 194.05 C 37.09 201.18 31.83 206.69 28.41 212.64 C 24.36 217.80 20.48 223.08 16.10 227.97 C 22.72 217.63 30.71 208.07 35.52 196.66 C 36.58 193.71 33.39 191.48 33.59 188.62 C 33.82 185.85 33.87 183.02 32.90 180.38 C 34.40 180.45 35.91 180.51 37.41 180.57 Z" />
<path fill="#414040" opacity="0.93" d=" M 221.56 161.81 C 224.32 166.21 222.14 171.31 221.71 176.04 C 221.70 184.71 214.31 190.79 212.29 198.86 L 212.39 198.72 C 212.19 198.16 211.79 197.04 211.59 196.48 C 214.32 190.18 220.02 185.13 220.51 177.98 C 221.15 172.61 222.14 167.22 221.56 161.81 Z" />
<path fill="#414040" opacity="0.93" d=" M 119.11 191.01 C 122.12 184.24 120.91 176.51 123.77 169.67 C 124.02 170.20 124.51 171.27 124.76 171.81 C 121.47 176.61 123.32 182.66 121.16 187.81 C 118.99 193.42 117.43 199.24 115.21 204.83 C 113.68 208.80 110.30 211.56 107.86 214.93 C 105.99 217.14 104.83 220.46 101.59 220.96 C 95.74 222.28 90.13 225.22 83.99 224.61 C 78.12 224.14 71.68 224.41 66.60 220.98 C 63.62 219.38 60.70 217.66 57.71 216.08 C 55.51 214.82 52.49 214.76 50.40 216.28 C 46.72 218.57 42.96 220.74 39.04 222.60 C 34.24 225.49 29.64 228.72 25.06 231.95 C 18.48 236.42 11.12 239.95 5.86 246.08 C 5.48 246.18 4.72 246.37 4.33 246.47 C 6.36 239.82 11.03 234.39 15.28 229.05 C 14.19 231.22 13.27 233.48 12.22 235.68 C 10.96 236.62 9.70 237.58 8.45 238.55 C 8.32 239.61 8.18 240.68 8.04 241.75 C 11.11 239.46 14.49 237.66 17.83 235.80 C 25.51 231.02 32.47 225.14 40.41 220.76 C 44.55 218.53 48.42 215.48 53.06 214.37 C 60.92 214.31 66.22 222.05 73.99 222.46 C 78.65 222.85 83.31 223.93 88.00 223.58 C 92.09 222.89 95.99 221.35 99.91 220.02 C 105.16 218.32 107.83 213.07 111.30 209.19 C 115.75 204.05 116.43 197.04 119.11 191.01 Z" />
<path fill="#414040" opacity="0.93" d=" M 136.42 189.59 C 137.47 189.50 138.92 189.32 139.52 190.44 C 142.99 194.84 143.54 201.36 148.53 204.52 C 153.07 207.58 157.10 211.64 162.45 213.30 C 164.68 214.08 168.00 215.03 167.67 218.06 C 167.91 220.88 164.31 221.99 162.04 221.62 C 154.70 220.53 148.26 215.99 143.70 210.28 C 139.60 205.38 135.09 199.72 135.35 192.98 C 135.73 192.00 134.91 189.58 136.42 189.59 M 138.43 196.41 C 138.95 201.17 141.20 205.66 144.62 209.00 C 150.25 214.14 156.42 220.40 164.72 219.83 C 164.70 218.45 164.64 217.08 164.58 215.71 C 160.96 214.67 157.31 213.47 154.17 211.32 C 151.91 207.04 146.60 205.97 143.95 202.05 C 142.40 199.90 140.86 197.65 138.43 196.41 Z" />
<path fill="#414040" opacity="0.93" d=" M 188.58 209.33 C 190.57 205.20 195.85 206.34 199.53 206.74 C 208.87 211.53 215.24 220.37 223.87 226.21 C 226.29 227.69 227.96 229.99 227.97 232.92 C 224.22 233.04 221.97 229.94 219.28 227.88 C 212.96 223.21 207.01 218.03 200.50 213.61 C 198.34 212.21 195.69 212.02 193.27 211.35 C 195.39 210.45 197.70 210.40 199.96 210.25 C 201.30 211.23 202.66 212.20 204.04 213.14 C 203.24 212.01 202.44 210.90 201.63 209.79 C 197.29 209.37 192.88 207.81 188.58 209.33 Z" />
<path fill="#414040" opacity="0.93" d=" M 145.03 219.93 C 141.49 216.07 138.51 211.69 135.43 207.46 C 139.26 210.68 141.90 214.99 145.48 218.42 C 149.74 221.11 154.85 222.01 159.61 223.50 C 164.48 225.03 169.43 223.16 174.31 222.72 C 179.09 222.33 183.48 220.28 187.83 218.43 C 185.45 220.30 182.84 221.87 179.95 222.78 C 178.14 223.84 176.10 224.28 174.03 224.38 C 168.75 224.72 163.23 226.60 158.11 224.41 C 153.86 222.58 149.13 222.03 145.03 219.93 Z" />
</g>
<g id="#000000ff">
<path fill="#000000" opacity="1.00" d=" M 12.76 10.27 C 17.37 9.86 19.59 14.65 23.19 16.61 C 32.36 22.51 40.72 29.60 50.24 34.97 C 52.87 36.62 56.08 36.85 58.75 38.41 L 58.61 38.47 C 57.03 38.31 55.45 38.07 53.87 37.95 C 54.72 38.40 56.41 39.31 57.26 39.76 C 63.98 38.26 69.38 33.27 76.18 31.92 C 80.38 31.11 84.64 30.69 88.85 29.98 C 93.91 31.69 99.13 32.91 104.14 34.77 C 106.86 35.57 108.16 38.24 109.71 40.36 C 112.15 44.00 115.43 47.13 116.90 51.34 C 120.21 58.70 121.22 66.74 123.41 74.44 C 123.89 77.01 123.65 79.64 123.94 82.22 C 124.24 82.80 124.86 83.94 125.17 84.52 C 126.11 90.17 125.38 95.97 126.61 101.62 C 127.45 101.48 128.29 101.35 129.13 101.22 C 130.11 91.55 132.61 82.07 136.03 72.99 C 136.85 70.96 137.02 68.43 135.54 66.65 C 134.32 66.45 133.09 66.33 131.85 66.29 L 130.70 66.20 L 130.19 65.41 C 133.26 57.03 135.50 47.72 142.35 41.46 C 144.56 39.25 146.37 36.66 148.77 34.64 C 151.45 33.44 153.83 35.66 156.04 36.85 C 153.33 38.82 150.59 40.74 147.84 42.64 C 141.03 46.68 134.37 53.71 135.71 62.27 C 137.52 61.65 139.88 61.89 141.18 60.25 C 144.82 55.86 146.84 49.97 151.95 46.92 C 156.51 44.18 161.37 41.89 165.44 38.39 C 163.22 37.57 160.99 36.75 158.79 35.88 C 163.10 34.80 167.48 33.23 171.99 33.90 C 178.14 34.70 184.06 36.71 189.80 39.00 C 193.92 40.59 198.33 42.19 202.82 41.42 C 205.44 40.84 207.68 39.24 209.94 37.86 C 214.73 34.72 219.80 31.95 224.15 28.17 C 226.55 26.09 229.10 24.17 231.85 22.57 C 228.89 30.15 222.10 35.15 218.02 42.03 C 215.25 46.63 211.18 51.74 212.79 57.45 C 215.42 64.58 220.24 71.17 220.45 79.02 C 220.49 83.78 220.16 88.62 221.69 93.22 C 223.06 96.81 220.93 100.34 219.82 103.70 C 218.43 108.35 213.63 110.40 210.66 113.89 C 207.59 116.65 203.82 119.03 199.67 119.56 C 195.95 119.68 192.31 120.56 188.95 122.16 C 181.90 125.60 173.86 124.96 166.33 126.49 C 166.32 127.54 166.31 128.59 166.30 129.65 C 171.18 130.50 176.12 130.92 180.99 131.75 C 185.76 132.50 190.05 134.83 194.68 136.06 C 197.54 136.82 200.45 137.40 203.30 138.24 C 204.62 139.18 205.99 140.07 207.41 140.86 C 211.27 142.97 214.64 145.89 217.94 148.76 C 220.79 152.43 220.30 157.50 221.56 161.81 C 222.14 167.22 221.15 172.61 220.51 177.98 C 220.02 185.13 214.32 190.18 211.59 196.48 C 211.79 197.04 212.19 198.16 212.39 198.72 C 220.11 214.55 231.44 228.26 240.57 243.24 C 236.84 242.59 233.92 240.19 230.96 238.04 C 218.94 229.99 207.33 221.06 193.94 215.38 C 191.64 215.70 189.95 217.60 187.83 218.43 C 183.48 220.28 179.09 222.33 174.31 222.72 C 169.43 223.16 164.48 225.03 159.61 223.50 C 154.85 222.01 149.74 221.11 145.48 218.42 C 141.90 214.99 139.26 210.68 135.43 207.46 C 134.08 205.51 133.49 203.15 132.64 200.95 C 130.81 195.35 128.24 189.98 126.91 184.22 C 125.93 180.12 126.84 175.63 124.76 171.81 C 124.51 171.27 124.02 170.20 123.77 169.67 C 120.91 176.51 122.12 184.24 119.11 191.01 C 116.43 197.04 115.75 204.05 111.30 209.19 C 107.83 213.07 105.16 218.32 99.91 220.02 C 95.99 221.35 92.09 222.89 88.00 223.58 C 83.31 223.93 78.65 222.85 73.99 222.46 C 66.22 222.05 60.92 214.31 53.06 214.37 C 48.42 215.48 44.55 218.53 40.41 220.76 C 32.47 225.14 25.51 231.02 17.83 235.80 C 14.49 237.66 11.11 239.46 8.04 241.75 C 8.18 240.68 8.32 239.61 8.45 238.55 C 9.70 237.58 10.96 236.62 12.22 235.68 C 18.27 232.00 22.60 226.18 26.43 220.36 C 28.88 216.65 32.69 213.79 33.88 209.33 C 34.37 208.79 34.84 208.24 35.31 207.69 C 42.13 202.04 42.65 192.67 41.63 184.53 C 40.75 183.78 39.87 183.03 39.00 182.28 C 40.38 173.94 38.80 165.55 38.34 157.21 C 38.93 155.29 39.68 153.43 40.44 151.57 C 41.53 150.12 42.64 148.69 43.72 147.23 C 45.84 144.25 47.82 141.16 49.97 138.20 C 45.22 140.48 40.80 143.58 37.55 147.76 C 31.99 155.60 29.40 165.47 30.54 175.03 C 31.37 176.79 32.21 178.55 32.90 180.38 C 33.87 183.02 33.82 185.85 33.59 188.62 C 31.47 186.02 30.25 182.88 28.57 180.01 C 28.79 173.94 26.73 167.97 27.53 161.91 C 28.86 156.45 30.96 151.22 32.79 145.91 C 36.14 144.04 38.77 141.19 41.99 139.14 C 49.98 133.95 59.42 132.33 68.52 130.19 C 73.47 129.10 78.74 129.51 83.54 127.79 C 83.61 127.44 83.73 126.74 83.80 126.39 C 76.09 124.00 67.82 123.75 60.30 120.59 C 54.39 118.04 47.65 116.69 42.93 112.00 C 39.73 108.84 35.35 106.43 33.86 101.93 C 32.30 97.36 30.24 92.85 29.77 88.01 C 30.11 83.64 31.20 79.36 31.66 74.99 C 32.32 68.08 38.76 63.62 40.14 56.95 C 40.42 55.45 39.55 54.07 39.05 52.72 C 36.79 47.92 34.18 43.30 31.71 38.61 C 32.46 38.58 33.95 38.52 34.69 38.49 C 37.68 43.06 41.14 47.39 43.43 52.36 C 45.14 59.27 38.77 64.27 37.35 70.54 C 36.81 70.72 35.75 71.06 35.22 71.24 C 35.63 74.29 34.93 79.10 38.93 79.93 C 42.77 77.03 43.71 71.91 44.52 67.45 C 45.24 65.42 46.15 63.46 47.03 61.49 C 49.24 57.41 49.44 52.05 46.72 48.17 C 43.35 43.26 39.31 38.84 35.85 33.98 C 32.41 29.76 29.30 24.42 23.61 23.07 C 25.39 27.85 28.13 32.20 29.73 37.05 C 26.51 32.78 24.02 28.04 21.20 23.50 C 18.62 18.94 15.19 14.93 12.76 10.27 M 170.06 69.92 C 162.44 72.69 157.38 79.30 151.24 84.21 C 146.52 87.84 143.21 92.86 139.05 97.06 C 135.47 100.52 132.90 104.91 131.55 109.71 C 129.29 109.57 127.02 109.43 124.76 109.31 C 122.23 105.19 120.24 100.69 117.00 97.04 C 111.25 90.43 106.17 82.96 98.64 78.19 C 94.61 74.97 89.60 73.44 85.30 70.65 C 81.20 67.83 74.41 69.66 73.61 74.97 C 72.73 82.68 78.83 88.42 81.94 94.84 C 86.02 103.48 93.37 109.87 101.18 115.07 C 104.65 117.17 108.22 119.32 112.29 119.98 C 112.61 120.97 112.92 121.96 113.24 122.95 C 112.98 124.24 112.74 125.52 112.53 126.82 C 112.16 127.41 111.80 128.01 111.45 128.61 C 107.04 129.69 103.78 132.98 99.96 135.20 C 96.50 137.26 93.54 140.04 90.08 142.09 C 86.20 146.59 81.35 150.16 77.84 154.98 C 73.71 160.16 69.66 165.66 67.73 172.08 C 67.17 175.43 66.56 180.04 70.22 181.85 C 74.07 183.62 78.59 182.26 82.09 180.21 C 93.56 173.92 104.35 166.03 112.74 155.93 C 115.77 151.28 118.56 146.44 121.17 141.54 C 120.96 141.23 120.52 140.63 120.31 140.32 C 123.92 140.86 127.57 140.62 131.19 140.31 C 131.71 145.46 134.96 149.58 137.30 154.00 C 140.15 159.14 144.29 163.40 148.59 167.35 C 151.96 170.59 156.66 171.80 160.23 174.76 C 164.12 178.02 169.26 178.93 174.02 180.22 C 176.26 180.88 178.66 179.73 180.23 178.15 C 182.29 175.98 181.74 172.66 181.31 169.99 C 178.52 162.06 173.99 154.84 168.79 148.27 C 163.89 142.23 156.96 138.49 150.72 134.05 C 147.94 132.07 143.95 131.38 142.40 128.03 C 140.96 125.97 141.33 123.42 141.59 121.09 C 146.75 120.45 150.66 116.88 154.81 114.12 C 158.40 111.75 160.97 108.20 164.45 105.69 C 174.99 97.63 182.38 85.80 185.57 72.98 C 184.44 71.05 183.28 69.13 182.18 67.17 C 177.79 65.30 174.12 68.82 170.06 69.92 M 32.53 87.01 C 32.82 94.26 36.91 100.95 42.23 105.70 C 48.12 111.52 55.64 117.45 64.45 116.42 C 64.20 114.82 64.91 112.77 63.52 111.56 C 61.19 109.70 58.09 109.20 55.62 107.56 C 52.93 105.75 50.41 103.68 47.55 102.12 C 46.68 100.52 45.38 99.21 44.20 97.84 C 42.46 97.09 42.52 95.14 42.23 93.56 L 41.42 93.54 C 42.96 90.83 40.99 87.65 40.03 85.03 C 38.60 81.05 32.00 82.83 32.53 87.01 M 136.42 189.59 C 134.91 189.58 135.73 192.00 135.35 192.98 C 135.09 199.72 139.60 205.38 143.70 210.28 C 148.26 215.99 154.70 220.53 162.04 221.62 C 164.31 221.99 167.91 220.88 167.67 218.06 C 168.00 215.03 164.68 214.08 162.45 213.30 C 157.10 211.64 153.07 207.58 148.53 204.52 C 143.54 201.36 142.99 194.84 139.52 190.44 C 138.92 189.32 137.47 189.50 136.42 189.59 M 188.58 209.33 C 184.49 211.38 179.93 212.21 175.92 214.40 C 175.35 214.48 174.22 214.64 173.66 214.72 C 173.62 215.56 173.58 216.40 173.54 217.25 C 176.39 218.64 179.39 218.17 182.32 217.32 C 184.68 215.68 187.18 214.24 189.65 212.78 C 190.85 212.30 192.04 211.78 193.27 211.35 C 195.69 212.02 198.34 212.21 200.50 213.61 C 207.01 218.03 212.96 223.21 219.28 227.88 C 221.97 229.94 224.22 233.04 227.97 232.92 C 227.96 229.99 226.29 227.69 223.87 226.21 C 215.24 220.37 208.87 211.53 199.53 206.74 C 195.85 206.34 190.57 205.20 188.58 209.33 Z" />
</g>
<g id="#9a9191fd">
<path fill="#9a9191" opacity="1.00" d=" M 27.85 28.19 C 30.89 30.74 33.57 33.67 35.96 36.83 C 39.16 41.00 42.92 44.76 45.73 49.23 C 48.11 52.86 47.37 57.42 47.03 61.49 C 46.15 63.46 45.24 65.42 44.52 67.45 C 44.43 66.88 44.26 65.74 44.18 65.16 C 44.49 63.24 44.82 61.32 45.15 59.40 C 42.44 63.04 40.10 66.94 37.35 70.54 C 38.77 64.27 45.14 59.27 43.43 52.36 C 41.14 47.39 37.68 43.06 34.69 38.49 C 32.41 35.06 30.08 31.66 27.85 28.19 Z" />
<path fill="#9a9191" opacity="1.00" d=" M 147.84 42.64 C 151.82 41.14 155.82 39.47 160.15 39.37 C 156.69 42.72 152.42 44.99 148.58 47.83 C 147.67 46.95 146.77 46.07 145.87 45.19 C 146.55 44.36 147.19 43.50 147.84 42.64 Z" />
<path fill="#9a9191" opacity="1.00" d=" M 131.85 66.29 C 133.09 66.33 134.32 66.45 135.54 66.65 C 137.02 68.43 136.85 70.96 136.03 72.99 C 132.61 82.07 130.11 91.55 129.13 101.22 C 128.29 101.35 127.45 101.48 126.61 101.62 C 125.38 95.97 126.11 90.17 125.17 84.52 C 124.86 83.94 124.24 82.80 123.94 82.22 C 124.16 80.10 124.40 77.97 124.65 75.85 C 125.00 78.32 123.09 82.12 126.29 83.24 C 127.10 78.32 127.97 73.41 128.74 68.48 C 129.16 68.45 129.59 68.42 130.02 68.39 C 130.02 67.01 130.63 66.31 131.85 66.29 M 129.57 74.05 C 128.90 79.71 127.24 85.30 127.70 91.06 C 131.59 86.72 131.13 80.51 133.55 75.47 C 134.80 72.79 136.57 69.10 133.14 67.23 C 131.67 69.32 129.72 71.35 129.57 74.05 Z" />
<path fill="#9a9191" opacity="1.00" d=" M 37.55 147.76 C 40.80 143.58 45.22 140.48 49.97 138.20 C 47.82 141.16 45.84 144.25 43.72 147.23 C 42.64 148.69 41.53 150.12 40.44 151.57 C 40.47 150.48 40.53 148.30 40.56 147.20 C 39.81 147.34 38.30 147.62 37.55 147.76 Z" />
<path fill="#9a9191" opacity="1.00" d=" M 138.43 196.41 C 140.86 197.65 142.40 199.90 143.95 202.05 C 146.60 205.97 151.91 207.04 154.17 211.32 C 151.23 209.55 148.34 207.71 145.43 205.90 C 145.22 206.68 144.82 208.23 144.62 209.00 C 141.20 205.66 138.95 201.17 138.43 196.41 Z" />
<path fill="#9a9191" opacity="1.00" d=" M 28.06 214.99 C 30.05 213.16 32.01 211.29 33.88 209.33 C 32.69 213.79 28.88 216.65 26.43 220.36 C 22.60 226.18 18.27 232.00 12.22 235.68 C 13.27 233.48 14.19 231.22 15.28 229.05 C 15.49 228.78 15.90 228.24 16.10 227.97 C 20.48 223.08 24.36 217.80 28.41 212.64 C 28.32 213.23 28.14 214.40 28.06 214.99 Z" />
</g>
<g id="#efeef1ff">
<path fill="#efeef1" opacity="1.00" d=" M 137.20 60.36 C 136.50 53.80 141.74 49.36 145.87 45.19 C 146.77 46.07 147.67 46.95 148.58 47.83 C 143.95 51.30 142.59 57.90 137.20 60.36 Z" />
<path fill="#efeef1" opacity="1.00" d=" M 37.35 70.54 C 40.10 66.94 42.44 63.04 45.15 59.40 C 44.82 61.32 44.49 63.24 44.18 65.16 C 42.94 68.64 41.70 72.11 40.49 75.60 C 39.50 75.60 38.51 75.60 37.52 75.59 C 37.47 73.91 37.42 72.22 37.35 70.54 Z" />
<path fill="#efeef1" opacity="1.00" d=" M 129.57 74.05 C 129.72 71.35 131.67 69.32 133.14 67.23 C 136.57 69.10 134.80 72.79 133.55 75.47 C 131.13 80.51 131.59 86.72 127.70 91.06 C 127.24 85.30 128.90 79.71 129.57 74.05 Z" />
<path fill="#efeef1" opacity="1.00" d=" M 34.23 85.48 C 35.26 85.44 37.33 85.37 38.36 85.33 C 39.21 88.06 40.01 90.81 40.93 93.52 L 41.42 93.54 L 42.23 93.56 C 42.52 95.14 42.46 97.09 44.20 97.84 C 45.38 99.21 46.68 100.52 47.55 102.12 C 48.10 103.90 48.59 105.71 49.03 107.53 C 42.53 105.71 39.08 99.54 35.85 94.17 C 34.93 91.35 34.31 88.45 34.23 85.48 Z" />
<path fill="#efeef1" opacity="1.00" d=" M 124.04 111.56 C 127.09 110.98 130.22 111.43 133.30 111.44 C 135.47 113.48 137.57 115.61 139.61 117.78 C 139.53 122.19 140.18 126.65 139.50 131.03 C 138.33 134.00 135.85 136.13 133.71 138.40 C 128.87 139.35 123.88 140.30 118.95 139.43 C 114.91 137.50 110.49 133.60 111.45 128.61 C 111.80 128.01 112.16 127.41 112.53 126.82 C 113.96 124.29 114.33 121.34 114.69 118.50 C 117.33 115.64 120.34 112.95 124.04 111.56 Z" />
<path fill="#efeef1" opacity="1.00" d=" M 30.54 175.03 C 29.40 165.47 31.99 155.60 37.55 147.76 C 38.30 147.62 39.81 147.34 40.56 147.20 C 40.53 148.30 40.47 150.48 40.44 151.57 C 39.68 153.43 38.93 155.29 38.34 157.21 C 36.00 164.76 38.37 172.81 37.41 180.57 C 35.91 180.51 34.40 180.45 32.90 180.38 C 32.21 178.55 31.37 176.79 30.54 175.03 Z" />
<path fill="#efeef1" opacity="1.00" d=" M 37.58 194.05 C 37.53 190.98 34.06 185.49 39.28 185.22 C 41.07 187.03 40.45 189.76 40.59 192.06 C 40.90 197.79 37.20 202.54 35.31 207.69 C 34.84 208.24 34.37 208.79 33.88 209.33 C 32.01 211.29 30.05 213.16 28.06 214.99 C 28.14 214.40 28.32 213.23 28.41 212.64 C 31.83 206.69 37.09 201.18 37.58 194.05 Z" />
<path fill="#efeef1" opacity="1.00" d=" M 145.43 205.90 C 148.34 207.71 151.23 209.55 154.17 211.32 C 157.31 213.47 160.96 214.67 164.58 215.71 C 164.64 217.08 164.70 218.45 164.72 219.83 C 156.42 220.40 150.25 214.14 144.62 209.00 C 144.82 208.23 145.22 206.68 145.43 205.90 Z" />
<path fill="#efeef1" opacity="1.00" d=" M 175.92 214.40 C 179.93 212.21 184.49 211.38 188.58 209.33 C 192.88 207.81 197.29 209.37 201.63 209.79 C 202.44 210.90 203.24 212.01 204.04 213.14 C 202.66 212.20 201.30 211.23 199.96 210.25 C 197.70 210.40 195.39 210.45 193.27 211.35 C 192.04 211.78 190.85 212.30 189.65 212.78 C 187.18 214.24 184.68 215.68 182.32 217.32 C 179.39 218.17 176.39 218.64 173.54 217.25 C 173.58 216.40 173.62 215.56 173.66 214.72 C 174.22 214.64 175.35 214.48 175.92 214.40 Z" />
</g>
<g id="#a51010ff">
<path fill="#a51010" opacity="1.00" d=" M 170.06 69.92 C 174.12 68.82 177.79 65.30 182.18 67.17 C 183.28 69.13 184.44 71.05 185.57 72.98 C 182.38 85.80 174.99 97.63 164.45 105.69 C 160.97 108.20 158.40 111.75 154.81 114.12 C 150.66 116.88 146.75 120.45 141.59 121.09 C 141.33 123.42 140.96 125.97 142.40 128.03 C 143.95 131.38 147.94 132.07 150.72 134.05 C 156.96 138.49 163.89 142.23 168.79 148.27 C 173.99 154.84 178.52 162.06 181.31 169.99 C 181.74 172.66 182.29 175.98 180.23 178.15 C 178.66 179.73 176.26 180.88 174.02 180.22 C 169.26 178.93 164.12 178.02 160.23 174.76 C 156.66 171.80 151.96 170.59 148.59 167.35 C 144.29 163.40 140.15 159.14 137.30 154.00 C 134.96 149.58 131.71 145.46 131.19 140.31 C 127.57 140.62 123.92 140.86 120.31 140.32 C 120.52 140.63 120.96 141.23 121.17 141.54 C 118.56 146.44 115.77 151.28 112.74 155.93 C 104.35 166.03 93.56 173.92 82.09 180.21 C 78.59 182.26 74.07 183.62 70.22 181.85 C 66.56 180.04 67.17 175.43 67.73 172.08 C 69.66 165.66 73.71 160.16 77.84 154.98 C 81.35 150.16 86.20 146.59 90.08 142.09 C 93.54 140.04 96.50 137.26 99.96 135.20 C 103.78 132.98 107.04 129.69 111.45 128.61 C 110.49 133.60 114.91 137.50 118.95 139.43 C 123.88 140.30 128.87 139.35 133.71 138.40 C 135.85 136.13 138.33 134.00 139.50 131.03 C 140.18 126.65 139.53 122.19 139.61 117.78 C 137.57 115.61 135.47 113.48 133.30 111.44 C 130.22 111.43 127.09 110.98 124.04 111.56 C 120.34 112.95 117.33 115.64 114.69 118.50 C 114.33 121.34 113.96 124.29 112.53 126.82 C 112.74 125.52 112.98 124.24 113.24 122.95 C 112.92 121.96 112.61 120.97 112.29 119.98 C 108.22 119.32 104.65 117.17 101.18 115.07 C 93.37 109.87 86.02 103.48 81.94 94.84 C 78.83 88.42 72.73 82.68 73.61 74.97 C 74.41 69.66 81.20 67.83 85.30 70.65 C 89.60 73.44 94.61 74.97 98.64 78.19 C 106.17 82.96 111.25 90.43 117.00 97.04 C 120.24 100.69 122.23 105.19 124.76 109.31 C 127.02 109.43 129.29 109.57 131.55 109.71 C 132.90 104.91 135.47 100.52 139.05 97.06 C 143.21 92.86 146.52 87.84 151.24 84.21 C 157.38 79.30 162.44 72.69 170.06 69.92 Z" />
</g>
</svg>
